%TF.GenerationSoftware,KiCad,Pcbnew,10.0.2*%
%TF.CreationDate,2026-06-07T19:31:00-04:00*%
%TF.ProjectId,StrainGaugeDAQ,53747261-696e-4476-9175-67654441512e,rev?*%
%TF.SameCoordinates,Original*%
%TF.FileFunction,Copper,L1,Top*%
%TF.FilePolarity,Positive*%
%FSLAX46Y46*%
G04 Gerber Fmt 4.6, Leading zero omitted, Abs format (unit mm)*
G04 Created by KiCad (PCBNEW 10.0.2) date 2026-06-07 19:31:00*
%MOMM*%
%LPD*%
G01*
G04 APERTURE LIST*
G04 Aperture macros list*
%AMRoundRect*
0 Rectangle with rounded corners*
0 $1 Rounding radius*
0 $2 $3 $4 $5 $6 $7 $8 $9 X,Y pos of 4 corners*
0 Add a 4 corners polygon primitive as box body*
4,1,4,$2,$3,$4,$5,$6,$7,$8,$9,$2,$3,0*
0 Add four circle primitives for the rounded corners*
1,1,$1+$1,$2,$3*
1,1,$1+$1,$4,$5*
1,1,$1+$1,$6,$7*
1,1,$1+$1,$8,$9*
0 Add four rect primitives between the rounded corners*
20,1,$1+$1,$2,$3,$4,$5,0*
20,1,$1+$1,$4,$5,$6,$7,0*
20,1,$1+$1,$6,$7,$8,$9,0*
20,1,$1+$1,$8,$9,$2,$3,0*%
G04 Aperture macros list end*
%TA.AperFunction,SMDPad,CuDef*%
%ADD10RoundRect,0.225000X0.225000X0.250000X-0.225000X0.250000X-0.225000X-0.250000X0.225000X-0.250000X0*%
%TD*%
%TA.AperFunction,SMDPad,CuDef*%
%ADD11RoundRect,0.125000X-0.537500X-0.125000X0.537500X-0.125000X0.537500X0.125000X-0.537500X0.125000X0*%
%TD*%
%TA.AperFunction,SMDPad,CuDef*%
%ADD12RoundRect,0.300000X-1.200000X-0.700000X1.200000X-0.700000X1.200000X0.700000X-1.200000X0.700000X0*%
%TD*%
%TA.AperFunction,SMDPad,CuDef*%
%ADD13RoundRect,0.300000X1.200000X0.700000X-1.200000X0.700000X-1.200000X-0.700000X1.200000X-0.700000X0*%
%TD*%
%TA.AperFunction,SMDPad,CuDef*%
%ADD14RoundRect,0.200000X0.200000X0.275000X-0.200000X0.275000X-0.200000X-0.275000X0.200000X-0.275000X0*%
%TD*%
%TA.AperFunction,SMDPad,CuDef*%
%ADD15RoundRect,0.225000X-0.225000X-0.250000X0.225000X-0.250000X0.225000X0.250000X-0.225000X0.250000X0*%
%TD*%
%TA.AperFunction,SMDPad,CuDef*%
%ADD16RoundRect,0.150000X0.512500X0.150000X-0.512500X0.150000X-0.512500X-0.150000X0.512500X-0.150000X0*%
%TD*%
%TA.AperFunction,SMDPad,CuDef*%
%ADD17RoundRect,0.200000X-0.200000X-0.275000X0.200000X-0.275000X0.200000X0.275000X-0.200000X0.275000X0*%
%TD*%
%TA.AperFunction,SMDPad,CuDef*%
%ADD18RoundRect,0.150000X-0.150000X0.512500X-0.150000X-0.512500X0.150000X-0.512500X0.150000X0.512500X0*%
%TD*%
%TA.AperFunction,SMDPad,CuDef*%
%ADD19R,1.150000X3.600000*%
%TD*%
%TA.AperFunction,SMDPad,CuDef*%
%ADD20RoundRect,0.218750X-0.256250X0.218750X-0.256250X-0.218750X0.256250X-0.218750X0.256250X0.218750X0*%
%TD*%
%TA.AperFunction,SMDPad,CuDef*%
%ADD21RoundRect,0.200000X-0.275000X0.200000X-0.275000X-0.200000X0.275000X-0.200000X0.275000X0.200000X0*%
%TD*%
%TA.AperFunction,ComponentPad*%
%ADD22R,1.700000X1.700000*%
%TD*%
%TA.AperFunction,ComponentPad*%
%ADD23C,1.700000*%
%TD*%
%TA.AperFunction,SMDPad,CuDef*%
%ADD24RoundRect,0.087500X-0.250000X-0.087500X0.250000X-0.087500X0.250000X0.087500X-0.250000X0.087500X0*%
%TD*%
%TA.AperFunction,SMDPad,CuDef*%
%ADD25RoundRect,0.050000X-0.312500X-0.050000X0.312500X-0.050000X0.312500X0.050000X-0.312500X0.050000X0*%
%TD*%
%TA.AperFunction,SMDPad,CuDef*%
%ADD26RoundRect,0.050000X-0.050000X-0.312500X0.050000X-0.312500X0.050000X0.312500X-0.050000X0.312500X0*%
%TD*%
%TA.AperFunction,HeatsinkPad*%
%ADD27R,1.850000X1.850000*%
%TD*%
%TA.AperFunction,ViaPad*%
%ADD28C,0.600000*%
%TD*%
%TA.AperFunction,Conductor*%
%ADD29C,0.200000*%
%TD*%
%TA.AperFunction,Conductor*%
%ADD30C,0.381000*%
%TD*%
%TA.AperFunction,Conductor*%
%ADD31C,0.635000*%
%TD*%
%TA.AperFunction,Conductor*%
%ADD32C,0.254000*%
%TD*%
G04 APERTURE END LIST*
D10*
%TO.P,C12,1*%
%TO.N,/Amp3/Vout*%
X149630400Y-98298000D03*
%TO.P,C12,2*%
%TO.N,GND*%
X148080400Y-98298000D03*
%TD*%
D11*
%TO.P,U5,1,GS_1*%
%TO.N,unconnected-(U5-GS-Pad1)*%
X143744100Y-104690900D03*
%TO.P,U5,2,IN-_2*%
%TO.N,/Amp4/In+*%
X143744100Y-105340900D03*
%TO.P,U5,3,IN+_3*%
%TO.N,Net-(U5-IN+)*%
X143744100Y-105990900D03*
%TO.P,U5,4,V-_4*%
%TO.N,GND*%
X143744100Y-106640900D03*
%TO.P,U5,5,REF_5*%
%TO.N,Net-(U5-REF)*%
X146019100Y-106640900D03*
%TO.P,U5,6,OUT_6*%
%TO.N,Net-(U5-OUT)*%
X146019100Y-105990900D03*
%TO.P,U5,7,V+_7*%
%TO.N,AVDD*%
X146019100Y-105340900D03*
%TO.P,U5,8,\u002ASHDN_8*%
X146019100Y-104690900D03*
%TD*%
D12*
%TO.P,J5,1,Pin_1_1*%
%TO.N,GND*%
X169722800Y-78127600D03*
%TO.P,J5,2,Pin_2_2*%
%TO.N,/PD/VCC*%
X169722800Y-81127600D03*
%TD*%
D13*
%TO.P,J1,1,Pin_1_1*%
%TO.N,GND*%
X136323200Y-82956400D03*
%TO.P,J1,2,Pin_2_2*%
%TO.N,/Amp1/In+*%
X136323200Y-79956400D03*
%TD*%
D14*
%TO.P,R26,1*%
%TO.N,Net-(U5-IN+)*%
X141896600Y-106756800D03*
%TO.P,R26,2*%
%TO.N,GND*%
X140246600Y-106756800D03*
%TD*%
%TO.P,R18,1*%
%TO.N,Net-(U4-IN+)*%
X141998200Y-98298000D03*
%TO.P,R18,2*%
%TO.N,GND*%
X140348200Y-98298000D03*
%TD*%
%TO.P,R11,1*%
%TO.N,AVDD*%
X142186800Y-88036400D03*
%TO.P,R11,2*%
%TO.N,/Amp2/In+*%
X140536800Y-88036400D03*
%TD*%
%TO.P,R24,1*%
%TO.N,/Amp3/Vout*%
X149681200Y-96774000D03*
%TO.P,R24,2*%
%TO.N,Net-(U4-OUT)*%
X148031200Y-96774000D03*
%TD*%
D15*
%TO.P,C22,1*%
%TO.N,Net-(U6-EN)*%
X168947800Y-87426800D03*
%TO.P,C22,2*%
%TO.N,GND*%
X170497800Y-87426800D03*
%TD*%
D10*
%TO.P,C16,1*%
%TO.N,/Amp4/Vout*%
X149517400Y-106655200D03*
%TO.P,C16,2*%
%TO.N,GND*%
X147967400Y-106655200D03*
%TD*%
D13*
%TO.P,J4,1,Pin_1_1*%
%TO.N,GND*%
X136323200Y-107393200D03*
%TO.P,J4,2,Pin_2_2*%
%TO.N,/Amp4/In+*%
X136323200Y-104393200D03*
%TD*%
D14*
%TO.P,R41,1*%
%TO.N,Net-(J6-Pin_5)*%
X167245800Y-100025200D03*
%TO.P,R41,2*%
%TO.N,Net-(U2-\u002AIRQ{slash}MDAT)*%
X165595800Y-100025200D03*
%TD*%
D16*
%TO.P,U8,1,VIN_1*%
%TO.N,5V*%
X161106700Y-80756800D03*
%TO.P,U8,2,GND_2*%
%TO.N,GND*%
X161106700Y-79806800D03*
%TO.P,U8,3,EN_3*%
%TO.N,5V*%
X161106700Y-78856800D03*
%TO.P,U8,4,NC_4*%
%TO.N,unconnected-(U8-NC-Pad4)*%
X158831700Y-78856800D03*
%TO.P,U8,5,VOUT_5*%
%TO.N,AVDD*%
X158831700Y-80756800D03*
%TD*%
D17*
%TO.P,R38,1*%
%TO.N,Net-(U2-SDI)*%
X165595800Y-103073200D03*
%TO.P,R38,2*%
%TO.N,Net-(J6-Pin_3)*%
X167245800Y-103073200D03*
%TD*%
D15*
%TO.P,C28,1*%
%TO.N,5V*%
X161213200Y-83820000D03*
%TO.P,C28,2*%
%TO.N,GND*%
X162763200Y-83820000D03*
%TD*%
%TO.P,C24,1*%
%TO.N,Net-(U6-SW)*%
X167474600Y-92506800D03*
%TO.P,C24,2*%
%TO.N,Net-(U6-BST)*%
X169024600Y-92506800D03*
%TD*%
D14*
%TO.P,R32,1*%
%TO.N,/Amp4/Vout*%
X149568200Y-105131200D03*
%TO.P,R32,2*%
%TO.N,Net-(U5-OUT)*%
X147918200Y-105131200D03*
%TD*%
%TO.P,R27,1*%
%TO.N,AVDD*%
X141896600Y-104369200D03*
%TO.P,R27,2*%
%TO.N,/Amp4/In+*%
X140246600Y-104369200D03*
%TD*%
D13*
%TO.P,J2,1,Pin_1_1*%
%TO.N,GND*%
X136296400Y-91036400D03*
%TO.P,J2,2,Pin_2_2*%
%TO.N,/Amp2/In+*%
X136296400Y-88036400D03*
%TD*%
D18*
%TO.P,U7,1,VIN_1*%
%TO.N,5V*%
X160577700Y-90099300D03*
%TO.P,U7,2,GND_2*%
%TO.N,GND*%
X159627700Y-90099300D03*
%TO.P,U7,3,EN_3*%
%TO.N,5V*%
X158677700Y-90099300D03*
%TO.P,U7,4,NC_4*%
%TO.N,unconnected-(U7-NC-Pad4)*%
X158677700Y-92374300D03*
%TO.P,U7,5,VOUT_5*%
%TO.N,DVDD*%
X160577700Y-92374300D03*
%TD*%
D15*
%TO.P,C33,1*%
%TO.N,DVDD*%
X160718200Y-94081600D03*
%TO.P,C33,2*%
%TO.N,GND*%
X162268200Y-94081600D03*
%TD*%
D14*
%TO.P,R10,1*%
%TO.N,Net-(U3-IN+)*%
X142186800Y-90424000D03*
%TO.P,R10,2*%
%TO.N,GND*%
X140536800Y-90424000D03*
%TD*%
D19*
%TO.P,L1,1,1_1*%
%TO.N,Net-(U6-SW)*%
X167288000Y-89357200D03*
%TO.P,L1,2,2_2*%
%TO.N,5V*%
X164338000Y-89357200D03*
%TD*%
D20*
%TO.P,FB1,1*%
%TO.N,/PD/VCC*%
X167436800Y-84302500D03*
%TO.P,FB1,2*%
%TO.N,Net-(U6-EN)*%
X167436800Y-85877500D03*
%TD*%
D17*
%TO.P,R37,1*%
%TO.N,Net-(U2-SCK)*%
X165595800Y-104597200D03*
%TO.P,R37,2*%
%TO.N,Net-(J6-Pin_2)*%
X167245800Y-104597200D03*
%TD*%
D14*
%TO.P,R3,1*%
%TO.N,Net-(U1-IN+)*%
X142264400Y-82296000D03*
%TO.P,R3,2*%
%TO.N,GND*%
X140614400Y-82296000D03*
%TD*%
D21*
%TO.P,R40,1*%
%TO.N,DVDD*%
X165658800Y-96914200D03*
%TO.P,R40,2*%
%TO.N,Net-(U2-\u002AIRQ{slash}MDAT)*%
X165658800Y-98564200D03*
%TD*%
D13*
%TO.P,J3,1,Pin_1_1*%
%TO.N,GND*%
X136323200Y-98832800D03*
%TO.P,J3,2,Pin_2_2*%
%TO.N,/Amp3/In+*%
X136323200Y-95832800D03*
%TD*%
D15*
%TO.P,C35,1*%
%TO.N,DVDD*%
X160718200Y-95605600D03*
%TO.P,C35,2*%
%TO.N,GND*%
X162268200Y-95605600D03*
%TD*%
D22*
%TO.P,J6,1,Pin_1_1*%
%TO.N,Net-(J6-Pin_1)*%
X169773600Y-106680000D03*
D23*
%TO.P,J6,2,Pin_2_2*%
%TO.N,Net-(J6-Pin_2)*%
X169773600Y-104140000D03*
%TO.P,J6,3,Pin_3_3*%
%TO.N,Net-(J6-Pin_3)*%
X169773600Y-101600000D03*
%TO.P,J6,4,Pin_4_4*%
%TO.N,Net-(J6-Pin_4)*%
X169773600Y-99060000D03*
%TO.P,J6,5,Pin_5_5*%
%TO.N,Net-(J6-Pin_5)*%
X169773600Y-96520000D03*
%TD*%
D14*
%TO.P,R8,1*%
%TO.N,/Amp1/Vout*%
X150024600Y-80975200D03*
%TO.P,R8,2*%
%TO.N,Net-(U1-OUT)*%
X148374600Y-80975200D03*
%TD*%
D15*
%TO.P,C21,1*%
%TO.N,Net-(U6-EN)*%
X168947800Y-88950800D03*
%TO.P,C21,2*%
%TO.N,GND*%
X170497800Y-88950800D03*
%TD*%
D11*
%TO.P,U4,1,GS_1*%
%TO.N,unconnected-(U4-GS-Pad1)*%
X143947300Y-96232100D03*
%TO.P,U4,2,IN-_2*%
%TO.N,/Amp3/In+*%
X143947300Y-96882100D03*
%TO.P,U4,3,IN+_3*%
%TO.N,Net-(U4-IN+)*%
X143947300Y-97532100D03*
%TO.P,U4,4,V-_4*%
%TO.N,GND*%
X143947300Y-98182100D03*
%TO.P,U4,5,REF_5*%
%TO.N,Net-(U4-REF)*%
X146222300Y-98182100D03*
%TO.P,U4,6,OUT_6*%
%TO.N,Net-(U4-OUT)*%
X146222300Y-97532100D03*
%TO.P,U4,7,V+_7*%
%TO.N,AVDD*%
X146222300Y-96882100D03*
%TO.P,U4,8,\u002ASHDN_8*%
X146222300Y-96232100D03*
%TD*%
D15*
%TO.P,C23,1*%
%TO.N,Net-(U6-EN)*%
X168947800Y-85902800D03*
%TO.P,C23,2*%
%TO.N,GND*%
X170497800Y-85902800D03*
%TD*%
D14*
%TO.P,R1,1*%
%TO.N,AVDD*%
X142252200Y-79959200D03*
%TO.P,R1,2*%
%TO.N,/Amp1/In+*%
X140602200Y-79959200D03*
%TD*%
D17*
%TO.P,R36,1*%
%TO.N,Net-(U2-\u002ACS)*%
X165595800Y-106121200D03*
%TO.P,R36,2*%
%TO.N,Net-(J6-Pin_1)*%
X167245800Y-106121200D03*
%TD*%
D14*
%TO.P,R39,1*%
%TO.N,Net-(J6-Pin_4)*%
X167245800Y-101549200D03*
%TO.P,R39,2*%
%TO.N,Net-(U2-SDO)*%
X165595800Y-101549200D03*
%TD*%
D15*
%TO.P,C29,1*%
%TO.N,5V*%
X161213200Y-82296000D03*
%TO.P,C29,2*%
%TO.N,GND*%
X162763200Y-82296000D03*
%TD*%
D24*
%TO.P,U6,1,VIN_1*%
%TO.N,Net-(U6-EN)*%
X168707300Y-90266600D03*
%TO.P,U6,2,SW_2*%
%TO.N,Net-(U6-SW)*%
X168707300Y-90766600D03*
%TO.P,U6,3,GND_3*%
%TO.N,GND*%
X168707300Y-91266600D03*
%TO.P,U6,4,BST_4*%
%TO.N,Net-(U6-BST)*%
X170132300Y-91266600D03*
%TO.P,U6,5,EN_5*%
%TO.N,Net-(U6-EN)*%
X170132300Y-90766600D03*
%TO.P,U6,6,FB_6*%
%TO.N,Net-(U6-FB)*%
X170132300Y-90266600D03*
%TD*%
D10*
%TO.P,C4,1*%
%TO.N,/Amp1/Vout*%
X149974600Y-82499200D03*
%TO.P,C4,2*%
%TO.N,GND*%
X148424600Y-82499200D03*
%TD*%
%TO.P,C8,1*%
%TO.N,/Amp2/Vout*%
X149959200Y-90322400D03*
%TO.P,C8,2*%
%TO.N,GND*%
X148409200Y-90322400D03*
%TD*%
D25*
%TO.P,U2,1,REFIN-_1*%
%TO.N,GND*%
X158532500Y-102273200D03*
%TO.P,U2,2,REFIN+/OUT_2*%
%TO.N,AVDD*%
X158532500Y-102673200D03*
%TO.P,U2,3,CH0_3*%
%TO.N,/Amp1/Vout*%
X158532500Y-103073200D03*
%TO.P,U2,4,CH1_4*%
%TO.N,/Amp2/Vout*%
X158532500Y-103473200D03*
%TO.P,U2,5,CH2_5*%
%TO.N,/Amp3/Vout*%
X158532500Y-103873200D03*
D26*
%TO.P,U2,6,CH3_6*%
%TO.N,/Amp4/Vout*%
X159220000Y-104560700D03*
%TO.P,U2,7,NC_7*%
%TO.N,unconnected-(U2-NC-Pad7)*%
X159620000Y-104560700D03*
%TO.P,U2,8,NC_8*%
%TO.N,unconnected-(U2-NC-Pad8)*%
X160020000Y-104560700D03*
%TO.P,U2,9,NC_9*%
%TO.N,unconnected-(U2-NC-Pad9)*%
X160420000Y-104560700D03*
%TO.P,U2,10,NC_10*%
%TO.N,unconnected-(U2-NC-Pad10)*%
X160820000Y-104560700D03*
D25*
%TO.P,U2,11,\u002ACS_11*%
%TO.N,Net-(U2-\u002ACS)*%
X161507500Y-103873200D03*
%TO.P,U2,12,SCK_12*%
%TO.N,Net-(U2-SCK)*%
X161507500Y-103473200D03*
%TO.P,U2,13,SDI_13*%
%TO.N,Net-(U2-SDI)*%
X161507500Y-103073200D03*
%TO.P,U2,14,SDO_14*%
%TO.N,Net-(U2-SDO)*%
X161507500Y-102673200D03*
%TO.P,U2,15,\u002AIRQ/MDAT_15*%
%TO.N,Net-(U2-\u002AIRQ{slash}MDAT)*%
X161507500Y-102273200D03*
D26*
%TO.P,U2,16,MCLK_16*%
%TO.N,unconnected-(U2-MCLK-Pad16)*%
X160820000Y-101585700D03*
%TO.P,U2,17,DGND_17*%
%TO.N,GND*%
X160420000Y-101585700D03*
%TO.P,U2,18,DVDD_18*%
%TO.N,DVDD*%
X160020000Y-101585700D03*
%TO.P,U2,19,AVDD_19*%
%TO.N,AVDD*%
X159620000Y-101585700D03*
%TO.P,U2,20,AGND_20*%
%TO.N,GND*%
X159220000Y-101585700D03*
D27*
%TO.P,U2,21,GND_21*%
X160020000Y-103073200D03*
%TD*%
D14*
%TO.P,R16,1*%
%TO.N,/Amp2/Vout*%
X150010000Y-88798400D03*
%TO.P,R16,2*%
%TO.N,Net-(U3-OUT)*%
X148360000Y-88798400D03*
%TD*%
%TO.P,R19,1*%
%TO.N,AVDD*%
X141998200Y-95859600D03*
%TO.P,R19,2*%
%TO.N,/Amp3/In+*%
X140348200Y-95859600D03*
%TD*%
D11*
%TO.P,U1,1,GS_1*%
%TO.N,unconnected-(U1-GS-Pad1)*%
X144048900Y-80274400D03*
%TO.P,U1,2,IN-_2*%
%TO.N,/Amp1/In+*%
X144048900Y-80924400D03*
%TO.P,U1,3,IN+_3*%
%TO.N,Net-(U1-IN+)*%
X144048900Y-81574400D03*
%TO.P,U1,4,V-_4*%
%TO.N,GND*%
X144048900Y-82224400D03*
%TO.P,U1,5,REF_5*%
%TO.N,Net-(U1-REF)*%
X146323900Y-82224400D03*
%TO.P,U1,6,OUT_6*%
%TO.N,Net-(U1-OUT)*%
X146323900Y-81574400D03*
%TO.P,U1,7,V+_7*%
%TO.N,AVDD*%
X146323900Y-80924400D03*
%TO.P,U1,8,\u002ASHDN_8*%
X146323900Y-80274400D03*
%TD*%
%TO.P,U3,1,GS_1*%
%TO.N,unconnected-(U3-GS-Pad1)*%
X144099700Y-88270800D03*
%TO.P,U3,2,IN-_2*%
%TO.N,/Amp2/In+*%
X144099700Y-88920800D03*
%TO.P,U3,3,IN+_3*%
%TO.N,Net-(U3-IN+)*%
X144099700Y-89570800D03*
%TO.P,U3,4,V-_4*%
%TO.N,GND*%
X144099700Y-90220800D03*
%TO.P,U3,5,REF_5*%
%TO.N,Net-(U3-REF)*%
X146374700Y-90220800D03*
%TO.P,U3,6,OUT_6*%
%TO.N,Net-(U3-OUT)*%
X146374700Y-89570800D03*
%TO.P,U3,7,V+_7*%
%TO.N,AVDD*%
X146374700Y-88920800D03*
%TO.P,U3,8,\u002ASHDN_8*%
X146374700Y-88270800D03*
%TD*%
D28*
%TO.N,GND*%
X138352400Y-90474800D03*
X143232000Y-107417200D03*
X138355200Y-106858400D03*
X135788400Y-100380800D03*
X171500800Y-87426800D03*
X163830000Y-83820000D03*
X170535600Y-76579600D03*
X143611600Y-90932000D03*
X168960800Y-76579600D03*
X148082000Y-99618800D03*
X147956400Y-107823600D03*
X159156400Y-91287600D03*
X167690800Y-78154400D03*
X138352400Y-91490800D03*
X148410800Y-91236800D03*
X160657065Y-102438028D03*
X169906838Y-91941599D03*
X159969200Y-79349600D03*
X163423600Y-95605600D03*
X138379200Y-82397600D03*
X138355200Y-107874400D03*
X171500800Y-85902800D03*
X159911866Y-103701039D03*
X162763200Y-81178400D03*
X162255200Y-92862400D03*
X144729200Y-90932000D03*
X144678400Y-83007200D03*
X144349600Y-107417200D03*
X137007600Y-84480400D03*
X163830000Y-82296000D03*
X168960800Y-79475200D03*
X159448400Y-102855700D03*
X138379200Y-98298000D03*
X159969200Y-80162400D03*
X135764400Y-108941200D03*
X163372800Y-94081600D03*
X136980800Y-92557600D03*
X138379200Y-99314000D03*
X148437600Y-83566000D03*
X144526000Y-98907600D03*
X137007600Y-100380800D03*
X143510000Y-83007200D03*
X162255200Y-96723200D03*
X135761600Y-92557600D03*
X171500800Y-88950800D03*
X136983600Y-108941200D03*
X143408400Y-98907600D03*
X170535600Y-79475200D03*
X135788400Y-84480400D03*
X162763200Y-84836000D03*
X171754800Y-78154400D03*
X138379200Y-83413600D03*
X160120952Y-91286467D03*
%TO.N,Net-(U5-IN+)*%
X142615100Y-106038300D03*
%TO.N,Net-(U5-REF)*%
X146686400Y-107569600D03*
%TO.N,AVDD*%
X158699200Y-82245200D03*
X154076400Y-100584000D03*
X145186400Y-86156800D03*
X157734000Y-82245200D03*
X144830800Y-102666800D03*
X159397600Y-100061700D03*
X147218400Y-102666800D03*
X142443200Y-94183200D03*
X145084800Y-78384400D03*
X159397600Y-98537700D03*
X155346400Y-85953600D03*
X147472400Y-78384400D03*
X155346400Y-93929200D03*
X155930600Y-81457800D03*
X142341600Y-102666800D03*
X142595600Y-78384400D03*
X147320000Y-94183200D03*
X142697200Y-86156800D03*
X147574000Y-86156800D03*
X144932400Y-94183200D03*
%TO.N,Net-(U6-FB)*%
X170942000Y-90266600D03*
%TO.N,Net-(U4-IN+)*%
X142703300Y-97592900D03*
%TO.N,Net-(U4-REF)*%
X146862800Y-99212400D03*
%TO.N,Net-(U3-REF)*%
X147039200Y-91135200D03*
%TO.N,5V*%
X165811200Y-88900000D03*
X165811200Y-90678000D03*
X159918400Y-88747600D03*
X161391600Y-88747600D03*
X165811200Y-89763600D03*
%TO.N,Net-(U1-REF)*%
X147066000Y-83362800D03*
%TO.N,DVDD*%
X160261200Y-98537700D03*
X160261200Y-100061700D03*
%TO.N,Net-(U3-IN+)*%
X143040000Y-89611300D03*
%TO.N,Net-(U1-IN+)*%
X143031752Y-81631377D03*
%TD*%
%TO.N,/Amp3/Vout*%
D29*
X158532500Y-103873200D02*
X155312944Y-103873200D01*
X152304800Y-99066400D02*
X151536400Y-98298000D01*
X149630400Y-98298000D02*
X149630400Y-96824800D01*
X152304800Y-100865056D02*
X152304800Y-99066400D01*
X155312944Y-103873200D02*
X152304800Y-100865056D01*
X151536400Y-98298000D02*
X149630400Y-98298000D01*
X149630400Y-96824800D02*
X149681200Y-96774000D01*
%TO.N,GND*%
D30*
X143510000Y-82763300D02*
X144048900Y-82224400D01*
D31*
X159627700Y-90816300D02*
X159179022Y-91264978D01*
D30*
X143510000Y-83007200D02*
X143510000Y-82763300D01*
X139446000Y-98755200D02*
X138582400Y-98755200D01*
X144678400Y-83007200D02*
X144678400Y-82853900D01*
D31*
X162763200Y-82296000D02*
X162763200Y-81178400D01*
D30*
X144678400Y-82853900D02*
X144048900Y-82224400D01*
D31*
X162268200Y-94081600D02*
X163372800Y-94081600D01*
D29*
X160490538Y-102424638D02*
X160420000Y-102354100D01*
D30*
X140614400Y-82296000D02*
X140055600Y-82296000D01*
D31*
X162268200Y-92875400D02*
X162255200Y-92862400D01*
D30*
X144298800Y-107219600D02*
X143770900Y-106691700D01*
X143232000Y-107417200D02*
X143232000Y-107230600D01*
X143408400Y-98721000D02*
X143947300Y-98182100D01*
D32*
X169048280Y-91268600D02*
X168707300Y-91268600D01*
D31*
X162268200Y-95605600D02*
X162268200Y-96710200D01*
D30*
X143408400Y-98907600D02*
X143408400Y-98721000D01*
X139903200Y-98298000D02*
X139446000Y-98755200D01*
D29*
X160643675Y-102424638D02*
X160490538Y-102424638D01*
X159448400Y-102500100D02*
X159221500Y-102273200D01*
D32*
X169721279Y-91941599D02*
X169048280Y-91268600D01*
D31*
X162268200Y-94081600D02*
X162268200Y-92875400D01*
X159969200Y-80162400D02*
X159969200Y-79349600D01*
D30*
X140055600Y-82296000D02*
X139395200Y-82956400D01*
X143232000Y-107230600D02*
X143770900Y-106691700D01*
X144729200Y-90932000D02*
X144729200Y-90850300D01*
X139828400Y-106756800D02*
X139218800Y-107366400D01*
X139218800Y-107366400D02*
X138456800Y-107366400D01*
D31*
X147967400Y-106655200D02*
X147967400Y-107812600D01*
D30*
X143611600Y-90708900D02*
X144099700Y-90220800D01*
D31*
X162763200Y-83820000D02*
X162763200Y-84836000D01*
X148080400Y-99617200D02*
X148082000Y-99618800D01*
X148424600Y-82892600D02*
X148424600Y-82499200D01*
X159627700Y-90793215D02*
X160087921Y-91253436D01*
D30*
X140348200Y-98298000D02*
X139903200Y-98298000D01*
X144526000Y-98907600D02*
X144475200Y-98856800D01*
X144729200Y-90850300D02*
X144099700Y-90220800D01*
D31*
X160324800Y-79806800D02*
X161106700Y-79806800D01*
D30*
X144349600Y-107417200D02*
X144298800Y-107366400D01*
D31*
X148080400Y-98298000D02*
X148080400Y-99617200D01*
D30*
X139774800Y-90424000D02*
X139216000Y-90982800D01*
D29*
X159220000Y-102271700D02*
X159220000Y-101585700D01*
D30*
X139395200Y-82956400D02*
X138430000Y-82956400D01*
D29*
X159221500Y-102273200D02*
X158532500Y-102273200D01*
D31*
X160426400Y-79806800D02*
X161106700Y-79806800D01*
D30*
X139216000Y-90982800D02*
X138555600Y-90982800D01*
D31*
X162268200Y-96710200D02*
X162255200Y-96723200D01*
X148437600Y-82905600D02*
X148424600Y-82892600D01*
D29*
X159448400Y-102855700D02*
X159448400Y-102500100D01*
D31*
X162268200Y-95605600D02*
X163423600Y-95605600D01*
D30*
X144298800Y-107366400D02*
X144298800Y-107219600D01*
X144475200Y-98856800D02*
X144475200Y-98710000D01*
D29*
X160420000Y-102354100D02*
X160420000Y-101585700D01*
X159448400Y-102500100D02*
X159220000Y-102271700D01*
D31*
X159627700Y-90099300D02*
X159627700Y-90793215D01*
D30*
X143611600Y-90932000D02*
X143611600Y-90708900D01*
D31*
X147967400Y-107812600D02*
X147956400Y-107823600D01*
X148409200Y-90322400D02*
X148409200Y-91235200D01*
X148437600Y-83566000D02*
X148437600Y-82905600D01*
D30*
X140536800Y-90424000D02*
X139774800Y-90424000D01*
D31*
X162763200Y-83820000D02*
X163830000Y-83820000D01*
D30*
X140246600Y-106756800D02*
X139828400Y-106756800D01*
D31*
X159627700Y-90099300D02*
X159627700Y-90816300D01*
X162763200Y-82296000D02*
X163830000Y-82296000D01*
X159969200Y-79349600D02*
X160426400Y-79806800D01*
D29*
X160657065Y-102438028D02*
X160643675Y-102424638D01*
D30*
X144475200Y-98710000D02*
X143947300Y-98182100D01*
D31*
X148409200Y-91235200D02*
X148410800Y-91236800D01*
D32*
X169906838Y-91941599D02*
X169721279Y-91941599D01*
D31*
X159969200Y-80162400D02*
X160324800Y-79806800D01*
%TO.N,/Amp4/In+*%
D30*
X141218300Y-105340900D02*
X140246600Y-104369200D01*
X140246600Y-104369200D02*
X136347200Y-104369200D01*
X136347200Y-104369200D02*
X136323200Y-104393200D01*
X143744100Y-105340900D02*
X141218300Y-105340900D01*
%TO.N,Net-(U5-IN+)*%
X142662500Y-105990900D02*
X142615100Y-106038300D01*
X142615100Y-106038300D02*
X141896600Y-106756800D01*
X143744100Y-105990900D02*
X142662500Y-105990900D01*
%TO.N,Net-(U5-REF)*%
D29*
X146019100Y-106902300D02*
X146686400Y-107569600D01*
X146019100Y-106640900D02*
X146019100Y-106902300D01*
%TO.N,Net-(U5-OUT)*%
X147918200Y-105155096D02*
X147918200Y-105131200D01*
X146019100Y-105990900D02*
X147082396Y-105990900D01*
X147082396Y-105990900D02*
X147918200Y-105155096D01*
%TO.N,AVDD*%
D31*
X156667200Y-96113600D02*
X158597600Y-96113600D01*
X159397600Y-96913600D02*
X159397600Y-98537700D01*
D29*
X159397600Y-100061700D02*
X159397600Y-100904440D01*
D31*
X155244800Y-97536000D02*
X156667200Y-96113600D01*
D29*
X159397600Y-100061700D02*
X159397600Y-98537700D01*
X157870000Y-102469560D02*
X157870000Y-100522500D01*
D31*
X155346400Y-85953600D02*
X155346400Y-93929200D01*
D29*
X158330800Y-100061700D02*
X159397600Y-100061700D01*
X159620000Y-101126840D02*
X159620000Y-101585700D01*
X157870000Y-100522500D02*
X158330800Y-100061700D01*
D31*
X155346400Y-93929200D02*
X155346400Y-94792800D01*
D29*
X158532500Y-102673200D02*
X158073640Y-102673200D01*
D31*
X155346400Y-94792800D02*
X156667200Y-96113600D01*
D29*
X158073640Y-102673200D02*
X157870000Y-102469560D01*
D31*
X155244800Y-99415600D02*
X155244800Y-97536000D01*
D29*
X159397600Y-100904440D02*
X159620000Y-101126840D01*
D31*
X155346400Y-82042000D02*
X155930600Y-81457800D01*
X158831700Y-80756800D02*
X156631600Y-80756800D01*
X154076400Y-100584000D02*
X155244800Y-99415600D01*
X156631600Y-80756800D02*
X155930600Y-81457800D01*
X158597600Y-96113600D02*
X159397600Y-96913600D01*
X155346400Y-85953600D02*
X155346400Y-82042000D01*
%TO.N,/Amp1/In+*%
D30*
X140602200Y-79959200D02*
X136326000Y-79959200D01*
X136326000Y-79959200D02*
X136323200Y-79956400D01*
X144435400Y-80924400D02*
X141567400Y-80924400D01*
X141567400Y-80924400D02*
X140602200Y-79959200D01*
%TO.N,Net-(U6-FB)*%
D29*
X170942000Y-90266600D02*
X170132300Y-90266600D01*
%TO.N,Net-(U4-IN+)*%
D30*
X141998200Y-98298000D02*
X142703300Y-97592900D01*
X142703300Y-97592900D02*
X142764100Y-97532100D01*
X142764100Y-97532100D02*
X143947300Y-97532100D01*
%TO.N,/Amp2/In+*%
X144377700Y-88920800D02*
X141421200Y-88920800D01*
X141421200Y-88920800D02*
X140536800Y-88036400D01*
X140536800Y-88036400D02*
X136296400Y-88036400D01*
%TO.N,Net-(U4-OUT)*%
D29*
X146222300Y-97532100D02*
X147273100Y-97532100D01*
X147273100Y-97532100D02*
X148031200Y-96774000D01*
%TO.N,Net-(U6-EN)*%
X169209800Y-90266600D02*
X168707300Y-90266600D01*
X169709800Y-90766600D02*
X169209800Y-90266600D01*
X170132300Y-90766600D02*
X169709800Y-90766600D01*
%TO.N,/Amp4/Vout*%
X159220000Y-105600400D02*
X159220000Y-104560700D01*
X149517400Y-106655200D02*
X158165200Y-106655200D01*
X149517400Y-106655200D02*
X149517400Y-105182000D01*
X149517400Y-105182000D02*
X149568200Y-105131200D01*
X158165200Y-106655200D02*
X159220000Y-105600400D01*
%TO.N,Net-(U4-REF)*%
X146222300Y-98571900D02*
X146862800Y-99212400D01*
X146222300Y-98182100D02*
X146222300Y-98571900D01*
%TO.N,Net-(J6-Pin_5)*%
X167245800Y-99047800D02*
X169773600Y-96520000D01*
X167245800Y-100025200D02*
X167245800Y-99047800D01*
%TO.N,Net-(U2-\u002AIRQ{slash}MDAT)*%
X165658800Y-99962200D02*
X165595800Y-100025200D01*
X165658800Y-98564200D02*
X165658800Y-99962200D01*
X164134800Y-100025200D02*
X161886800Y-102273200D01*
X165595800Y-100025200D02*
X164134800Y-100025200D01*
X161886800Y-102273200D02*
X161507500Y-102273200D01*
%TO.N,Net-(U3-REF)*%
X146374700Y-90799500D02*
X146710400Y-91135200D01*
X146374700Y-90220800D02*
X146374700Y-90799500D01*
X146710400Y-91135200D02*
X147039200Y-91135200D01*
%TO.N,5V*%
X162069200Y-80147352D02*
X162069200Y-79156801D01*
D31*
X164338000Y-89357200D02*
X163728400Y-88747600D01*
X161213200Y-84505200D02*
X161213200Y-83820000D01*
X160577700Y-90099300D02*
X160577700Y-88748700D01*
D29*
X161106700Y-80756800D02*
X161459752Y-80756800D01*
X158677700Y-89531100D02*
X158677700Y-90099300D01*
D31*
X159918400Y-88747600D02*
X160578800Y-88747600D01*
D29*
X162069200Y-79156801D02*
X161769199Y-78856800D01*
D31*
X161213200Y-83820000D02*
X161213200Y-80863300D01*
D29*
X161769199Y-78856800D02*
X161106700Y-78856800D01*
X159512000Y-88696800D02*
X158677700Y-89531100D01*
X161459752Y-80756800D02*
X162069200Y-80147352D01*
D31*
X160577700Y-88748700D02*
X160578800Y-88747600D01*
D29*
X159867600Y-88696800D02*
X159512000Y-88696800D01*
D31*
X163728400Y-88747600D02*
X160578800Y-88747600D01*
X161213200Y-80863300D02*
X161106700Y-80756800D01*
X164338000Y-87630000D02*
X161213200Y-84505200D01*
X164338000Y-89357200D02*
X164338000Y-87630000D01*
%TO.N,Net-(U2-SDI)*%
D29*
X163798400Y-103073200D02*
X163100377Y-103073200D01*
X163100377Y-103073200D02*
X161507500Y-103073200D01*
X163918400Y-103073200D02*
X163798400Y-103073200D01*
X164518400Y-102409432D02*
X164398400Y-102409432D01*
X164158400Y-102649432D02*
X164158400Y-102833200D01*
X165595800Y-103073200D02*
X164998400Y-103073200D01*
X164758400Y-102833200D02*
X164758400Y-102649432D01*
X164398400Y-102409432D02*
G75*
G03*
X164158432Y-102649432I0J-239968D01*
G01*
X164998400Y-103073200D02*
G75*
G02*
X164758400Y-102833200I0J240000D01*
G01*
X164158400Y-102833200D02*
G75*
G02*
X163918400Y-103073200I-240000J0D01*
G01*
X164758400Y-102649432D02*
G75*
G03*
X164518400Y-102409400I-240000J32D01*
G01*
%TO.N,Net-(J6-Pin_3)*%
X169773600Y-101600000D02*
X169138600Y-102235000D01*
X168318356Y-103055245D02*
X168300400Y-103073200D01*
X167284400Y-103073200D02*
X167245800Y-103073200D01*
X168300400Y-103073200D02*
X167284400Y-103073200D01*
X169138600Y-102721334D02*
X168971644Y-102888291D01*
X168485312Y-102888290D02*
X168318356Y-103055245D01*
X168728478Y-102888290D02*
G75*
G03*
X168485312Y-102888290I-121583J-121584D01*
G01*
X169138599Y-102478168D02*
G75*
G02*
X169138649Y-102721382I-121599J-121632D01*
G01*
X168971644Y-102888291D02*
G75*
G02*
X168728517Y-102888252I-121544J121591D01*
G01*
X169138600Y-102235000D02*
G75*
G03*
X169138583Y-102478183I121600J-121600D01*
G01*
%TO.N,Net-(U6-SW)*%
X168707300Y-90766600D02*
X167856200Y-90766600D01*
X167856200Y-90766600D02*
X167843200Y-90779600D01*
%TO.N,Net-(U6-BST)*%
D30*
X169095949Y-92578149D02*
X170170506Y-92578149D01*
X170543388Y-92205267D02*
X170543388Y-91677688D01*
X170170506Y-92578149D02*
X170543388Y-92205267D01*
X170543388Y-91677688D02*
X170143850Y-91278150D01*
X169024600Y-92506800D02*
X169095949Y-92578149D01*
%TO.N,Net-(U1-REF)*%
D29*
X147066000Y-83362800D02*
X146323900Y-82620700D01*
X146323900Y-82620700D02*
X146323900Y-82224400D01*
%TO.N,DVDD*%
X165658800Y-95392724D02*
X165658800Y-96914200D01*
X160261200Y-98537700D02*
X160261200Y-97420100D01*
X160707100Y-92244900D02*
X162510976Y-92244900D01*
X160020000Y-101585700D02*
X160020000Y-101126840D01*
X160261200Y-100061700D02*
X160261200Y-98537700D01*
D31*
X160577700Y-92374300D02*
X160577700Y-95465100D01*
D29*
X162510976Y-92244900D02*
X165658800Y-95392724D01*
D31*
X160577700Y-95465100D02*
X160718200Y-95605600D01*
D29*
X160020000Y-101126840D02*
X160261200Y-100885640D01*
X160577700Y-92374300D02*
X160707100Y-92244900D01*
X160718200Y-96963100D02*
X160718200Y-95605600D01*
X160261200Y-97420100D02*
X160718200Y-96963100D01*
X160261200Y-100885640D02*
X160261200Y-100061700D01*
%TO.N,Net-(U3-IN+)*%
D30*
X144377700Y-89570800D02*
X143040000Y-89570800D01*
X143040000Y-89570800D02*
X142186800Y-90424000D01*
%TO.N,Net-(U2-SCK)*%
D29*
X165595800Y-104597200D02*
X164998400Y-104597200D01*
X164604252Y-104991348D02*
X164398400Y-104991348D01*
X163798400Y-104597200D02*
X163540606Y-104597200D01*
X163328400Y-104597200D02*
X162204400Y-103473200D01*
X164004252Y-104597200D02*
X163798400Y-104597200D01*
X163540606Y-104597200D02*
X163328400Y-104597200D01*
X162204400Y-103473200D02*
X161507500Y-103473200D01*
X164801326Y-104794274D02*
G75*
G02*
X164604252Y-104991326I-197026J-26D01*
G01*
X164998400Y-104597200D02*
G75*
G03*
X164801300Y-104794274I0J-197100D01*
G01*
X164398400Y-104991348D02*
G75*
G02*
X164201352Y-104794274I0J197048D01*
G01*
X164201326Y-104794274D02*
G75*
G03*
X164004252Y-104597274I-197026J-26D01*
G01*
%TO.N,Net-(J6-Pin_2)*%
X167680800Y-104597200D02*
X167280893Y-104597200D01*
X167280893Y-104597200D02*
X167245800Y-104597200D01*
X168704800Y-104853200D02*
X168704800Y-104995259D01*
X168448800Y-105251259D02*
X168320800Y-105251259D01*
X169316400Y-104597200D02*
X168960800Y-104597200D01*
X169773600Y-104140000D02*
X169316400Y-104597200D01*
X168064800Y-104995259D02*
X168064800Y-104853200D01*
X167808800Y-104597200D02*
X167680800Y-104597200D01*
X168704800Y-104995259D02*
G75*
G02*
X168448800Y-105251300I-256000J-41D01*
G01*
X168960800Y-104597200D02*
G75*
G03*
X168704800Y-104853200I0J-256000D01*
G01*
X168320800Y-105251259D02*
G75*
G02*
X168064841Y-104995259I0J255959D01*
G01*
X168064800Y-104853200D02*
G75*
G03*
X167808800Y-104597200I-256000J0D01*
G01*
%TO.N,Net-(U1-IN+)*%
D30*
X142342729Y-82320400D02*
X142240000Y-82320400D01*
X143031752Y-81631377D02*
X142342729Y-82320400D01*
X142240000Y-82320400D02*
X142986000Y-81574400D01*
X142986000Y-81574400D02*
X144435400Y-81574400D01*
X142240000Y-82320400D02*
X142264400Y-82296000D01*
%TO.N,/Amp3/In+*%
X141370700Y-96882100D02*
X140348200Y-95859600D01*
X136350000Y-95859600D02*
X136323200Y-95832800D01*
X140348200Y-95859600D02*
X136350000Y-95859600D01*
X143947300Y-96882100D02*
X141370700Y-96882100D01*
%TO.N,Net-(J6-Pin_1)*%
D29*
X167608400Y-106121200D02*
X167589200Y-106121200D01*
X167968400Y-106505002D02*
X167968400Y-106361200D01*
X169773600Y-106680000D02*
X169214800Y-106121200D01*
X168328400Y-106745002D02*
X168208400Y-106745002D01*
X167728400Y-106121200D02*
X167608400Y-106121200D01*
X169214800Y-106121200D02*
X168808400Y-106121200D01*
X168568400Y-106361200D02*
X168568400Y-106505002D01*
X167589200Y-106121200D02*
X167245800Y-106121200D01*
X168208400Y-106745002D02*
G75*
G02*
X167968398Y-106505002I0J240002D01*
G01*
X167968400Y-106361200D02*
G75*
G03*
X167728400Y-106121200I-240000J0D01*
G01*
X168808400Y-106121200D02*
G75*
G03*
X168568400Y-106361200I0J-240000D01*
G01*
X168568400Y-106505002D02*
G75*
G02*
X168328400Y-106745000I-240000J2D01*
G01*
%TO.N,Net-(J6-Pin_4)*%
X167245800Y-101549200D02*
X167284400Y-101549200D01*
X167284400Y-101549200D02*
X169773600Y-99060000D01*
%TO.N,/Amp1/Vout*%
X152095200Y-82499200D02*
X153104800Y-83508800D01*
X149974600Y-82499200D02*
X152095200Y-82499200D01*
X150024600Y-80975200D02*
X150024600Y-82449200D01*
X155644314Y-103073200D02*
X158532500Y-103073200D01*
X153104800Y-83508800D02*
X153104800Y-100533686D01*
X153104800Y-100533686D02*
X155644314Y-103073200D01*
X150024600Y-82449200D02*
X149974600Y-82499200D01*
%TO.N,Net-(U1-OUT)*%
X147775400Y-81574400D02*
X148374600Y-80975200D01*
X146710400Y-81574400D02*
X147775400Y-81574400D01*
%TO.N,Net-(U2-\u002ACS)*%
X165595800Y-106121200D02*
X164287200Y-106121200D01*
X164287200Y-106121200D02*
X162039200Y-103873200D01*
X162039200Y-103873200D02*
X161507500Y-103873200D01*
%TO.N,Net-(U2-SDO)*%
X165595800Y-101549200D02*
X164998400Y-101549200D01*
X162052486Y-102673200D02*
X161507500Y-102673200D01*
X163488673Y-101549200D02*
X163176486Y-101549200D01*
X164604252Y-101155052D02*
X164398400Y-101155052D01*
X163798400Y-101549200D02*
X163488673Y-101549200D01*
X164004252Y-101549200D02*
X163798400Y-101549200D01*
X163176486Y-101549200D02*
X162052486Y-102673200D01*
X164201326Y-101352126D02*
G75*
G02*
X164004252Y-101549126I-197026J26D01*
G01*
X164998400Y-101549200D02*
G75*
G02*
X164801300Y-101352126I0J197100D01*
G01*
X164801326Y-101352126D02*
G75*
G03*
X164604252Y-101155074I-197026J26D01*
G01*
X164398400Y-101155052D02*
G75*
G03*
X164201352Y-101352126I0J-197048D01*
G01*
%TO.N,/Amp2/Vout*%
X149959200Y-90322400D02*
X151638000Y-90322400D01*
X152704800Y-91389200D02*
X152704800Y-100699372D01*
X155478628Y-103473200D02*
X158532500Y-103473200D01*
X150010000Y-88798400D02*
X150010000Y-90271600D01*
X150010000Y-90271600D02*
X149959200Y-90322400D01*
X151638000Y-90322400D02*
X152704800Y-91389200D01*
X152704800Y-100699372D02*
X155478628Y-103473200D01*
%TO.N,Net-(U3-OUT)*%
X147587600Y-89570800D02*
X148360000Y-88798400D01*
X146652700Y-89570800D02*
X147587600Y-89570800D01*
%TD*%
%TA.AperFunction,Conductor*%
%TO.N,GND*%
G36*
X138080360Y-90018569D02*
G01*
X138222561Y-90037290D01*
X138251130Y-90044945D01*
X138376724Y-90096967D01*
X138402330Y-90111751D01*
X138510181Y-90194508D01*
X138531091Y-90215418D01*
X138613846Y-90323267D01*
X138628633Y-90348878D01*
X138680654Y-90474469D01*
X138688309Y-90503038D01*
X138707031Y-90645239D01*
X138708000Y-90660028D01*
X138708000Y-92270771D01*
X138707031Y-92285560D01*
X138688309Y-92427761D01*
X138680654Y-92456330D01*
X138628633Y-92581921D01*
X138613844Y-92607536D01*
X138531093Y-92715379D01*
X138510179Y-92736293D01*
X138402336Y-92819044D01*
X138376721Y-92833833D01*
X138251130Y-92885854D01*
X138222561Y-92893509D01*
X138080360Y-92912231D01*
X138065571Y-92913200D01*
X135438829Y-92913200D01*
X135424040Y-92912231D01*
X135281838Y-92893509D01*
X135253269Y-92885854D01*
X135127678Y-92833833D01*
X135102067Y-92819046D01*
X134994218Y-92736291D01*
X134973306Y-92715379D01*
X134890551Y-92607530D01*
X134875767Y-92581924D01*
X134823745Y-92456330D01*
X134816090Y-92427761D01*
X134797369Y-92285560D01*
X134796400Y-92270771D01*
X134796400Y-90660028D01*
X134797369Y-90645239D01*
X134816090Y-90503038D01*
X134823745Y-90474469D01*
X134875769Y-90348872D01*
X134890549Y-90323272D01*
X134973311Y-90215414D01*
X134994214Y-90194511D01*
X135102072Y-90111749D01*
X135127672Y-90096969D01*
X135253271Y-90044944D01*
X135281839Y-90037290D01*
X135424041Y-90018569D01*
X135438829Y-90017600D01*
X138065571Y-90017600D01*
X138080360Y-90018569D01*
G37*
%TD.AperFunction*%
%TD*%
%TA.AperFunction,Conductor*%
%TO.N,/PD/VCC*%
G36*
X167670800Y-80674990D02*
G01*
X167698420Y-80683100D01*
X167698422Y-80683100D01*
X169593209Y-80683100D01*
X169609095Y-80685384D01*
X169625128Y-80687689D01*
X169638833Y-80691713D01*
X169692540Y-80726227D01*
X169692549Y-80726239D01*
X169693631Y-80727488D01*
X169718703Y-80777573D01*
X169720207Y-80784482D01*
X169722800Y-80808582D01*
X169722800Y-81127600D01*
X170037709Y-81127600D01*
X170069628Y-81132189D01*
X170083333Y-81136213D01*
X170137040Y-81170727D01*
X170137049Y-81170739D01*
X170138131Y-81171988D01*
X170163203Y-81222073D01*
X170164707Y-81228982D01*
X170167300Y-81253082D01*
X170167300Y-82635600D01*
X170968172Y-82635600D01*
X170968180Y-82635600D01*
X171103733Y-82620326D01*
X171131504Y-82610608D01*
X171163135Y-82604398D01*
X171175812Y-82603751D01*
X171237901Y-82618590D01*
X171282112Y-82664638D01*
X171284824Y-82669854D01*
X171297600Y-82722120D01*
X171297600Y-84240656D01*
X171297357Y-84248071D01*
X171296872Y-84255466D01*
X171296146Y-84262840D01*
X171278877Y-84394004D01*
X171275985Y-84408540D01*
X171272177Y-84422751D01*
X171267414Y-84436783D01*
X171221072Y-84548665D01*
X171214519Y-84561952D01*
X171207156Y-84574705D01*
X171198927Y-84587022D01*
X171125211Y-84683090D01*
X171115439Y-84694232D01*
X171105032Y-84704639D01*
X171093890Y-84714411D01*
X170997822Y-84788127D01*
X170985505Y-84796356D01*
X170972752Y-84803719D01*
X170959465Y-84810272D01*
X170847583Y-84856614D01*
X170833551Y-84861377D01*
X170819340Y-84865185D01*
X170804805Y-84868077D01*
X170732866Y-84877548D01*
X170711733Y-84880331D01*
X170696946Y-84881300D01*
X170670017Y-84881300D01*
X170636456Y-84882398D01*
X170621681Y-84883366D01*
X170592350Y-84886255D01*
X170581248Y-84886800D01*
X168994902Y-84886800D01*
X168990677Y-84886626D01*
X168983241Y-84886437D01*
X168966272Y-84886286D01*
X168898970Y-84886800D01*
X168510723Y-84886800D01*
X168478801Y-84882210D01*
X168466633Y-84878637D01*
X168412928Y-84844122D01*
X168386408Y-84786051D01*
X168385337Y-84778602D01*
X168386908Y-84743118D01*
X168386328Y-84740212D01*
X168386174Y-84740000D01*
X167566391Y-84740000D01*
X167566388Y-84739999D01*
X167566387Y-84740000D01*
X167534467Y-84735409D01*
X167520761Y-84731384D01*
X167467056Y-84696868D01*
X167467050Y-84696860D01*
X167465968Y-84695611D01*
X167440892Y-84645510D01*
X167439389Y-84638601D01*
X167436800Y-84614517D01*
X167436800Y-84302500D01*
X167128891Y-84302500D01*
X167128888Y-84302499D01*
X167128887Y-84302500D01*
X167096967Y-84297909D01*
X167083261Y-84293884D01*
X167029556Y-84259368D01*
X167029550Y-84259360D01*
X167028468Y-84258111D01*
X167003392Y-84208010D01*
X167001889Y-84201101D01*
X166999300Y-84177017D01*
X166999300Y-83865000D01*
X167874300Y-83865000D01*
X168386174Y-83865000D01*
X168386174Y-83864999D01*
X168356195Y-83774525D01*
X168356193Y-83774520D01*
X168267006Y-83629927D01*
X168146872Y-83509793D01*
X168146871Y-83509792D01*
X168002284Y-83420608D01*
X167874300Y-83378198D01*
X167874300Y-83865000D01*
X166999300Y-83865000D01*
X166999300Y-83398086D01*
X166999300Y-83391265D01*
X166951043Y-83367884D01*
X166945849Y-83364634D01*
X166942946Y-83361364D01*
X166929830Y-83352506D01*
X166926331Y-83349332D01*
X166926329Y-83349331D01*
X166922130Y-83345521D01*
X166923073Y-83344480D01*
X166892934Y-83304695D01*
X166891679Y-83305322D01*
X166889910Y-83301775D01*
X166889543Y-83300220D01*
X166888730Y-83299146D01*
X166888730Y-83299144D01*
X166887140Y-83294954D01*
X166888207Y-83294548D01*
X166878000Y-83251209D01*
X166878000Y-81872978D01*
X167714800Y-81872978D01*
X167730073Y-82008535D01*
X167790209Y-82180393D01*
X167790213Y-82180400D01*
X167790214Y-82180403D01*
X167887079Y-82334564D01*
X168015834Y-82463319D01*
X168169995Y-82560184D01*
X168170000Y-82560187D01*
X168170002Y-82560188D01*
X168341864Y-82620326D01*
X168477420Y-82635600D01*
X169278300Y-82635600D01*
X169278300Y-81572100D01*
X167714800Y-81572100D01*
X167714800Y-81872978D01*
X166878000Y-81872978D01*
X166878000Y-81316542D01*
X166878242Y-81309144D01*
X166878726Y-81301747D01*
X166879450Y-81294379D01*
X166896723Y-81163181D01*
X166899608Y-81148676D01*
X166903426Y-81134429D01*
X166908185Y-81120412D01*
X166954528Y-81008531D01*
X166961075Y-80995251D01*
X166968445Y-80982487D01*
X166976659Y-80970194D01*
X167050402Y-80874089D01*
X167060153Y-80862971D01*
X167070571Y-80852553D01*
X167081689Y-80842802D01*
X167177794Y-80769059D01*
X167190087Y-80760845D01*
X167202858Y-80753472D01*
X167216112Y-80746935D01*
X167328027Y-80700578D01*
X167342036Y-80695824D01*
X167356268Y-80692011D01*
X167370789Y-80689122D01*
X167501984Y-80671850D01*
X167509349Y-80671126D01*
X167516746Y-80670642D01*
X167524144Y-80670400D01*
X167638879Y-80670400D01*
X167670800Y-80674990D01*
G37*
%TD.AperFunction*%
%TD*%
%TA.AperFunction,Conductor*%
%TO.N,GND*%
G36*
X138107160Y-97841769D02*
G01*
X138249361Y-97860490D01*
X138277930Y-97868145D01*
X138403524Y-97920167D01*
X138429130Y-97934951D01*
X138536981Y-98017708D01*
X138557891Y-98038618D01*
X138640646Y-98146467D01*
X138655433Y-98172078D01*
X138707454Y-98297669D01*
X138715109Y-98326238D01*
X138733831Y-98468439D01*
X138734800Y-98483228D01*
X138734800Y-100093971D01*
X138733831Y-100108760D01*
X138715109Y-100250961D01*
X138707454Y-100279530D01*
X138655433Y-100405121D01*
X138640644Y-100430736D01*
X138557893Y-100538579D01*
X138536979Y-100559493D01*
X138429136Y-100642244D01*
X138403521Y-100657033D01*
X138277930Y-100709054D01*
X138249361Y-100716709D01*
X138107160Y-100735431D01*
X138092371Y-100736400D01*
X135465629Y-100736400D01*
X135450840Y-100735431D01*
X135308638Y-100716709D01*
X135280069Y-100709054D01*
X135154478Y-100657033D01*
X135128867Y-100642246D01*
X135021018Y-100559491D01*
X135000106Y-100538579D01*
X134917351Y-100430730D01*
X134902567Y-100405124D01*
X134850545Y-100279530D01*
X134842890Y-100250961D01*
X134824169Y-100108760D01*
X134823200Y-100093971D01*
X134823200Y-98483228D01*
X134824169Y-98468439D01*
X134842890Y-98326238D01*
X134850545Y-98297669D01*
X134902569Y-98172072D01*
X134917349Y-98146472D01*
X135000111Y-98038614D01*
X135021014Y-98017711D01*
X135128872Y-97934949D01*
X135154472Y-97920169D01*
X135280071Y-97868144D01*
X135308639Y-97860490D01*
X135450841Y-97841769D01*
X135465629Y-97840800D01*
X138092371Y-97840800D01*
X138107160Y-97841769D01*
G37*
%TD.AperFunction*%
%TD*%
%TA.AperFunction,Conductor*%
%TO.N,GND*%
G36*
X171228760Y-85395769D02*
G01*
X171370961Y-85414490D01*
X171399530Y-85422145D01*
X171525124Y-85474167D01*
X171550730Y-85488951D01*
X171658581Y-85571708D01*
X171679491Y-85592618D01*
X171762246Y-85700467D01*
X171777033Y-85726078D01*
X171829054Y-85851669D01*
X171836709Y-85880238D01*
X171855431Y-86022439D01*
X171856400Y-86037228D01*
X171856400Y-88968771D01*
X171855431Y-88983560D01*
X171836709Y-89125761D01*
X171829054Y-89154330D01*
X171777033Y-89279921D01*
X171762244Y-89305536D01*
X171679493Y-89413379D01*
X171658579Y-89434293D01*
X171550736Y-89517044D01*
X171525121Y-89531833D01*
X171399530Y-89583854D01*
X171370961Y-89591509D01*
X171228760Y-89610231D01*
X171213971Y-89611200D01*
X170670029Y-89611200D01*
X170655240Y-89610231D01*
X170513038Y-89591509D01*
X170484469Y-89583854D01*
X170358878Y-89531833D01*
X170333267Y-89517046D01*
X170225418Y-89434291D01*
X170204506Y-89413379D01*
X170121751Y-89305530D01*
X170106967Y-89279924D01*
X170054945Y-89154330D01*
X170047290Y-89125761D01*
X170028569Y-88983560D01*
X170027600Y-88968771D01*
X170027600Y-86037228D01*
X170028569Y-86022439D01*
X170047290Y-85880238D01*
X170054945Y-85851669D01*
X170106969Y-85726072D01*
X170121749Y-85700472D01*
X170204511Y-85592614D01*
X170225414Y-85571711D01*
X170333272Y-85488949D01*
X170358872Y-85474169D01*
X170484471Y-85422144D01*
X170513039Y-85414490D01*
X170655241Y-85395769D01*
X170670029Y-85394800D01*
X171213971Y-85394800D01*
X171228760Y-85395769D01*
G37*
%TD.AperFunction*%
%TD*%
%TA.AperFunction,Conductor*%
%TO.N,Net-(U6-SW)*%
G36*
X167864856Y-88189042D02*
G01*
X167872251Y-88189526D01*
X167879625Y-88190251D01*
X167942390Y-88198514D01*
X168000771Y-88224342D01*
X168035923Y-88277633D01*
X168040900Y-88310845D01*
X168040900Y-89879449D01*
X168041066Y-89889615D01*
X168041306Y-89896954D01*
X168041806Y-89907175D01*
X168042285Y-89914489D01*
X168043113Y-89924603D01*
X168043843Y-89932016D01*
X168045002Y-89942096D01*
X168062278Y-90073321D01*
X168065582Y-90093334D01*
X168065871Y-90094785D01*
X168065877Y-90095120D01*
X168065887Y-90095178D01*
X168065878Y-90095179D01*
X168066651Y-90134604D01*
X168064500Y-90148185D01*
X168064500Y-90148189D01*
X168064500Y-90385010D01*
X168079068Y-90476991D01*
X168079070Y-90476997D01*
X168135556Y-90587859D01*
X168216000Y-90668303D01*
X168225603Y-90679227D01*
X168239988Y-90697883D01*
X168263148Y-90757375D01*
X168250470Y-90819939D01*
X168250468Y-90819942D01*
X168250468Y-90819944D01*
X168250466Y-90819945D01*
X168246718Y-90827050D01*
X168225907Y-90854266D01*
X168226268Y-90854627D01*
X168135557Y-90945337D01*
X168079069Y-91056204D01*
X168079067Y-91056208D01*
X168067877Y-91126866D01*
X168067877Y-91126868D01*
X168064500Y-91148187D01*
X168064500Y-91385010D01*
X168079068Y-91476991D01*
X168079070Y-91476997D01*
X168135556Y-91587859D01*
X168223540Y-91675843D01*
X168341922Y-91736161D01*
X168354433Y-91743583D01*
X168365123Y-91750892D01*
X168405537Y-91800312D01*
X168412816Y-91863737D01*
X168412814Y-91863748D01*
X168411804Y-91869582D01*
X168390443Y-91918715D01*
X168337693Y-91988276D01*
X168335142Y-91991201D01*
X168333010Y-91994452D01*
X168279534Y-92130059D01*
X168279533Y-92130062D01*
X168269300Y-92215283D01*
X168269300Y-92785045D01*
X168268557Y-92798002D01*
X168268121Y-92801787D01*
X168268074Y-92801790D01*
X168267324Y-92806266D01*
X168267511Y-92807081D01*
X168266443Y-92816366D01*
X168263463Y-92823409D01*
X168262124Y-92831939D01*
X168263425Y-92832279D01*
X168260889Y-92841985D01*
X168232336Y-92892495D01*
X168231179Y-92893680D01*
X168219083Y-92904416D01*
X168203827Y-92916122D01*
X168191511Y-92924352D01*
X168178756Y-92931717D01*
X168165458Y-92938275D01*
X168053583Y-92984614D01*
X168039551Y-92989377D01*
X168025340Y-92993185D01*
X168010804Y-92996077D01*
X167879640Y-93013346D01*
X167872266Y-93014072D01*
X167864871Y-93014557D01*
X167857456Y-93014800D01*
X167371744Y-93014800D01*
X167364330Y-93014557D01*
X167356934Y-93014072D01*
X167349559Y-93013346D01*
X167218394Y-92996077D01*
X167203858Y-92993185D01*
X167189647Y-92989377D01*
X167175614Y-92984614D01*
X167063736Y-92938273D01*
X167050444Y-92931718D01*
X167037696Y-92924358D01*
X167025374Y-92916124D01*
X166929310Y-92842412D01*
X166918167Y-92832640D01*
X166907760Y-92822233D01*
X166897983Y-92811084D01*
X166894282Y-92806260D01*
X166894282Y-92806259D01*
X166824270Y-92715019D01*
X166816041Y-92702705D01*
X166808676Y-92689948D01*
X166802126Y-92676666D01*
X166755784Y-92564785D01*
X166751026Y-92550770D01*
X166747208Y-92536519D01*
X166744321Y-92522004D01*
X166727053Y-92390840D01*
X166726326Y-92383451D01*
X166725842Y-92376056D01*
X166725600Y-92368656D01*
X166725600Y-88834942D01*
X166725842Y-88827542D01*
X166726326Y-88820147D01*
X166727051Y-88812776D01*
X166744322Y-88681585D01*
X166747210Y-88667070D01*
X166751024Y-88652837D01*
X166755785Y-88638813D01*
X166782607Y-88574060D01*
X166802127Y-88526933D01*
X166808675Y-88513651D01*
X166816045Y-88500887D01*
X166824259Y-88488594D01*
X166898002Y-88392489D01*
X166907753Y-88381371D01*
X166918171Y-88370953D01*
X166929289Y-88361202D01*
X167025394Y-88287459D01*
X167037687Y-88279245D01*
X167050458Y-88271872D01*
X167063712Y-88265335D01*
X167175627Y-88218978D01*
X167189636Y-88214224D01*
X167203868Y-88210411D01*
X167218389Y-88207522D01*
X167349584Y-88190250D01*
X167356949Y-88189526D01*
X167364346Y-88189042D01*
X167371744Y-88188800D01*
X167857456Y-88188800D01*
X167864856Y-88189042D01*
G37*
%TD.AperFunction*%
%TD*%
%TA.AperFunction,Conductor*%
%TO.N,GND*%
G36*
X138083160Y-106402169D02*
G01*
X138225361Y-106420890D01*
X138253930Y-106428545D01*
X138379524Y-106480567D01*
X138405130Y-106495351D01*
X138512981Y-106578108D01*
X138533891Y-106599018D01*
X138616646Y-106706867D01*
X138631433Y-106732478D01*
X138683454Y-106858069D01*
X138691109Y-106886638D01*
X138709831Y-107028839D01*
X138710800Y-107043628D01*
X138710800Y-108654371D01*
X138709831Y-108669160D01*
X138691109Y-108811361D01*
X138683454Y-108839930D01*
X138631433Y-108965521D01*
X138616644Y-108991136D01*
X138533893Y-109098979D01*
X138512979Y-109119893D01*
X138405136Y-109202644D01*
X138379521Y-109217433D01*
X138253930Y-109269454D01*
X138225361Y-109277109D01*
X138083160Y-109295831D01*
X138068371Y-109296800D01*
X135441629Y-109296800D01*
X135426840Y-109295831D01*
X135284638Y-109277109D01*
X135256069Y-109269454D01*
X135130478Y-109217433D01*
X135104867Y-109202646D01*
X134997018Y-109119891D01*
X134976106Y-109098979D01*
X134893351Y-108991130D01*
X134878567Y-108965524D01*
X134826545Y-108839930D01*
X134818890Y-108811361D01*
X134800169Y-108669160D01*
X134799200Y-108654371D01*
X134799200Y-107043628D01*
X134800169Y-107028839D01*
X134818890Y-106886638D01*
X134826545Y-106858069D01*
X134878569Y-106732472D01*
X134893349Y-106706872D01*
X134976111Y-106599014D01*
X134997014Y-106578111D01*
X135104872Y-106495349D01*
X135130472Y-106480569D01*
X135256071Y-106428544D01*
X135284639Y-106420890D01*
X135426841Y-106402169D01*
X135441629Y-106401200D01*
X138068371Y-106401200D01*
X138083160Y-106402169D01*
G37*
%TD.AperFunction*%
%TD*%
%TA.AperFunction,Conductor*%
%TO.N,5V*%
G36*
X165742360Y-87376969D02*
G01*
X165884561Y-87395690D01*
X165913130Y-87403345D01*
X166038724Y-87455367D01*
X166064330Y-87470151D01*
X166172181Y-87552908D01*
X166193091Y-87573818D01*
X166275846Y-87681667D01*
X166290633Y-87707278D01*
X166342654Y-87832869D01*
X166350309Y-87861438D01*
X166369031Y-88003639D01*
X166370000Y-88018428D01*
X166370000Y-90543571D01*
X166369031Y-90558360D01*
X166350309Y-90700561D01*
X166342654Y-90729130D01*
X166290633Y-90854721D01*
X166275844Y-90880336D01*
X166193093Y-90988179D01*
X166172179Y-91009093D01*
X166064336Y-91091844D01*
X166038721Y-91106633D01*
X165913130Y-91158654D01*
X165884561Y-91166309D01*
X165742360Y-91185031D01*
X165727571Y-91186000D01*
X164947600Y-91186000D01*
X164320029Y-91186000D01*
X164305240Y-91185031D01*
X164163038Y-91166309D01*
X164134469Y-91158654D01*
X164008878Y-91106633D01*
X163983267Y-91091846D01*
X163875418Y-91009091D01*
X163854506Y-90988179D01*
X163771751Y-90880330D01*
X163756967Y-90854724D01*
X163704945Y-90729130D01*
X163697290Y-90700561D01*
X163678569Y-90558360D01*
X163677600Y-90543571D01*
X163677600Y-88018428D01*
X163678569Y-88003639D01*
X163697290Y-87861438D01*
X163704945Y-87832869D01*
X163756969Y-87707272D01*
X163771749Y-87681672D01*
X163854511Y-87573814D01*
X163875414Y-87552911D01*
X163983272Y-87470149D01*
X164008872Y-87455369D01*
X164134471Y-87403344D01*
X164163039Y-87395690D01*
X164305241Y-87376969D01*
X164320029Y-87376000D01*
X165727571Y-87376000D01*
X165742360Y-87376969D01*
G37*
%TD.AperFunction*%
%TD*%
%TA.AperFunction,Conductor*%
%TO.N,GND*%
G36*
X138107160Y-81941369D02*
G01*
X138249361Y-81960090D01*
X138277930Y-81967745D01*
X138403524Y-82019767D01*
X138429130Y-82034551D01*
X138536981Y-82117308D01*
X138557891Y-82138218D01*
X138640646Y-82246067D01*
X138655433Y-82271678D01*
X138707454Y-82397269D01*
X138715109Y-82425838D01*
X138733831Y-82568039D01*
X138734800Y-82582828D01*
X138734800Y-84193571D01*
X138733831Y-84208360D01*
X138715109Y-84350561D01*
X138707454Y-84379130D01*
X138655433Y-84504721D01*
X138640644Y-84530336D01*
X138557893Y-84638179D01*
X138536979Y-84659093D01*
X138429136Y-84741844D01*
X138403521Y-84756633D01*
X138277930Y-84808654D01*
X138249361Y-84816309D01*
X138107160Y-84835031D01*
X138092371Y-84836000D01*
X135465629Y-84836000D01*
X135450840Y-84835031D01*
X135308638Y-84816309D01*
X135280069Y-84808654D01*
X135154478Y-84756633D01*
X135128867Y-84741846D01*
X135021018Y-84659091D01*
X135000106Y-84638179D01*
X134917351Y-84530330D01*
X134902567Y-84504724D01*
X134850545Y-84379130D01*
X134842890Y-84350561D01*
X134824169Y-84208360D01*
X134823200Y-84193571D01*
X134823200Y-82582828D01*
X134824169Y-82568039D01*
X134842890Y-82425838D01*
X134850545Y-82397269D01*
X134902569Y-82271672D01*
X134917349Y-82246072D01*
X135000111Y-82138214D01*
X135021014Y-82117311D01*
X135128872Y-82034549D01*
X135154472Y-82019769D01*
X135280071Y-81967744D01*
X135308639Y-81960090D01*
X135450841Y-81941369D01*
X135465629Y-81940400D01*
X138092371Y-81940400D01*
X138107160Y-81941369D01*
G37*
%TD.AperFunction*%
%TD*%
%TA.AperFunction,Conductor*%
%TO.N,GND*%
G36*
X171584360Y-76174169D02*
G01*
X171726561Y-76192890D01*
X171755129Y-76200545D01*
X171827463Y-76230506D01*
X171869562Y-76247944D01*
X171919272Y-76288002D01*
X171937164Y-76329709D01*
X172052788Y-76889673D01*
X172053933Y-76896163D01*
X172145121Y-77518702D01*
X172145886Y-77525248D01*
X172200722Y-78152025D01*
X172201105Y-78158605D01*
X172211952Y-78531391D01*
X172212000Y-78534686D01*
X172212000Y-79289971D01*
X172211031Y-79304760D01*
X172192309Y-79446961D01*
X172184654Y-79475530D01*
X172132633Y-79601121D01*
X172117844Y-79626736D01*
X172035093Y-79734579D01*
X172014179Y-79755493D01*
X171906336Y-79838244D01*
X171880721Y-79853033D01*
X171755130Y-79905054D01*
X171726561Y-79912709D01*
X171584360Y-79931431D01*
X171569571Y-79932400D01*
X171310217Y-79932400D01*
X171248962Y-79914414D01*
X171241244Y-79908987D01*
X171236118Y-79905054D01*
X171228062Y-79898872D01*
X171080815Y-79837880D01*
X170962473Y-79822300D01*
X170962471Y-79822300D01*
X168483135Y-79822300D01*
X168483121Y-79822301D01*
X168364789Y-79837879D01*
X168364787Y-79837879D01*
X168364785Y-79837880D01*
X168274483Y-79875284D01*
X168217537Y-79898872D01*
X168204356Y-79908987D01*
X168184874Y-79916518D01*
X168167303Y-79927811D01*
X168148772Y-79930475D01*
X168144810Y-79932007D01*
X168135383Y-79932400D01*
X167977629Y-79932400D01*
X167962840Y-79931431D01*
X167820638Y-79912709D01*
X167792069Y-79905054D01*
X167666478Y-79853033D01*
X167640867Y-79838246D01*
X167533018Y-79755491D01*
X167512106Y-79734579D01*
X167429351Y-79626730D01*
X167414567Y-79601124D01*
X167362545Y-79475530D01*
X167354890Y-79446961D01*
X167336169Y-79304760D01*
X167335200Y-79289971D01*
X167335200Y-76815628D01*
X167336169Y-76800839D01*
X167354890Y-76658638D01*
X167362545Y-76630069D01*
X167414569Y-76504472D01*
X167429349Y-76478872D01*
X167512111Y-76371014D01*
X167533014Y-76350111D01*
X167640872Y-76267349D01*
X167666472Y-76252569D01*
X167792071Y-76200544D01*
X167820639Y-76192890D01*
X167962841Y-76174169D01*
X167977629Y-76173200D01*
X171569571Y-76173200D01*
X171584360Y-76174169D01*
G37*
%TD.AperFunction*%
%TD*%
%TA.AperFunction,Conductor*%
%TO.N,Net-(U6-EN)*%
G36*
X168977630Y-85399960D02*
G01*
X168978350Y-85400001D01*
X168985030Y-85400391D01*
X168992433Y-85401067D01*
X169124366Y-85417498D01*
X169138979Y-85420301D01*
X169153312Y-85424044D01*
X169167426Y-85428741D01*
X169195971Y-85440374D01*
X169202896Y-85443196D01*
X169280106Y-85474661D01*
X169293497Y-85481175D01*
X169306342Y-85488504D01*
X169318764Y-85496718D01*
X169415621Y-85570355D01*
X169426858Y-85580128D01*
X169437362Y-85590552D01*
X169447221Y-85601715D01*
X169521588Y-85697996D01*
X169529898Y-85710356D01*
X169537329Y-85723152D01*
X169543944Y-85736492D01*
X169590723Y-85848818D01*
X169595534Y-85862916D01*
X169599379Y-85877195D01*
X169602297Y-85891795D01*
X169618797Y-86016509D01*
X169619731Y-86023568D01*
X169620464Y-86030970D01*
X169620954Y-86038396D01*
X169621200Y-86045856D01*
X169621200Y-89821475D01*
X169621199Y-89821476D01*
X169621200Y-89821477D01*
X169616610Y-89853397D01*
X169609838Y-89876459D01*
X169581243Y-89924652D01*
X169560557Y-89945337D01*
X169504069Y-90056204D01*
X169504068Y-90056207D01*
X169504067Y-90056211D01*
X169489500Y-90148185D01*
X169489500Y-90214112D01*
X169486749Y-90238928D01*
X169485944Y-90242512D01*
X169483615Y-90250445D01*
X169483290Y-90254337D01*
X169481580Y-90261955D01*
X169469741Y-90283297D01*
X169460917Y-90306112D01*
X169448813Y-90321886D01*
X169439042Y-90333028D01*
X169428628Y-90343442D01*
X169417485Y-90353214D01*
X169378776Y-90382916D01*
X169378774Y-90382918D01*
X169378773Y-90382919D01*
X169378768Y-90382923D01*
X169350653Y-90398709D01*
X169337329Y-90403859D01*
X169273730Y-90409171D01*
X169273710Y-90409166D01*
X169273709Y-90409167D01*
X169273708Y-90409166D01*
X169268271Y-90408052D01*
X169223565Y-90388090D01*
X169223445Y-90388001D01*
X169210800Y-90377097D01*
X169191059Y-90357356D01*
X169080197Y-90300870D01*
X169080196Y-90300869D01*
X169080195Y-90300869D01*
X169080193Y-90300868D01*
X169080191Y-90300868D01*
X169080109Y-90300855D01*
X169078488Y-90300032D01*
X169071383Y-90299473D01*
X169030856Y-90293054D01*
X169030856Y-90293053D01*
X168994041Y-90287223D01*
X168988212Y-90286300D01*
X168988211Y-90286300D01*
X168568443Y-90286300D01*
X168553460Y-90285305D01*
X168549135Y-90284728D01*
X168544213Y-90282540D01*
X168536696Y-90281114D01*
X168536522Y-90281710D01*
X168534826Y-90281212D01*
X168534951Y-90280783D01*
X168525797Y-90279046D01*
X168518425Y-90276396D01*
X168518415Y-90276393D01*
X168515576Y-90275559D01*
X168504262Y-90268926D01*
X168494261Y-90266861D01*
X168468243Y-90247809D01*
X168467956Y-90247528D01*
X168457337Y-90235548D01*
X168449877Y-90225827D01*
X168441647Y-90213512D01*
X168434278Y-90200751D01*
X168427726Y-90187465D01*
X168381384Y-90075584D01*
X168376621Y-90061551D01*
X168372811Y-90047331D01*
X168369921Y-90032804D01*
X168352651Y-89901625D01*
X168351926Y-89894251D01*
X168351442Y-89886856D01*
X168351200Y-89879456D01*
X168351200Y-86766400D01*
X167894000Y-86309200D01*
X167630974Y-86309200D01*
X167389015Y-86309200D01*
X167380161Y-86308853D01*
X167371346Y-86308162D01*
X167362561Y-86307127D01*
X167263601Y-86291530D01*
X167246393Y-86287419D01*
X167238894Y-86284995D01*
X167229713Y-86282028D01*
X167213358Y-86275290D01*
X167135962Y-86236079D01*
X167120857Y-86226878D01*
X167106633Y-86216610D01*
X167093147Y-86205171D01*
X167031569Y-86144061D01*
X167020022Y-86130655D01*
X167009654Y-86116521D01*
X167000336Y-86101484D01*
X166960536Y-86024395D01*
X166955272Y-86012593D01*
X166953063Y-86006768D01*
X166953011Y-86006097D01*
X166952100Y-86003348D01*
X166952114Y-86003343D01*
X166950991Y-86000809D01*
X166947804Y-85990748D01*
X166944037Y-85975040D01*
X166929758Y-85888732D01*
X166928243Y-85871072D01*
X166928116Y-85853492D01*
X166929376Y-85835809D01*
X166942205Y-85750603D01*
X166946220Y-85733293D01*
X166951542Y-85716480D01*
X166958208Y-85700032D01*
X166996721Y-85622996D01*
X167005887Y-85607780D01*
X167016139Y-85593441D01*
X167027583Y-85579834D01*
X167032473Y-85574870D01*
X167088002Y-85518486D01*
X167101413Y-85506852D01*
X167115597Y-85496380D01*
X167130669Y-85486984D01*
X167207110Y-85447297D01*
X167223466Y-85440376D01*
X167240185Y-85434802D01*
X167257417Y-85430526D01*
X167355693Y-85414189D01*
X167364499Y-85413079D01*
X167373337Y-85412315D01*
X167382192Y-85411899D01*
X167593922Y-85410282D01*
X168970194Y-85399771D01*
X168977630Y-85399960D01*
G37*
%TD.AperFunction*%
%TD*%
%TA.AperFunction,Conductor*%
%TO.N,AVDD*%
G36*
X143766118Y-93621935D02*
G01*
X147897106Y-93624068D01*
X147911885Y-93625043D01*
X148054037Y-93643827D01*
X148082581Y-93651489D01*
X148208117Y-93703544D01*
X148233715Y-93718336D01*
X148341501Y-93801094D01*
X148362403Y-93822006D01*
X148442544Y-93926495D01*
X148445107Y-93929836D01*
X148459886Y-93955445D01*
X148511872Y-94080998D01*
X148519522Y-94109558D01*
X148538231Y-94251709D01*
X148539200Y-94266493D01*
X148539200Y-95911391D01*
X148521214Y-95972646D01*
X148472967Y-96014452D01*
X148409776Y-96023538D01*
X148386307Y-96017548D01*
X148365476Y-96009778D01*
X148339714Y-96000170D01*
X148279532Y-95993700D01*
X147782868Y-95993700D01*
X147722686Y-96000170D01*
X147684395Y-96014452D01*
X147586546Y-96050947D01*
X147586544Y-96050948D01*
X147470225Y-96138024D01*
X147470224Y-96138025D01*
X147383148Y-96254344D01*
X147383147Y-96254346D01*
X147376190Y-96273000D01*
X147333932Y-96386300D01*
X147332370Y-96390487D01*
X147325900Y-96450671D01*
X147325900Y-96859189D01*
X147318000Y-96886092D01*
X147312041Y-96913488D01*
X147308611Y-96918069D01*
X147307914Y-96920444D01*
X147292719Y-96939299D01*
X147209653Y-97022366D01*
X147173916Y-97058103D01*
X147117884Y-97088698D01*
X147054206Y-97084143D01*
X147026523Y-97069149D01*
X146963137Y-97022368D01*
X146963136Y-97022367D01*
X146963134Y-97022366D01*
X146963135Y-97022366D01*
X146840702Y-96979526D01*
X146811633Y-96976800D01*
X146811630Y-96976800D01*
X145632970Y-96976800D01*
X145632966Y-96976800D01*
X145603898Y-96979526D01*
X145603896Y-96979526D01*
X145481465Y-97022366D01*
X145377095Y-97099395D01*
X145371089Y-97105401D01*
X145368662Y-97102974D01*
X145330923Y-97131577D01*
X145291026Y-97138958D01*
X145028727Y-97139714D01*
X144967420Y-97121904D01*
X144925475Y-97073777D01*
X144915100Y-97026414D01*
X144915100Y-96705279D01*
X144915100Y-96705270D01*
X144912374Y-96676199D01*
X144883792Y-96594519D01*
X144880538Y-96530763D01*
X144883793Y-96519679D01*
X144912374Y-96438001D01*
X144915100Y-96408930D01*
X144915100Y-96055270D01*
X144912374Y-96026199D01*
X144869532Y-95903763D01*
X144792505Y-95799395D01*
X144688137Y-95722368D01*
X144688136Y-95722367D01*
X144688134Y-95722366D01*
X144688135Y-95722366D01*
X144565702Y-95679526D01*
X144536633Y-95676800D01*
X144536630Y-95676800D01*
X143357970Y-95676800D01*
X143357966Y-95676800D01*
X143328898Y-95679526D01*
X143328896Y-95679526D01*
X143206465Y-95722366D01*
X143102095Y-95799395D01*
X143025066Y-95903765D01*
X142982226Y-96026196D01*
X142982226Y-96026198D01*
X142979500Y-96055266D01*
X142979500Y-96273000D01*
X142961514Y-96334255D01*
X142913267Y-96376061D01*
X142866200Y-96386300D01*
X141642552Y-96386300D01*
X141581297Y-96368314D01*
X141539491Y-96320067D01*
X141529252Y-96272944D01*
X141530290Y-94263203D01*
X141531267Y-94248419D01*
X141550061Y-94106229D01*
X141557729Y-94077668D01*
X141609819Y-93952095D01*
X141624614Y-93926501D01*
X141707428Y-93818690D01*
X141728346Y-93797793D01*
X141836244Y-93715089D01*
X141861857Y-93700319D01*
X141987483Y-93648359D01*
X142016046Y-93640722D01*
X142158270Y-93622073D01*
X142173031Y-93621112D01*
X143766118Y-93621935D01*
G37*
%TD.AperFunction*%
%TD*%
%TA.AperFunction,Conductor*%
%TO.N,AVDD*%
G36*
X143993318Y-85646989D02*
G01*
X148124306Y-85649122D01*
X148139085Y-85650097D01*
X148281237Y-85668881D01*
X148309781Y-85676543D01*
X148435317Y-85728598D01*
X148460915Y-85743390D01*
X148568701Y-85826148D01*
X148589603Y-85847060D01*
X148669744Y-85951549D01*
X148672307Y-85954890D01*
X148687086Y-85980499D01*
X148739072Y-86106052D01*
X148746722Y-86134612D01*
X148765431Y-86276763D01*
X148766400Y-86291547D01*
X148766400Y-87908960D01*
X148748414Y-87970215D01*
X148700167Y-88012021D01*
X148640990Y-88021611D01*
X148608332Y-88018100D01*
X148111668Y-88018100D01*
X148051486Y-88024570D01*
X148008690Y-88040532D01*
X147915346Y-88075347D01*
X147915344Y-88075348D01*
X147799025Y-88162424D01*
X147799024Y-88162425D01*
X147711948Y-88278744D01*
X147711947Y-88278746D01*
X147699678Y-88311642D01*
X147661170Y-88414886D01*
X147657650Y-88447633D01*
X147654700Y-88475071D01*
X147654700Y-88883588D01*
X147636714Y-88944843D01*
X147621515Y-88963703D01*
X147459755Y-89125462D01*
X147435285Y-89138823D01*
X147411874Y-89153965D01*
X147405969Y-89154831D01*
X147403723Y-89156058D01*
X147379967Y-89158647D01*
X147285731Y-89158919D01*
X147224425Y-89141109D01*
X147218125Y-89136780D01*
X147115538Y-89061068D01*
X147115535Y-89061066D01*
X146993102Y-89018226D01*
X146964033Y-89015500D01*
X146964030Y-89015500D01*
X145785370Y-89015500D01*
X145785366Y-89015500D01*
X145756298Y-89018226D01*
X145756296Y-89018226D01*
X145633864Y-89061066D01*
X145633861Y-89061068D01*
X145524135Y-89142049D01*
X145464169Y-89163952D01*
X145457182Y-89164188D01*
X145181126Y-89164983D01*
X145119820Y-89147173D01*
X145077875Y-89099046D01*
X145067500Y-89051683D01*
X145067500Y-88743979D01*
X145067500Y-88743970D01*
X145064774Y-88714899D01*
X145036192Y-88633219D01*
X145032938Y-88569463D01*
X145036193Y-88558379D01*
X145064774Y-88476701D01*
X145067500Y-88447630D01*
X145067500Y-88093970D01*
X145064774Y-88064899D01*
X145049627Y-88021611D01*
X145021933Y-87942465D01*
X145021932Y-87942463D01*
X144944905Y-87838095D01*
X144840537Y-87761068D01*
X144840536Y-87761067D01*
X144840534Y-87761066D01*
X144840535Y-87761066D01*
X144718102Y-87718226D01*
X144689033Y-87715500D01*
X144689030Y-87715500D01*
X143510370Y-87715500D01*
X143510366Y-87715500D01*
X143481298Y-87718226D01*
X143481296Y-87718226D01*
X143358865Y-87761066D01*
X143254495Y-87838095D01*
X143177466Y-87942465D01*
X143134626Y-88064896D01*
X143134626Y-88064898D01*
X143131900Y-88093966D01*
X143131900Y-88311700D01*
X143113914Y-88372955D01*
X143065667Y-88414761D01*
X143018600Y-88425000D01*
X141869746Y-88425000D01*
X141808491Y-88407014D01*
X141766685Y-88358767D01*
X141756446Y-88311642D01*
X141757490Y-86288261D01*
X141758467Y-86273473D01*
X141777261Y-86131283D01*
X141784929Y-86102722D01*
X141837019Y-85977149D01*
X141851814Y-85951555D01*
X141934628Y-85843744D01*
X141955546Y-85822847D01*
X142063444Y-85740143D01*
X142089057Y-85725373D01*
X142214683Y-85673413D01*
X142243246Y-85665776D01*
X142385470Y-85647127D01*
X142400231Y-85646166D01*
X143993318Y-85646989D01*
G37*
%TD.AperFunction*%
%TD*%
%TA.AperFunction,Conductor*%
%TO.N,AVDD*%
G36*
X143640518Y-102029935D02*
G01*
X147771506Y-102032068D01*
X147786285Y-102033043D01*
X147928437Y-102051827D01*
X147956981Y-102059489D01*
X148082517Y-102111544D01*
X148108115Y-102126336D01*
X148215901Y-102209094D01*
X148236803Y-102230006D01*
X148316944Y-102334495D01*
X148319507Y-102337836D01*
X148334286Y-102363445D01*
X148386272Y-102488998D01*
X148393922Y-102517558D01*
X148412631Y-102659709D01*
X148413600Y-102674493D01*
X148413600Y-104263892D01*
X148395614Y-104325147D01*
X148347367Y-104366953D01*
X148284176Y-104376039D01*
X148260711Y-104370050D01*
X148226714Y-104357370D01*
X148166532Y-104350900D01*
X147669868Y-104350900D01*
X147609686Y-104357370D01*
X147566890Y-104373332D01*
X147473546Y-104408147D01*
X147473544Y-104408148D01*
X147357225Y-104495224D01*
X147357224Y-104495225D01*
X147270148Y-104611544D01*
X147270147Y-104611546D01*
X147246992Y-104673628D01*
X147225317Y-104731743D01*
X147219370Y-104747687D01*
X147212900Y-104807871D01*
X147212900Y-105240284D01*
X147194914Y-105301539D01*
X147179715Y-105320399D01*
X146991372Y-105508741D01*
X146966903Y-105522101D01*
X146943490Y-105537244D01*
X146937586Y-105538110D01*
X146935340Y-105539337D01*
X146911583Y-105541926D01*
X146879994Y-105542017D01*
X146818688Y-105524207D01*
X146812389Y-105519879D01*
X146759934Y-105481166D01*
X146759935Y-105481166D01*
X146637502Y-105438326D01*
X146608433Y-105435600D01*
X146608430Y-105435600D01*
X145429770Y-105435600D01*
X145429766Y-105435600D01*
X145400698Y-105438326D01*
X145400696Y-105438326D01*
X145278266Y-105481166D01*
X145278263Y-105481168D01*
X145219061Y-105524859D01*
X145159095Y-105546760D01*
X145152111Y-105546996D01*
X144825527Y-105547938D01*
X144764221Y-105530128D01*
X144722275Y-105482002D01*
X144711900Y-105434638D01*
X144711900Y-105164079D01*
X144711900Y-105164070D01*
X144709174Y-105134999D01*
X144680592Y-105053319D01*
X144677338Y-104989563D01*
X144680593Y-104978479D01*
X144709174Y-104896801D01*
X144711900Y-104867730D01*
X144711900Y-104514070D01*
X144709174Y-104484999D01*
X144682283Y-104408148D01*
X144666333Y-104362565D01*
X144657724Y-104350900D01*
X144589305Y-104258195D01*
X144484937Y-104181168D01*
X144484936Y-104181167D01*
X144484934Y-104181166D01*
X144484935Y-104181166D01*
X144362502Y-104138326D01*
X144333433Y-104135600D01*
X144333430Y-104135600D01*
X143154770Y-104135600D01*
X143154766Y-104135600D01*
X143125698Y-104138326D01*
X143125696Y-104138326D01*
X143003265Y-104181166D01*
X142898895Y-104258195D01*
X142821866Y-104362565D01*
X142779026Y-104484996D01*
X142779026Y-104484998D01*
X142776300Y-104514066D01*
X142776300Y-104731800D01*
X142758314Y-104793055D01*
X142710067Y-104834861D01*
X142663000Y-104845100D01*
X141516926Y-104845100D01*
X141455671Y-104827114D01*
X141413865Y-104778867D01*
X141403626Y-104731743D01*
X141404690Y-102671203D01*
X141405667Y-102656419D01*
X141424461Y-102514229D01*
X141432129Y-102485668D01*
X141484219Y-102360095D01*
X141499014Y-102334501D01*
X141581828Y-102226690D01*
X141602746Y-102205793D01*
X141710644Y-102123089D01*
X141736257Y-102108319D01*
X141861883Y-102056359D01*
X141890446Y-102048722D01*
X142032670Y-102030073D01*
X142047431Y-102029112D01*
X143640518Y-102029935D01*
G37*
%TD.AperFunction*%
%TD*%
%TA.AperFunction,Conductor*%
%TO.N,AVDD*%
G36*
X143454488Y-77721190D02*
G01*
X148100305Y-77723590D01*
X148115084Y-77724565D01*
X148257237Y-77743349D01*
X148285781Y-77751011D01*
X148411317Y-77803066D01*
X148436915Y-77817858D01*
X148544701Y-77900616D01*
X148565604Y-77921529D01*
X148648307Y-78029358D01*
X148663086Y-78054967D01*
X148715072Y-78180520D01*
X148722722Y-78209080D01*
X148741431Y-78351231D01*
X148742400Y-78366015D01*
X148742400Y-80081768D01*
X148724414Y-80143023D01*
X148676167Y-80184829D01*
X148625966Y-80194350D01*
X148625966Y-80194900D01*
X148623067Y-80194900D01*
X148623035Y-80194906D01*
X148622940Y-80194900D01*
X148622932Y-80194900D01*
X148126268Y-80194900D01*
X148066086Y-80201370D01*
X148015309Y-80220308D01*
X147929946Y-80252147D01*
X147929944Y-80252148D01*
X147813625Y-80339224D01*
X147813624Y-80339225D01*
X147726548Y-80455544D01*
X147726547Y-80455546D01*
X147675770Y-80591687D01*
X147669300Y-80651871D01*
X147669300Y-81055800D01*
X147651314Y-81117055D01*
X147603067Y-81158861D01*
X147556000Y-81169100D01*
X147243440Y-81169100D01*
X147182185Y-81151114D01*
X147176240Y-81146323D01*
X147175936Y-81146737D01*
X147169105Y-81141696D01*
X147169105Y-81141695D01*
X147064737Y-81064668D01*
X147064736Y-81064667D01*
X147064734Y-81064666D01*
X147064735Y-81064666D01*
X146942302Y-81021826D01*
X146913233Y-81019100D01*
X146913230Y-81019100D01*
X145734570Y-81019100D01*
X145734566Y-81019100D01*
X145705498Y-81021826D01*
X145705496Y-81021826D01*
X145583065Y-81064666D01*
X145478695Y-81141695D01*
X145478691Y-81141699D01*
X145440538Y-81193394D01*
X145437034Y-81196054D01*
X145435218Y-81200062D01*
X145411851Y-81215173D01*
X145389692Y-81231998D01*
X145384287Y-81233000D01*
X145381611Y-81234731D01*
X145349704Y-81239413D01*
X145128429Y-81240050D01*
X145067123Y-81222240D01*
X145025178Y-81174113D01*
X145015298Y-81116172D01*
X145016700Y-81101230D01*
X145016700Y-80747570D01*
X145013974Y-80718499D01*
X144985392Y-80636819D01*
X144982138Y-80573063D01*
X144985393Y-80561979D01*
X145013974Y-80480301D01*
X145016700Y-80451230D01*
X145016700Y-80097570D01*
X145013974Y-80068499D01*
X144971132Y-79946063D01*
X144894105Y-79841695D01*
X144789737Y-79764668D01*
X144789736Y-79764667D01*
X144789734Y-79764666D01*
X144789735Y-79764666D01*
X144667302Y-79721826D01*
X144638233Y-79719100D01*
X144638230Y-79719100D01*
X143459570Y-79719100D01*
X143459566Y-79719100D01*
X143430498Y-79721826D01*
X143430496Y-79721826D01*
X143308065Y-79764666D01*
X143203695Y-79841695D01*
X143126666Y-79946065D01*
X143083826Y-80068496D01*
X143083826Y-80068498D01*
X143081100Y-80097566D01*
X143081100Y-80315300D01*
X143063114Y-80376555D01*
X143014867Y-80418361D01*
X142967800Y-80428600D01*
X141998183Y-80428600D01*
X141936928Y-80410614D01*
X141895122Y-80362367D01*
X141884883Y-80315242D01*
X141885693Y-78743169D01*
X141885890Y-78362804D01*
X141886867Y-78348019D01*
X141905661Y-78205825D01*
X141913329Y-78177268D01*
X141965419Y-78051695D01*
X141980214Y-78026101D01*
X142063028Y-77918290D01*
X142083946Y-77897393D01*
X142191844Y-77814689D01*
X142217457Y-77799919D01*
X142343083Y-77747959D01*
X142371646Y-77740322D01*
X142513870Y-77721673D01*
X142528631Y-77720712D01*
X143454488Y-77721190D01*
G37*
%TD.AperFunction*%
%TD*%
%TA.AperFunction,Conductor*%
%TO.N,AVDD*%
G36*
X158884360Y-80417369D02*
G01*
X159026561Y-80436090D01*
X159055130Y-80443745D01*
X159180724Y-80495767D01*
X159206330Y-80510551D01*
X159314181Y-80593308D01*
X159335091Y-80614218D01*
X159417846Y-80722067D01*
X159432633Y-80747678D01*
X159484654Y-80873269D01*
X159492309Y-80901838D01*
X159511031Y-81044039D01*
X159512000Y-81058828D01*
X159512000Y-81958371D01*
X159511031Y-81973160D01*
X159492309Y-82115361D01*
X159484654Y-82143930D01*
X159432633Y-82269521D01*
X159417844Y-82295136D01*
X159335093Y-82402979D01*
X159314179Y-82423893D01*
X159206336Y-82506644D01*
X159180721Y-82521433D01*
X159055130Y-82573454D01*
X159026561Y-82581109D01*
X158884360Y-82599831D01*
X158869571Y-82600800D01*
X157614429Y-82600800D01*
X157599640Y-82599831D01*
X157457438Y-82581109D01*
X157428869Y-82573454D01*
X157303278Y-82521433D01*
X157277667Y-82506646D01*
X157169818Y-82423891D01*
X157148906Y-82402979D01*
X157066151Y-82295130D01*
X157051367Y-82269524D01*
X156999345Y-82143930D01*
X156991690Y-82115361D01*
X156972969Y-81973160D01*
X156972000Y-81958371D01*
X156972000Y-81058828D01*
X156972969Y-81044039D01*
X156991690Y-80901838D01*
X156999345Y-80873269D01*
X157051369Y-80747672D01*
X157066149Y-80722072D01*
X157148911Y-80614214D01*
X157169814Y-80593311D01*
X157277672Y-80510549D01*
X157303272Y-80495769D01*
X157428871Y-80443744D01*
X157457439Y-80436090D01*
X157599641Y-80417369D01*
X157614429Y-80416400D01*
X158869571Y-80416400D01*
X158884360Y-80417369D01*
G37*
%TD.AperFunction*%
%TD*%
M02*
