%TF.GenerationSoftware,KiCad,Pcbnew,10.0.2*%
%TF.CreationDate,2026-06-07T19:31:00-04:00*%
%TF.ProjectId,StrainGaugeDAQ,53747261-696e-4476-9175-67654441512e,rev?*%
%TF.SameCoordinates,Original*%
%TF.FileFunction,Soldermask,Top*%
%TF.FilePolarity,Negative*%
%FSLAX46Y46*%
G04 Gerber Fmt 4.6, Leading zero omitted, Abs format (unit mm)*
G04 Created by KiCad (PCBNEW 10.0.2) date 2026-06-07 19:31:00*
%MOMM*%
%LPD*%
G01*
G04 APERTURE LIST*
G04 Aperture macros list*
%AMRoundRect*
0 Rectangle with rounded corners*
0 $1 Rounding radius*
0 $2 $3 $4 $5 $6 $7 $8 $9 X,Y pos of 4 corners*
0 Add a 4 corners polygon primitive as box body*
4,1,4,$2,$3,$4,$5,$6,$7,$8,$9,$2,$3,0*
0 Add four circle primitives for the rounded corners*
1,1,$1+$1,$2,$3*
1,1,$1+$1,$4,$5*
1,1,$1+$1,$6,$7*
1,1,$1+$1,$8,$9*
0 Add four rect primitives between the rounded corners*
20,1,$1+$1,$2,$3,$4,$5,0*
20,1,$1+$1,$4,$5,$6,$7,0*
20,1,$1+$1,$6,$7,$8,$9,0*
20,1,$1+$1,$8,$9,$2,$3,0*%
G04 Aperture macros list end*
%ADD10RoundRect,0.225000X0.225000X0.250000X-0.225000X0.250000X-0.225000X-0.250000X0.225000X-0.250000X0*%
%ADD11RoundRect,0.125000X-0.537500X-0.125000X0.537500X-0.125000X0.537500X0.125000X-0.537500X0.125000X0*%
%ADD12RoundRect,0.300000X-1.200000X-0.700000X1.200000X-0.700000X1.200000X0.700000X-1.200000X0.700000X0*%
%ADD13RoundRect,0.300000X1.200000X0.700000X-1.200000X0.700000X-1.200000X-0.700000X1.200000X-0.700000X0*%
%ADD14RoundRect,0.200000X0.200000X0.275000X-0.200000X0.275000X-0.200000X-0.275000X0.200000X-0.275000X0*%
%ADD15RoundRect,0.225000X-0.225000X-0.250000X0.225000X-0.250000X0.225000X0.250000X-0.225000X0.250000X0*%
%ADD16RoundRect,0.150000X0.512500X0.150000X-0.512500X0.150000X-0.512500X-0.150000X0.512500X-0.150000X0*%
%ADD17RoundRect,0.200000X-0.200000X-0.275000X0.200000X-0.275000X0.200000X0.275000X-0.200000X0.275000X0*%
%ADD18RoundRect,0.150000X-0.150000X0.512500X-0.150000X-0.512500X0.150000X-0.512500X0.150000X0.512500X0*%
%ADD19R,1.150000X3.600000*%
%ADD20RoundRect,0.218750X-0.256250X0.218750X-0.256250X-0.218750X0.256250X-0.218750X0.256250X0.218750X0*%
%ADD21RoundRect,0.200000X-0.275000X0.200000X-0.275000X-0.200000X0.275000X-0.200000X0.275000X0.200000X0*%
%ADD22R,1.700000X1.700000*%
%ADD23C,1.700000*%
%ADD24RoundRect,0.087500X-0.250000X-0.087500X0.250000X-0.087500X0.250000X0.087500X-0.250000X0.087500X0*%
%ADD25RoundRect,0.050000X-0.312500X-0.050000X0.312500X-0.050000X0.312500X0.050000X-0.312500X0.050000X0*%
%ADD26RoundRect,0.050000X-0.050000X-0.312500X0.050000X-0.312500X0.050000X0.312500X-0.050000X0.312500X0*%
%ADD27R,1.850000X1.850000*%
G04 APERTURE END LIST*
D10*
%TO.C,C12*%
X149630400Y-98298000D03*
X148080400Y-98298000D03*
%TD*%
D11*
%TO.C,U5*%
X143744100Y-104690900D03*
X143744100Y-105340900D03*
X143744100Y-105990900D03*
X143744100Y-106640900D03*
X146019100Y-106640900D03*
X146019100Y-105990900D03*
X146019100Y-105340900D03*
X146019100Y-104690900D03*
%TD*%
D12*
%TO.C,J5*%
X169722800Y-78127600D03*
X169722800Y-81127600D03*
%TD*%
D13*
%TO.C,J1*%
X136323200Y-82956400D03*
X136323200Y-79956400D03*
%TD*%
D14*
%TO.C,R26*%
X141896600Y-106756800D03*
X140246600Y-106756800D03*
%TD*%
%TO.C,R18*%
X141998200Y-98298000D03*
X140348200Y-98298000D03*
%TD*%
%TO.C,R11*%
X142186800Y-88036400D03*
X140536800Y-88036400D03*
%TD*%
%TO.C,R24*%
X149681200Y-96774000D03*
X148031200Y-96774000D03*
%TD*%
D15*
%TO.C,C22*%
X168947800Y-87426800D03*
X170497800Y-87426800D03*
%TD*%
D10*
%TO.C,C16*%
X149517400Y-106655200D03*
X147967400Y-106655200D03*
%TD*%
D13*
%TO.C,J4*%
X136323200Y-107393200D03*
X136323200Y-104393200D03*
%TD*%
D14*
%TO.C,R41*%
X167245800Y-100025200D03*
X165595800Y-100025200D03*
%TD*%
D16*
%TO.C,U8*%
X161106700Y-80756800D03*
X161106700Y-79806800D03*
X161106700Y-78856800D03*
X158831700Y-78856800D03*
X158831700Y-80756800D03*
%TD*%
D17*
%TO.C,R38*%
X165595800Y-103073200D03*
X167245800Y-103073200D03*
%TD*%
D15*
%TO.C,C28*%
X161213200Y-83820000D03*
X162763200Y-83820000D03*
%TD*%
%TO.C,C24*%
X167474600Y-92506800D03*
X169024600Y-92506800D03*
%TD*%
D14*
%TO.C,R32*%
X149568200Y-105131200D03*
X147918200Y-105131200D03*
%TD*%
%TO.C,R27*%
X141896600Y-104369200D03*
X140246600Y-104369200D03*
%TD*%
D13*
%TO.C,J2*%
X136296400Y-91036400D03*
X136296400Y-88036400D03*
%TD*%
D18*
%TO.C,U7*%
X160577700Y-90099300D03*
X159627700Y-90099300D03*
X158677700Y-90099300D03*
X158677700Y-92374300D03*
X160577700Y-92374300D03*
%TD*%
D15*
%TO.C,C33*%
X160718200Y-94081600D03*
X162268200Y-94081600D03*
%TD*%
D14*
%TO.C,R10*%
X142186800Y-90424000D03*
X140536800Y-90424000D03*
%TD*%
D19*
%TO.C,L1*%
X167288000Y-89357200D03*
X164338000Y-89357200D03*
%TD*%
D20*
%TO.C,FB1*%
X167436800Y-84302500D03*
X167436800Y-85877500D03*
%TD*%
D17*
%TO.C,R37*%
X165595800Y-104597200D03*
X167245800Y-104597200D03*
%TD*%
D14*
%TO.C,R3*%
X142264400Y-82296000D03*
X140614400Y-82296000D03*
%TD*%
D21*
%TO.C,R40*%
X165658800Y-96914200D03*
X165658800Y-98564200D03*
%TD*%
D13*
%TO.C,J3*%
X136323200Y-98832800D03*
X136323200Y-95832800D03*
%TD*%
D15*
%TO.C,C35*%
X160718200Y-95605600D03*
X162268200Y-95605600D03*
%TD*%
D22*
%TO.C,J6*%
X169773600Y-106680000D03*
D23*
X169773600Y-104140000D03*
X169773600Y-101600000D03*
X169773600Y-99060000D03*
X169773600Y-96520000D03*
%TD*%
D14*
%TO.C,R8*%
X150024600Y-80975200D03*
X148374600Y-80975200D03*
%TD*%
D15*
%TO.C,C21*%
X168947800Y-88950800D03*
X170497800Y-88950800D03*
%TD*%
D11*
%TO.C,U4*%
X143947300Y-96232100D03*
X143947300Y-96882100D03*
X143947300Y-97532100D03*
X143947300Y-98182100D03*
X146222300Y-98182100D03*
X146222300Y-97532100D03*
X146222300Y-96882100D03*
X146222300Y-96232100D03*
%TD*%
D15*
%TO.C,C23*%
X168947800Y-85902800D03*
X170497800Y-85902800D03*
%TD*%
D14*
%TO.C,R1*%
X142252200Y-79959200D03*
X140602200Y-79959200D03*
%TD*%
D17*
%TO.C,R36*%
X165595800Y-106121200D03*
X167245800Y-106121200D03*
%TD*%
D14*
%TO.C,R39*%
X167245800Y-101549200D03*
X165595800Y-101549200D03*
%TD*%
D15*
%TO.C,C29*%
X161213200Y-82296000D03*
X162763200Y-82296000D03*
%TD*%
D24*
%TO.C,U6*%
X168707300Y-90266600D03*
X168707300Y-90766600D03*
X168707300Y-91266600D03*
X170132300Y-91266600D03*
X170132300Y-90766600D03*
X170132300Y-90266600D03*
%TD*%
D10*
%TO.C,C4*%
X149974600Y-82499200D03*
X148424600Y-82499200D03*
%TD*%
%TO.C,C8*%
X149959200Y-90322400D03*
X148409200Y-90322400D03*
%TD*%
D25*
%TO.C,U2*%
X158532500Y-102273200D03*
X158532500Y-102673200D03*
X158532500Y-103073200D03*
X158532500Y-103473200D03*
X158532500Y-103873200D03*
D26*
X159220000Y-104560700D03*
X159620000Y-104560700D03*
X160020000Y-104560700D03*
X160420000Y-104560700D03*
X160820000Y-104560700D03*
D25*
X161507500Y-103873200D03*
X161507500Y-103473200D03*
X161507500Y-103073200D03*
X161507500Y-102673200D03*
X161507500Y-102273200D03*
D26*
X160820000Y-101585700D03*
X160420000Y-101585700D03*
X160020000Y-101585700D03*
X159620000Y-101585700D03*
X159220000Y-101585700D03*
D27*
X160020000Y-103073200D03*
%TD*%
D14*
%TO.C,R16*%
X150010000Y-88798400D03*
X148360000Y-88798400D03*
%TD*%
%TO.C,R19*%
X141998200Y-95859600D03*
X140348200Y-95859600D03*
%TD*%
D11*
%TO.C,U1*%
X144048900Y-80274400D03*
X144048900Y-80924400D03*
X144048900Y-81574400D03*
X144048900Y-82224400D03*
X146323900Y-82224400D03*
X146323900Y-81574400D03*
X146323900Y-80924400D03*
X146323900Y-80274400D03*
%TD*%
%TO.C,U3*%
X144099700Y-88270800D03*
X144099700Y-88920800D03*
X144099700Y-89570800D03*
X144099700Y-90220800D03*
X146374700Y-90220800D03*
X146374700Y-89570800D03*
X146374700Y-88920800D03*
X146374700Y-88270800D03*
%TD*%
M02*
