M48
; DRILL file KiCad 10.0.2 date 2026-06-07T19:30:59
; FORMAT={-:-/ absolute / metric / decimal}
; #@! TF.CreationDate,2026-06-07T19:30:59-04:00
; #@! TF.GenerationSoftware,Kicad,Pcbnew,10.0.2
; #@! TF.FileFunction,Plated,1,2,PTH
FMAT,2
METRIC
; #@! TA.AperFunction,Plated,PTH,ViaDrill
T1C0.300
; #@! TA.AperFunction,Plated,PTH,ComponentDrill
T2C1.000
%
G90
G05
T1
X135.762Y-92.558
X135.764Y-108.941
X135.788Y-84.48
X135.788Y-100.381
X136.981Y-92.558
X136.984Y-108.941
X137.008Y-84.48
X137.008Y-100.381
X138.352Y-90.475
X138.352Y-91.491
X138.355Y-106.858
X138.355Y-107.874
X138.379Y-82.398
X138.379Y-83.414
X138.379Y-98.298
X138.379Y-99.314
X142.342Y-102.667
X142.443Y-94.183
X142.596Y-78.384
X142.615Y-106.038
X142.697Y-86.157
X142.703Y-97.593
X143.032Y-81.631
X143.04Y-89.611
X143.232Y-107.417
X143.408Y-98.908
X143.51Y-83.007
X143.612Y-90.932
X144.35Y-107.417
X144.526Y-98.908
X144.678Y-83.007
X144.729Y-90.932
X144.831Y-102.667
X144.932Y-94.183
X145.085Y-78.384
X145.186Y-86.157
X146.686Y-107.57
X146.863Y-99.212
X147.039Y-91.135
X147.066Y-83.363
X147.218Y-102.667
X147.32Y-94.183
X147.472Y-78.384
X147.574Y-86.157
X147.956Y-107.824
X148.082Y-99.619
X148.411Y-91.237
X148.438Y-83.566
X154.076Y-100.584
X155.346Y-85.954
X155.346Y-93.929
X155.931Y-81.458
X157.734Y-82.245
X158.699Y-82.245
X159.156Y-91.288
X159.398Y-98.538
X159.398Y-100.062
X159.448Y-102.856
X159.912Y-103.701
X159.918Y-88.748
X159.969Y-79.35
X159.969Y-80.162
X160.121Y-91.286
X160.261Y-98.538
X160.261Y-100.062
X160.657Y-102.438
X161.392Y-88.748
X162.255Y-92.862
X162.255Y-96.723
X162.763Y-81.178
X162.763Y-84.836
X163.373Y-94.082
X163.424Y-95.606
X163.83Y-82.296
X163.83Y-83.82
X165.811Y-88.9
X165.811Y-89.764
X165.811Y-90.678
X167.691Y-78.154
X168.961Y-76.58
X168.961Y-79.475
X169.907Y-91.942
X170.536Y-76.58
X170.536Y-79.475
X170.942Y-90.267
X171.501Y-85.903
X171.501Y-87.427
X171.501Y-88.951
X171.755Y-78.154
T2
X169.774Y-96.52
X169.774Y-99.06
X169.774Y-101.6
X169.774Y-104.14
X169.774Y-106.68
M30
