%TF.GenerationSoftware,KiCad,Pcbnew,10.0.2*%
%TF.CreationDate,2026-06-07T19:31:00-04:00*%
%TF.ProjectId,StrainGaugeDAQ,53747261-696e-4476-9175-67654441512e,rev?*%
%TF.SameCoordinates,Original*%
%TF.FileFunction,Copper,L2,Bot*%
%TF.FilePolarity,Positive*%
%FSLAX46Y46*%
G04 Gerber Fmt 4.6, Leading zero omitted, Abs format (unit mm)*
G04 Created by KiCad (PCBNEW 10.0.2) date 2026-06-07 19:31:00*
%MOMM*%
%LPD*%
G01*
G04 APERTURE LIST*
G04 Aperture macros list*
%AMRoundRect*
0 Rectangle with rounded corners*
0 $1 Rounding radius*
0 $2 $3 $4 $5 $6 $7 $8 $9 X,Y pos of 4 corners*
0 Add a 4 corners polygon primitive as box body*
4,1,4,$2,$3,$4,$5,$6,$7,$8,$9,$2,$3,0*
0 Add four circle primitives for the rounded corners*
1,1,$1+$1,$2,$3*
1,1,$1+$1,$4,$5*
1,1,$1+$1,$6,$7*
1,1,$1+$1,$8,$9*
0 Add four rect primitives between the rounded corners*
20,1,$1+$1,$2,$3,$4,$5,0*
20,1,$1+$1,$4,$5,$6,$7,0*
20,1,$1+$1,$6,$7,$8,$9,0*
20,1,$1+$1,$8,$9,$2,$3,0*%
G04 Aperture macros list end*
%TA.AperFunction,ComponentPad*%
%ADD10R,1.700000X1.700000*%
%TD*%
%TA.AperFunction,ComponentPad*%
%ADD11C,1.700000*%
%TD*%
%TA.AperFunction,SMDPad,CuDef*%
%ADD12RoundRect,0.225000X-0.250000X0.225000X-0.250000X-0.225000X0.250000X-0.225000X0.250000X0.225000X0*%
%TD*%
%TA.AperFunction,SMDPad,CuDef*%
%ADD13RoundRect,0.200000X-0.275000X0.200000X-0.275000X-0.200000X0.275000X-0.200000X0.275000X0.200000X0*%
%TD*%
%TA.AperFunction,SMDPad,CuDef*%
%ADD14RoundRect,0.200000X0.200000X0.275000X-0.200000X0.275000X-0.200000X-0.275000X0.200000X-0.275000X0*%
%TD*%
%TA.AperFunction,SMDPad,CuDef*%
%ADD15RoundRect,0.225000X0.225000X0.250000X-0.225000X0.250000X-0.225000X-0.250000X0.225000X-0.250000X0*%
%TD*%
%TA.AperFunction,SMDPad,CuDef*%
%ADD16RoundRect,0.225000X0.250000X-0.225000X0.250000X0.225000X-0.250000X0.225000X-0.250000X-0.225000X0*%
%TD*%
%TA.AperFunction,SMDPad,CuDef*%
%ADD17RoundRect,0.200000X-0.200000X-0.275000X0.200000X-0.275000X0.200000X0.275000X-0.200000X0.275000X0*%
%TD*%
%TA.AperFunction,SMDPad,CuDef*%
%ADD18RoundRect,0.225000X-0.225000X-0.250000X0.225000X-0.250000X0.225000X0.250000X-0.225000X0.250000X0*%
%TD*%
%TA.AperFunction,ViaPad*%
%ADD19C,0.600000*%
%TD*%
%TA.AperFunction,Conductor*%
%ADD20C,0.635000*%
%TD*%
%TA.AperFunction,Conductor*%
%ADD21C,0.381000*%
%TD*%
%TA.AperFunction,Conductor*%
%ADD22C,0.200000*%
%TD*%
G04 APERTURE END LIST*
D10*
%TO.P,J6,1,Pin_1_1*%
%TO.N,Net-(J6-Pin_1)*%
X169773600Y-106680000D03*
D11*
%TO.P,J6,2,Pin_2_2*%
%TO.N,Net-(J6-Pin_2)*%
X169773600Y-104140000D03*
%TO.P,J6,3,Pin_3_3*%
%TO.N,Net-(J6-Pin_3)*%
X169773600Y-101600000D03*
%TO.P,J6,4,Pin_4_4*%
%TO.N,Net-(J6-Pin_4)*%
X169773600Y-99060000D03*
%TO.P,J6,5,Pin_5_5*%
%TO.N,Net-(J6-Pin_5)*%
X169773600Y-96520000D03*
%TD*%
D12*
%TO.P,C9,1*%
%TO.N,AVDD*%
X143510000Y-95274800D03*
%TO.P,C9,2*%
%TO.N,GND*%
X143510000Y-96824800D03*
%TD*%
D13*
%TO.P,R25,1*%
%TO.N,AVDD*%
X141884400Y-105119000D03*
%TO.P,R25,2*%
%TO.N,Net-(U5-IN+)*%
X141884400Y-106769000D03*
%TD*%
%TO.P,R34,1*%
%TO.N,Net-(U6-FB)*%
X168503600Y-92037400D03*
%TO.P,R34,2*%
%TO.N,GND*%
X168503600Y-93687400D03*
%TD*%
D14*
%TO.P,R23,1*%
%TO.N,Net-(U4-REF)*%
X149681200Y-96774000D03*
%TO.P,R23,2*%
%TO.N,GND*%
X148031200Y-96774000D03*
%TD*%
D12*
%TO.P,C14,1*%
%TO.N,AVDD*%
X144932400Y-103632000D03*
%TO.P,C14,2*%
%TO.N,GND*%
X144932400Y-105182000D03*
%TD*%
D15*
%TO.P,C7,1*%
%TO.N,Net-(U3-REF)*%
X147661800Y-90271600D03*
%TO.P,C7,2*%
%TO.N,GND*%
X146111800Y-90271600D03*
%TD*%
%TO.P,C15,1*%
%TO.N,Net-(U5-REF)*%
X147231400Y-106655200D03*
%TO.P,C15,2*%
%TO.N,GND*%
X145681400Y-106655200D03*
%TD*%
D16*
%TO.P,C18,1*%
%TO.N,GND*%
X146886800Y-88811400D03*
%TO.P,C18,2*%
%TO.N,AVDD*%
X146886800Y-87261400D03*
%TD*%
D14*
%TO.P,R15,1*%
%TO.N,Net-(U3-REF)*%
X150010000Y-88798400D03*
%TO.P,R15,2*%
%TO.N,GND*%
X148360000Y-88798400D03*
%TD*%
D16*
%TO.P,C31,1*%
%TO.N,5V*%
X159867600Y-87731600D03*
%TO.P,C31,2*%
%TO.N,GND*%
X159867600Y-86181600D03*
%TD*%
D12*
%TO.P,C3,1*%
%TO.N,AVDD*%
X145389600Y-79425200D03*
%TO.P,C3,2*%
%TO.N,GND*%
X145389600Y-80975200D03*
%TD*%
D16*
%TO.P,C17,1*%
%TO.N,GND*%
X146913600Y-80975200D03*
%TO.P,C17,2*%
%TO.N,AVDD*%
X146913600Y-79425200D03*
%TD*%
D12*
%TO.P,C10,1*%
%TO.N,AVDD*%
X145034000Y-95274800D03*
%TO.P,C10,2*%
%TO.N,GND*%
X145034000Y-96824800D03*
%TD*%
D16*
%TO.P,C20,1*%
%TO.N,GND*%
X146456400Y-105182000D03*
%TO.P,C20,2*%
%TO.N,AVDD*%
X146456400Y-103632000D03*
%TD*%
D14*
%TO.P,R5,1*%
%TO.N,Net-(U1-REF)*%
X150024600Y-80975200D03*
%TO.P,R5,2*%
%TO.N,GND*%
X148374600Y-80975200D03*
%TD*%
D12*
%TO.P,C5,1*%
%TO.N,AVDD*%
X143838800Y-87261400D03*
%TO.P,C5,2*%
%TO.N,GND*%
X143838800Y-88811400D03*
%TD*%
D17*
%TO.P,R33,1*%
%TO.N,5V*%
X167323000Y-90576400D03*
%TO.P,R33,2*%
%TO.N,Net-(U6-FB)*%
X168973000Y-90576400D03*
%TD*%
D16*
%TO.P,C27,1*%
%TO.N,5V*%
X164338000Y-87846200D03*
%TO.P,C27,2*%
%TO.N,GND*%
X164338000Y-86296200D03*
%TD*%
%TO.P,C25,1*%
%TO.N,5V*%
X165862000Y-87846200D03*
%TO.P,C25,2*%
%TO.N,GND*%
X165862000Y-86296200D03*
%TD*%
D17*
%TO.P,R14,1*%
%TO.N,AVDD*%
X148361600Y-87274400D03*
%TO.P,R14,2*%
%TO.N,Net-(U3-REF)*%
X150011600Y-87274400D03*
%TD*%
D16*
%TO.P,C30,1*%
%TO.N,5V*%
X161391600Y-87731600D03*
%TO.P,C30,2*%
%TO.N,GND*%
X161391600Y-86181600D03*
%TD*%
D15*
%TO.P,C11,1*%
%TO.N,Net-(U4-REF)*%
X147587000Y-98348800D03*
%TO.P,C11,2*%
%TO.N,GND*%
X146037000Y-98348800D03*
%TD*%
D17*
%TO.P,R22,1*%
%TO.N,AVDD*%
X148031200Y-95250000D03*
%TO.P,R22,2*%
%TO.N,Net-(U4-REF)*%
X149681200Y-95250000D03*
%TD*%
D16*
%TO.P,C34,1*%
%TO.N,AVDD*%
X157429200Y-81330800D03*
%TO.P,C34,2*%
%TO.N,GND*%
X157429200Y-79780800D03*
%TD*%
D18*
%TO.P,C39,1*%
%TO.N,GND*%
X156882400Y-100061700D03*
%TO.P,C39,2*%
%TO.N,AVDD*%
X158432400Y-100061700D03*
%TD*%
D15*
%TO.P,C38,1*%
%TO.N,GND*%
X162878000Y-100061700D03*
%TO.P,C38,2*%
%TO.N,DVDD*%
X161328000Y-100061700D03*
%TD*%
D17*
%TO.P,R30,1*%
%TO.N,AVDD*%
X147925200Y-103607200D03*
%TO.P,R30,2*%
%TO.N,Net-(U5-REF)*%
X149575200Y-103607200D03*
%TD*%
%TO.P,R4,1*%
%TO.N,AVDD*%
X148374600Y-79451200D03*
%TO.P,R4,2*%
%TO.N,Net-(U1-REF)*%
X150024600Y-79451200D03*
%TD*%
D12*
%TO.P,C6,1*%
%TO.N,AVDD*%
X145362800Y-87261400D03*
%TO.P,C6,2*%
%TO.N,GND*%
X145362800Y-88811400D03*
%TD*%
D18*
%TO.P,C40,1*%
%TO.N,GND*%
X156882400Y-98537700D03*
%TO.P,C40,2*%
%TO.N,AVDD*%
X158432400Y-98537700D03*
%TD*%
D15*
%TO.P,C37,1*%
%TO.N,GND*%
X162878000Y-98537700D03*
%TO.P,C37,2*%
%TO.N,DVDD*%
X161328000Y-98537700D03*
%TD*%
%TO.P,C1,1*%
%TO.N,Net-(U1-REF)*%
X147790200Y-82499200D03*
%TO.P,C1,2*%
%TO.N,GND*%
X146240200Y-82499200D03*
%TD*%
D13*
%TO.P,R2,1*%
%TO.N,AVDD*%
X142341600Y-80607400D03*
%TO.P,R2,2*%
%TO.N,Net-(U1-IN+)*%
X142341600Y-82257400D03*
%TD*%
%TO.P,R9,1*%
%TO.N,AVDD*%
X142213200Y-88481400D03*
%TO.P,R9,2*%
%TO.N,Net-(U3-IN+)*%
X142213200Y-90131400D03*
%TD*%
%TO.P,R17,1*%
%TO.N,AVDD*%
X141986000Y-96648000D03*
%TO.P,R17,2*%
%TO.N,Net-(U4-IN+)*%
X141986000Y-98298000D03*
%TD*%
D12*
%TO.P,C2,1*%
%TO.N,AVDD*%
X143865600Y-79425200D03*
%TO.P,C2,2*%
%TO.N,GND*%
X143865600Y-80975200D03*
%TD*%
%TO.P,C13,1*%
%TO.N,AVDD*%
X143408400Y-103632000D03*
%TO.P,C13,2*%
%TO.N,GND*%
X143408400Y-105182000D03*
%TD*%
D14*
%TO.P,R31,1*%
%TO.N,Net-(U5-REF)*%
X149568200Y-105131200D03*
%TO.P,R31,2*%
%TO.N,GND*%
X147918200Y-105131200D03*
%TD*%
D16*
%TO.P,C32,1*%
%TO.N,AVDD*%
X158953200Y-81330800D03*
%TO.P,C32,2*%
%TO.N,GND*%
X158953200Y-79780800D03*
%TD*%
%TO.P,C19,1*%
%TO.N,GND*%
X146558000Y-96824800D03*
%TO.P,C19,2*%
%TO.N,AVDD*%
X146558000Y-95274800D03*
%TD*%
D19*
%TO.N,GND*%
X138352400Y-90474800D03*
X143232000Y-107417200D03*
X138355200Y-106858400D03*
X135788400Y-100380800D03*
X171500800Y-87426800D03*
X163830000Y-83820000D03*
X170535600Y-76579600D03*
X143611600Y-90932000D03*
X168960800Y-76579600D03*
X148082000Y-99618800D03*
X147956400Y-107823600D03*
X159156400Y-91287600D03*
X167690800Y-78154400D03*
X138352400Y-91490800D03*
X148410800Y-91236800D03*
X160657065Y-102438028D03*
X169906838Y-91941599D03*
X159969200Y-79349600D03*
X163423600Y-95605600D03*
X138379200Y-82397600D03*
X138355200Y-107874400D03*
X171500800Y-85902800D03*
X159911866Y-103701039D03*
X162763200Y-81178400D03*
X162255200Y-92862400D03*
X144729200Y-90932000D03*
X144678400Y-83007200D03*
X144349600Y-107417200D03*
X137007600Y-84480400D03*
X163830000Y-82296000D03*
X168960800Y-79475200D03*
X159448400Y-102855700D03*
X138379200Y-98298000D03*
X159969200Y-80162400D03*
X135764400Y-108941200D03*
X163372800Y-94081600D03*
X136980800Y-92557600D03*
X138379200Y-99314000D03*
X148437600Y-83566000D03*
X144526000Y-98907600D03*
X137007600Y-100380800D03*
X143510000Y-83007200D03*
X162255200Y-96723200D03*
X135761600Y-92557600D03*
X171500800Y-88950800D03*
X136983600Y-108941200D03*
X143408400Y-98907600D03*
X170535600Y-79475200D03*
X135788400Y-84480400D03*
X162763200Y-84836000D03*
X171754800Y-78154400D03*
X138379200Y-83413600D03*
X160120952Y-91286467D03*
%TO.N,Net-(U5-IN+)*%
X142615100Y-106038300D03*
%TO.N,Net-(U5-REF)*%
X146686400Y-107569600D03*
%TO.N,AVDD*%
X158699200Y-82245200D03*
X154076400Y-100584000D03*
X145186400Y-86156800D03*
X157734000Y-82245200D03*
X144830800Y-102666800D03*
X159397600Y-100061700D03*
X147218400Y-102666800D03*
X142443200Y-94183200D03*
X145084800Y-78384400D03*
X159397600Y-98537700D03*
X155346400Y-85953600D03*
X147472400Y-78384400D03*
X155346400Y-93929200D03*
X155930600Y-81457800D03*
X142341600Y-102666800D03*
X142595600Y-78384400D03*
X147320000Y-94183200D03*
X142697200Y-86156800D03*
X147574000Y-86156800D03*
X144932400Y-94183200D03*
%TO.N,Net-(U6-FB)*%
X170942000Y-90266600D03*
%TO.N,Net-(U4-IN+)*%
X142703300Y-97592900D03*
%TO.N,Net-(U4-REF)*%
X146862800Y-99212400D03*
%TO.N,Net-(U3-REF)*%
X147039200Y-91135200D03*
%TO.N,5V*%
X165811200Y-88900000D03*
X165811200Y-90678000D03*
X159918400Y-88747600D03*
X161391600Y-88747600D03*
X165811200Y-89763600D03*
%TO.N,Net-(U1-REF)*%
X147066000Y-83362800D03*
%TO.N,DVDD*%
X160261200Y-98537700D03*
X160261200Y-100061700D03*
%TO.N,Net-(U3-IN+)*%
X143040000Y-89611300D03*
%TO.N,Net-(U1-IN+)*%
X143031752Y-81631377D03*
%TD*%
%TO.N,GND*%
D20*
X162534000Y-86181600D02*
X162560000Y-86207600D01*
X159867600Y-86181600D02*
X162534000Y-86181600D01*
%TO.N,Net-(U5-IN+)*%
D21*
X141884400Y-106769000D02*
X142615100Y-106038300D01*
%TO.N,Net-(U5-REF)*%
D22*
X148769200Y-106655200D02*
X149575200Y-105849200D01*
X147231400Y-107024600D02*
X146686400Y-107569600D01*
X149575200Y-105849200D02*
X149575200Y-103607200D01*
X147231400Y-106655200D02*
X147231400Y-107024600D01*
X147231400Y-106655200D02*
X148769200Y-106655200D01*
%TO.N,AVDD*%
D20*
X158432400Y-100061700D02*
X159397600Y-100061700D01*
X155930600Y-81457800D02*
X152501600Y-78028800D01*
X152501600Y-78028800D02*
X147116800Y-78028800D01*
X155346400Y-85953600D02*
X147929600Y-85953600D01*
X155346400Y-93929200D02*
X147066000Y-93929200D01*
X154076400Y-100584000D02*
X152349200Y-102311200D01*
X158432400Y-98537700D02*
X159397600Y-98537700D01*
X147929600Y-85953600D02*
X147777200Y-86106000D01*
X152349200Y-102311200D02*
X146812000Y-102311200D01*
%TO.N,Net-(U6-FB)*%
D22*
X168503600Y-92037400D02*
X168503600Y-91045800D01*
X169875200Y-90271600D02*
X169570400Y-90576400D01*
X168503600Y-91045800D02*
X168973000Y-90576400D01*
X170937000Y-90271600D02*
X169875200Y-90271600D01*
X169570400Y-90576400D02*
X168973000Y-90576400D01*
X170942000Y-90266600D02*
X170937000Y-90271600D01*
%TO.N,Net-(U4-IN+)*%
D21*
X141998200Y-98298000D02*
X142703300Y-97592900D01*
X141986000Y-98298000D02*
X141998200Y-98298000D01*
%TO.N,Net-(U4-REF)*%
D22*
X148742400Y-98348800D02*
X149681200Y-97410000D01*
X147587000Y-98348800D02*
X147587000Y-98488200D01*
X147587000Y-98488200D02*
X146862800Y-99212400D01*
X149681200Y-97410000D02*
X149681200Y-95250000D01*
X147587000Y-98348800D02*
X148742400Y-98348800D01*
%TO.N,Net-(U3-REF)*%
X149071200Y-90271600D02*
X150011600Y-89331200D01*
X147661800Y-90512600D02*
X147039200Y-91135200D01*
X147661800Y-90271600D02*
X147661800Y-90512600D01*
X150011600Y-89331200D02*
X150011600Y-87274400D01*
X147661800Y-90271600D02*
X149071200Y-90271600D01*
%TO.N,5V*%
D20*
X159867600Y-88696800D02*
X159918400Y-88747600D01*
X161391600Y-87731600D02*
X161391600Y-88747600D01*
X159867600Y-87731600D02*
X159867600Y-88696800D01*
%TO.N,Net-(U1-REF)*%
D22*
X147472400Y-83362800D02*
X147790200Y-83045000D01*
X150024600Y-81623400D02*
X150024600Y-80975200D01*
X150024600Y-80975200D02*
X150024600Y-79451200D01*
X147790200Y-82499200D02*
X149148800Y-82499200D01*
X149148800Y-82499200D02*
X150024600Y-81623400D01*
X147066000Y-83362800D02*
X147472400Y-83362800D01*
X147790200Y-83045000D02*
X147790200Y-82499200D01*
%TO.N,DVDD*%
D20*
X161328000Y-100061700D02*
X160261200Y-100061700D01*
X161328000Y-98537700D02*
X160261200Y-98537700D01*
%TO.N,Net-(U3-IN+)*%
D21*
X143040000Y-89648000D02*
X142556600Y-90131400D01*
X143040000Y-89611300D02*
X143040000Y-89648000D01*
X142556600Y-90131400D02*
X142213200Y-90131400D01*
%TO.N,Net-(U1-IN+)*%
X142608929Y-82054200D02*
X142341600Y-82054200D01*
X143031752Y-81631377D02*
X142608929Y-82054200D01*
%TD*%
%TA.AperFunction,Conductor*%
%TO.N,AVDD*%
G36*
X143766118Y-93621935D02*
G01*
X143766117Y-93621935D01*
X143789918Y-93621947D01*
X147893407Y-93624066D01*
X147900803Y-93624311D01*
X147908173Y-93624798D01*
X147915556Y-93625528D01*
X148046695Y-93642856D01*
X148061195Y-93645748D01*
X148075426Y-93649568D01*
X148089433Y-93654330D01*
X148201262Y-93700701D01*
X148214539Y-93707255D01*
X148227300Y-93714629D01*
X148239588Y-93722845D01*
X148335615Y-93796575D01*
X148346738Y-93806334D01*
X148357159Y-93816760D01*
X148366920Y-93827895D01*
X148440590Y-93923948D01*
X148448819Y-93936269D01*
X148456176Y-93949017D01*
X148462726Y-93962305D01*
X148509030Y-94074135D01*
X148513790Y-94088161D01*
X148517601Y-94102387D01*
X148520491Y-94116921D01*
X148537747Y-94248035D01*
X148538472Y-94255397D01*
X148538957Y-94262795D01*
X148539200Y-94270195D01*
X148539200Y-95895099D01*
X148534610Y-95927021D01*
X148531037Y-95939189D01*
X148496522Y-95992894D01*
X148438463Y-96019412D01*
X148433063Y-96020189D01*
X148377328Y-96014199D01*
X148365471Y-96009776D01*
X148365471Y-96009775D01*
X148339716Y-96000170D01*
X148315641Y-95997582D01*
X148279532Y-95993700D01*
X148279529Y-95993700D01*
X147782871Y-95993700D01*
X147782868Y-95993700D01*
X147737731Y-95998552D01*
X147722685Y-96000170D01*
X147690968Y-96011999D01*
X147690969Y-96012000D01*
X147588664Y-96050157D01*
X147549070Y-96057300D01*
X143001993Y-96057300D01*
X142973369Y-96058624D01*
X142973367Y-96058624D01*
X142863687Y-96089830D01*
X142772688Y-96158549D01*
X142772684Y-96158554D01*
X142712654Y-96255506D01*
X142712653Y-96255509D01*
X142691700Y-96367601D01*
X142691700Y-96879916D01*
X142673714Y-96941171D01*
X142625467Y-96982977D01*
X142621239Y-96984805D01*
X142603446Y-96992072D01*
X142603375Y-96992079D01*
X142603319Y-96992124D01*
X142589932Y-96996622D01*
X142469666Y-97028848D01*
X142469656Y-97028852D01*
X142331634Y-97108539D01*
X142326268Y-97112657D01*
X142313884Y-97120926D01*
X142312706Y-97121604D01*
X142301150Y-97127914D01*
X142296134Y-97131157D01*
X142293607Y-97132615D01*
X142265335Y-97139453D01*
X142237349Y-97147757D01*
X142177107Y-97147931D01*
X142169676Y-97147708D01*
X142162290Y-97147244D01*
X142154897Y-97146536D01*
X142023400Y-97129571D01*
X142008827Y-97126709D01*
X141994565Y-97122923D01*
X141980490Y-97118179D01*
X141868299Y-97071975D01*
X141854965Y-97065431D01*
X141842169Y-97058073D01*
X141829808Y-97049842D01*
X141733432Y-96976115D01*
X141722249Y-96966334D01*
X141711800Y-96955909D01*
X141702002Y-96944760D01*
X141628033Y-96848541D01*
X141619786Y-96836219D01*
X141612388Y-96823421D01*
X141605822Y-96810120D01*
X141559351Y-96698033D01*
X141554575Y-96683976D01*
X141550749Y-96669703D01*
X141547857Y-96655155D01*
X141530579Y-96523673D01*
X141529857Y-96516337D01*
X141529371Y-96508887D01*
X141529133Y-96501514D01*
X141530288Y-94266903D01*
X141530533Y-94259524D01*
X141531024Y-94252091D01*
X141531752Y-94244747D01*
X141549089Y-94113577D01*
X141551982Y-94099070D01*
X141555806Y-94084828D01*
X141560575Y-94070806D01*
X141606977Y-93958944D01*
X141613529Y-93945676D01*
X141620901Y-93932923D01*
X141629130Y-93920621D01*
X141702910Y-93824571D01*
X141712669Y-93813453D01*
X141723104Y-93803029D01*
X141734230Y-93793282D01*
X141790858Y-93749877D01*
X141830353Y-93719605D01*
X141842679Y-93711378D01*
X141855423Y-93704029D01*
X141868708Y-93697485D01*
X141980641Y-93651188D01*
X141994645Y-93646443D01*
X142008888Y-93642635D01*
X142023401Y-93639757D01*
X142154590Y-93622555D01*
X142161942Y-93621834D01*
X142162517Y-93621796D01*
X142169340Y-93621352D01*
X142176721Y-93621113D01*
X143766118Y-93621935D01*
G37*
%TD.AperFunction*%
%TD*%
%TA.AperFunction,Conductor*%
%TO.N,AVDD*%
G36*
X143993318Y-85646989D02*
G01*
X143993317Y-85646989D01*
X144017118Y-85647001D01*
X148120607Y-85649120D01*
X148128003Y-85649365D01*
X148135373Y-85649852D01*
X148142756Y-85650582D01*
X148273895Y-85667910D01*
X148288395Y-85670802D01*
X148302626Y-85674622D01*
X148316633Y-85679384D01*
X148428462Y-85725755D01*
X148441739Y-85732309D01*
X148454500Y-85739683D01*
X148466788Y-85747899D01*
X148562815Y-85821629D01*
X148573938Y-85831388D01*
X148584359Y-85841814D01*
X148594120Y-85852949D01*
X148667790Y-85949002D01*
X148676019Y-85961323D01*
X148683376Y-85974071D01*
X148689926Y-85987359D01*
X148736230Y-86099189D01*
X148740990Y-86113215D01*
X148744801Y-86127441D01*
X148747691Y-86141975D01*
X148764947Y-86273089D01*
X148765672Y-86280451D01*
X148766157Y-86287849D01*
X148766400Y-86295249D01*
X148766400Y-87892668D01*
X148761810Y-87924591D01*
X148758048Y-87937402D01*
X148723532Y-87991107D01*
X148667462Y-88017320D01*
X148656052Y-88019169D01*
X148625823Y-88019980D01*
X148618103Y-88019150D01*
X148608332Y-88018100D01*
X148608327Y-88018100D01*
X148111671Y-88018100D01*
X148111668Y-88018100D01*
X148094181Y-88019980D01*
X148051481Y-88024570D01*
X148044587Y-88026200D01*
X148044404Y-88025427D01*
X148014073Y-88030900D01*
X143330793Y-88030900D01*
X143302169Y-88032224D01*
X143302167Y-88032224D01*
X143192487Y-88063430D01*
X143101488Y-88132149D01*
X143101484Y-88132154D01*
X143041454Y-88229106D01*
X143041453Y-88229109D01*
X143020500Y-88341201D01*
X143020500Y-88902933D01*
X143002514Y-88964188D01*
X142954267Y-89005994D01*
X142936525Y-89012372D01*
X142806364Y-89047249D01*
X142806356Y-89047252D01*
X142668340Y-89126936D01*
X142668333Y-89126942D01*
X142668322Y-89126952D01*
X142667479Y-89127795D01*
X142666366Y-89128648D01*
X142665298Y-89129575D01*
X142665242Y-89129510D01*
X142643995Y-89145807D01*
X142642814Y-89146487D01*
X142631501Y-89152665D01*
X142626486Y-89155908D01*
X142623986Y-89157351D01*
X142595683Y-89164207D01*
X142567693Y-89172513D01*
X142404307Y-89172985D01*
X142396876Y-89172762D01*
X142389490Y-89172298D01*
X142382097Y-89171590D01*
X142250600Y-89154625D01*
X142236027Y-89151763D01*
X142221765Y-89147977D01*
X142207690Y-89143233D01*
X142095499Y-89097029D01*
X142082165Y-89090485D01*
X142069369Y-89083127D01*
X142057008Y-89074896D01*
X141960632Y-89001169D01*
X141949449Y-88991388D01*
X141939000Y-88980963D01*
X141929202Y-88969814D01*
X141855233Y-88873595D01*
X141846986Y-88861273D01*
X141839588Y-88848475D01*
X141833022Y-88835174D01*
X141786551Y-88723087D01*
X141781775Y-88709030D01*
X141777949Y-88694757D01*
X141775057Y-88680209D01*
X141757779Y-88548727D01*
X141757057Y-88541391D01*
X141756571Y-88533941D01*
X141756333Y-88526568D01*
X141757488Y-86291957D01*
X141757733Y-86284578D01*
X141758224Y-86277145D01*
X141758952Y-86269801D01*
X141776289Y-86138631D01*
X141779182Y-86124124D01*
X141783006Y-86109882D01*
X141787775Y-86095860D01*
X141834177Y-85983998D01*
X141840729Y-85970730D01*
X141848101Y-85957977D01*
X141856330Y-85945675D01*
X141930110Y-85849625D01*
X141939869Y-85838507D01*
X141950304Y-85828083D01*
X141961430Y-85818336D01*
X142018058Y-85774931D01*
X142057553Y-85744659D01*
X142069879Y-85736432D01*
X142082623Y-85729083D01*
X142095908Y-85722539D01*
X142207841Y-85676242D01*
X142221845Y-85671497D01*
X142236088Y-85667689D01*
X142250601Y-85664811D01*
X142381790Y-85647609D01*
X142389142Y-85646888D01*
X142389717Y-85646850D01*
X142396540Y-85646406D01*
X142403921Y-85646167D01*
X143993318Y-85646989D01*
G37*
%TD.AperFunction*%
%TD*%
%TA.AperFunction,Conductor*%
%TO.N,AVDD*%
G36*
X143640518Y-102029935D02*
G01*
X143640517Y-102029935D01*
X143664318Y-102029947D01*
X147767807Y-102032066D01*
X147775203Y-102032311D01*
X147782573Y-102032798D01*
X147789956Y-102033528D01*
X147921095Y-102050856D01*
X147935595Y-102053748D01*
X147949826Y-102057568D01*
X147963833Y-102062330D01*
X148075662Y-102108701D01*
X148088939Y-102115255D01*
X148101700Y-102122629D01*
X148113988Y-102130845D01*
X148210015Y-102204575D01*
X148221138Y-102214334D01*
X148231559Y-102224760D01*
X148241320Y-102235895D01*
X148314990Y-102331948D01*
X148323219Y-102344269D01*
X148330576Y-102357017D01*
X148337126Y-102370305D01*
X148383430Y-102482135D01*
X148388190Y-102496161D01*
X148392001Y-102510387D01*
X148394891Y-102524921D01*
X148412147Y-102656035D01*
X148412872Y-102663397D01*
X148413357Y-102670795D01*
X148413600Y-102678195D01*
X148413600Y-104247600D01*
X148409012Y-104279515D01*
X148408190Y-104282315D01*
X148373678Y-104336023D01*
X148315608Y-104362546D01*
X148299478Y-104363700D01*
X148264127Y-104363700D01*
X148233797Y-104358227D01*
X148233615Y-104359000D01*
X148226720Y-104357371D01*
X148226715Y-104357370D01*
X148226714Y-104357370D01*
X148166532Y-104350900D01*
X148166529Y-104350900D01*
X147669871Y-104350900D01*
X147669868Y-104350900D01*
X147647299Y-104353326D01*
X147609681Y-104357370D01*
X147602787Y-104359000D01*
X147602604Y-104358227D01*
X147572273Y-104363700D01*
X142876393Y-104363700D01*
X142847769Y-104365024D01*
X142847767Y-104365024D01*
X142738087Y-104396230D01*
X142647088Y-104464949D01*
X142647084Y-104464954D01*
X142587054Y-104561906D01*
X142587053Y-104561909D01*
X142566100Y-104674001D01*
X142566100Y-105337838D01*
X142548114Y-105399093D01*
X142499867Y-105440899D01*
X142482125Y-105447277D01*
X142381464Y-105474249D01*
X142381456Y-105474252D01*
X142279923Y-105532873D01*
X142262673Y-105540981D01*
X142257774Y-105542797D01*
X142253042Y-105544073D01*
X142251302Y-105545198D01*
X142243185Y-105548209D01*
X142239629Y-105548456D01*
X142220236Y-105554079D01*
X142218771Y-105554294D01*
X142202647Y-105555495D01*
X142051507Y-105555931D01*
X142044076Y-105555708D01*
X142036690Y-105555244D01*
X142029297Y-105554536D01*
X141897800Y-105537571D01*
X141883227Y-105534709D01*
X141868965Y-105530923D01*
X141854890Y-105526179D01*
X141742699Y-105479975D01*
X141729365Y-105473431D01*
X141716569Y-105466073D01*
X141704208Y-105457842D01*
X141607832Y-105384115D01*
X141596649Y-105374334D01*
X141586200Y-105363909D01*
X141576402Y-105352760D01*
X141502433Y-105256541D01*
X141494186Y-105244219D01*
X141486788Y-105231421D01*
X141480222Y-105218120D01*
X141433751Y-105106033D01*
X141428975Y-105091976D01*
X141425149Y-105077703D01*
X141422257Y-105063155D01*
X141404979Y-104931673D01*
X141404257Y-104924337D01*
X141403771Y-104916887D01*
X141403533Y-104909514D01*
X141404688Y-102674903D01*
X141404933Y-102667524D01*
X141405424Y-102660091D01*
X141406152Y-102652747D01*
X141423489Y-102521577D01*
X141426382Y-102507070D01*
X141430206Y-102492828D01*
X141434975Y-102478806D01*
X141481377Y-102366944D01*
X141487929Y-102353676D01*
X141495301Y-102340923D01*
X141503530Y-102328621D01*
X141577310Y-102232571D01*
X141587069Y-102221453D01*
X141597504Y-102211029D01*
X141608630Y-102201282D01*
X141665258Y-102157877D01*
X141704753Y-102127605D01*
X141717079Y-102119378D01*
X141729823Y-102112029D01*
X141743108Y-102105485D01*
X141855041Y-102059188D01*
X141869045Y-102054443D01*
X141883288Y-102050635D01*
X141897801Y-102047757D01*
X142028990Y-102030555D01*
X142036342Y-102029834D01*
X142036917Y-102029796D01*
X142043740Y-102029352D01*
X142051121Y-102029113D01*
X143640518Y-102029935D01*
G37*
%TD.AperFunction*%
%TD*%
%TA.AperFunction,Conductor*%
%TO.N,AVDD*%
G36*
X143454488Y-77721190D02*
G01*
X148096607Y-77723588D01*
X148104002Y-77723833D01*
X148111372Y-77724320D01*
X148118753Y-77725050D01*
X148141734Y-77728086D01*
X148249892Y-77742378D01*
X148264395Y-77745270D01*
X148278626Y-77749090D01*
X148292633Y-77753852D01*
X148404462Y-77800223D01*
X148417739Y-77806777D01*
X148430500Y-77814151D01*
X148442788Y-77822367D01*
X148538815Y-77896097D01*
X148549946Y-77905864D01*
X148560353Y-77916276D01*
X148570121Y-77927419D01*
X148643788Y-78023467D01*
X148652016Y-78035786D01*
X148659375Y-78048537D01*
X148665926Y-78061827D01*
X148712230Y-78173657D01*
X148716990Y-78187683D01*
X148720801Y-78201909D01*
X148723691Y-78216443D01*
X148740947Y-78347557D01*
X148741672Y-78354919D01*
X148742157Y-78362317D01*
X148742400Y-78369717D01*
X148742400Y-80065476D01*
X148737809Y-80097400D01*
X148733784Y-80111106D01*
X148699684Y-80164449D01*
X148699660Y-80164470D01*
X148646167Y-80190518D01*
X148633531Y-80192915D01*
X148612415Y-80194900D01*
X148126271Y-80194900D01*
X148126268Y-80194900D01*
X148103699Y-80197326D01*
X148066081Y-80201370D01*
X148059187Y-80203000D01*
X148059004Y-80202227D01*
X148028673Y-80207700D01*
X143306793Y-80207700D01*
X143278169Y-80209024D01*
X143278167Y-80209024D01*
X143168487Y-80240230D01*
X143077488Y-80308949D01*
X143077484Y-80308954D01*
X143017454Y-80405906D01*
X143017453Y-80405909D01*
X142996500Y-80518001D01*
X142996500Y-80927232D01*
X142978514Y-80988487D01*
X142930267Y-81030293D01*
X142912524Y-81036671D01*
X142798117Y-81067325D01*
X142798108Y-81067329D01*
X142660091Y-81147014D01*
X142660080Y-81147024D01*
X142606108Y-81200994D01*
X142594995Y-81210743D01*
X142591653Y-81213309D01*
X142586675Y-81215234D01*
X142580023Y-81219784D01*
X142580310Y-81220309D01*
X142578829Y-81221118D01*
X142578623Y-81220741D01*
X142571213Y-81225809D01*
X142563852Y-81229300D01*
X142561084Y-81230812D01*
X142548545Y-81234103D01*
X142540203Y-81239628D01*
X142508349Y-81244655D01*
X142507985Y-81244660D01*
X142491933Y-81243740D01*
X142379000Y-81229171D01*
X142364430Y-81226310D01*
X142354634Y-81223710D01*
X142350166Y-81222523D01*
X142336098Y-81217782D01*
X142223893Y-81171572D01*
X142210565Y-81165031D01*
X142197769Y-81157673D01*
X142185407Y-81149442D01*
X142089028Y-81075712D01*
X142077850Y-81065935D01*
X142067405Y-81055515D01*
X142057599Y-81044357D01*
X141983642Y-80948152D01*
X141975386Y-80935817D01*
X141968000Y-80923043D01*
X141961427Y-80909732D01*
X141914945Y-80797619D01*
X141910174Y-80783574D01*
X141906349Y-80769300D01*
X141903455Y-80754741D01*
X141886179Y-80623273D01*
X141885457Y-80615937D01*
X141884971Y-80608487D01*
X141884733Y-80601114D01*
X141885888Y-78366503D01*
X141886133Y-78359124D01*
X141886624Y-78351691D01*
X141887352Y-78344347D01*
X141904689Y-78213178D01*
X141907586Y-78198655D01*
X141911403Y-78184439D01*
X141916169Y-78170421D01*
X141962577Y-78058544D01*
X141969129Y-78045276D01*
X141976501Y-78032523D01*
X141984730Y-78020221D01*
X142058510Y-77924171D01*
X142068269Y-77913053D01*
X142078704Y-77902629D01*
X142089830Y-77892882D01*
X142181813Y-77822378D01*
X142185953Y-77819205D01*
X142198279Y-77810978D01*
X142211023Y-77803629D01*
X142224308Y-77797085D01*
X142336241Y-77750788D01*
X142350245Y-77746043D01*
X142364488Y-77742235D01*
X142379001Y-77739357D01*
X142510190Y-77722155D01*
X142517542Y-77721434D01*
X142518117Y-77721396D01*
X142524940Y-77720952D01*
X142532320Y-77720713D01*
X143454488Y-77721190D01*
G37*
%TD.AperFunction*%
%TD*%
%TA.AperFunction,Conductor*%
%TO.N,AVDD*%
G36*
X158344548Y-80420989D02*
G01*
X158371133Y-80428795D01*
X158376179Y-80431340D01*
X158379463Y-80431596D01*
X158407668Y-80447224D01*
X158427899Y-80462565D01*
X158427900Y-80462567D01*
X158437417Y-80469784D01*
X158440852Y-80472389D01*
X158541385Y-80512033D01*
X158576463Y-80525866D01*
X158641212Y-80533641D01*
X158661680Y-80536100D01*
X159174721Y-80536100D01*
X159235976Y-80554086D01*
X159277782Y-80602333D01*
X159287370Y-80661527D01*
X159283732Y-80695315D01*
X159283732Y-80695330D01*
X159288677Y-80758968D01*
X159307989Y-80845175D01*
X159307990Y-80845177D01*
X159312799Y-80857831D01*
X159312808Y-80857852D01*
X159331439Y-80897989D01*
X159331447Y-80898005D01*
X159337889Y-80909632D01*
X159337899Y-80909648D01*
X159347064Y-80926188D01*
X159361435Y-80947177D01*
X159360307Y-80947930D01*
X159360309Y-80947933D01*
X159371238Y-80963295D01*
X159375068Y-80968346D01*
X159375094Y-80968381D01*
X159380061Y-80974930D01*
X159380062Y-80974931D01*
X159382517Y-80978168D01*
X159387357Y-80984551D01*
X159402479Y-81011445D01*
X159414591Y-81042158D01*
X159421682Y-81070208D01*
X159422391Y-81076109D01*
X159423200Y-81089625D01*
X159423200Y-81571970D01*
X159422390Y-81585481D01*
X159421680Y-81591402D01*
X159414591Y-81619438D01*
X159402480Y-81650150D01*
X159387355Y-81677048D01*
X159369632Y-81700418D01*
X159347818Y-81722232D01*
X159324448Y-81739955D01*
X159297556Y-81755077D01*
X159275260Y-81763870D01*
X159275250Y-81763875D01*
X159228282Y-81787158D01*
X159228277Y-81787161D01*
X159195639Y-81806940D01*
X159153275Y-81837790D01*
X159153261Y-81837801D01*
X159144425Y-81845457D01*
X159086572Y-81912227D01*
X159065823Y-81944516D01*
X159052069Y-81965918D01*
X159015381Y-82046254D01*
X159011357Y-82059958D01*
X159001947Y-82103222D01*
X159001945Y-82103233D01*
X158997358Y-82135136D01*
X158997355Y-82135165D01*
X158994200Y-82179289D01*
X158994200Y-82269121D01*
X158990339Y-82298445D01*
X158990339Y-82298448D01*
X158977956Y-82344657D01*
X158966638Y-82371979D01*
X158942715Y-82413416D01*
X158924709Y-82436882D01*
X158890882Y-82470709D01*
X158867416Y-82488715D01*
X158825979Y-82512638D01*
X158798657Y-82523956D01*
X158771598Y-82531207D01*
X158752444Y-82536339D01*
X158723121Y-82540200D01*
X158675278Y-82540200D01*
X158645955Y-82536339D01*
X158612156Y-82527283D01*
X158599744Y-82523957D01*
X158572422Y-82512640D01*
X158555963Y-82503138D01*
X158526199Y-82485953D01*
X158507136Y-82472120D01*
X158500040Y-82465745D01*
X158500031Y-82465737D01*
X158500020Y-82465728D01*
X158481183Y-82450547D01*
X158454218Y-82431105D01*
X158454219Y-82431105D01*
X158448268Y-82427281D01*
X158378516Y-82393911D01*
X158378514Y-82393910D01*
X158378508Y-82393908D01*
X158325342Y-82376212D01*
X158325344Y-82376212D01*
X158249371Y-82361116D01*
X158249368Y-82361115D01*
X158249365Y-82361115D01*
X158247706Y-82360997D01*
X158247705Y-82360997D01*
X158159723Y-82367308D01*
X158159711Y-82367310D01*
X158097353Y-82380877D01*
X158014611Y-82411739D01*
X158002077Y-82418582D01*
X158002075Y-82418583D01*
X157964821Y-82442525D01*
X157964818Y-82442527D01*
X157939013Y-82461844D01*
X157927726Y-82471624D01*
X157910187Y-82484113D01*
X157860783Y-82512637D01*
X157833458Y-82523956D01*
X157802925Y-82532137D01*
X157787245Y-82536339D01*
X157757921Y-82540200D01*
X157710078Y-82540200D01*
X157680755Y-82536339D01*
X157646956Y-82527283D01*
X157634544Y-82523957D01*
X157607221Y-82512639D01*
X157565781Y-82488714D01*
X157542315Y-82470708D01*
X157508489Y-82436882D01*
X157490487Y-82413423D01*
X157488675Y-82410283D01*
X157488672Y-82410279D01*
X157466558Y-82371978D01*
X157455244Y-82344663D01*
X157442859Y-82298442D01*
X157439000Y-82269123D01*
X157439000Y-82196872D01*
X157439000Y-82196866D01*
X157434567Y-82144603D01*
X157428140Y-82106989D01*
X157419676Y-82074360D01*
X157418704Y-82070128D01*
X157418424Y-82069532D01*
X157414979Y-82056250D01*
X157411099Y-82045224D01*
X157402254Y-82022889D01*
X157389144Y-82003751D01*
X157380079Y-81987914D01*
X157370214Y-81966916D01*
X157369495Y-81965918D01*
X157354087Y-81944516D01*
X157332917Y-81915112D01*
X157271645Y-81851515D01*
X157260371Y-81842743D01*
X157260358Y-81842734D01*
X157223587Y-81818123D01*
X157223579Y-81818118D01*
X157223577Y-81818117D01*
X157220739Y-81816498D01*
X157217898Y-81814877D01*
X157217895Y-81814875D01*
X157213133Y-81812159D01*
X157195573Y-81802141D01*
X157155642Y-81782998D01*
X157082446Y-81754134D01*
X157080052Y-81753060D01*
X157077738Y-81751083D01*
X157057953Y-81739958D01*
X157034578Y-81722232D01*
X157012765Y-81700420D01*
X156995022Y-81677023D01*
X156972341Y-81617351D01*
X156972000Y-81608564D01*
X156972000Y-81062542D01*
X156972242Y-81055144D01*
X156972726Y-81047747D01*
X156973454Y-81040352D01*
X156973892Y-81037026D01*
X156995947Y-80983355D01*
X156999881Y-80978168D01*
X157011967Y-80962231D01*
X157034369Y-80928277D01*
X157049032Y-80902526D01*
X157066791Y-80865957D01*
X157071016Y-80855576D01*
X157091942Y-80773480D01*
X157098831Y-80712577D01*
X157098831Y-80712570D01*
X157098952Y-80710730D01*
X157099080Y-80710379D01*
X157099134Y-80709903D01*
X157099249Y-80709916D01*
X157104894Y-80694481D01*
X157106334Y-80677240D01*
X157120289Y-80652389D01*
X157120880Y-80650774D01*
X157122089Y-80649167D01*
X157144399Y-80620093D01*
X157154151Y-80608974D01*
X157164581Y-80598545D01*
X157175695Y-80588798D01*
X157200943Y-80569425D01*
X157229057Y-80553639D01*
X157254714Y-80543721D01*
X157295565Y-80536100D01*
X157720716Y-80536100D01*
X157720720Y-80536100D01*
X157738988Y-80533905D01*
X157738993Y-80533906D01*
X157738993Y-80533905D01*
X157741191Y-80533641D01*
X157805937Y-80525866D01*
X157928259Y-80477629D01*
X157941547Y-80472389D01*
X157941547Y-80472388D01*
X157941549Y-80472388D01*
X157941551Y-80472386D01*
X157948149Y-80469784D01*
X157956311Y-80461192D01*
X157972048Y-80449258D01*
X158000246Y-80433634D01*
X158026149Y-80423790D01*
X158066398Y-80416400D01*
X158312628Y-80416400D01*
X158344548Y-80420989D01*
G37*
%TD.AperFunction*%
%TD*%
%TA.AperFunction,Conductor*%
%TO.N,GND*%
G36*
X148413600Y-106249900D02*
G01*
X148042315Y-106249900D01*
X147981060Y-106231914D01*
X147939254Y-106183667D01*
X147936915Y-106178165D01*
X147922990Y-106142854D01*
X147922987Y-106142849D01*
X147889022Y-106098060D01*
X147834904Y-106026696D01*
X147776826Y-105982654D01*
X147718750Y-105938612D01*
X147718748Y-105938611D01*
X147583138Y-105885134D01*
X147497920Y-105874900D01*
X147497918Y-105874900D01*
X146964882Y-105874900D01*
X146964880Y-105874900D01*
X146879661Y-105885134D01*
X146744051Y-105938611D01*
X146744049Y-105938612D01*
X146627896Y-106026696D01*
X146539812Y-106142849D01*
X146539811Y-106142851D01*
X146486334Y-106278461D01*
X146476100Y-106363679D01*
X146476100Y-106926662D01*
X146458114Y-106987917D01*
X146419451Y-107024782D01*
X146357314Y-107060658D01*
X146314737Y-107085240D01*
X146314736Y-107085241D01*
X146314735Y-107085241D01*
X146236776Y-107163200D01*
X142876400Y-107163200D01*
X142876400Y-106586378D01*
X142986763Y-106522660D01*
X143099460Y-106409963D01*
X143179150Y-106271937D01*
X143220400Y-106117989D01*
X143220400Y-105958611D01*
X143179150Y-105804663D01*
X143099460Y-105666637D01*
X142986763Y-105553940D01*
X142960760Y-105538927D01*
X142876400Y-105490220D01*
X142876400Y-104674000D01*
X148413600Y-104674000D01*
X148413600Y-106249900D01*
G37*
%TD.AperFunction*%
%TA.AperFunction,Conductor*%
G36*
X148413600Y-107163200D02*
G01*
X147924704Y-107163200D01*
X147936915Y-107132235D01*
X147976118Y-107081850D01*
X148036339Y-107060658D01*
X148042315Y-107060500D01*
X148413600Y-107060500D01*
X148413600Y-107163200D01*
G37*
%TD.AperFunction*%
%TD*%
%TA.AperFunction,Conductor*%
%TO.N,GND*%
G36*
X148907506Y-105663794D02*
G01*
X148912051Y-105665721D01*
X148958539Y-105702140D01*
X148971515Y-105719474D01*
X148977589Y-105730597D01*
X148986969Y-105747774D01*
X148991960Y-105761154D01*
X148996516Y-105824830D01*
X148995886Y-105827734D01*
X148995286Y-105830491D01*
X148964693Y-105886524D01*
X148964689Y-105886527D01*
X148646021Y-106205196D01*
X148620212Y-106224518D01*
X148604288Y-106233214D01*
X148599118Y-106236037D01*
X148585922Y-106239406D01*
X148576734Y-106245311D01*
X148544814Y-106249900D01*
X148513812Y-106249900D01*
X148481888Y-106245309D01*
X148471972Y-106242397D01*
X148458272Y-106233592D01*
X148452557Y-106231914D01*
X148448655Y-106227411D01*
X148418267Y-106207881D01*
X148413600Y-106197660D01*
X148413600Y-106069386D01*
X148431331Y-106046024D01*
X148432090Y-106045384D01*
X148446500Y-106035049D01*
X148558039Y-105967622D01*
X148558045Y-105967617D01*
X148679617Y-105846045D01*
X148679622Y-105846039D01*
X148756988Y-105718059D01*
X148777418Y-105693128D01*
X148786778Y-105684556D01*
X148844095Y-105656452D01*
X148907506Y-105663794D01*
G37*
%TD.AperFunction*%
%TA.AperFunction,Conductor*%
G36*
X145651140Y-67865889D02*
G01*
X145661055Y-67868800D01*
X145674751Y-67877601D01*
X145690377Y-67882187D01*
X145701052Y-67894503D01*
X145714762Y-67903313D01*
X145721525Y-67918122D01*
X145732192Y-67930428D01*
X145734514Y-67946560D01*
X145741284Y-67961384D01*
X145738967Y-67977504D01*
X145741287Y-67993617D01*
X145732207Y-68024561D01*
X145731032Y-68027135D01*
X145694559Y-68071747D01*
X145623075Y-68123683D01*
X145621700Y-68124639D01*
X145621237Y-68125019D01*
X145621234Y-68125021D01*
X145621231Y-68125023D01*
X145621226Y-68125028D01*
X145480728Y-68265526D01*
X145480337Y-68266003D01*
X145479371Y-68267391D01*
X145427794Y-68338378D01*
X145427795Y-68338379D01*
X145363914Y-68426305D01*
X145363910Y-68426311D01*
X145273698Y-68603362D01*
X145273697Y-68603364D01*
X145273697Y-68603365D01*
X145212288Y-68792363D01*
X145212284Y-68792374D01*
X145212283Y-68792379D01*
X145181200Y-68988636D01*
X145181200Y-68988638D01*
X145181200Y-68988640D01*
X145181200Y-75283359D01*
X145212285Y-75479628D01*
X145212286Y-75479632D01*
X145212287Y-75479637D01*
X145273696Y-75668632D01*
X145363914Y-75845694D01*
X145480719Y-76006463D01*
X145621237Y-76146981D01*
X145782006Y-76263786D01*
X145959068Y-76354004D01*
X146148063Y-76415413D01*
X146344338Y-76446500D01*
X146344341Y-76446500D01*
X147559059Y-76446500D01*
X147559062Y-76446500D01*
X147755337Y-76415413D01*
X147944332Y-76354004D01*
X148121394Y-76263786D01*
X148282163Y-76146981D01*
X148422681Y-76006463D01*
X148539486Y-75845694D01*
X148629704Y-75668632D01*
X148691113Y-75479637D01*
X148722200Y-75283362D01*
X148722200Y-75184001D01*
X148722200Y-75118109D01*
X148722200Y-69022108D01*
X148722200Y-68988638D01*
X148691113Y-68792363D01*
X148629704Y-68603368D01*
X148539486Y-68426306D01*
X148422681Y-68265537D01*
X148282163Y-68125019D01*
X148280324Y-68123683D01*
X148214468Y-68075835D01*
X148204644Y-68063234D01*
X148192081Y-68054309D01*
X148191341Y-68053360D01*
X148185031Y-68045177D01*
X148179509Y-68030994D01*
X148175926Y-68026398D01*
X148172081Y-68016824D01*
X148171450Y-68010293D01*
X148161870Y-67985686D01*
X148166747Y-67961612D01*
X148165943Y-67953279D01*
X148170058Y-67945275D01*
X148174548Y-67923117D01*
X148189206Y-67908033D01*
X148195135Y-67896504D01*
X148207196Y-67889522D01*
X148219038Y-67877337D01*
X148221538Y-67875925D01*
X148238287Y-67871526D01*
X148250387Y-67864523D01*
X148262757Y-67865098D01*
X148277219Y-67861300D01*
X157785823Y-67861300D01*
X157817740Y-67865889D01*
X157827655Y-67868800D01*
X157881362Y-67903313D01*
X157907884Y-67961384D01*
X157898807Y-68024561D01*
X157897632Y-68027135D01*
X157861159Y-68071747D01*
X157789675Y-68123683D01*
X157788300Y-68124639D01*
X157787837Y-68125019D01*
X157787834Y-68125021D01*
X157787831Y-68125023D01*
X157787826Y-68125028D01*
X157647328Y-68265526D01*
X157646937Y-68266003D01*
X157645971Y-68267391D01*
X157594394Y-68338378D01*
X157594395Y-68338379D01*
X157530514Y-68426305D01*
X157530510Y-68426311D01*
X157440298Y-68603362D01*
X157440297Y-68603364D01*
X157440297Y-68603365D01*
X157378888Y-68792363D01*
X157378884Y-68792374D01*
X157378883Y-68792379D01*
X157347800Y-68988636D01*
X157347800Y-68988638D01*
X157347800Y-68988640D01*
X157347800Y-75283359D01*
X157378885Y-75479628D01*
X157378886Y-75479632D01*
X157378887Y-75479637D01*
X157440296Y-75668632D01*
X157530514Y-75845694D01*
X157647319Y-76006463D01*
X157787837Y-76146981D01*
X157948606Y-76263786D01*
X158125668Y-76354004D01*
X158314663Y-76415413D01*
X158510938Y-76446500D01*
X158510941Y-76446500D01*
X159725659Y-76446500D01*
X159725662Y-76446500D01*
X159921937Y-76415413D01*
X160110932Y-76354004D01*
X160287994Y-76263786D01*
X160448763Y-76146981D01*
X160589281Y-76006463D01*
X160706086Y-75845694D01*
X160796304Y-75668632D01*
X160857713Y-75479637D01*
X160888800Y-75283362D01*
X160888800Y-75184001D01*
X160888800Y-75118109D01*
X160888800Y-69022108D01*
X160888800Y-68988638D01*
X160857713Y-68792363D01*
X160796304Y-68603368D01*
X160706086Y-68426306D01*
X160589281Y-68265537D01*
X160448763Y-68125019D01*
X160446924Y-68123683D01*
X160381068Y-68075835D01*
X160371244Y-68063234D01*
X160358681Y-68054309D01*
X160357941Y-68053360D01*
X160351631Y-68045177D01*
X160346109Y-68030994D01*
X160342526Y-68026398D01*
X160338681Y-68016824D01*
X160338050Y-68010293D01*
X160328470Y-67985686D01*
X160333347Y-67961612D01*
X160332543Y-67953279D01*
X160336658Y-67945275D01*
X160341148Y-67923117D01*
X160355806Y-67908033D01*
X160361735Y-67896504D01*
X160373796Y-67889522D01*
X160385638Y-67877337D01*
X160388138Y-67875925D01*
X160404887Y-67871526D01*
X160416987Y-67864523D01*
X160429357Y-67865098D01*
X160443819Y-67861300D01*
X161287580Y-67861300D01*
X161289101Y-67861310D01*
X161290874Y-67861335D01*
X161292378Y-67861368D01*
X161920597Y-67879647D01*
X161923830Y-67879788D01*
X161927138Y-67879981D01*
X161930348Y-67880215D01*
X162553939Y-67934771D01*
X162557171Y-67935101D01*
X162560473Y-67935487D01*
X162563698Y-67935912D01*
X163183041Y-68026632D01*
X163186283Y-68027155D01*
X163189514Y-68027726D01*
X163192715Y-68028339D01*
X163805716Y-68154914D01*
X163808839Y-68155606D01*
X163812153Y-68156391D01*
X163815224Y-68157166D01*
X164419889Y-68319186D01*
X164422926Y-68320047D01*
X164426223Y-68321033D01*
X164429272Y-68321995D01*
X165023461Y-68518888D01*
X165026526Y-68519954D01*
X165029627Y-68521083D01*
X165032665Y-68522239D01*
X165614408Y-68753350D01*
X165617355Y-68754572D01*
X165620424Y-68755895D01*
X165623384Y-68757222D01*
X166190711Y-69021771D01*
X166193644Y-69023191D01*
X166196571Y-69024662D01*
X166196605Y-69024679D01*
X166199500Y-69026187D01*
X166750404Y-69323232D01*
X166753246Y-69324817D01*
X166756120Y-69326476D01*
X166758909Y-69328140D01*
X167291662Y-69656746D01*
X167294441Y-69658517D01*
X167297193Y-69660327D01*
X167299889Y-69662157D01*
X167812582Y-70021149D01*
X167815242Y-70023070D01*
X167817905Y-70025052D01*
X167820502Y-70027044D01*
X168311469Y-70415250D01*
X168314022Y-70417330D01*
X168316551Y-70419452D01*
X168319046Y-70421608D01*
X168786572Y-70837671D01*
X168789000Y-70839896D01*
X168791421Y-70842180D01*
X168793787Y-70844478D01*
X169236320Y-71287011D01*
X169238618Y-71289377D01*
X169240902Y-71291798D01*
X169243127Y-71294226D01*
X169659190Y-71761752D01*
X169661346Y-71764247D01*
X169663468Y-71766776D01*
X169665548Y-71769329D01*
X170053731Y-72260266D01*
X170055746Y-72262893D01*
X170057728Y-72265556D01*
X170059649Y-72268216D01*
X170418620Y-72780878D01*
X170420471Y-72783605D01*
X170422281Y-72786357D01*
X170424052Y-72789136D01*
X170752635Y-73321851D01*
X170754333Y-73324697D01*
X170755979Y-73327549D01*
X170757576Y-73330411D01*
X171054603Y-73881282D01*
X171056118Y-73884193D01*
X171057602Y-73887147D01*
X171059045Y-73890125D01*
X171323570Y-74457401D01*
X171324898Y-74460362D01*
X171326217Y-74463420D01*
X171327462Y-74466427D01*
X171558538Y-75048077D01*
X171559722Y-75051189D01*
X171560862Y-75054324D01*
X171561932Y-75057405D01*
X171758786Y-75651476D01*
X171759781Y-75654632D01*
X171760738Y-75657830D01*
X171761633Y-75660988D01*
X171923607Y-76265482D01*
X171924420Y-76268701D01*
X171925190Y-76271953D01*
X171925897Y-76275147D01*
X172052452Y-76888047D01*
X172053073Y-76891294D01*
X172053647Y-76894551D01*
X172054171Y-76897794D01*
X172144884Y-77517086D01*
X172145311Y-77520335D01*
X172145694Y-77523603D01*
X172146028Y-77526876D01*
X172200577Y-78150370D01*
X172200817Y-78153668D01*
X172201010Y-78156987D01*
X172201153Y-78160269D01*
X172219427Y-78788321D01*
X172219462Y-78789905D01*
X172219487Y-78791560D01*
X172219500Y-78793271D01*
X172219500Y-106677527D01*
X172219487Y-106679238D01*
X172219462Y-106680893D01*
X172219427Y-106682477D01*
X172201153Y-107310529D01*
X172201010Y-107313811D01*
X172200817Y-107317130D01*
X172200577Y-107320428D01*
X172146028Y-107943922D01*
X172145694Y-107947186D01*
X172145316Y-107950433D01*
X172145315Y-107950439D01*
X172144884Y-107953712D01*
X172054171Y-108573004D01*
X172053647Y-108576247D01*
X172053073Y-108579504D01*
X172052452Y-108582751D01*
X171925897Y-109195651D01*
X171925190Y-109198845D01*
X171924420Y-109202097D01*
X171923607Y-109205316D01*
X171761633Y-109809810D01*
X171760738Y-109812968D01*
X171759781Y-109816166D01*
X171758786Y-109819322D01*
X171561932Y-110413393D01*
X171560862Y-110416474D01*
X171559722Y-110419609D01*
X171558538Y-110422721D01*
X171327462Y-111004371D01*
X171326216Y-111007379D01*
X171324909Y-111010410D01*
X171323570Y-111013397D01*
X171059045Y-111580673D01*
X171057602Y-111583651D01*
X171056118Y-111586605D01*
X171054603Y-111589516D01*
X170757576Y-112140387D01*
X170755979Y-112143249D01*
X170754333Y-112146101D01*
X170752635Y-112148947D01*
X170424052Y-112681662D01*
X170422281Y-112684441D01*
X170420471Y-112687193D01*
X170418620Y-112689920D01*
X170059649Y-113202582D01*
X170057728Y-113205242D01*
X170055746Y-113207905D01*
X170053731Y-113210532D01*
X169665548Y-113701469D01*
X169663468Y-113704022D01*
X169661346Y-113706551D01*
X169659190Y-113709046D01*
X169243127Y-114176572D01*
X169240902Y-114179000D01*
X169238618Y-114181421D01*
X169236320Y-114183787D01*
X168793787Y-114626320D01*
X168791421Y-114628618D01*
X168789000Y-114630902D01*
X168786572Y-114633127D01*
X168319046Y-115049190D01*
X168316551Y-115051346D01*
X168314022Y-115053468D01*
X168311469Y-115055548D01*
X167820532Y-115443731D01*
X167817905Y-115445746D01*
X167815242Y-115447728D01*
X167812582Y-115449649D01*
X167299920Y-115808620D01*
X167297193Y-115810471D01*
X167294441Y-115812281D01*
X167291662Y-115814052D01*
X166758947Y-116142635D01*
X166756101Y-116144333D01*
X166753249Y-116145979D01*
X166750387Y-116147576D01*
X166199516Y-116444603D01*
X166196605Y-116446118D01*
X166193651Y-116447602D01*
X166190673Y-116449045D01*
X165623397Y-116713570D01*
X165620410Y-116714909D01*
X165617391Y-116716212D01*
X165614371Y-116717462D01*
X165032721Y-116948538D01*
X165029609Y-116949722D01*
X165026474Y-116950862D01*
X165023393Y-116951932D01*
X164429322Y-117148786D01*
X164426166Y-117149781D01*
X164422968Y-117150738D01*
X164419810Y-117151633D01*
X163815316Y-117313607D01*
X163812097Y-117314420D01*
X163808845Y-117315190D01*
X163805651Y-117315897D01*
X163192751Y-117442452D01*
X163189504Y-117443073D01*
X163186247Y-117443647D01*
X163183004Y-117444171D01*
X162563712Y-117534884D01*
X162560455Y-117535312D01*
X162557186Y-117535694D01*
X162553922Y-117536028D01*
X161930428Y-117590577D01*
X161927130Y-117590817D01*
X161923811Y-117591010D01*
X161920529Y-117591153D01*
X161292478Y-117609427D01*
X161290895Y-117609462D01*
X161289241Y-117609487D01*
X161287529Y-117609500D01*
X160450777Y-117609500D01*
X160418853Y-117604909D01*
X160408937Y-117601997D01*
X160355232Y-117567481D01*
X160328714Y-117509408D01*
X160337792Y-117446237D01*
X160338972Y-117443655D01*
X160375442Y-117399050D01*
X160448763Y-117345781D01*
X160589281Y-117205263D01*
X160706086Y-117044494D01*
X160796304Y-116867432D01*
X160857713Y-116678437D01*
X160888800Y-116482162D01*
X160888800Y-116382801D01*
X160888800Y-116316909D01*
X160888800Y-110220908D01*
X160888800Y-110187438D01*
X160857713Y-109991163D01*
X160796304Y-109802168D01*
X160706086Y-109625106D01*
X160589281Y-109464337D01*
X160448763Y-109323819D01*
X160287994Y-109207014D01*
X160287993Y-109207013D01*
X160287991Y-109207012D01*
X160282376Y-109204151D01*
X160282373Y-109204149D01*
X160126922Y-109124943D01*
X160122042Y-109121397D01*
X160099825Y-109112194D01*
X160093866Y-109111251D01*
X159921937Y-109055387D01*
X159921933Y-109055386D01*
X159921932Y-109055386D01*
X159921929Y-109055385D01*
X159921621Y-109055308D01*
X159920020Y-109055082D01*
X159814502Y-109038370D01*
X159814501Y-109038369D01*
X159725666Y-109024300D01*
X159725662Y-109024300D01*
X159692192Y-109024300D01*
X158676191Y-109024300D01*
X158610299Y-109024300D01*
X158510938Y-109024300D01*
X158510934Y-109024300D01*
X158433744Y-109036526D01*
X158433743Y-109036526D01*
X158323469Y-109053991D01*
X158316438Y-109054544D01*
X158310427Y-109056762D01*
X158125741Y-109116771D01*
X158125676Y-109116792D01*
X158125656Y-109116801D01*
X157948611Y-109207010D01*
X157948605Y-109207014D01*
X157860679Y-109270895D01*
X157789691Y-109322471D01*
X157788303Y-109323437D01*
X157787838Y-109323818D01*
X157787837Y-109323819D01*
X157787834Y-109323821D01*
X157787831Y-109323823D01*
X157787826Y-109323828D01*
X157647328Y-109464326D01*
X157646942Y-109464797D01*
X157645967Y-109466198D01*
X157530510Y-109625110D01*
X157440298Y-109802162D01*
X157440297Y-109802164D01*
X157440297Y-109802165D01*
X157378888Y-109991163D01*
X157378884Y-109991174D01*
X157378883Y-109991179D01*
X157347800Y-110187436D01*
X157347800Y-116482162D01*
X157378253Y-116674446D01*
X157378255Y-116674454D01*
X157378885Y-116678428D01*
X157378886Y-116678432D01*
X157378887Y-116678437D01*
X157391373Y-116716863D01*
X157391615Y-116717607D01*
X157391642Y-116717695D01*
X157440294Y-116867427D01*
X157440298Y-116867437D01*
X157482554Y-116950370D01*
X157482555Y-116950371D01*
X157530514Y-117044494D01*
X157647319Y-117205263D01*
X157787837Y-117345781D01*
X157855530Y-117394962D01*
X157865353Y-117407561D01*
X157877910Y-117416480D01*
X157878632Y-117417405D01*
X157884967Y-117425621D01*
X157890485Y-117439794D01*
X157894067Y-117444388D01*
X157897914Y-117453964D01*
X157898545Y-117460496D01*
X157908129Y-117485111D01*
X157903253Y-117509176D01*
X157904059Y-117517509D01*
X157899942Y-117525518D01*
X157895452Y-117547680D01*
X157880798Y-117562760D01*
X157874874Y-117574287D01*
X157862815Y-117581268D01*
X157850974Y-117593455D01*
X157848510Y-117594847D01*
X157831751Y-117599253D01*
X157819625Y-117606274D01*
X157807237Y-117605698D01*
X157792781Y-117609500D01*
X148284177Y-117609500D01*
X148252253Y-117604909D01*
X148242337Y-117601997D01*
X148188632Y-117567481D01*
X148162114Y-117509408D01*
X148171192Y-117446237D01*
X148172372Y-117443655D01*
X148208842Y-117399050D01*
X148282163Y-117345781D01*
X148422681Y-117205263D01*
X148539486Y-117044494D01*
X148629704Y-116867432D01*
X148691113Y-116678437D01*
X148722200Y-116482162D01*
X148722200Y-116382801D01*
X148722200Y-116316909D01*
X148722200Y-110220908D01*
X148722200Y-110187438D01*
X148691113Y-109991163D01*
X148629704Y-109802168D01*
X148539486Y-109625106D01*
X148422681Y-109464337D01*
X148282163Y-109323819D01*
X148121394Y-109207014D01*
X148121393Y-109207013D01*
X148121391Y-109207012D01*
X148115776Y-109204151D01*
X148115773Y-109204149D01*
X147960322Y-109124943D01*
X147955442Y-109121397D01*
X147933225Y-109112194D01*
X147927266Y-109111251D01*
X147755337Y-109055387D01*
X147755333Y-109055386D01*
X147755332Y-109055386D01*
X147755329Y-109055385D01*
X147755021Y-109055308D01*
X147753420Y-109055082D01*
X147647902Y-109038370D01*
X147647901Y-109038369D01*
X147559066Y-109024300D01*
X147559062Y-109024300D01*
X147525592Y-109024300D01*
X146509591Y-109024300D01*
X146443699Y-109024300D01*
X146344338Y-109024300D01*
X146344334Y-109024300D01*
X146267144Y-109036526D01*
X146267143Y-109036526D01*
X146156869Y-109053991D01*
X146149838Y-109054544D01*
X146143827Y-109056762D01*
X145959141Y-109116771D01*
X145959076Y-109116792D01*
X145959056Y-109116801D01*
X145782011Y-109207010D01*
X145782005Y-109207014D01*
X145694079Y-109270895D01*
X145623091Y-109322471D01*
X145621703Y-109323437D01*
X145621238Y-109323818D01*
X145621237Y-109323819D01*
X145621234Y-109323821D01*
X145621231Y-109323823D01*
X145621226Y-109323828D01*
X145480728Y-109464326D01*
X145480342Y-109464797D01*
X145479367Y-109466198D01*
X145363910Y-109625110D01*
X145273698Y-109802162D01*
X145273697Y-109802164D01*
X145273697Y-109802165D01*
X145212288Y-109991163D01*
X145212284Y-109991174D01*
X145212283Y-109991179D01*
X145181200Y-110187436D01*
X145181200Y-116482162D01*
X145211653Y-116674446D01*
X145211655Y-116674454D01*
X145212285Y-116678428D01*
X145212286Y-116678432D01*
X145212287Y-116678437D01*
X145224773Y-116716863D01*
X145225015Y-116717607D01*
X145225042Y-116717695D01*
X145273694Y-116867427D01*
X145273698Y-116867437D01*
X145315954Y-116950370D01*
X145315955Y-116950371D01*
X145363914Y-117044494D01*
X145480719Y-117205263D01*
X145621237Y-117345781D01*
X145688930Y-117394962D01*
X145698753Y-117407561D01*
X145711310Y-117416480D01*
X145712032Y-117417405D01*
X145718367Y-117425621D01*
X145723885Y-117439794D01*
X145727467Y-117444388D01*
X145731314Y-117453964D01*
X145731945Y-117460496D01*
X145741529Y-117485111D01*
X145736653Y-117509176D01*
X145737459Y-117517509D01*
X145733342Y-117525518D01*
X145728852Y-117547680D01*
X145714198Y-117562760D01*
X145708274Y-117574287D01*
X145696215Y-117581268D01*
X145684374Y-117593455D01*
X145681910Y-117594847D01*
X145665151Y-117599253D01*
X145653025Y-117606274D01*
X145640637Y-117605698D01*
X145626181Y-117609500D01*
X144782471Y-117609500D01*
X144780760Y-117609487D01*
X144779105Y-117609462D01*
X144777521Y-117609427D01*
X144161868Y-117591514D01*
X144161861Y-117591514D01*
X144154923Y-117591311D01*
X144149417Y-117591151D01*
X144146180Y-117591009D01*
X144142874Y-117590817D01*
X144139597Y-117590579D01*
X144084702Y-117585776D01*
X143516076Y-117536028D01*
X143512819Y-117535695D01*
X143509535Y-117535311D01*
X143506286Y-117534884D01*
X142886994Y-117444171D01*
X142883751Y-117443647D01*
X142880494Y-117443073D01*
X142877247Y-117442452D01*
X142264347Y-117315897D01*
X142261153Y-117315190D01*
X142257901Y-117314420D01*
X142254682Y-117313607D01*
X141650188Y-117151633D01*
X141647030Y-117150738D01*
X141643832Y-117149781D01*
X141640676Y-117148786D01*
X141046605Y-116951932D01*
X141043524Y-116950862D01*
X141040389Y-116949722D01*
X141037277Y-116948538D01*
X140455627Y-116717462D01*
X140452643Y-116716227D01*
X140449562Y-116714898D01*
X140446601Y-116713570D01*
X139879325Y-116449045D01*
X139876347Y-116447602D01*
X139873393Y-116446118D01*
X139870482Y-116444603D01*
X139319611Y-116147576D01*
X139316749Y-116145979D01*
X139313897Y-116144333D01*
X139311051Y-116142635D01*
X138778336Y-115814052D01*
X138775557Y-115812281D01*
X138772805Y-115810471D01*
X138770078Y-115808620D01*
X138257416Y-115449649D01*
X138254756Y-115447728D01*
X138252093Y-115445746D01*
X138249466Y-115443731D01*
X137758529Y-115055548D01*
X137755976Y-115053468D01*
X137753447Y-115051346D01*
X137750952Y-115049190D01*
X137283426Y-114633127D01*
X137280998Y-114630902D01*
X137278577Y-114628618D01*
X137276211Y-114626320D01*
X136833678Y-114183787D01*
X136831380Y-114181421D01*
X136829096Y-114179000D01*
X136826871Y-114176572D01*
X136410808Y-113709046D01*
X136408652Y-113706551D01*
X136406530Y-113704022D01*
X136404450Y-113701469D01*
X136016267Y-113210532D01*
X136014252Y-113207905D01*
X136012270Y-113205242D01*
X136010349Y-113202582D01*
X135651378Y-112689920D01*
X135649527Y-112687193D01*
X135647717Y-112684441D01*
X135645946Y-112681662D01*
X135317363Y-112148947D01*
X135315665Y-112146101D01*
X135314019Y-112143249D01*
X135312422Y-112140387D01*
X135015395Y-111589516D01*
X135013880Y-111586605D01*
X135012396Y-111583651D01*
X135010953Y-111580673D01*
X134746410Y-111013359D01*
X134745114Y-111010468D01*
X134743757Y-111007321D01*
X134742536Y-111004371D01*
X134511442Y-110422674D01*
X134510276Y-110419609D01*
X134509136Y-110416474D01*
X134508066Y-110413393D01*
X134466117Y-110286799D01*
X134311212Y-109819321D01*
X134310226Y-109816196D01*
X134309848Y-109814936D01*
X134309258Y-109812966D01*
X134308377Y-109809855D01*
X134146845Y-109207010D01*
X134146384Y-109205288D01*
X134145578Y-109202097D01*
X134144801Y-109198820D01*
X134144106Y-109195677D01*
X134126868Y-109112194D01*
X134115139Y-109055387D01*
X134017539Y-108582714D01*
X134016923Y-108579498D01*
X134016359Y-108576302D01*
X134015831Y-108573033D01*
X134015827Y-108573004D01*
X133925107Y-107953666D01*
X133924692Y-107950512D01*
X133924294Y-107947102D01*
X133923969Y-107943912D01*
X133923738Y-107941263D01*
X133869415Y-107320347D01*
X133869181Y-107317130D01*
X133868988Y-107313821D01*
X133868847Y-107310600D01*
X133850571Y-106682464D01*
X133850536Y-106680825D01*
X133850512Y-106679170D01*
X133850500Y-106677527D01*
X133850500Y-104909354D01*
X141093233Y-104909354D01*
X141093395Y-104919525D01*
X141093633Y-104926898D01*
X141094129Y-104937086D01*
X141094615Y-104944536D01*
X141095449Y-104954730D01*
X141096171Y-104962066D01*
X141097324Y-104972102D01*
X141103438Y-105018630D01*
X141103645Y-105020928D01*
X141103487Y-105021719D01*
X141104100Y-105031075D01*
X141104100Y-105367332D01*
X141105742Y-105382607D01*
X141110570Y-105427515D01*
X141128001Y-105474248D01*
X141128001Y-105474250D01*
X141128002Y-105474250D01*
X141161346Y-105563652D01*
X141161347Y-105563653D01*
X141161348Y-105563655D01*
X141234225Y-105661007D01*
X141248425Y-105679975D01*
X141248426Y-105679975D01*
X141248427Y-105679977D01*
X141301189Y-105719474D01*
X141364745Y-105767052D01*
X141500886Y-105817830D01*
X141561068Y-105824300D01*
X141750953Y-105824300D01*
X141778636Y-105827734D01*
X141781128Y-105828361D01*
X141789350Y-105830836D01*
X141803612Y-105834622D01*
X141823429Y-105839193D01*
X141826534Y-105839802D01*
X141829436Y-105840534D01*
X141854458Y-105855276D01*
X141880233Y-105868682D01*
X141881771Y-105871369D01*
X141884439Y-105872941D01*
X141897519Y-105898871D01*
X141911955Y-105924084D01*
X141911796Y-105927176D01*
X141913191Y-105929941D01*
X141910174Y-105958829D01*
X141908688Y-105987841D01*
X141906882Y-105990357D01*
X141906561Y-105993437D01*
X141888404Y-106016110D01*
X141871470Y-106039711D01*
X141868591Y-106040851D01*
X141866656Y-106043268D01*
X141839124Y-106052525D01*
X141812117Y-106063225D01*
X141806544Y-106063480D01*
X141806144Y-106063615D01*
X141805370Y-106063534D01*
X141801753Y-106063700D01*
X141561068Y-106063700D01*
X141530977Y-106066935D01*
X141500883Y-106070170D01*
X141500880Y-106070171D01*
X141450109Y-106089106D01*
X141450110Y-106089107D01*
X141364746Y-106120946D01*
X141364743Y-106120948D01*
X141248424Y-106208024D01*
X141161348Y-106324343D01*
X141161346Y-106324346D01*
X141129507Y-106409710D01*
X141110571Y-106460480D01*
X141110570Y-106460483D01*
X141110570Y-106460486D01*
X141104100Y-106520668D01*
X141104100Y-107017332D01*
X141110570Y-107077514D01*
X141113451Y-107085237D01*
X141113452Y-107085240D01*
X141161346Y-107213652D01*
X141161348Y-107213656D01*
X141161351Y-107213660D01*
X141213786Y-107283704D01*
X141237584Y-107315494D01*
X141248424Y-107329974D01*
X141248427Y-107329977D01*
X141292442Y-107362926D01*
X141364745Y-107417052D01*
X141500886Y-107467830D01*
X141561068Y-107474300D01*
X141561071Y-107474300D01*
X142207729Y-107474300D01*
X142207732Y-107474300D01*
X142267914Y-107467830D01*
X142404055Y-107417052D01*
X142520375Y-107329975D01*
X142607452Y-107213655D01*
X142658230Y-107077514D01*
X142664700Y-107017332D01*
X142664700Y-106754891D01*
X142669288Y-106722974D01*
X142673313Y-106709266D01*
X142682120Y-106695560D01*
X142682686Y-106693636D01*
X142684201Y-106692322D01*
X142707826Y-106655561D01*
X142713952Y-106650252D01*
X142758805Y-106626446D01*
X142765686Y-106624602D01*
X142765693Y-106624602D01*
X142765693Y-106624600D01*
X142848737Y-106602350D01*
X142876400Y-106586378D01*
X142876400Y-107163200D01*
X144769697Y-107163200D01*
X144787555Y-107217092D01*
X144877508Y-107362926D01*
X144877510Y-107362928D01*
X144877511Y-107362930D01*
X144998669Y-107484088D01*
X144998671Y-107484089D01*
X144998672Y-107484090D01*
X145144503Y-107574041D01*
X145144507Y-107574043D01*
X145144511Y-107574045D01*
X145225263Y-107600803D01*
X145257075Y-107622828D01*
X145407515Y-107638196D01*
X145407523Y-107638196D01*
X145407546Y-107638199D01*
X145407557Y-107638199D01*
X145407563Y-107638200D01*
X145407567Y-107638200D01*
X145427400Y-107638200D01*
X145427400Y-107163200D01*
X145935400Y-107163200D01*
X145935400Y-107638200D01*
X145955226Y-107638200D01*
X145955233Y-107638200D01*
X145955250Y-107638199D01*
X145962675Y-107637440D01*
X145994886Y-107638762D01*
X145998523Y-107639439D01*
X146008931Y-107641374D01*
X146065854Y-107670241D01*
X146070278Y-107674404D01*
X146102082Y-107727599D01*
X146117794Y-107786234D01*
X146122349Y-107803234D01*
X146122350Y-107803239D01*
X146122352Y-107803242D01*
X146176319Y-107896714D01*
X146202039Y-107941261D01*
X146202041Y-107941264D01*
X146314738Y-108053961D01*
X146369262Y-108085440D01*
X146403834Y-108105400D01*
X146444541Y-108128903D01*
X146446877Y-108130252D01*
X146450235Y-108132469D01*
X146452148Y-108133485D01*
X146452762Y-108133649D01*
X146452763Y-108133650D01*
X146606711Y-108174900D01*
X146766088Y-108174900D01*
X146766089Y-108174900D01*
X146920037Y-108133650D01*
X147058063Y-108053960D01*
X147170760Y-107941263D01*
X147250450Y-107803237D01*
X147291700Y-107649289D01*
X147291700Y-107600700D01*
X147295595Y-107571247D01*
X147295928Y-107570008D01*
X147299599Y-107557506D01*
X147300882Y-107551605D01*
X147301596Y-107548956D01*
X147316860Y-107523979D01*
X147330883Y-107498297D01*
X147348980Y-107480200D01*
X147374791Y-107460878D01*
X147395888Y-107449358D01*
X147450186Y-107435500D01*
X147497916Y-107435500D01*
X147497920Y-107435500D01*
X147516188Y-107433305D01*
X147516193Y-107433306D01*
X147516193Y-107433305D01*
X147583137Y-107425266D01*
X147718749Y-107371788D01*
X147834904Y-107283704D01*
X147922988Y-107167549D01*
X147922990Y-107167545D01*
X147924703Y-107163200D01*
X148413600Y-107163200D01*
X148413600Y-107060500D01*
X148822560Y-107060500D01*
X148874099Y-107046689D01*
X148925640Y-107032879D01*
X148927272Y-107031937D01*
X149018060Y-106979521D01*
X149899521Y-106098060D01*
X149952879Y-106005640D01*
X149963406Y-105966352D01*
X149974209Y-105926032D01*
X149986903Y-105896393D01*
X150001004Y-105873260D01*
X150029849Y-105841530D01*
X150106153Y-105784409D01*
X168618300Y-105784409D01*
X168618300Y-107575571D01*
X168621262Y-107601110D01*
X168667352Y-107705495D01*
X168667364Y-107705521D01*
X168667366Y-107705525D01*
X168748075Y-107786234D01*
X168852491Y-107832338D01*
X168878021Y-107835300D01*
X170669178Y-107835299D01*
X170694709Y-107832338D01*
X170799125Y-107786234D01*
X170879834Y-107705525D01*
X170925938Y-107601109D01*
X170928900Y-107575579D01*
X170928899Y-105784422D01*
X170925938Y-105758891D01*
X170879834Y-105654475D01*
X170799125Y-105573766D01*
X170799122Y-105573764D01*
X170694710Y-105527662D01*
X170694706Y-105527661D01*
X170694697Y-105527659D01*
X170673735Y-105525227D01*
X170673720Y-105525226D01*
X170669179Y-105524700D01*
X170669178Y-105524700D01*
X170669175Y-105524700D01*
X168878027Y-105524700D01*
X168852488Y-105527662D01*
X168748103Y-105573752D01*
X168748076Y-105573764D01*
X168748070Y-105573769D01*
X168667373Y-105654466D01*
X168667363Y-105654478D01*
X168667363Y-105654479D01*
X168621261Y-105758891D01*
X168621258Y-105758914D01*
X168618300Y-105784409D01*
X150106153Y-105784409D01*
X150129175Y-105767175D01*
X150216252Y-105650855D01*
X150267030Y-105514714D01*
X150273500Y-105454532D01*
X150273500Y-104807868D01*
X150267030Y-104747686D01*
X150216252Y-104611545D01*
X150147245Y-104519363D01*
X150129177Y-104495227D01*
X150129173Y-104495224D01*
X150129170Y-104495221D01*
X150098533Y-104472285D01*
X150098532Y-104472285D01*
X150098529Y-104472282D01*
X150098526Y-104472280D01*
X150075728Y-104449483D01*
X150068129Y-104439333D01*
X150045816Y-104379518D01*
X150047122Y-104373513D01*
X150059378Y-104317145D01*
X150062787Y-104310903D01*
X150094329Y-104274500D01*
X150114175Y-104259644D01*
X150136175Y-104243175D01*
X150223252Y-104126855D01*
X150274030Y-103990714D01*
X150280500Y-103930532D01*
X150280500Y-103283868D01*
X150274030Y-103223686D01*
X150228697Y-103102146D01*
X150221847Y-103070649D01*
X150220941Y-103057989D01*
X150234514Y-102995613D01*
X150279656Y-102950472D01*
X150279797Y-102950395D01*
X150284453Y-102947854D01*
X150338743Y-102934000D01*
X152410537Y-102934000D01*
X152410540Y-102934000D01*
X152530864Y-102910066D01*
X152644206Y-102863118D01*
X152746212Y-102794960D01*
X154560160Y-100981012D01*
X154628318Y-100879006D01*
X154675266Y-100765664D01*
X154699200Y-100645340D01*
X154699200Y-100522660D01*
X154675266Y-100402336D01*
X154657967Y-100360571D01*
X155924400Y-100360571D01*
X155934652Y-100460925D01*
X155934654Y-100460931D01*
X155988555Y-100623592D01*
X156078508Y-100769426D01*
X156078509Y-100769427D01*
X156078511Y-100769430D01*
X156199669Y-100890588D01*
X156199671Y-100890589D01*
X156199672Y-100890590D01*
X156345503Y-100980541D01*
X156345507Y-100980543D01*
X156345511Y-100980545D01*
X156426263Y-101007303D01*
X156458075Y-101029328D01*
X156608515Y-101044696D01*
X156608523Y-101044696D01*
X156608546Y-101044699D01*
X156608557Y-101044699D01*
X156608563Y-101044700D01*
X156608567Y-101044700D01*
X156628400Y-101044700D01*
X157136400Y-101044700D01*
X157156220Y-101044700D01*
X157156233Y-101044700D01*
X157156253Y-101044699D01*
X157175808Y-101042701D01*
X157256626Y-101034446D01*
X157256627Y-101034445D01*
X157256631Y-101034445D01*
X157419288Y-100980545D01*
X157419290Y-100980543D01*
X157419292Y-100980543D01*
X157492209Y-100935566D01*
X157565130Y-100890588D01*
X157686288Y-100769430D01*
X157686291Y-100769426D01*
X157690984Y-100761817D01*
X157711641Y-100737062D01*
X157721721Y-100727995D01*
X157779288Y-100700403D01*
X157840199Y-100707288D01*
X157850592Y-100711518D01*
X157876334Y-100726177D01*
X157945049Y-100778287D01*
X157945051Y-100778288D01*
X158080663Y-100831766D01*
X158145412Y-100839541D01*
X158145411Y-100839542D01*
X158145416Y-100839541D01*
X158165880Y-100842000D01*
X158165882Y-100842000D01*
X158698916Y-100842000D01*
X158698920Y-100842000D01*
X158717193Y-100839805D01*
X158784137Y-100831766D01*
X158884671Y-100792120D01*
X158917054Y-100779351D01*
X158922506Y-100777361D01*
X158925814Y-100776248D01*
X158934514Y-100767091D01*
X159000093Y-100717359D01*
X159000397Y-100717192D01*
X159028298Y-100701732D01*
X159041024Y-100696896D01*
X159054197Y-100691890D01*
X159094445Y-100684500D01*
X159458937Y-100684500D01*
X159458940Y-100684500D01*
X159577053Y-100661005D01*
X159598139Y-100658834D01*
X159613540Y-100658696D01*
X159674951Y-100676132D01*
X159717188Y-100724003D01*
X159717189Y-100724005D01*
X159720098Y-100730227D01*
X159730762Y-100778213D01*
X159730762Y-102144500D01*
X161579277Y-104980045D01*
X161660323Y-105104364D01*
X161660324Y-105104365D01*
X161836000Y-104989300D01*
X161835999Y-104989299D01*
X161836000Y-104989299D01*
X161835999Y-104989298D01*
X161836000Y-104989298D01*
X161829605Y-104979537D01*
X161257755Y-104106715D01*
X161219992Y-104049077D01*
X168618300Y-104049077D01*
X168618300Y-104230924D01*
X168620526Y-104244979D01*
X168646740Y-104410490D01*
X168646745Y-104410522D01*
X168646755Y-104410560D01*
X168646874Y-104410921D01*
X168682109Y-104519363D01*
X168702942Y-104583481D01*
X168702944Y-104583486D01*
X168702945Y-104583489D01*
X168717241Y-104611546D01*
X168745708Y-104667416D01*
X168785499Y-104745509D01*
X168830806Y-104807868D01*
X168892389Y-104892630D01*
X169020965Y-105021206D01*
X169020973Y-105021213D01*
X169168091Y-105128101D01*
X169330119Y-105210658D01*
X169503067Y-105266852D01*
X169682676Y-105295300D01*
X169682678Y-105295300D01*
X169864522Y-105295300D01*
X169864524Y-105295300D01*
X170044133Y-105266852D01*
X170217081Y-105210658D01*
X170379109Y-105128101D01*
X170526227Y-105021213D01*
X170654813Y-104892627D01*
X170761701Y-104745509D01*
X170844258Y-104583481D01*
X170900452Y-104410533D01*
X170928900Y-104230924D01*
X170928900Y-104049076D01*
X170900452Y-103869467D01*
X170844258Y-103696519D01*
X170761701Y-103534491D01*
X170654813Y-103387373D01*
X170654806Y-103387365D01*
X170526230Y-103258789D01*
X170379106Y-103151897D01*
X170256500Y-103089426D01*
X170256492Y-103089422D01*
X170252807Y-103087545D01*
X170217086Y-103069344D01*
X170217081Y-103069342D01*
X170185011Y-103058922D01*
X170180488Y-103057452D01*
X170180480Y-103057449D01*
X170044521Y-103013274D01*
X170044160Y-103013155D01*
X170044136Y-103013149D01*
X170044133Y-103013148D01*
X170044130Y-103013147D01*
X170044124Y-103013146D01*
X170044116Y-103013144D01*
X170044110Y-103013143D01*
X169928356Y-102994810D01*
X169928355Y-102994810D01*
X169864524Y-102984700D01*
X169864521Y-102984700D01*
X169682672Y-102984700D01*
X169628476Y-102993283D01*
X169628476Y-102993284D01*
X169503075Y-103013146D01*
X169503072Y-103013146D01*
X169503070Y-103013147D01*
X169330130Y-103069337D01*
X169330109Y-103069345D01*
X169168093Y-103151897D01*
X169020968Y-103258790D01*
X169020963Y-103258793D01*
X168892393Y-103387363D01*
X168892390Y-103387368D01*
X168785497Y-103534493D01*
X168702945Y-103696509D01*
X168702937Y-103696530D01*
X168646748Y-103869466D01*
X168646744Y-103869483D01*
X168646742Y-103869490D01*
X168637076Y-103930530D01*
X168637076Y-103930532D01*
X168618300Y-104049077D01*
X161219992Y-104049077D01*
X160541362Y-103013274D01*
X159933055Y-102084804D01*
X159919402Y-102055591D01*
X159910475Y-102026150D01*
X159905600Y-101993274D01*
X159905600Y-101509077D01*
X168618300Y-101509077D01*
X168618300Y-101690922D01*
X168623181Y-101721741D01*
X168646737Y-101870471D01*
X168646745Y-101870522D01*
X168646755Y-101870562D01*
X168646913Y-101871042D01*
X168660933Y-101914190D01*
X168660933Y-101914192D01*
X168660934Y-101914192D01*
X168702937Y-102043468D01*
X168702945Y-102043489D01*
X168733140Y-102102749D01*
X168785497Y-102205506D01*
X168892389Y-102352630D01*
X169020965Y-102481206D01*
X169020973Y-102481213D01*
X169168091Y-102588101D01*
X169330119Y-102670658D01*
X169503067Y-102726852D01*
X169682676Y-102755300D01*
X169682678Y-102755300D01*
X169864522Y-102755300D01*
X169864524Y-102755300D01*
X170044133Y-102726852D01*
X170217081Y-102670658D01*
X170379109Y-102588101D01*
X170526227Y-102481213D01*
X170654813Y-102352627D01*
X170761701Y-102205509D01*
X170844258Y-102043481D01*
X170900452Y-101870533D01*
X170928900Y-101690924D01*
X170928900Y-101509076D01*
X170900452Y-101329467D01*
X170844258Y-101156519D01*
X170761701Y-100994491D01*
X170654813Y-100847373D01*
X170654806Y-100847365D01*
X170526230Y-100718789D01*
X170431633Y-100650060D01*
X170379109Y-100611899D01*
X170379108Y-100611898D01*
X170379106Y-100611897D01*
X170301016Y-100572108D01*
X170217089Y-100529345D01*
X170217073Y-100529339D01*
X170196517Y-100522659D01*
X170196517Y-100522660D01*
X170052455Y-100475852D01*
X170044133Y-100473148D01*
X170044130Y-100473147D01*
X170044124Y-100473146D01*
X169928355Y-100454810D01*
X169927787Y-100454720D01*
X169927716Y-100454708D01*
X169888242Y-100448456D01*
X169864524Y-100444700D01*
X169864521Y-100444700D01*
X169682672Y-100444700D01*
X169628476Y-100453283D01*
X169628476Y-100453284D01*
X169503075Y-100473146D01*
X169503072Y-100473146D01*
X169503070Y-100473147D01*
X169330130Y-100529337D01*
X169330109Y-100529345D01*
X169168093Y-100611897D01*
X169020968Y-100718790D01*
X169020963Y-100718793D01*
X168892393Y-100847363D01*
X168892390Y-100847368D01*
X168785497Y-100994493D01*
X168702945Y-101156509D01*
X168702937Y-101156530D01*
X168646748Y-101329466D01*
X168646744Y-101329483D01*
X168646743Y-101329487D01*
X168621881Y-101486463D01*
X168618300Y-101509077D01*
X159905600Y-101509077D01*
X159905600Y-100774376D01*
X159910187Y-100742463D01*
X159911773Y-100737060D01*
X159913760Y-100730292D01*
X159948271Y-100676586D01*
X160006340Y-100650062D01*
X160011091Y-100649379D01*
X160070553Y-100656845D01*
X160075828Y-100659030D01*
X160078822Y-100660396D01*
X160079528Y-100660563D01*
X160079531Y-100660564D01*
X160079533Y-100660565D01*
X160079534Y-100660565D01*
X160079536Y-100660566D01*
X160079568Y-100660572D01*
X160081521Y-100661034D01*
X160081522Y-100661034D01*
X160087522Y-100662451D01*
X160090474Y-100662742D01*
X160154669Y-100675511D01*
X160199860Y-100684500D01*
X160662583Y-100684500D01*
X160694503Y-100689090D01*
X160721087Y-100696896D01*
X160757627Y-100715329D01*
X160800641Y-100747948D01*
X160828966Y-100769427D01*
X160840649Y-100778287D01*
X160840651Y-100778288D01*
X160840653Y-100778290D01*
X160919652Y-100809441D01*
X160941185Y-100817933D01*
X160976263Y-100831766D01*
X161041012Y-100839541D01*
X161061480Y-100842000D01*
X161061482Y-100842000D01*
X161594516Y-100842000D01*
X161594520Y-100842000D01*
X161612788Y-100839805D01*
X161612793Y-100839806D01*
X161612793Y-100839805D01*
X161614991Y-100839541D01*
X161679737Y-100831766D01*
X161815349Y-100778288D01*
X161882990Y-100726992D01*
X161911190Y-100711366D01*
X161921101Y-100707598D01*
X161923860Y-100706549D01*
X161987508Y-100701598D01*
X162041831Y-100730012D01*
X162049989Y-100737702D01*
X162068706Y-100760667D01*
X162071118Y-100764578D01*
X162072665Y-100767087D01*
X162074109Y-100769427D01*
X162074111Y-100769430D01*
X162195269Y-100890588D01*
X162195271Y-100890589D01*
X162195272Y-100890590D01*
X162341103Y-100980541D01*
X162341107Y-100980543D01*
X162341111Y-100980545D01*
X162421863Y-101007303D01*
X162453675Y-101029328D01*
X162604115Y-101044696D01*
X162604123Y-101044696D01*
X162604146Y-101044699D01*
X162604157Y-101044699D01*
X162604163Y-101044700D01*
X162604167Y-101044700D01*
X162624000Y-101044700D01*
X163132000Y-101044700D01*
X163151820Y-101044700D01*
X163151833Y-101044700D01*
X163151853Y-101044699D01*
X163171408Y-101042701D01*
X163252226Y-101034446D01*
X163252227Y-101034445D01*
X163252231Y-101034445D01*
X163414888Y-100980545D01*
X163414890Y-100980543D01*
X163414892Y-100980543D01*
X163487809Y-100935566D01*
X163560730Y-100890588D01*
X163681888Y-100769430D01*
X163731443Y-100689090D01*
X163771843Y-100623592D01*
X163771843Y-100623590D01*
X163771845Y-100623588D01*
X163825745Y-100460931D01*
X163826371Y-100454810D01*
X163835995Y-100360591D01*
X163835997Y-100360568D01*
X163835999Y-100360553D01*
X163836000Y-100360533D01*
X163836000Y-100315700D01*
X163132000Y-100315700D01*
X163132000Y-101044700D01*
X162624000Y-101044700D01*
X162624000Y-99807700D01*
X163132000Y-99807700D01*
X163836000Y-99807700D01*
X163836000Y-99762866D01*
X163835999Y-99762846D01*
X163834503Y-99748198D01*
X163825746Y-99662472D01*
X163825745Y-99662470D01*
X163825745Y-99662468D01*
X163771844Y-99499808D01*
X163771842Y-99499804D01*
X163771842Y-99499803D01*
X163693655Y-99373045D01*
X163693654Y-99373044D01*
X163680803Y-99343467D01*
X163677610Y-99331800D01*
X163676734Y-99328596D01*
X163677305Y-99266772D01*
X163680815Y-99254819D01*
X163693090Y-99227269D01*
X163771844Y-99099591D01*
X163815093Y-98969077D01*
X168618300Y-98969077D01*
X168618300Y-99150922D01*
X168623463Y-99183522D01*
X168646737Y-99330471D01*
X168646745Y-99330522D01*
X168646755Y-99330561D01*
X168646887Y-99330961D01*
X168684276Y-99446036D01*
X168702939Y-99503473D01*
X168702944Y-99503486D01*
X168702949Y-99503498D01*
X168726312Y-99549347D01*
X168726313Y-99549351D01*
X168726314Y-99549351D01*
X168785499Y-99665509D01*
X168856205Y-99762827D01*
X168892389Y-99812630D01*
X169020965Y-99941206D01*
X169020973Y-99941213D01*
X169168091Y-100048101D01*
X169330119Y-100130658D01*
X169503067Y-100186852D01*
X169682676Y-100215300D01*
X169682678Y-100215300D01*
X169864522Y-100215300D01*
X169864524Y-100215300D01*
X170044133Y-100186852D01*
X170217081Y-100130658D01*
X170379109Y-100048101D01*
X170526227Y-99941213D01*
X170654813Y-99812627D01*
X170761701Y-99665509D01*
X170844258Y-99503481D01*
X170900452Y-99330533D01*
X170928900Y-99150924D01*
X170928900Y-98969076D01*
X170900452Y-98789467D01*
X170844258Y-98616519D01*
X170761701Y-98454491D01*
X170654813Y-98307373D01*
X170654806Y-98307365D01*
X170526230Y-98178789D01*
X170470733Y-98138468D01*
X170379109Y-98071899D01*
X170287753Y-98025351D01*
X170217086Y-97989344D01*
X170217081Y-97989342D01*
X170206124Y-97985782D01*
X170094666Y-97949567D01*
X170044521Y-97933274D01*
X170044160Y-97933155D01*
X170044122Y-97933145D01*
X170044090Y-97933140D01*
X169926770Y-97914559D01*
X169918714Y-97913283D01*
X169864524Y-97904700D01*
X169864522Y-97904700D01*
X169682672Y-97904700D01*
X169628476Y-97913283D01*
X169628476Y-97913284D01*
X169503075Y-97933146D01*
X169503072Y-97933146D01*
X169503070Y-97933147D01*
X169330130Y-97989337D01*
X169330109Y-97989345D01*
X169168093Y-98071897D01*
X169020968Y-98178790D01*
X169020963Y-98178793D01*
X168892393Y-98307363D01*
X168892390Y-98307368D01*
X168785497Y-98454493D01*
X168702945Y-98616509D01*
X168702937Y-98616530D01*
X168646748Y-98789466D01*
X168646744Y-98789483D01*
X168646743Y-98789487D01*
X168623391Y-98936931D01*
X168618300Y-98969077D01*
X163815093Y-98969077D01*
X163825745Y-98936931D01*
X163825745Y-98936930D01*
X163833486Y-98861151D01*
X163835996Y-98836586D01*
X163835997Y-98836568D01*
X163835999Y-98836553D01*
X163836000Y-98836533D01*
X163836000Y-98791700D01*
X163132000Y-98791700D01*
X163132000Y-99807700D01*
X162624000Y-99807700D01*
X162624000Y-98283700D01*
X163132000Y-98283700D01*
X163836000Y-98283700D01*
X163836000Y-98238866D01*
X163835999Y-98238846D01*
X163830005Y-98180171D01*
X163825746Y-98138472D01*
X163825745Y-98138470D01*
X163825745Y-98138468D01*
X163771845Y-97975811D01*
X163771844Y-97975809D01*
X163771843Y-97975806D01*
X163681890Y-97829972D01*
X163681885Y-97829966D01*
X163560732Y-97708813D01*
X163560726Y-97708808D01*
X163414895Y-97618857D01*
X163414888Y-97618854D01*
X163403414Y-97615052D01*
X163334136Y-97592095D01*
X163302325Y-97570070D01*
X163151871Y-97554700D01*
X163151853Y-97554700D01*
X163132000Y-97554700D01*
X163132000Y-98283700D01*
X162624000Y-98283700D01*
X162624000Y-97554700D01*
X162604127Y-97554700D01*
X162503773Y-97564952D01*
X162503767Y-97564954D01*
X162341106Y-97618855D01*
X162195272Y-97708808D01*
X162195266Y-97708813D01*
X162074118Y-97829961D01*
X162074114Y-97829966D01*
X162074111Y-97829969D01*
X162074109Y-97829972D01*
X162074102Y-97829981D01*
X162069403Y-97837599D01*
X162048751Y-97862342D01*
X162038678Y-97871403D01*
X161981109Y-97898996D01*
X161920184Y-97892105D01*
X161909799Y-97887877D01*
X161884060Y-97873217D01*
X161815355Y-97821115D01*
X161815349Y-97821111D01*
X161815347Y-97821110D01*
X161679739Y-97767634D01*
X161679736Y-97767633D01*
X161632133Y-97761917D01*
X161594520Y-97757400D01*
X161594518Y-97757400D01*
X161594515Y-97757400D01*
X161061478Y-97757400D01*
X160976262Y-97767633D01*
X160976259Y-97767634D01*
X160840651Y-97821109D01*
X160840651Y-97821110D01*
X160783215Y-97864666D01*
X160783214Y-97864667D01*
X160760309Y-97882036D01*
X160732107Y-97897664D01*
X160706212Y-97907507D01*
X160665955Y-97914900D01*
X160199852Y-97914900D01*
X160079624Y-97938815D01*
X160079621Y-97938816D01*
X160079533Y-97938834D01*
X160079531Y-97938835D01*
X159966192Y-97985783D01*
X159966186Y-97985786D01*
X159900260Y-98029836D01*
X159894214Y-98032905D01*
X159889957Y-98033697D01*
X159876796Y-98039994D01*
X159863168Y-98044261D01*
X159799338Y-98045400D01*
X159799335Y-98045399D01*
X159791284Y-98043190D01*
X159736972Y-98009637D01*
X159735920Y-98007439D01*
X159692602Y-97985780D01*
X159639178Y-97963651D01*
X159582986Y-97940375D01*
X159580636Y-97939302D01*
X159579268Y-97938834D01*
X159458946Y-97914900D01*
X159458943Y-97914900D01*
X159458940Y-97914900D01*
X159097818Y-97914900D01*
X159065898Y-97910311D01*
X159039312Y-97902504D01*
X159002772Y-97884071D01*
X159000088Y-97882036D01*
X158974118Y-97862342D01*
X158955570Y-97848276D01*
X158919747Y-97821109D01*
X158784139Y-97767634D01*
X158784135Y-97767633D01*
X158740175Y-97762354D01*
X158698920Y-97757400D01*
X158698918Y-97757400D01*
X158698915Y-97757400D01*
X158165878Y-97757400D01*
X158080659Y-97767634D01*
X157945052Y-97821110D01*
X157941800Y-97823243D01*
X157938879Y-97825790D01*
X157877406Y-97872407D01*
X157849200Y-97888037D01*
X157836537Y-97892850D01*
X157820296Y-97894113D01*
X157817731Y-97895088D01*
X157815046Y-97894521D01*
X157772889Y-97897800D01*
X157718573Y-97869392D01*
X157713559Y-97864666D01*
X157710412Y-97861699D01*
X157691690Y-97838727D01*
X157686297Y-97829983D01*
X157686292Y-97829976D01*
X157686290Y-97829972D01*
X157686288Y-97829969D01*
X157565130Y-97708811D01*
X157565128Y-97708810D01*
X157565126Y-97708808D01*
X157419295Y-97618857D01*
X157419288Y-97618854D01*
X157407814Y-97615052D01*
X157338536Y-97592095D01*
X157306725Y-97570070D01*
X157156271Y-97554700D01*
X157156253Y-97554700D01*
X157136400Y-97554700D01*
X157136400Y-101044700D01*
X156628400Y-101044700D01*
X156628400Y-100315700D01*
X155924400Y-100315700D01*
X155924400Y-100360571D01*
X154657967Y-100360571D01*
X154654922Y-100353220D01*
X154652001Y-100346170D01*
X154637901Y-100312128D01*
X154637900Y-100312126D01*
X154628320Y-100288997D01*
X154628317Y-100288992D01*
X154560160Y-100186988D01*
X154473411Y-100100239D01*
X154473407Y-100100236D01*
X154473406Y-100100235D01*
X154371413Y-100032085D01*
X154371406Y-100032081D01*
X154258069Y-99985135D01*
X154258067Y-99985134D01*
X154137746Y-99961200D01*
X154137743Y-99961200D01*
X154137740Y-99961200D01*
X154015060Y-99961200D01*
X154015056Y-99961200D01*
X154015052Y-99961200D01*
X153894730Y-99985134D01*
X153893358Y-99985604D01*
X153891012Y-99986675D01*
X153781393Y-100032082D01*
X153781381Y-100032088D01*
X153679394Y-100100234D01*
X153679385Y-100100241D01*
X152135931Y-101643696D01*
X152110120Y-101663019D01*
X152095022Y-101671264D01*
X152089025Y-101674538D01*
X152034723Y-101688400D01*
X146750652Y-101688400D01*
X146630330Y-101712334D01*
X146623161Y-101714790D01*
X146622397Y-101712560D01*
X146585885Y-101721155D01*
X143640678Y-101719635D01*
X142051297Y-101718813D01*
X142051296Y-101718813D01*
X142051281Y-101718813D01*
X142043119Y-101718943D01*
X142041075Y-101718976D01*
X142033667Y-101719216D01*
X142023559Y-101719709D01*
X142016191Y-101720189D01*
X142006084Y-101721012D01*
X142003563Y-101721259D01*
X141998705Y-101721736D01*
X141998663Y-101721740D01*
X141998661Y-101721741D01*
X141988635Y-101722890D01*
X141857475Y-101740088D01*
X141837433Y-101743385D01*
X141822924Y-101746262D01*
X141803134Y-101750864D01*
X141788922Y-101754664D01*
X141769462Y-101760556D01*
X141756656Y-101764895D01*
X141755462Y-101765300D01*
X141736867Y-101772286D01*
X141736433Y-101772450D01*
X141624503Y-101818745D01*
X141605993Y-101827122D01*
X141592704Y-101833668D01*
X141574800Y-101843226D01*
X141562076Y-101850564D01*
X141544815Y-101861285D01*
X141532478Y-101869519D01*
X141515998Y-101881317D01*
X141446694Y-101934438D01*
X141419862Y-101955005D01*
X141419856Y-101955010D01*
X141404148Y-101967886D01*
X141393019Y-101977635D01*
X141378213Y-101991489D01*
X141367770Y-102001921D01*
X141353870Y-102016746D01*
X141344112Y-102027862D01*
X141331230Y-102043544D01*
X141257443Y-102139604D01*
X141245602Y-102156111D01*
X141237396Y-102168378D01*
X141226654Y-102185633D01*
X141219276Y-102198396D01*
X141209712Y-102216265D01*
X141203150Y-102229555D01*
X141194754Y-102248057D01*
X141148358Y-102359904D01*
X141141197Y-102378898D01*
X141136436Y-102392899D01*
X141130520Y-102412366D01*
X141126695Y-102426611D01*
X141122074Y-102446385D01*
X141119182Y-102460885D01*
X141115863Y-102480923D01*
X141098526Y-102612092D01*
X141097369Y-102622100D01*
X141096631Y-102629533D01*
X141095801Y-102639603D01*
X141095308Y-102647064D01*
X141094804Y-102657227D01*
X141094559Y-102664604D01*
X141094387Y-102674759D01*
X141093235Y-104905169D01*
X141093233Y-104909354D01*
X133850500Y-104909354D01*
X133850500Y-96399668D01*
X141205700Y-96399668D01*
X141205700Y-96896332D01*
X141212170Y-96956514D01*
X141262948Y-97092655D01*
X141350025Y-97208975D01*
X141466345Y-97296052D01*
X141602486Y-97346830D01*
X141662668Y-97353300D01*
X141714129Y-97353300D01*
X141721473Y-97354753D01*
X141726011Y-97353925D01*
X141757273Y-97361835D01*
X141788355Y-97374636D01*
X141838145Y-97414593D01*
X141858429Y-97475125D01*
X141842767Y-97537015D01*
X141796131Y-97580612D01*
X141745210Y-97592700D01*
X141662668Y-97592700D01*
X141617531Y-97597552D01*
X141602485Y-97599170D01*
X141602484Y-97599170D01*
X141559901Y-97615052D01*
X141559902Y-97615053D01*
X141466346Y-97649946D01*
X141466343Y-97649948D01*
X141350024Y-97737024D01*
X141262948Y-97853343D01*
X141262942Y-97853354D01*
X141240115Y-97914557D01*
X141240116Y-97914558D01*
X141213551Y-97985783D01*
X141212170Y-97989486D01*
X141205700Y-98049668D01*
X141205700Y-98546332D01*
X141212170Y-98606514D01*
X141237013Y-98673121D01*
X141262947Y-98742653D01*
X141262948Y-98742655D01*
X141333264Y-98836586D01*
X141350025Y-98858975D01*
X141466345Y-98946052D01*
X141602486Y-98996830D01*
X141662668Y-99003300D01*
X141662671Y-99003300D01*
X142309329Y-99003300D01*
X142309332Y-99003300D01*
X142369514Y-98996830D01*
X142505655Y-98946052D01*
X142621975Y-98858975D01*
X142709052Y-98742655D01*
X142759830Y-98606514D01*
X142766300Y-98546332D01*
X142766300Y-98305901D01*
X142770888Y-98273984D01*
X142774913Y-98260276D01*
X142809426Y-98206571D01*
X142809425Y-98206571D01*
X142815552Y-98201262D01*
X142860416Y-98177453D01*
X142882243Y-98171604D01*
X142936937Y-98156950D01*
X143002000Y-98119385D01*
X143002000Y-98856800D01*
X145125297Y-98856800D01*
X145143155Y-98910692D01*
X145233108Y-99056526D01*
X145233110Y-99056528D01*
X145233111Y-99056530D01*
X145354269Y-99177688D01*
X145354271Y-99177689D01*
X145354272Y-99177690D01*
X145500103Y-99267641D01*
X145500107Y-99267643D01*
X145500111Y-99267645D01*
X145580863Y-99294403D01*
X145612675Y-99316428D01*
X145763115Y-99331796D01*
X145763123Y-99331796D01*
X145763146Y-99331799D01*
X145763157Y-99331799D01*
X145763163Y-99331800D01*
X145763167Y-99331800D01*
X145783000Y-99331800D01*
X145783000Y-98856800D01*
X146291000Y-98856800D01*
X146291000Y-98985341D01*
X146290030Y-99000132D01*
X146288108Y-99014729D01*
X146285218Y-99029261D01*
X146257500Y-99132710D01*
X146257500Y-99292089D01*
X146294856Y-99431507D01*
X146298749Y-99446034D01*
X146298752Y-99446042D01*
X146331918Y-99503486D01*
X146365304Y-99561312D01*
X146378439Y-99584061D01*
X146378441Y-99584064D01*
X146491138Y-99696761D01*
X146545662Y-99728240D01*
X146580234Y-99748200D01*
X146620941Y-99771703D01*
X146623277Y-99773052D01*
X146626635Y-99775269D01*
X146628548Y-99776285D01*
X146629162Y-99776449D01*
X146629163Y-99776450D01*
X146783111Y-99817700D01*
X146942488Y-99817700D01*
X146942489Y-99817700D01*
X147096437Y-99776450D01*
X147234463Y-99696760D01*
X147347160Y-99584063D01*
X147426850Y-99446037D01*
X147468100Y-99292089D01*
X147468100Y-99258691D01*
X147472688Y-99226774D01*
X147473935Y-99222528D01*
X147476713Y-99213066D01*
X147511226Y-99159361D01*
X147511239Y-99159350D01*
X147512488Y-99158268D01*
X147562592Y-99133192D01*
X147569502Y-99131689D01*
X147593583Y-99129100D01*
X147853516Y-99129100D01*
X147853520Y-99129100D01*
X147871788Y-99126905D01*
X147871793Y-99126906D01*
X147871793Y-99126905D01*
X147938737Y-99118866D01*
X148074349Y-99065388D01*
X148190504Y-98977304D01*
X148278588Y-98861149D01*
X148278590Y-98861145D01*
X148280303Y-98856800D01*
X148539200Y-98856800D01*
X148539200Y-98836571D01*
X155924400Y-98836571D01*
X155934652Y-98936925D01*
X155934653Y-98936931D01*
X155988555Y-99099591D01*
X156066745Y-99226358D01*
X156079596Y-99255935D01*
X156083665Y-99270806D01*
X156083093Y-99332625D01*
X156079586Y-99344570D01*
X156067306Y-99372133D01*
X155988556Y-99499804D01*
X155934653Y-99662467D01*
X155934652Y-99662473D01*
X155924400Y-99762827D01*
X155924400Y-99762846D01*
X155924400Y-99807700D01*
X156628400Y-99807700D01*
X156628400Y-98791700D01*
X155924400Y-98791700D01*
X155924400Y-98836571D01*
X148539200Y-98836571D01*
X148539200Y-98754100D01*
X148795760Y-98754100D01*
X148847299Y-98740289D01*
X148898840Y-98726479D01*
X148900472Y-98725537D01*
X148991260Y-98673121D01*
X149425554Y-98238827D01*
X155924400Y-98238827D01*
X155924400Y-98238846D01*
X155924400Y-98283700D01*
X156628400Y-98283700D01*
X156628400Y-97554700D01*
X156608527Y-97554700D01*
X156508173Y-97564952D01*
X156508167Y-97564954D01*
X156345506Y-97618855D01*
X156199672Y-97708808D01*
X156199666Y-97708813D01*
X156078513Y-97829966D01*
X156078508Y-97829972D01*
X155988555Y-97975806D01*
X155934654Y-98138467D01*
X155934652Y-98138473D01*
X155924400Y-98238827D01*
X149425554Y-98238827D01*
X150005521Y-97658860D01*
X150043718Y-97592700D01*
X150058879Y-97566440D01*
X150059144Y-97565448D01*
X150063111Y-97558444D01*
X150068992Y-97552741D01*
X150076276Y-97541675D01*
X150075723Y-97541249D01*
X150082267Y-97532753D01*
X150112729Y-97505347D01*
X150115557Y-97503610D01*
X150119778Y-97501643D01*
X150132970Y-97493165D01*
X150135916Y-97491556D01*
X150136169Y-97491291D01*
X150139712Y-97489244D01*
X150141837Y-97485748D01*
X150150263Y-97478779D01*
X150242175Y-97409975D01*
X150329252Y-97293655D01*
X150380030Y-97157514D01*
X150386500Y-97097332D01*
X150386500Y-96450668D01*
X150384179Y-96429077D01*
X168618300Y-96429077D01*
X168618300Y-96610922D01*
X168627415Y-96668474D01*
X168646737Y-96790471D01*
X168646745Y-96790522D01*
X168646755Y-96790560D01*
X168646874Y-96790921D01*
X168681123Y-96896328D01*
X168702942Y-96963481D01*
X168702944Y-96963486D01*
X168702946Y-96963492D01*
X168715229Y-96987598D01*
X168715231Y-96987600D01*
X168785499Y-97125509D01*
X168846140Y-97208974D01*
X168892389Y-97272630D01*
X169020965Y-97401206D01*
X169020974Y-97401214D01*
X169050734Y-97422836D01*
X169168091Y-97508101D01*
X169330119Y-97590658D01*
X169503067Y-97646852D01*
X169682676Y-97675300D01*
X169682678Y-97675300D01*
X169864522Y-97675300D01*
X169864524Y-97675300D01*
X170044133Y-97646852D01*
X170217081Y-97590658D01*
X170379109Y-97508101D01*
X170526227Y-97401213D01*
X170654813Y-97272627D01*
X170761701Y-97125509D01*
X170844258Y-96963481D01*
X170900452Y-96790533D01*
X170928900Y-96610924D01*
X170928900Y-96429076D01*
X170900452Y-96249467D01*
X170844258Y-96076519D01*
X170761701Y-95914491D01*
X170654813Y-95767373D01*
X170654806Y-95767365D01*
X170526230Y-95638789D01*
X170379106Y-95531897D01*
X170301016Y-95492108D01*
X170217089Y-95449345D01*
X170217082Y-95449342D01*
X170052417Y-95395839D01*
X170052412Y-95395838D01*
X170044133Y-95393148D01*
X170044130Y-95393147D01*
X170044124Y-95393146D01*
X169928355Y-95374810D01*
X169864524Y-95364700D01*
X169864521Y-95364700D01*
X169682672Y-95364700D01*
X169628476Y-95373283D01*
X169628476Y-95373284D01*
X169503075Y-95393146D01*
X169503072Y-95393146D01*
X169503070Y-95393147D01*
X169330130Y-95449337D01*
X169330109Y-95449345D01*
X169168093Y-95531897D01*
X169020968Y-95638790D01*
X169020963Y-95638793D01*
X168892393Y-95767363D01*
X168892390Y-95767368D01*
X168785497Y-95914493D01*
X168702945Y-96076509D01*
X168702937Y-96076530D01*
X168646748Y-96249466D01*
X168646744Y-96249483D01*
X168646743Y-96249487D01*
X168624412Y-96390486D01*
X168618300Y-96429077D01*
X150384179Y-96429077D01*
X150380030Y-96390486D01*
X150329252Y-96254345D01*
X150283532Y-96193271D01*
X150242177Y-96138027D01*
X150242168Y-96138018D01*
X150208033Y-96112464D01*
X150208031Y-96112464D01*
X150185227Y-96089661D01*
X150177627Y-96079509D01*
X150155316Y-96019694D01*
X150168883Y-95957318D01*
X150172289Y-95951079D01*
X150203832Y-95914678D01*
X150220175Y-95902444D01*
X150242175Y-95885975D01*
X150329252Y-95769655D01*
X150380030Y-95633514D01*
X150386500Y-95573332D01*
X150386500Y-94926668D01*
X150380030Y-94866486D01*
X150341512Y-94763217D01*
X150338217Y-94751522D01*
X150327281Y-94722195D01*
X150327282Y-94722195D01*
X150321637Y-94707059D01*
X150317088Y-94643383D01*
X150347687Y-94587354D01*
X150368624Y-94575433D01*
X150370432Y-94573127D01*
X150376208Y-94571116D01*
X150399789Y-94557690D01*
X150403345Y-94556783D01*
X150408313Y-94555516D01*
X150428188Y-94553020D01*
X150430724Y-94552138D01*
X150432265Y-94552508D01*
X150436319Y-94552000D01*
X155407737Y-94552000D01*
X155407740Y-94552000D01*
X155528064Y-94528066D01*
X155641406Y-94481118D01*
X155743412Y-94412960D01*
X155830160Y-94326212D01*
X155898318Y-94224206D01*
X155945266Y-94110864D01*
X155969200Y-93990540D01*
X155969200Y-93944638D01*
X167520601Y-93944638D01*
X167527080Y-94015951D01*
X167527080Y-94015954D01*
X167556657Y-94110868D01*
X167578234Y-94180109D01*
X167666557Y-94326214D01*
X167667179Y-94327242D01*
X167667182Y-94327245D01*
X167788754Y-94448817D01*
X167788760Y-94448822D01*
X167935891Y-94537766D01*
X168100041Y-94588917D01*
X168100051Y-94588919D01*
X168100059Y-94588919D01*
X168100064Y-94588921D01*
X168164201Y-94594747D01*
X168171377Y-94595399D01*
X168757600Y-94595399D01*
X168835829Y-94595399D01*
X168835831Y-94595399D01*
X168883292Y-94591086D01*
X168907145Y-94588919D01*
X168907145Y-94588918D01*
X168907155Y-94588918D01*
X169071309Y-94537765D01*
X169218439Y-94448822D01*
X169218445Y-94448817D01*
X169340017Y-94327245D01*
X169340022Y-94327239D01*
X169428966Y-94180108D01*
X169480117Y-94015958D01*
X169480119Y-94015948D01*
X169486600Y-93944623D01*
X169486600Y-93941400D01*
X168757600Y-93941400D01*
X168757600Y-94595399D01*
X168171377Y-94595399D01*
X168249600Y-94595398D01*
X168249600Y-93941400D01*
X167520601Y-93941400D01*
X167520601Y-93944638D01*
X155969200Y-93944638D01*
X155969200Y-93867860D01*
X155945266Y-93747536D01*
X155898318Y-93634194D01*
X155888267Y-93619152D01*
X155888266Y-93619150D01*
X155830173Y-93532206D01*
X155830159Y-93532187D01*
X155743413Y-93445441D01*
X155743412Y-93445440D01*
X155743407Y-93445436D01*
X155641413Y-93377286D01*
X155641407Y-93377283D01*
X155641408Y-93377283D01*
X155641406Y-93377282D01*
X155587978Y-93355151D01*
X155528068Y-93330335D01*
X155528066Y-93330334D01*
X155527918Y-93330304D01*
X155527915Y-93330303D01*
X155407746Y-93306400D01*
X155407743Y-93306400D01*
X155407740Y-93306400D01*
X147004660Y-93306400D01*
X147004656Y-93306400D01*
X147004650Y-93306400D01*
X146980995Y-93311106D01*
X146958834Y-93313283D01*
X143766278Y-93311635D01*
X142176897Y-93310813D01*
X142176896Y-93310813D01*
X142176881Y-93310813D01*
X142168719Y-93310943D01*
X142166675Y-93310976D01*
X142159267Y-93311216D01*
X142149159Y-93311709D01*
X142141791Y-93312189D01*
X142131684Y-93313012D01*
X142129163Y-93313259D01*
X142124305Y-93313736D01*
X142124263Y-93313740D01*
X142124261Y-93313741D01*
X142114235Y-93314890D01*
X141983075Y-93332088D01*
X141963033Y-93335385D01*
X141948524Y-93338262D01*
X141928734Y-93342864D01*
X141914522Y-93346664D01*
X141895062Y-93352556D01*
X141887404Y-93355151D01*
X141881062Y-93357300D01*
X141876897Y-93358865D01*
X141862033Y-93364450D01*
X141750103Y-93410745D01*
X141731593Y-93419122D01*
X141718304Y-93425668D01*
X141700400Y-93435226D01*
X141687676Y-93442564D01*
X141670415Y-93453285D01*
X141658078Y-93461519D01*
X141641598Y-93473317D01*
X141572294Y-93526438D01*
X141545462Y-93547005D01*
X141545456Y-93547010D01*
X141529748Y-93559886D01*
X141518619Y-93569635D01*
X141503813Y-93583489D01*
X141493370Y-93593921D01*
X141479470Y-93608746D01*
X141469712Y-93619862D01*
X141456830Y-93635544D01*
X141383043Y-93731604D01*
X141371202Y-93748111D01*
X141362996Y-93760378D01*
X141352254Y-93777633D01*
X141344876Y-93790396D01*
X141335312Y-93808265D01*
X141328750Y-93821555D01*
X141320354Y-93840057D01*
X141273958Y-93951904D01*
X141266797Y-93970898D01*
X141262036Y-93984899D01*
X141256120Y-94004366D01*
X141252295Y-94018611D01*
X141247674Y-94038385D01*
X141244782Y-94052885D01*
X141241463Y-94072923D01*
X141224126Y-94204092D01*
X141222969Y-94214100D01*
X141222231Y-94221533D01*
X141221401Y-94231603D01*
X141220908Y-94239064D01*
X141220404Y-94249227D01*
X141220159Y-94256604D01*
X141219987Y-94266759D01*
X141218936Y-96300962D01*
X141217817Y-96307151D01*
X141217868Y-96316421D01*
X141216157Y-96328795D01*
X141212170Y-96339486D01*
X141205700Y-96399668D01*
X133850500Y-96399668D01*
X133850500Y-88233068D01*
X141432900Y-88233068D01*
X141432900Y-88729732D01*
X141439370Y-88789914D01*
X141472398Y-88878466D01*
X141478702Y-88895368D01*
X141490145Y-88926049D01*
X141490148Y-88926056D01*
X141490151Y-88926060D01*
X141571046Y-89034122D01*
X141577221Y-89042371D01*
X141577227Y-89042377D01*
X141603319Y-89061909D01*
X141625245Y-89083556D01*
X141683181Y-89158918D01*
X141696118Y-89174650D01*
X141705926Y-89185810D01*
X141719839Y-89200632D01*
X141730280Y-89211050D01*
X141745167Y-89224958D01*
X141756333Y-89234724D01*
X141756347Y-89234736D01*
X141772096Y-89247624D01*
X141790715Y-89261867D01*
X141828438Y-89313368D01*
X141832329Y-89377090D01*
X141801152Y-89432800D01*
X141761472Y-89458011D01*
X141693542Y-89483348D01*
X141577224Y-89570424D01*
X141490149Y-89686742D01*
X141490146Y-89686748D01*
X141484252Y-89702551D01*
X141459321Y-89769395D01*
X141439370Y-89822886D01*
X141432900Y-89883068D01*
X141432900Y-90379732D01*
X141439370Y-90439914D01*
X141461871Y-90500242D01*
X141471329Y-90525600D01*
X141490145Y-90576049D01*
X141490148Y-90576056D01*
X141490151Y-90576060D01*
X141569810Y-90682471D01*
X141577225Y-90692376D01*
X141670175Y-90761957D01*
X141693545Y-90779452D01*
X141829686Y-90830230D01*
X141889868Y-90836700D01*
X141889871Y-90836700D01*
X142536529Y-90836700D01*
X142536532Y-90836700D01*
X142596714Y-90830230D01*
X142732855Y-90779452D01*
X142849175Y-90692375D01*
X142936252Y-90576055D01*
X142987030Y-90439914D01*
X142987214Y-90438200D01*
X142989211Y-90431179D01*
X142990796Y-90428665D01*
X142998930Y-90407538D01*
X143001818Y-90402292D01*
X143003756Y-90397612D01*
X143028318Y-90360847D01*
X143159911Y-90229254D01*
X143183363Y-90211258D01*
X143208334Y-90196841D01*
X143235649Y-90185528D01*
X143273637Y-90175350D01*
X143330800Y-90142346D01*
X143330800Y-90830400D01*
X145216930Y-90830400D01*
X145217955Y-90833492D01*
X145307908Y-90979326D01*
X145307910Y-90979328D01*
X145307911Y-90979330D01*
X145429069Y-91100488D01*
X145429071Y-91100489D01*
X145429072Y-91100490D01*
X145574903Y-91190441D01*
X145574907Y-91190443D01*
X145574911Y-91190445D01*
X145655663Y-91217203D01*
X145687475Y-91239228D01*
X145837915Y-91254596D01*
X145837923Y-91254596D01*
X145837946Y-91254599D01*
X145837957Y-91254599D01*
X145837963Y-91254600D01*
X145837967Y-91254600D01*
X145857800Y-91254600D01*
X145857800Y-90830400D01*
X146365800Y-90830400D01*
X146365800Y-91254600D01*
X146369207Y-91258007D01*
X146386938Y-91263213D01*
X146400639Y-91272017D01*
X146416263Y-91276604D01*
X146440636Y-91297720D01*
X146445939Y-91303839D01*
X146469758Y-91348715D01*
X146475150Y-91368839D01*
X146527647Y-91459764D01*
X146554839Y-91506861D01*
X146554841Y-91506864D01*
X146667538Y-91619561D01*
X146698054Y-91637179D01*
X146756634Y-91671000D01*
X146797341Y-91694503D01*
X146799677Y-91695852D01*
X146803035Y-91698069D01*
X146804948Y-91699085D01*
X146805562Y-91699249D01*
X146805563Y-91699250D01*
X146959511Y-91740500D01*
X147118888Y-91740500D01*
X147118889Y-91740500D01*
X147272837Y-91699250D01*
X147410863Y-91619560D01*
X147523560Y-91506863D01*
X147603250Y-91368837D01*
X147644500Y-91214889D01*
X147644500Y-91181491D01*
X147649088Y-91149574D01*
X147653113Y-91135866D01*
X147687626Y-91082161D01*
X147687639Y-91082150D01*
X147688888Y-91081068D01*
X147738992Y-91055992D01*
X147745902Y-91054489D01*
X147769983Y-91051900D01*
X147928319Y-91051900D01*
X147928320Y-91051900D01*
X147946946Y-91049663D01*
X148013537Y-91041666D01*
X148149149Y-90988188D01*
X148265304Y-90900104D01*
X148318163Y-90830400D01*
X148868000Y-90830400D01*
X148868000Y-90676900D01*
X149124559Y-90676900D01*
X149227640Y-90649279D01*
X149242846Y-90640500D01*
X149320060Y-90595921D01*
X150319954Y-89596026D01*
X150332557Y-89585153D01*
X150343442Y-89577077D01*
X150343444Y-89577079D01*
X150368931Y-89558171D01*
X150396821Y-89543021D01*
X150454655Y-89521452D01*
X150570975Y-89434375D01*
X150658052Y-89318055D01*
X150708830Y-89181914D01*
X150715300Y-89121732D01*
X150715300Y-88475068D01*
X150708830Y-88414886D01*
X150658052Y-88278745D01*
X150570975Y-88162425D01*
X150570973Y-88162423D01*
X150537626Y-88137459D01*
X150514827Y-88114660D01*
X150507227Y-88104508D01*
X150484916Y-88044693D01*
X150498484Y-87982315D01*
X150501892Y-87976072D01*
X150533429Y-87939678D01*
X150572575Y-87910375D01*
X150659652Y-87794055D01*
X150710430Y-87657914D01*
X150716900Y-87597732D01*
X150716900Y-86951068D01*
X150710430Y-86890886D01*
X150671912Y-86787617D01*
X150668617Y-86775922D01*
X150657681Y-86746595D01*
X150657682Y-86746595D01*
X150652037Y-86731459D01*
X150647488Y-86667783D01*
X150678087Y-86611754D01*
X150699024Y-86599833D01*
X150700832Y-86597527D01*
X150706608Y-86595516D01*
X150730189Y-86582090D01*
X150734511Y-86580988D01*
X150738713Y-86579916D01*
X150758588Y-86577420D01*
X150761124Y-86576538D01*
X150762665Y-86576908D01*
X150766719Y-86576400D01*
X155407737Y-86576400D01*
X155407740Y-86576400D01*
X155528064Y-86552466D01*
X155641406Y-86505518D01*
X155716307Y-86455471D01*
X158884600Y-86455471D01*
X158894852Y-86555825D01*
X158894854Y-86555831D01*
X158948755Y-86718492D01*
X159038708Y-86864326D01*
X159038710Y-86864328D01*
X159038711Y-86864330D01*
X159159869Y-86985488D01*
X159159872Y-86985490D01*
X159167491Y-86990189D01*
X159192245Y-87010851D01*
X159201308Y-87020928D01*
X159228897Y-87078500D01*
X159222008Y-87139403D01*
X159217783Y-87149784D01*
X159203120Y-87175535D01*
X159155690Y-87238080D01*
X159153141Y-87241003D01*
X159151010Y-87244252D01*
X159097534Y-87379859D01*
X159097533Y-87379862D01*
X159092507Y-87421717D01*
X159087300Y-87465079D01*
X159087300Y-87998120D01*
X159089077Y-88012913D01*
X159097533Y-88083335D01*
X159097534Y-88083339D01*
X159132846Y-88172886D01*
X159151010Y-88218947D01*
X159167107Y-88240173D01*
X159187043Y-88266462D01*
X159209673Y-88296305D01*
X159211935Y-88299288D01*
X159227564Y-88327491D01*
X159229836Y-88333467D01*
X159237407Y-88353389D01*
X159244800Y-88393643D01*
X159244800Y-88758146D01*
X159268734Y-88878467D01*
X159269203Y-88879838D01*
X159270272Y-88882180D01*
X159287884Y-88924696D01*
X159287885Y-88924699D01*
X159315684Y-88991811D01*
X159383372Y-89093112D01*
X159383836Y-89093807D01*
X159383842Y-89093814D01*
X159521385Y-89231357D01*
X159521392Y-89231363D01*
X159567043Y-89261866D01*
X159623387Y-89299514D01*
X159623396Y-89299519D01*
X159714336Y-89337188D01*
X159714342Y-89337190D01*
X159723611Y-89341029D01*
X159733015Y-89344925D01*
X159736230Y-89346392D01*
X159738715Y-89346933D01*
X159744722Y-89348351D01*
X159747674Y-89348642D01*
X159811869Y-89361411D01*
X159857060Y-89370400D01*
X159857063Y-89370400D01*
X159979737Y-89370400D01*
X159979740Y-89370400D01*
X160100064Y-89346466D01*
X160213406Y-89299518D01*
X160315412Y-89231360D01*
X160402160Y-89144612D01*
X160470318Y-89042606D01*
X160517266Y-88929264D01*
X160541200Y-88808940D01*
X160541200Y-88686260D01*
X160517266Y-88565936D01*
X160511913Y-88553013D01*
X160509418Y-88546988D01*
X160503292Y-88532198D01*
X160498924Y-88519603D01*
X160497716Y-88515322D01*
X160497538Y-88514426D01*
X160497405Y-88514219D01*
X160495616Y-88507877D01*
X160495647Y-88504928D01*
X160495599Y-88504689D01*
X160492512Y-88493232D01*
X160491552Y-88486552D01*
X160490400Y-88470435D01*
X160490400Y-88397018D01*
X160494989Y-88365098D01*
X160502795Y-88338513D01*
X160505339Y-88333467D01*
X160505595Y-88330186D01*
X160521225Y-88301977D01*
X160523264Y-88299288D01*
X160529482Y-88291088D01*
X160552421Y-88268432D01*
X160562625Y-88260892D01*
X160577912Y-88255299D01*
X160580818Y-88253152D01*
X160584424Y-88252916D01*
X160622575Y-88238957D01*
X160684870Y-88252914D01*
X160687184Y-88254197D01*
X160691380Y-88256522D01*
X160726743Y-88287166D01*
X160735937Y-88299291D01*
X160751564Y-88327491D01*
X160753836Y-88333467D01*
X160761407Y-88353389D01*
X160768800Y-88393643D01*
X160768800Y-88808946D01*
X160792734Y-88929268D01*
X160793202Y-88930635D01*
X160794267Y-88932968D01*
X160796802Y-88939085D01*
X160796802Y-88939087D01*
X160796804Y-88939092D01*
X160796802Y-88939092D01*
X160796802Y-88939093D01*
X160796808Y-88939100D01*
X160839682Y-89042606D01*
X160839685Y-89042612D01*
X160873897Y-89093814D01*
X160907836Y-89144607D01*
X160907842Y-89144614D01*
X160994585Y-89231357D01*
X160994592Y-89231363D01*
X161040243Y-89261866D01*
X161096587Y-89299514D01*
X161096596Y-89299519D01*
X161187536Y-89337188D01*
X161187542Y-89337190D01*
X161196811Y-89341029D01*
X161206215Y-89344925D01*
X161209430Y-89346392D01*
X161211915Y-89346933D01*
X161217922Y-89348351D01*
X161220874Y-89348642D01*
X161285069Y-89361411D01*
X161330260Y-89370400D01*
X161330263Y-89370400D01*
X161452937Y-89370400D01*
X161452940Y-89370400D01*
X161573264Y-89346466D01*
X161686606Y-89299518D01*
X161788612Y-89231360D01*
X161875360Y-89144612D01*
X161943518Y-89042606D01*
X161990466Y-88929264D01*
X162014400Y-88808940D01*
X162014400Y-88397018D01*
X162018989Y-88365100D01*
X162026795Y-88338513D01*
X162045226Y-88301974D01*
X162108188Y-88218949D01*
X162161579Y-88083558D01*
X162161665Y-88083340D01*
X162161665Y-88083339D01*
X162161666Y-88083337D01*
X162170217Y-88012130D01*
X162171900Y-87998120D01*
X162171900Y-87465079D01*
X162168607Y-87437669D01*
X162161666Y-87379863D01*
X162108188Y-87244251D01*
X162108187Y-87244249D01*
X162056888Y-87176603D01*
X162041262Y-87148400D01*
X162036448Y-87135733D01*
X162031499Y-87072085D01*
X162059906Y-87017774D01*
X162067602Y-87009609D01*
X162090570Y-86990891D01*
X162099326Y-86985491D01*
X162099330Y-86985488D01*
X162220488Y-86864330D01*
X162288081Y-86754746D01*
X162310443Y-86718492D01*
X162310443Y-86718490D01*
X162310445Y-86718488D01*
X162359626Y-86570071D01*
X163355000Y-86570071D01*
X163365252Y-86670425D01*
X163365254Y-86670431D01*
X163419155Y-86833092D01*
X163509108Y-86978926D01*
X163509110Y-86978928D01*
X163509111Y-86978930D01*
X163630269Y-87100088D01*
X163630272Y-87100090D01*
X163637891Y-87104789D01*
X163662645Y-87125451D01*
X163671708Y-87135528D01*
X163699297Y-87193100D01*
X163692408Y-87254003D01*
X163688183Y-87264384D01*
X163673520Y-87290135D01*
X163626090Y-87352680D01*
X163623541Y-87355603D01*
X163621409Y-87358853D01*
X163607426Y-87394312D01*
X163591914Y-87421717D01*
X163576380Y-87441960D01*
X163576358Y-87441992D01*
X163553825Y-87475715D01*
X163539044Y-87501316D01*
X163539033Y-87501337D01*
X163521093Y-87537715D01*
X163521089Y-87537725D01*
X163469063Y-87663325D01*
X163456016Y-87701763D01*
X163456015Y-87701765D01*
X163448367Y-87730312D01*
X163448363Y-87730327D01*
X163448362Y-87730334D01*
X163440445Y-87770134D01*
X163421724Y-87912335D01*
X163419731Y-87932572D01*
X163418763Y-87947342D01*
X163418100Y-87967614D01*
X163418100Y-90594384D01*
X163418763Y-90614656D01*
X163419731Y-90629426D01*
X163421724Y-90649663D01*
X163439404Y-90783952D01*
X163440445Y-90791863D01*
X163448363Y-90831672D01*
X163456018Y-90860241D01*
X163469065Y-90898675D01*
X163515794Y-91011491D01*
X163521094Y-91024285D01*
X163539030Y-91060657D01*
X163539036Y-91060667D01*
X163539041Y-91060677D01*
X163553825Y-91086283D01*
X163576373Y-91120028D01*
X163599044Y-91149574D01*
X163659129Y-91227878D01*
X163659137Y-91227888D01*
X163685883Y-91258386D01*
X163706810Y-91279313D01*
X163737308Y-91306059D01*
X163737314Y-91306064D01*
X163737320Y-91306069D01*
X163797810Y-91352484D01*
X163841724Y-91386181D01*
X163845169Y-91388824D01*
X163878913Y-91411371D01*
X163904524Y-91426158D01*
X163940932Y-91444113D01*
X164066523Y-91496134D01*
X164104958Y-91509181D01*
X164104965Y-91509182D01*
X164104968Y-91509184D01*
X164112297Y-91511147D01*
X164133527Y-91516836D01*
X164173334Y-91524754D01*
X164315536Y-91543476D01*
X164335752Y-91545467D01*
X164350541Y-91546436D01*
X164353246Y-91546524D01*
X164370816Y-91547100D01*
X167302371Y-91547100D01*
X167302384Y-91547100D01*
X167318855Y-91546560D01*
X167322659Y-91546436D01*
X167337448Y-91545467D01*
X167357664Y-91543476D01*
X167499865Y-91524754D01*
X167539672Y-91516836D01*
X167568241Y-91509181D01*
X167606676Y-91496134D01*
X167614455Y-91492911D01*
X167677927Y-91486084D01*
X167735017Y-91514657D01*
X167767596Y-91569559D01*
X167765321Y-91633359D01*
X167763973Y-91637179D01*
X167748707Y-91678106D01*
X167748708Y-91678107D01*
X167729771Y-91728880D01*
X167729770Y-91728883D01*
X167729770Y-91728885D01*
X167729770Y-91728886D01*
X167723300Y-91789068D01*
X167723300Y-92285732D01*
X167729770Y-92345914D01*
X167767647Y-92447468D01*
X167780547Y-92482053D01*
X167780548Y-92482054D01*
X167780548Y-92482056D01*
X167780551Y-92482060D01*
X167861534Y-92590240D01*
X167861535Y-92590241D01*
X167869101Y-92600348D01*
X167875738Y-92604448D01*
X167926919Y-92642762D01*
X167949720Y-92665563D01*
X167957320Y-92675715D01*
X167979631Y-92735530D01*
X167966062Y-92797912D01*
X167966059Y-92797917D01*
X167963695Y-92802246D01*
X167922871Y-92844903D01*
X167788769Y-92925972D01*
X167788759Y-92925978D01*
X167788746Y-92925989D01*
X167667179Y-93047556D01*
X167578233Y-93194691D01*
X167527083Y-93358835D01*
X167527082Y-93358840D01*
X167527082Y-93358841D01*
X167527082Y-93358844D01*
X167527079Y-93358857D01*
X167527077Y-93358865D01*
X167520600Y-93430167D01*
X167520600Y-93430176D01*
X167520600Y-93433400D01*
X169486599Y-93433400D01*
X169486599Y-93430168D01*
X169481794Y-93377286D01*
X169480119Y-93358853D01*
X169480118Y-93358851D01*
X169480118Y-93358844D01*
X169428965Y-93194690D01*
X169340022Y-93047560D01*
X169340017Y-93047554D01*
X169218445Y-92925982D01*
X169218443Y-92925980D01*
X169218442Y-92925979D01*
X169218439Y-92925977D01*
X169090460Y-92848611D01*
X169065524Y-92828176D01*
X169056957Y-92818821D01*
X169028852Y-92761503D01*
X169036196Y-92698088D01*
X169038123Y-92693541D01*
X169074540Y-92647058D01*
X169139575Y-92598375D01*
X169139577Y-92598373D01*
X169157069Y-92575005D01*
X169226652Y-92482055D01*
X169277430Y-92345914D01*
X169283900Y-92285732D01*
X169283900Y-91789068D01*
X169277430Y-91728886D01*
X169226652Y-91592745D01*
X169191711Y-91546070D01*
X169191315Y-91545346D01*
X169176258Y-91517770D01*
X169171827Y-91505891D01*
X169167271Y-91442213D01*
X169197863Y-91386183D01*
X169198665Y-91385381D01*
X169244918Y-91357375D01*
X169249892Y-91355818D01*
X169271637Y-91351291D01*
X169281514Y-91350230D01*
X169281517Y-91350229D01*
X169281518Y-91350229D01*
X169417647Y-91299455D01*
X169417647Y-91299454D01*
X169417655Y-91299452D01*
X169533975Y-91212375D01*
X169621052Y-91096055D01*
X169642037Y-91039788D01*
X169657483Y-91011500D01*
X169669514Y-90995429D01*
X169710701Y-90961422D01*
X169716924Y-90958399D01*
X169723048Y-90955649D01*
X169726842Y-90954078D01*
X169742963Y-90944770D01*
X169819260Y-90900721D01*
X169998384Y-90721596D01*
X170024191Y-90702278D01*
X170045288Y-90690758D01*
X170099586Y-90676900D01*
X170433056Y-90676900D01*
X170464974Y-90681489D01*
X170488036Y-90688260D01*
X170536233Y-90716856D01*
X170570337Y-90750960D01*
X170627477Y-90783950D01*
X170702479Y-90827253D01*
X170705837Y-90829471D01*
X170707746Y-90830484D01*
X170708361Y-90830648D01*
X170708363Y-90830650D01*
X170862311Y-90871900D01*
X171021688Y-90871900D01*
X171021689Y-90871900D01*
X171175637Y-90830650D01*
X171313663Y-90750960D01*
X171426360Y-90638263D01*
X171506050Y-90500237D01*
X171547300Y-90346289D01*
X171547300Y-90186911D01*
X171545771Y-90181206D01*
X171532292Y-90130900D01*
X171506050Y-90032963D01*
X171485423Y-89997237D01*
X171471283Y-89972746D01*
X171456581Y-89947280D01*
X171426851Y-89895788D01*
X171426360Y-89894937D01*
X171313663Y-89782240D01*
X171269114Y-89756519D01*
X171175642Y-89702552D01*
X171175634Y-89702549D01*
X171175633Y-89702548D01*
X171175632Y-89702548D01*
X171021689Y-89661300D01*
X170862311Y-89661300D01*
X170708366Y-89702548D01*
X170708362Y-89702549D01*
X170708356Y-89702552D01*
X170570335Y-89782240D01*
X170530983Y-89821592D01*
X170530982Y-89821595D01*
X170505166Y-89840921D01*
X170484074Y-89852439D01*
X170429772Y-89866300D01*
X169821841Y-89866300D01*
X169730180Y-89890860D01*
X169717457Y-89894269D01*
X169715530Y-89895785D01*
X169658186Y-89928892D01*
X169628251Y-89940875D01*
X169614370Y-89944243D01*
X169598098Y-89943467D01*
X169596147Y-89943941D01*
X169594249Y-89943284D01*
X169550606Y-89941205D01*
X169538314Y-89936951D01*
X169507471Y-89920584D01*
X169417655Y-89853348D01*
X169417653Y-89853347D01*
X169417654Y-89853347D01*
X169417652Y-89853346D01*
X169363408Y-89833115D01*
X169363408Y-89833114D01*
X169363407Y-89833114D01*
X169281515Y-89802570D01*
X169281518Y-89802570D01*
X169247124Y-89798872D01*
X169221332Y-89796100D01*
X169221329Y-89796100D01*
X168724671Y-89796100D01*
X168724668Y-89796100D01*
X168694577Y-89799335D01*
X168664483Y-89802570D01*
X168664480Y-89802571D01*
X168613709Y-89821506D01*
X168613710Y-89821507D01*
X168528346Y-89853346D01*
X168528342Y-89853348D01*
X168528338Y-89853351D01*
X168436298Y-89922252D01*
X168376483Y-89944562D01*
X168314101Y-89930992D01*
X168268959Y-89885850D01*
X168255100Y-89831551D01*
X168255100Y-87967614D01*
X168254436Y-87947342D01*
X168253747Y-87936830D01*
X168253467Y-87932551D01*
X168251476Y-87912335D01*
X168232754Y-87770134D01*
X168224836Y-87730327D01*
X168217181Y-87701758D01*
X168204134Y-87663323D01*
X168152113Y-87537732D01*
X168134158Y-87501324D01*
X168119371Y-87475713D01*
X168107864Y-87458492D01*
X168096831Y-87441979D01*
X168096822Y-87441966D01*
X168049167Y-87379861D01*
X168014069Y-87334120D01*
X168014064Y-87334114D01*
X168014059Y-87334108D01*
X167987313Y-87303610D01*
X167987306Y-87303603D01*
X167966406Y-87282702D01*
X167961307Y-87278230D01*
X167935880Y-87255930D01*
X167828029Y-87173173D01*
X167828028Y-87173172D01*
X167794291Y-87150630D01*
X167794289Y-87150629D01*
X167794288Y-87150628D01*
X167794283Y-87150625D01*
X167768677Y-87135841D01*
X167768657Y-87135830D01*
X167732285Y-87117894D01*
X167732273Y-87117889D01*
X167732269Y-87117887D01*
X167606675Y-87065865D01*
X167606674Y-87065864D01*
X167606670Y-87065863D01*
X167568244Y-87052819D01*
X167568243Y-87052818D01*
X167568241Y-87052818D01*
X167539672Y-87045163D01*
X167509883Y-87039238D01*
X167499864Y-87037245D01*
X167357663Y-87018524D01*
X167350037Y-87017773D01*
X167337448Y-87016533D01*
X167337442Y-87016532D01*
X167337426Y-87016531D01*
X167322656Y-87015563D01*
X167302384Y-87014900D01*
X167302371Y-87014900D01*
X166871706Y-87014900D01*
X166810451Y-86996914D01*
X166768645Y-86948667D01*
X166759559Y-86885476D01*
X166775274Y-86842120D01*
X166775488Y-86841772D01*
X166780845Y-86833088D01*
X166834745Y-86670431D01*
X166835981Y-86658339D01*
X166844299Y-86576908D01*
X166844999Y-86570053D01*
X166845000Y-86570033D01*
X166845000Y-86550200D01*
X163355000Y-86550200D01*
X163355000Y-86570071D01*
X162359626Y-86570071D01*
X162364345Y-86555831D01*
X162370890Y-86491759D01*
X162370890Y-86491757D01*
X162374259Y-86458756D01*
X162374600Y-86456183D01*
X162374600Y-86435600D01*
X158884600Y-86435600D01*
X158884600Y-86455471D01*
X155716307Y-86455471D01*
X155743412Y-86437360D01*
X155830160Y-86350612D01*
X155898318Y-86248606D01*
X155945266Y-86135264D01*
X155967731Y-86022327D01*
X163355000Y-86022327D01*
X163355000Y-86022346D01*
X163355000Y-86042200D01*
X164084000Y-86042200D01*
X164592000Y-86042200D01*
X165608000Y-86042200D01*
X166116000Y-86042200D01*
X166845000Y-86042200D01*
X166845000Y-86022366D01*
X166844999Y-86022346D01*
X166842302Y-85995945D01*
X166834746Y-85921972D01*
X166834745Y-85921970D01*
X166834745Y-85921968D01*
X166780845Y-85759311D01*
X166780844Y-85759309D01*
X166780843Y-85759306D01*
X166690890Y-85613472D01*
X166690885Y-85613466D01*
X166569732Y-85492313D01*
X166569726Y-85492308D01*
X166423895Y-85402357D01*
X166423888Y-85402354D01*
X166365077Y-85382866D01*
X166343136Y-85375595D01*
X166311325Y-85353570D01*
X166160871Y-85338200D01*
X166160853Y-85338200D01*
X166116000Y-85338200D01*
X166116000Y-86042200D01*
X165608000Y-86042200D01*
X165608000Y-85338200D01*
X165563127Y-85338200D01*
X165462773Y-85348452D01*
X165462767Y-85348453D01*
X165300104Y-85402356D01*
X165173345Y-85480544D01*
X165173341Y-85480545D01*
X165173339Y-85480548D01*
X165149670Y-85490830D01*
X165143761Y-85493397D01*
X165128887Y-85497466D01*
X165067077Y-85496894D01*
X165055134Y-85493388D01*
X165027570Y-85481109D01*
X164899890Y-85402355D01*
X164819134Y-85375595D01*
X164787324Y-85353570D01*
X164636871Y-85338200D01*
X164636853Y-85338200D01*
X164592000Y-85338200D01*
X164592000Y-86042200D01*
X164084000Y-86042200D01*
X164084000Y-85338200D01*
X164039127Y-85338200D01*
X163938773Y-85348452D01*
X163938767Y-85348454D01*
X163776106Y-85402355D01*
X163630272Y-85492308D01*
X163630266Y-85492313D01*
X163509113Y-85613466D01*
X163509108Y-85613472D01*
X163419155Y-85759306D01*
X163365254Y-85921967D01*
X163365252Y-85921973D01*
X163355000Y-86022327D01*
X155967731Y-86022327D01*
X155969200Y-86014940D01*
X155969200Y-85907727D01*
X158884600Y-85907727D01*
X158884600Y-85907746D01*
X158884600Y-85927600D01*
X159613600Y-85927600D01*
X160121600Y-85927600D01*
X161137600Y-85927600D01*
X161645600Y-85927600D01*
X162374600Y-85927600D01*
X162374600Y-85907766D01*
X162374599Y-85907746D01*
X162368354Y-85846609D01*
X162364346Y-85807372D01*
X162364345Y-85807370D01*
X162364345Y-85807368D01*
X162310445Y-85644711D01*
X162310444Y-85644709D01*
X162310443Y-85644706D01*
X162220490Y-85498872D01*
X162220485Y-85498866D01*
X162099332Y-85377713D01*
X162099326Y-85377708D01*
X161953495Y-85287757D01*
X161953488Y-85287754D01*
X161872736Y-85260995D01*
X161840925Y-85238970D01*
X161690471Y-85223600D01*
X161690453Y-85223600D01*
X161645600Y-85223600D01*
X161645600Y-85927600D01*
X161137600Y-85927600D01*
X161137600Y-85223600D01*
X161092727Y-85223600D01*
X160992373Y-85233852D01*
X160992367Y-85233853D01*
X160829704Y-85287756D01*
X160702945Y-85365944D01*
X160702941Y-85365945D01*
X160702939Y-85365948D01*
X160673382Y-85378788D01*
X160673361Y-85378797D01*
X160658487Y-85382866D01*
X160596677Y-85382294D01*
X160584734Y-85378788D01*
X160557170Y-85366509D01*
X160429490Y-85287755D01*
X160348734Y-85260995D01*
X160316924Y-85238970D01*
X160166471Y-85223600D01*
X160166453Y-85223600D01*
X160121600Y-85223600D01*
X160121600Y-85927600D01*
X159613600Y-85927600D01*
X159613600Y-85223600D01*
X159568727Y-85223600D01*
X159468373Y-85233852D01*
X159468367Y-85233854D01*
X159305706Y-85287755D01*
X159159872Y-85377708D01*
X159159866Y-85377713D01*
X159038713Y-85498866D01*
X159038708Y-85498872D01*
X158948755Y-85644706D01*
X158894854Y-85807367D01*
X158894852Y-85807373D01*
X158884600Y-85907727D01*
X155969200Y-85907727D01*
X155969200Y-85892260D01*
X155945266Y-85771936D01*
X155940034Y-85759306D01*
X155898318Y-85658594D01*
X155898317Y-85658593D01*
X155889185Y-85644926D01*
X155854323Y-85592751D01*
X155830163Y-85556592D01*
X155830157Y-85556585D01*
X155743414Y-85469842D01*
X155743407Y-85469836D01*
X155641413Y-85401686D01*
X155641407Y-85401683D01*
X155641408Y-85401683D01*
X155641406Y-85401682D01*
X155575776Y-85374497D01*
X155570405Y-85372272D01*
X155570403Y-85372271D01*
X155531786Y-85356275D01*
X155529436Y-85355202D01*
X155528068Y-85354734D01*
X155407746Y-85330800D01*
X155407743Y-85330800D01*
X155407740Y-85330800D01*
X147990940Y-85330800D01*
X147868260Y-85330800D01*
X147868256Y-85330800D01*
X147868250Y-85330800D01*
X147839668Y-85336486D01*
X147817507Y-85338663D01*
X143993478Y-85336689D01*
X142404097Y-85335867D01*
X142404096Y-85335867D01*
X142404081Y-85335867D01*
X142395919Y-85335997D01*
X142393875Y-85336030D01*
X142386467Y-85336270D01*
X142376359Y-85336763D01*
X142368991Y-85337243D01*
X142358884Y-85338066D01*
X142356363Y-85338313D01*
X142351505Y-85338790D01*
X142351463Y-85338794D01*
X142351461Y-85338795D01*
X142341435Y-85339944D01*
X142210275Y-85357142D01*
X142190233Y-85360439D01*
X142175724Y-85363316D01*
X142155934Y-85367918D01*
X142141722Y-85371718D01*
X142122262Y-85377610D01*
X142109456Y-85381949D01*
X142108262Y-85382354D01*
X142089667Y-85389340D01*
X142089233Y-85389504D01*
X141977303Y-85435799D01*
X141958793Y-85444176D01*
X141945504Y-85450722D01*
X141927600Y-85460280D01*
X141914876Y-85467618D01*
X141897615Y-85478339D01*
X141885278Y-85486573D01*
X141868798Y-85498371D01*
X141799494Y-85551492D01*
X141772662Y-85572059D01*
X141772656Y-85572064D01*
X141756948Y-85584940D01*
X141745819Y-85594689D01*
X141731013Y-85608543D01*
X141720570Y-85618975D01*
X141706670Y-85633800D01*
X141696912Y-85644916D01*
X141684030Y-85660598D01*
X141610243Y-85756658D01*
X141598402Y-85773165D01*
X141590196Y-85785432D01*
X141579454Y-85802687D01*
X141572076Y-85815450D01*
X141562512Y-85833319D01*
X141555950Y-85846609D01*
X141547554Y-85865111D01*
X141501158Y-85976958D01*
X141493997Y-85995952D01*
X141489236Y-86009953D01*
X141483320Y-86029420D01*
X141479495Y-86043665D01*
X141474874Y-86063439D01*
X141471982Y-86077939D01*
X141468663Y-86097977D01*
X141451326Y-86229146D01*
X141450169Y-86239154D01*
X141449431Y-86246587D01*
X141448601Y-86256657D01*
X141448108Y-86264118D01*
X141447604Y-86274281D01*
X141447359Y-86281658D01*
X141447187Y-86291813D01*
X141446235Y-88134095D01*
X141445112Y-88140307D01*
X141445157Y-88149625D01*
X141443442Y-88161966D01*
X141439370Y-88172886D01*
X141432900Y-88233068D01*
X133850500Y-88233068D01*
X133850500Y-80359068D01*
X141561300Y-80359068D01*
X141561300Y-80855732D01*
X141567770Y-80915914D01*
X141593702Y-80985439D01*
X141618547Y-81052053D01*
X141618548Y-81052055D01*
X141691243Y-81149164D01*
X141695011Y-81154197D01*
X141705621Y-81168370D01*
X141705627Y-81168377D01*
X141746459Y-81198943D01*
X141821945Y-81255452D01*
X141821948Y-81255453D01*
X141822115Y-81255545D01*
X141840187Y-81267813D01*
X141845347Y-81272097D01*
X141848253Y-81275193D01*
X141858698Y-81285613D01*
X141873560Y-81299498D01*
X141884738Y-81309275D01*
X141900490Y-81322166D01*
X141966130Y-81372380D01*
X141967866Y-81373822D01*
X141984474Y-81398505D01*
X142002054Y-81422508D01*
X142002196Y-81424846D01*
X142003504Y-81426789D01*
X142004130Y-81456538D01*
X142005943Y-81486230D01*
X142004799Y-81488272D01*
X142004849Y-81490615D01*
X141989293Y-81515979D01*
X141974765Y-81541939D01*
X141972484Y-81543387D01*
X141971473Y-81545037D01*
X141964889Y-81548212D01*
X141935082Y-81567149D01*
X141907309Y-81577506D01*
X141907310Y-81577507D01*
X141821946Y-81609346D01*
X141821943Y-81609348D01*
X141705624Y-81696424D01*
X141618548Y-81812743D01*
X141618542Y-81812754D01*
X141596932Y-81870694D01*
X141596933Y-81870695D01*
X141570504Y-81941557D01*
X141567770Y-81948886D01*
X141561300Y-82009068D01*
X141561300Y-82505732D01*
X141565234Y-82542327D01*
X141567770Y-82565915D01*
X141585146Y-82612500D01*
X141605352Y-82666675D01*
X141618546Y-82702051D01*
X141618548Y-82702055D01*
X141705625Y-82818374D01*
X141705626Y-82818376D01*
X141748544Y-82850504D01*
X141821945Y-82905452D01*
X141958086Y-82956230D01*
X142018268Y-82962700D01*
X142018271Y-82962700D01*
X142664929Y-82962700D01*
X142664932Y-82962700D01*
X142725114Y-82956230D01*
X142861255Y-82905452D01*
X142977575Y-82818375D01*
X143064652Y-82702055D01*
X143115430Y-82565914D01*
X143121900Y-82505732D01*
X143121900Y-82337103D01*
X143126488Y-82305186D01*
X143130513Y-82291478D01*
X143165026Y-82237773D01*
X143165025Y-82237773D01*
X143171152Y-82232464D01*
X143216022Y-82208653D01*
X143265389Y-82195427D01*
X143306800Y-82171518D01*
X143306800Y-83007200D01*
X145328497Y-83007200D01*
X145346355Y-83061092D01*
X145436308Y-83206926D01*
X145436310Y-83206928D01*
X145436311Y-83206930D01*
X145557469Y-83328088D01*
X145557471Y-83328089D01*
X145557472Y-83328090D01*
X145703303Y-83418041D01*
X145703307Y-83418043D01*
X145703311Y-83418045D01*
X145784063Y-83444803D01*
X145815875Y-83466828D01*
X145966315Y-83482196D01*
X145966323Y-83482196D01*
X145966346Y-83482199D01*
X145966357Y-83482199D01*
X145966363Y-83482200D01*
X145966367Y-83482200D01*
X145986200Y-83482200D01*
X145986200Y-83007200D01*
X146494200Y-83007200D01*
X146494200Y-83135741D01*
X146493230Y-83150532D01*
X146491308Y-83165129D01*
X146488418Y-83179661D01*
X146460700Y-83283110D01*
X146460700Y-83442489D01*
X146501948Y-83596431D01*
X146501952Y-83596442D01*
X146554306Y-83687120D01*
X146581639Y-83734461D01*
X146581640Y-83734463D01*
X146694338Y-83847161D01*
X146748862Y-83878640D01*
X146783434Y-83898600D01*
X146824141Y-83922103D01*
X146826477Y-83923452D01*
X146829835Y-83925669D01*
X146831748Y-83926685D01*
X146832362Y-83926849D01*
X146832363Y-83926850D01*
X146986311Y-83968100D01*
X147145688Y-83968100D01*
X147145689Y-83968100D01*
X147299637Y-83926850D01*
X147437663Y-83847160D01*
X147482506Y-83802315D01*
X147496043Y-83790758D01*
X147499587Y-83788184D01*
X147502308Y-83786515D01*
X147502919Y-83785764D01*
X147508509Y-83781707D01*
X147512622Y-83780240D01*
X147527699Y-83770471D01*
X147530718Y-83769082D01*
X147530722Y-83769078D01*
X147533782Y-83767671D01*
X147534030Y-83768209D01*
X147551969Y-83761076D01*
X147628840Y-83740479D01*
X147639260Y-83734463D01*
X147721260Y-83687121D01*
X147990336Y-83418045D01*
X148100048Y-83308333D01*
X148111929Y-83298002D01*
X148121754Y-83290590D01*
X148121755Y-83290591D01*
X148146579Y-83271866D01*
X148173241Y-83256921D01*
X148277546Y-83215789D01*
X148277544Y-83215789D01*
X148277549Y-83215788D01*
X148393704Y-83127704D01*
X148481788Y-83011549D01*
X148481790Y-83011545D01*
X148483503Y-83007200D01*
X148844000Y-83007200D01*
X148844000Y-82904500D01*
X149202159Y-82904500D01*
X149305240Y-82876879D01*
X149350930Y-82850500D01*
X149397660Y-82823521D01*
X150348921Y-81872260D01*
X150402279Y-81779840D01*
X150402281Y-81779830D01*
X150403602Y-81776644D01*
X150411531Y-81761032D01*
X150422933Y-81742325D01*
X150460703Y-81704553D01*
X150462768Y-81703295D01*
X150462767Y-81703293D01*
X150483219Y-81690827D01*
X150485896Y-81686436D01*
X150494206Y-81679573D01*
X150585575Y-81611175D01*
X150672652Y-81494855D01*
X150723430Y-81358714D01*
X150729900Y-81298532D01*
X150729900Y-80651868D01*
X150723430Y-80591686D01*
X150672652Y-80455545D01*
X150604013Y-80363855D01*
X150585577Y-80339227D01*
X150585568Y-80339218D01*
X150551433Y-80313664D01*
X150551431Y-80313664D01*
X150528627Y-80290861D01*
X150521027Y-80280709D01*
X150498716Y-80220894D01*
X150512284Y-80158516D01*
X150515693Y-80152273D01*
X150547228Y-80115881D01*
X150585575Y-80087175D01*
X150672652Y-79970855D01*
X150723430Y-79834714D01*
X150729900Y-79774532D01*
X150729900Y-79127868D01*
X150723430Y-79067686D01*
X150672652Y-78931545D01*
X150608491Y-78845836D01*
X150596463Y-78823810D01*
X150593037Y-78817535D01*
X150588985Y-78806672D01*
X150584429Y-78742994D01*
X150615023Y-78686962D01*
X150667126Y-78657292D01*
X150675652Y-78655117D01*
X150703664Y-78651600D01*
X152180407Y-78651600D01*
X152212325Y-78656189D01*
X152235387Y-78662960D01*
X152283584Y-78691556D01*
X155533588Y-81941560D01*
X155625598Y-82003040D01*
X155635587Y-82009714D01*
X155635592Y-82009717D01*
X155635595Y-82009719D01*
X155745959Y-82055432D01*
X155746642Y-82055726D01*
X155746772Y-82055834D01*
X155748326Y-82056543D01*
X155748931Y-82056663D01*
X155748933Y-82056664D01*
X155748934Y-82056664D01*
X155748936Y-82056665D01*
X155869260Y-82080600D01*
X155869263Y-82080600D01*
X155991937Y-82080600D01*
X155991940Y-82080600D01*
X156112264Y-82056665D01*
X156225606Y-82009718D01*
X156327612Y-81941560D01*
X156414360Y-81854812D01*
X156480373Y-81756015D01*
X156493738Y-81739580D01*
X156503413Y-81729730D01*
X156559166Y-81698635D01*
X156622882Y-81702618D01*
X156673997Y-81739981D01*
X156680183Y-81748011D01*
X156695829Y-81775591D01*
X156712610Y-81818147D01*
X156712611Y-81818149D01*
X156712612Y-81818150D01*
X156740415Y-81854813D01*
X156740416Y-81854816D01*
X156788202Y-81917828D01*
X156800696Y-81934304D01*
X156869989Y-81986851D01*
X156916849Y-82022387D01*
X156916851Y-82022388D01*
X157041809Y-82071664D01*
X157059376Y-82081686D01*
X157069820Y-82087644D01*
X157081094Y-82096416D01*
X157118391Y-82148220D01*
X157118392Y-82148225D01*
X157118393Y-82148226D01*
X157122273Y-82159252D01*
X157128700Y-82196866D01*
X157128700Y-82324889D01*
X157134512Y-82346582D01*
X157169949Y-82478834D01*
X157169952Y-82478842D01*
X157219947Y-82565433D01*
X157249640Y-82616863D01*
X157362338Y-82729561D01*
X157403283Y-82753200D01*
X157451434Y-82781000D01*
X157492141Y-82804503D01*
X157494477Y-82805852D01*
X157497835Y-82808069D01*
X157499748Y-82809085D01*
X157500362Y-82809249D01*
X157500363Y-82809250D01*
X157654311Y-82850500D01*
X157813688Y-82850500D01*
X157813689Y-82850500D01*
X157967637Y-82809250D01*
X158105663Y-82729560D01*
X158124971Y-82710251D01*
X158150774Y-82690935D01*
X158163319Y-82684085D01*
X158225691Y-82670515D01*
X158227350Y-82670633D01*
X158280520Y-82688330D01*
X158286471Y-82692154D01*
X158305328Y-82707351D01*
X158327538Y-82729561D01*
X158368483Y-82753200D01*
X158416634Y-82781000D01*
X158457341Y-82804503D01*
X158459677Y-82805852D01*
X158463035Y-82808069D01*
X158464948Y-82809085D01*
X158465562Y-82809249D01*
X158465563Y-82809250D01*
X158619511Y-82850500D01*
X158778888Y-82850500D01*
X158778889Y-82850500D01*
X158932837Y-82809250D01*
X159070863Y-82729560D01*
X159183560Y-82616863D01*
X159263250Y-82478837D01*
X159304500Y-82324889D01*
X159304500Y-82179300D01*
X159309088Y-82147383D01*
X159313113Y-82133675D01*
X159326865Y-82112276D01*
X159347623Y-82079972D01*
X159356467Y-82072309D01*
X159389091Y-82052538D01*
X159465549Y-82022388D01*
X159581704Y-81934304D01*
X159669788Y-81818149D01*
X159723266Y-81682537D01*
X159732055Y-81609348D01*
X159733500Y-81597320D01*
X159733500Y-81064279D01*
X159728912Y-81026077D01*
X159723266Y-80979063D01*
X159669788Y-80843451D01*
X159669787Y-80843449D01*
X159669783Y-80843443D01*
X159627308Y-80787433D01*
X159627308Y-80787432D01*
X159622324Y-80780861D01*
X159618494Y-80775810D01*
X159618492Y-80775807D01*
X159618490Y-80775805D01*
X159618485Y-80775799D01*
X159602861Y-80747601D01*
X159598045Y-80734930D01*
X159593099Y-80671283D01*
X159621508Y-80616972D01*
X159629210Y-80608801D01*
X159652170Y-80590091D01*
X159660926Y-80584691D01*
X159660930Y-80584688D01*
X159782088Y-80463530D01*
X159843569Y-80363855D01*
X159872043Y-80317692D01*
X159872043Y-80317690D01*
X159872045Y-80317688D01*
X159925945Y-80155031D01*
X159926227Y-80152278D01*
X159936195Y-80054691D01*
X159936197Y-80054668D01*
X159936199Y-80054653D01*
X159936200Y-80054633D01*
X159936200Y-80034800D01*
X156446200Y-80034800D01*
X156446200Y-80054671D01*
X156456452Y-80155025D01*
X156456454Y-80155031D01*
X156510355Y-80317692D01*
X156600308Y-80463526D01*
X156600310Y-80463528D01*
X156600311Y-80463530D01*
X156721469Y-80584688D01*
X156721472Y-80584690D01*
X156729091Y-80589389D01*
X156753845Y-80610051D01*
X156762908Y-80620128D01*
X156790497Y-80677700D01*
X156783608Y-80738603D01*
X156779383Y-80748984D01*
X156764720Y-80774735D01*
X156717290Y-80837280D01*
X156714741Y-80840203D01*
X156712610Y-80843452D01*
X156659134Y-80979059D01*
X156659133Y-80979061D01*
X156651988Y-81038561D01*
X156644864Y-81065091D01*
X156643625Y-81069705D01*
X156639552Y-81079203D01*
X156598881Y-81128411D01*
X156538062Y-81147818D01*
X156476405Y-81131264D01*
X156476402Y-81131262D01*
X156472466Y-81128860D01*
X156437283Y-81095095D01*
X156414360Y-81060788D01*
X154860499Y-79506927D01*
X156446200Y-79506927D01*
X156446200Y-79506946D01*
X156446200Y-79526800D01*
X157175200Y-79526800D01*
X157683200Y-79526800D01*
X158699200Y-79526800D01*
X159207200Y-79526800D01*
X159936200Y-79526800D01*
X159936200Y-79506966D01*
X159936199Y-79506946D01*
X159925946Y-79406573D01*
X159925946Y-79406572D01*
X159925945Y-79406570D01*
X159925945Y-79406568D01*
X159872045Y-79243911D01*
X159872044Y-79243909D01*
X159872043Y-79243906D01*
X159782090Y-79098072D01*
X159782085Y-79098066D01*
X159660932Y-78976913D01*
X159660926Y-78976908D01*
X159515095Y-78886957D01*
X159515088Y-78886954D01*
X159434336Y-78860195D01*
X159402525Y-78838170D01*
X159252071Y-78822800D01*
X159252053Y-78822800D01*
X159207200Y-78822800D01*
X159207200Y-79526800D01*
X158699200Y-79526800D01*
X158699200Y-78822800D01*
X158654327Y-78822800D01*
X158553973Y-78833052D01*
X158553967Y-78833053D01*
X158391304Y-78886956D01*
X158264545Y-78965144D01*
X158264541Y-78965145D01*
X158264539Y-78965148D01*
X158234982Y-78977988D01*
X158234961Y-78977997D01*
X158220087Y-78982066D01*
X158158277Y-78981494D01*
X158146334Y-78977988D01*
X158118770Y-78965709D01*
X157991090Y-78886955D01*
X157910334Y-78860195D01*
X157878524Y-78838170D01*
X157728071Y-78822800D01*
X157728053Y-78822800D01*
X157683200Y-78822800D01*
X157683200Y-79526800D01*
X157175200Y-79526800D01*
X157175200Y-78822800D01*
X157130327Y-78822800D01*
X157029973Y-78833052D01*
X157029967Y-78833054D01*
X156867306Y-78886955D01*
X156721472Y-78976908D01*
X156721466Y-78976913D01*
X156600313Y-79098066D01*
X156600308Y-79098072D01*
X156510355Y-79243906D01*
X156456454Y-79406567D01*
X156456452Y-79406573D01*
X156446200Y-79506927D01*
X154860499Y-79506927D01*
X152898614Y-77545042D01*
X152898607Y-77545036D01*
X152796613Y-77476886D01*
X152796607Y-77476883D01*
X152796608Y-77476883D01*
X152796606Y-77476882D01*
X152743178Y-77454751D01*
X152683268Y-77429935D01*
X152683266Y-77429934D01*
X152683118Y-77429904D01*
X152683115Y-77429903D01*
X152562946Y-77406000D01*
X152562943Y-77406000D01*
X152562940Y-77406000D01*
X147055460Y-77406000D01*
X147055456Y-77406000D01*
X147055455Y-77406000D01*
X147032583Y-77410549D01*
X147010422Y-77412726D01*
X143341318Y-77410831D01*
X142532497Y-77410413D01*
X142532496Y-77410413D01*
X142532481Y-77410413D01*
X142523887Y-77410550D01*
X142522273Y-77410576D01*
X142514868Y-77410815D01*
X142504760Y-77411309D01*
X142497388Y-77411789D01*
X142487284Y-77412612D01*
X142484763Y-77412859D01*
X142479905Y-77413336D01*
X142479863Y-77413340D01*
X142479861Y-77413341D01*
X142469835Y-77414490D01*
X142338675Y-77431688D01*
X142318633Y-77434985D01*
X142304124Y-77437862D01*
X142284334Y-77442464D01*
X142270122Y-77446264D01*
X142250662Y-77452156D01*
X142243004Y-77454751D01*
X142236662Y-77456900D01*
X142218067Y-77463886D01*
X142217633Y-77464050D01*
X142105703Y-77510345D01*
X142087193Y-77518722D01*
X142073904Y-77525268D01*
X142056000Y-77534826D01*
X142043276Y-77542164D01*
X142026015Y-77552885D01*
X142013678Y-77561119D01*
X141997198Y-77572917D01*
X141927894Y-77626038D01*
X141901062Y-77646605D01*
X141901056Y-77646610D01*
X141885348Y-77659486D01*
X141874219Y-77669235D01*
X141859413Y-77683089D01*
X141848970Y-77693521D01*
X141835070Y-77708346D01*
X141825312Y-77719462D01*
X141812430Y-77735144D01*
X141738643Y-77831204D01*
X141726802Y-77847711D01*
X141718596Y-77859978D01*
X141707854Y-77877233D01*
X141700476Y-77889996D01*
X141690905Y-77907879D01*
X141684356Y-77921142D01*
X141675960Y-77939646D01*
X141629544Y-78051542D01*
X141622383Y-78070538D01*
X141617617Y-78084560D01*
X141611716Y-78103974D01*
X141607901Y-78118187D01*
X141603280Y-78137951D01*
X141600385Y-78152463D01*
X141597063Y-78172522D01*
X141579725Y-78303697D01*
X141578570Y-78313692D01*
X141578565Y-78313737D01*
X141578282Y-78316589D01*
X141577831Y-78321133D01*
X141577001Y-78331203D01*
X141576508Y-78338664D01*
X141576004Y-78348827D01*
X141575759Y-78356204D01*
X141575587Y-78366359D01*
X141574608Y-80260169D01*
X141573487Y-80266374D01*
X141573533Y-80275680D01*
X141571820Y-80288025D01*
X141567770Y-80298886D01*
X141561300Y-80359068D01*
X133850500Y-80359068D01*
X133850500Y-78793271D01*
X133850512Y-78791628D01*
X133850536Y-78789973D01*
X133850572Y-78788321D01*
X133851746Y-78747968D01*
X133853584Y-78684785D01*
X133868850Y-78160142D01*
X133868988Y-78156979D01*
X133869181Y-78153668D01*
X133869412Y-78150475D01*
X133923975Y-77526826D01*
X133924307Y-77523583D01*
X133924684Y-77520357D01*
X133925114Y-77517087D01*
X133940716Y-77410576D01*
X134015833Y-76897747D01*
X134016357Y-76894507D01*
X134016931Y-76891257D01*
X134017534Y-76888110D01*
X134144122Y-76275045D01*
X134144802Y-76271977D01*
X134145594Y-76268631D01*
X134146364Y-76265585D01*
X134308380Y-75660928D01*
X134309259Y-75657830D01*
X134310232Y-75654578D01*
X134311177Y-75651583D01*
X134508097Y-75057312D01*
X134509149Y-75054284D01*
X134510281Y-75051173D01*
X134511431Y-75048152D01*
X134742543Y-74466409D01*
X134743782Y-74463420D01*
X134745081Y-74460407D01*
X134746429Y-74457401D01*
X135010995Y-73890036D01*
X135012395Y-73887147D01*
X135013883Y-73884184D01*
X135015375Y-73881320D01*
X135312453Y-73330354D01*
X135314019Y-73327547D01*
X135315672Y-73324683D01*
X135317332Y-73321901D01*
X135645993Y-72789059D01*
X135647716Y-72786357D01*
X135649547Y-72783573D01*
X135651322Y-72780958D01*
X136010399Y-72268144D01*
X136012312Y-72265498D01*
X136014253Y-72262892D01*
X136016244Y-72260297D01*
X136016269Y-72260266D01*
X136404476Y-71769296D01*
X136406557Y-71766743D01*
X136408648Y-71764252D01*
X136410789Y-71761775D01*
X136826912Y-71294180D01*
X136829095Y-71291798D01*
X136831402Y-71289352D01*
X136833625Y-71287064D01*
X137276264Y-70844425D01*
X137278552Y-70842202D01*
X137281015Y-70839878D01*
X137283380Y-70837712D01*
X137750981Y-70421583D01*
X137753452Y-70419448D01*
X137755976Y-70417330D01*
X137758496Y-70415276D01*
X138249514Y-70027030D01*
X138252092Y-70025053D01*
X138252748Y-70024563D01*
X138254719Y-70023096D01*
X138257344Y-70021199D01*
X138770158Y-69662122D01*
X138772773Y-69660347D01*
X138775568Y-69658508D01*
X138778259Y-69656793D01*
X139311101Y-69328132D01*
X139313883Y-69326472D01*
X139316747Y-69324819D01*
X139319554Y-69323253D01*
X139870531Y-69026168D01*
X139873384Y-69024683D01*
X139876372Y-69023182D01*
X139879236Y-69021795D01*
X140446627Y-68757216D01*
X140449607Y-68755881D01*
X140452620Y-68754582D01*
X140455609Y-68753343D01*
X141037352Y-68522231D01*
X141040373Y-68521081D01*
X141043484Y-68519949D01*
X141046512Y-68518897D01*
X141640783Y-68321977D01*
X141643778Y-68321032D01*
X141647050Y-68320052D01*
X141650128Y-68319180D01*
X142254785Y-68157164D01*
X142257831Y-68156394D01*
X142261177Y-68155602D01*
X142264245Y-68154922D01*
X142877310Y-68028334D01*
X142880457Y-68027731D01*
X142883739Y-68027151D01*
X142886947Y-68026633D01*
X143506290Y-67935913D01*
X143509557Y-67935484D01*
X143510986Y-67935316D01*
X143512800Y-67935105D01*
X143516026Y-67934775D01*
X144139675Y-67880212D01*
X144142879Y-67879979D01*
X144146179Y-67879788D01*
X144149342Y-67879650D01*
X144777622Y-67861368D01*
X144779126Y-67861335D01*
X144780895Y-67861310D01*
X144782420Y-67861300D01*
X145619223Y-67861300D01*
X145651140Y-67865889D01*
G37*
%TD.AperFunction*%
%TD*%
%TA.AperFunction,Conductor*%
%TO.N,GND*%
G36*
X148539200Y-97942251D02*
G01*
X148527589Y-97943500D01*
X148397915Y-97943500D01*
X148336660Y-97925514D01*
X148294854Y-97877267D01*
X148292515Y-97871765D01*
X148278590Y-97836454D01*
X148278587Y-97836449D01*
X148248580Y-97796880D01*
X148190504Y-97720296D01*
X148127594Y-97672589D01*
X148074350Y-97632212D01*
X148074348Y-97632211D01*
X147938738Y-97578734D01*
X147853520Y-97568500D01*
X147853518Y-97568500D01*
X147320482Y-97568500D01*
X147320480Y-97568500D01*
X147235261Y-97578734D01*
X147099651Y-97632211D01*
X147099649Y-97632212D01*
X146983496Y-97720296D01*
X146895412Y-97836449D01*
X146895411Y-97836451D01*
X146841934Y-97972061D01*
X146831700Y-98057279D01*
X146831700Y-98507142D01*
X146813714Y-98568397D01*
X146765467Y-98610203D01*
X146747725Y-98616581D01*
X146629164Y-98648349D01*
X146629157Y-98648352D01*
X146491135Y-98728041D01*
X146378441Y-98840735D01*
X146369166Y-98856800D01*
X143002000Y-98856800D01*
X143002000Y-98119385D01*
X143074963Y-98077260D01*
X143187660Y-97964563D01*
X143267350Y-97826537D01*
X143308600Y-97672589D01*
X143308600Y-97513211D01*
X143267350Y-97359263D01*
X143263907Y-97353300D01*
X143229471Y-97293655D01*
X143187660Y-97221237D01*
X143074963Y-97108540D01*
X143039535Y-97088085D01*
X143002000Y-97066414D01*
X143002000Y-96367600D01*
X148539200Y-96367600D01*
X148539200Y-97942251D01*
G37*
%TD.AperFunction*%
%TA.AperFunction,Conductor*%
G36*
X148539200Y-98856800D02*
G01*
X148280304Y-98856800D01*
X148292515Y-98825835D01*
X148331718Y-98775450D01*
X148391939Y-98754258D01*
X148397915Y-98754100D01*
X148539200Y-98754100D01*
X148539200Y-98856800D01*
G37*
%TD.AperFunction*%
%TD*%
%TA.AperFunction,Conductor*%
%TO.N,GND*%
G36*
X148844000Y-82093900D02*
G01*
X148601115Y-82093900D01*
X148539860Y-82075914D01*
X148498054Y-82027667D01*
X148495715Y-82022165D01*
X148481790Y-81986854D01*
X148481787Y-81986849D01*
X148451780Y-81947280D01*
X148393704Y-81870696D01*
X148317285Y-81812745D01*
X148277550Y-81782612D01*
X148277548Y-81782611D01*
X148141938Y-81729134D01*
X148056720Y-81718900D01*
X148056718Y-81718900D01*
X147523682Y-81718900D01*
X147523680Y-81718900D01*
X147438461Y-81729134D01*
X147302851Y-81782611D01*
X147302849Y-81782612D01*
X147186696Y-81870696D01*
X147098612Y-81986849D01*
X147098611Y-81986851D01*
X147045134Y-82122461D01*
X147034900Y-82207679D01*
X147034900Y-82657542D01*
X147016914Y-82718797D01*
X146968667Y-82760603D01*
X146950925Y-82766981D01*
X146832364Y-82798749D01*
X146832357Y-82798752D01*
X146694335Y-82878441D01*
X146581641Y-82991135D01*
X146572366Y-83007200D01*
X143306800Y-83007200D01*
X143306800Y-82171518D01*
X143403415Y-82115737D01*
X143516112Y-82003040D01*
X143595802Y-81865014D01*
X143637052Y-81711066D01*
X143637052Y-81551688D01*
X143595802Y-81397740D01*
X143516112Y-81259714D01*
X143403415Y-81147017D01*
X143371267Y-81128456D01*
X143306800Y-81091235D01*
X143306800Y-80518000D01*
X148844000Y-80518000D01*
X148844000Y-82093900D01*
G37*
%TD.AperFunction*%
%TA.AperFunction,Conductor*%
G36*
X148844000Y-83007200D02*
G01*
X148483504Y-83007200D01*
X148495715Y-82976235D01*
X148534918Y-82925850D01*
X148595139Y-82904658D01*
X148601115Y-82904500D01*
X148844000Y-82904500D01*
X148844000Y-83007200D01*
G37*
%TD.AperFunction*%
%TD*%
%TA.AperFunction,Conductor*%
%TO.N,5V*%
G36*
X167317160Y-87326169D02*
G01*
X167459361Y-87344890D01*
X167487930Y-87352545D01*
X167613524Y-87404567D01*
X167639130Y-87419351D01*
X167746981Y-87502108D01*
X167767891Y-87523018D01*
X167850646Y-87630867D01*
X167865433Y-87656478D01*
X167917454Y-87782069D01*
X167925109Y-87810638D01*
X167943831Y-87952839D01*
X167944800Y-87967628D01*
X167944800Y-90594371D01*
X167943831Y-90609160D01*
X167925109Y-90751361D01*
X167917454Y-90779930D01*
X167865433Y-90905521D01*
X167850644Y-90931136D01*
X167767893Y-91038979D01*
X167746979Y-91059893D01*
X167639136Y-91142644D01*
X167613521Y-91157433D01*
X167487930Y-91209454D01*
X167459361Y-91217109D01*
X167317160Y-91235831D01*
X167302371Y-91236800D01*
X164370829Y-91236800D01*
X164356040Y-91235831D01*
X164213838Y-91217109D01*
X164185269Y-91209454D01*
X164059678Y-91157433D01*
X164034067Y-91142646D01*
X163926218Y-91059891D01*
X163905306Y-91038979D01*
X163822551Y-90931130D01*
X163807767Y-90905524D01*
X163755745Y-90779930D01*
X163748090Y-90751361D01*
X163729369Y-90609160D01*
X163728400Y-90594371D01*
X163728400Y-87967628D01*
X163729369Y-87952839D01*
X163748090Y-87810638D01*
X163755745Y-87782069D01*
X163807769Y-87656472D01*
X163822549Y-87630872D01*
X163905311Y-87523014D01*
X163926214Y-87502111D01*
X164034072Y-87419349D01*
X164059672Y-87404569D01*
X164185271Y-87352544D01*
X164213839Y-87344890D01*
X164356041Y-87326169D01*
X164370829Y-87325200D01*
X167302371Y-87325200D01*
X167317160Y-87326169D01*
G37*
%TD.AperFunction*%
%TD*%
%TA.AperFunction,Conductor*%
%TO.N,GND*%
G36*
X148868000Y-89865051D02*
G01*
X148856389Y-89866300D01*
X148472715Y-89866300D01*
X148411460Y-89848314D01*
X148369654Y-89800067D01*
X148367315Y-89794565D01*
X148353390Y-89759254D01*
X148353387Y-89759249D01*
X148323380Y-89719680D01*
X148265304Y-89643096D01*
X148207226Y-89599054D01*
X148149150Y-89555012D01*
X148149148Y-89555011D01*
X148013538Y-89501534D01*
X147928320Y-89491300D01*
X147928318Y-89491300D01*
X147395282Y-89491300D01*
X147395280Y-89491300D01*
X147310061Y-89501534D01*
X147174451Y-89555011D01*
X147174449Y-89555012D01*
X147058296Y-89643096D01*
X146970212Y-89759249D01*
X146970211Y-89759251D01*
X146916734Y-89894861D01*
X146906500Y-89980079D01*
X146906500Y-90457166D01*
X146888514Y-90518421D01*
X146840267Y-90560227D01*
X146822528Y-90566604D01*
X146814797Y-90568675D01*
X146805562Y-90571150D01*
X146805557Y-90571152D01*
X146667535Y-90650841D01*
X146554841Y-90763535D01*
X146516236Y-90830400D01*
X143330800Y-90830400D01*
X143330800Y-90142346D01*
X143411663Y-90095660D01*
X143524360Y-89982963D01*
X143604050Y-89844937D01*
X143645300Y-89690989D01*
X143645300Y-89531611D01*
X143604050Y-89377663D01*
X143599224Y-89369305D01*
X143569635Y-89318055D01*
X143524360Y-89239637D01*
X143411663Y-89126940D01*
X143392311Y-89115767D01*
X143330800Y-89080252D01*
X143330800Y-88341200D01*
X148868000Y-88341200D01*
X148868000Y-89865051D01*
G37*
%TD.AperFunction*%
%TA.AperFunction,Conductor*%
G36*
X148868000Y-90830400D02*
G01*
X148318163Y-90830400D01*
X148353388Y-90783949D01*
X148353390Y-90783945D01*
X148367315Y-90748635D01*
X148406518Y-90698250D01*
X148466739Y-90677058D01*
X148472715Y-90676900D01*
X148868000Y-90676900D01*
X148868000Y-90830400D01*
G37*
%TD.AperFunction*%
%TD*%
M02*
