%TF.GenerationSoftware,KiCad,Pcbnew,10.0.2*%
%TF.CreationDate,2026-06-07T19:31:00-04:00*%
%TF.ProjectId,StrainGaugeDAQ,53747261-696e-4476-9175-67654441512e,rev?*%
%TF.SameCoordinates,Original*%
%TF.FileFunction,Legend,Bot*%
%TF.FilePolarity,Positive*%
%FSLAX46Y46*%
G04 Gerber Fmt 4.6, Leading zero omitted, Abs format (unit mm)*
G04 Created by KiCad (PCBNEW 10.0.2) date 2026-06-07 19:31:00*
%MOMM*%
%LPD*%
G01*
G04 APERTURE LIST*
%ADD10C,0.150000*%
%ADD11C,0.120000*%
G04 APERTURE END LIST*
D10*
X168014420Y-96974819D02*
X168014420Y-95974819D01*
X166966802Y-96974819D02*
X167300135Y-96498628D01*
X167538230Y-96974819D02*
X167538230Y-95974819D01*
X167538230Y-95974819D02*
X167157278Y-95974819D01*
X167157278Y-95974819D02*
X167062040Y-96022438D01*
X167062040Y-96022438D02*
X167014421Y-96070057D01*
X167014421Y-96070057D02*
X166966802Y-96165295D01*
X166966802Y-96165295D02*
X166966802Y-96308152D01*
X166966802Y-96308152D02*
X167014421Y-96403390D01*
X167014421Y-96403390D02*
X167062040Y-96451009D01*
X167062040Y-96451009D02*
X167157278Y-96498628D01*
X167157278Y-96498628D02*
X167538230Y-96498628D01*
X165871564Y-97070057D02*
X165966802Y-97022438D01*
X165966802Y-97022438D02*
X166062040Y-96927200D01*
X166062040Y-96927200D02*
X166204897Y-96784342D01*
X166204897Y-96784342D02*
X166300135Y-96736723D01*
X166300135Y-96736723D02*
X166395373Y-96736723D01*
X166347754Y-96974819D02*
X166442992Y-96927200D01*
X166442992Y-96927200D02*
X166538230Y-96831961D01*
X166538230Y-96831961D02*
X166585849Y-96641485D01*
X166585849Y-96641485D02*
X166585849Y-96308152D01*
X166585849Y-96308152D02*
X166538230Y-96117676D01*
X166538230Y-96117676D02*
X166442992Y-96022438D01*
X166442992Y-96022438D02*
X166347754Y-95974819D01*
X166347754Y-95974819D02*
X166157278Y-95974819D01*
X166157278Y-95974819D02*
X166062040Y-96022438D01*
X166062040Y-96022438D02*
X165966802Y-96117676D01*
X165966802Y-96117676D02*
X165919183Y-96308152D01*
X165919183Y-96308152D02*
X165919183Y-96641485D01*
X165919183Y-96641485D02*
X165966802Y-96831961D01*
X165966802Y-96831961D02*
X166062040Y-96927200D01*
X166062040Y-96927200D02*
X166157278Y-96974819D01*
X166157278Y-96974819D02*
X166347754Y-96974819D01*
X168062039Y-99467200D02*
X167919182Y-99514819D01*
X167919182Y-99514819D02*
X167681087Y-99514819D01*
X167681087Y-99514819D02*
X167585849Y-99467200D01*
X167585849Y-99467200D02*
X167538230Y-99419580D01*
X167538230Y-99419580D02*
X167490611Y-99324342D01*
X167490611Y-99324342D02*
X167490611Y-99229104D01*
X167490611Y-99229104D02*
X167538230Y-99133866D01*
X167538230Y-99133866D02*
X167585849Y-99086247D01*
X167585849Y-99086247D02*
X167681087Y-99038628D01*
X167681087Y-99038628D02*
X167871563Y-98991009D01*
X167871563Y-98991009D02*
X167966801Y-98943390D01*
X167966801Y-98943390D02*
X168014420Y-98895771D01*
X168014420Y-98895771D02*
X168062039Y-98800533D01*
X168062039Y-98800533D02*
X168062039Y-98705295D01*
X168062039Y-98705295D02*
X168014420Y-98610057D01*
X168014420Y-98610057D02*
X167966801Y-98562438D01*
X167966801Y-98562438D02*
X167871563Y-98514819D01*
X167871563Y-98514819D02*
X167633468Y-98514819D01*
X167633468Y-98514819D02*
X167490611Y-98562438D01*
X167062039Y-99514819D02*
X167062039Y-98514819D01*
X167062039Y-98514819D02*
X166823944Y-98514819D01*
X166823944Y-98514819D02*
X166681087Y-98562438D01*
X166681087Y-98562438D02*
X166585849Y-98657676D01*
X166585849Y-98657676D02*
X166538230Y-98752914D01*
X166538230Y-98752914D02*
X166490611Y-98943390D01*
X166490611Y-98943390D02*
X166490611Y-99086247D01*
X166490611Y-99086247D02*
X166538230Y-99276723D01*
X166538230Y-99276723D02*
X166585849Y-99371961D01*
X166585849Y-99371961D02*
X166681087Y-99467200D01*
X166681087Y-99467200D02*
X166823944Y-99514819D01*
X166823944Y-99514819D02*
X167062039Y-99514819D01*
X165871563Y-98514819D02*
X165681087Y-98514819D01*
X165681087Y-98514819D02*
X165585849Y-98562438D01*
X165585849Y-98562438D02*
X165490611Y-98657676D01*
X165490611Y-98657676D02*
X165442992Y-98848152D01*
X165442992Y-98848152D02*
X165442992Y-99181485D01*
X165442992Y-99181485D02*
X165490611Y-99371961D01*
X165490611Y-99371961D02*
X165585849Y-99467200D01*
X165585849Y-99467200D02*
X165681087Y-99514819D01*
X165681087Y-99514819D02*
X165871563Y-99514819D01*
X165871563Y-99514819D02*
X165966801Y-99467200D01*
X165966801Y-99467200D02*
X166062039Y-99371961D01*
X166062039Y-99371961D02*
X166109658Y-99181485D01*
X166109658Y-99181485D02*
X166109658Y-98848152D01*
X166109658Y-98848152D02*
X166062039Y-98657676D01*
X166062039Y-98657676D02*
X165966801Y-98562438D01*
X165966801Y-98562438D02*
X165871563Y-98514819D01*
X168062039Y-102007200D02*
X167919182Y-102054819D01*
X167919182Y-102054819D02*
X167681087Y-102054819D01*
X167681087Y-102054819D02*
X167585849Y-102007200D01*
X167585849Y-102007200D02*
X167538230Y-101959580D01*
X167538230Y-101959580D02*
X167490611Y-101864342D01*
X167490611Y-101864342D02*
X167490611Y-101769104D01*
X167490611Y-101769104D02*
X167538230Y-101673866D01*
X167538230Y-101673866D02*
X167585849Y-101626247D01*
X167585849Y-101626247D02*
X167681087Y-101578628D01*
X167681087Y-101578628D02*
X167871563Y-101531009D01*
X167871563Y-101531009D02*
X167966801Y-101483390D01*
X167966801Y-101483390D02*
X168014420Y-101435771D01*
X168014420Y-101435771D02*
X168062039Y-101340533D01*
X168062039Y-101340533D02*
X168062039Y-101245295D01*
X168062039Y-101245295D02*
X168014420Y-101150057D01*
X168014420Y-101150057D02*
X167966801Y-101102438D01*
X167966801Y-101102438D02*
X167871563Y-101054819D01*
X167871563Y-101054819D02*
X167633468Y-101054819D01*
X167633468Y-101054819D02*
X167490611Y-101102438D01*
X167062039Y-102054819D02*
X167062039Y-101054819D01*
X167062039Y-101054819D02*
X166823944Y-101054819D01*
X166823944Y-101054819D02*
X166681087Y-101102438D01*
X166681087Y-101102438D02*
X166585849Y-101197676D01*
X166585849Y-101197676D02*
X166538230Y-101292914D01*
X166538230Y-101292914D02*
X166490611Y-101483390D01*
X166490611Y-101483390D02*
X166490611Y-101626247D01*
X166490611Y-101626247D02*
X166538230Y-101816723D01*
X166538230Y-101816723D02*
X166585849Y-101911961D01*
X166585849Y-101911961D02*
X166681087Y-102007200D01*
X166681087Y-102007200D02*
X166823944Y-102054819D01*
X166823944Y-102054819D02*
X167062039Y-102054819D01*
X166062039Y-102054819D02*
X166062039Y-101054819D01*
X168062039Y-104547200D02*
X167919182Y-104594819D01*
X167919182Y-104594819D02*
X167681087Y-104594819D01*
X167681087Y-104594819D02*
X167585849Y-104547200D01*
X167585849Y-104547200D02*
X167538230Y-104499580D01*
X167538230Y-104499580D02*
X167490611Y-104404342D01*
X167490611Y-104404342D02*
X167490611Y-104309104D01*
X167490611Y-104309104D02*
X167538230Y-104213866D01*
X167538230Y-104213866D02*
X167585849Y-104166247D01*
X167585849Y-104166247D02*
X167681087Y-104118628D01*
X167681087Y-104118628D02*
X167871563Y-104071009D01*
X167871563Y-104071009D02*
X167966801Y-104023390D01*
X167966801Y-104023390D02*
X168014420Y-103975771D01*
X168014420Y-103975771D02*
X168062039Y-103880533D01*
X168062039Y-103880533D02*
X168062039Y-103785295D01*
X168062039Y-103785295D02*
X168014420Y-103690057D01*
X168014420Y-103690057D02*
X167966801Y-103642438D01*
X167966801Y-103642438D02*
X167871563Y-103594819D01*
X167871563Y-103594819D02*
X167633468Y-103594819D01*
X167633468Y-103594819D02*
X167490611Y-103642438D01*
X166490611Y-104499580D02*
X166538230Y-104547200D01*
X166538230Y-104547200D02*
X166681087Y-104594819D01*
X166681087Y-104594819D02*
X166776325Y-104594819D01*
X166776325Y-104594819D02*
X166919182Y-104547200D01*
X166919182Y-104547200D02*
X167014420Y-104451961D01*
X167014420Y-104451961D02*
X167062039Y-104356723D01*
X167062039Y-104356723D02*
X167109658Y-104166247D01*
X167109658Y-104166247D02*
X167109658Y-104023390D01*
X167109658Y-104023390D02*
X167062039Y-103832914D01*
X167062039Y-103832914D02*
X167014420Y-103737676D01*
X167014420Y-103737676D02*
X166919182Y-103642438D01*
X166919182Y-103642438D02*
X166776325Y-103594819D01*
X166776325Y-103594819D02*
X166681087Y-103594819D01*
X166681087Y-103594819D02*
X166538230Y-103642438D01*
X166538230Y-103642438D02*
X166490611Y-103690057D01*
X165585849Y-104594819D02*
X166062039Y-104594819D01*
X166062039Y-104594819D02*
X166062039Y-103594819D01*
X165252515Y-104594819D02*
X165252515Y-103594819D01*
X164681087Y-104594819D02*
X165109658Y-104023390D01*
X164681087Y-103594819D02*
X165252515Y-104166247D01*
X167442992Y-107039580D02*
X167490611Y-107087200D01*
X167490611Y-107087200D02*
X167633468Y-107134819D01*
X167633468Y-107134819D02*
X167728706Y-107134819D01*
X167728706Y-107134819D02*
X167871563Y-107087200D01*
X167871563Y-107087200D02*
X167966801Y-106991961D01*
X167966801Y-106991961D02*
X168014420Y-106896723D01*
X168014420Y-106896723D02*
X168062039Y-106706247D01*
X168062039Y-106706247D02*
X168062039Y-106563390D01*
X168062039Y-106563390D02*
X168014420Y-106372914D01*
X168014420Y-106372914D02*
X167966801Y-106277676D01*
X167966801Y-106277676D02*
X167871563Y-106182438D01*
X167871563Y-106182438D02*
X167728706Y-106134819D01*
X167728706Y-106134819D02*
X167633468Y-106134819D01*
X167633468Y-106134819D02*
X167490611Y-106182438D01*
X167490611Y-106182438D02*
X167442992Y-106230057D01*
X167062039Y-107087200D02*
X166919182Y-107134819D01*
X166919182Y-107134819D02*
X166681087Y-107134819D01*
X166681087Y-107134819D02*
X166585849Y-107087200D01*
X166585849Y-107087200D02*
X166538230Y-107039580D01*
X166538230Y-107039580D02*
X166490611Y-106944342D01*
X166490611Y-106944342D02*
X166490611Y-106849104D01*
X166490611Y-106849104D02*
X166538230Y-106753866D01*
X166538230Y-106753866D02*
X166585849Y-106706247D01*
X166585849Y-106706247D02*
X166681087Y-106658628D01*
X166681087Y-106658628D02*
X166871563Y-106611009D01*
X166871563Y-106611009D02*
X166966801Y-106563390D01*
X166966801Y-106563390D02*
X167014420Y-106515771D01*
X167014420Y-106515771D02*
X167062039Y-106420533D01*
X167062039Y-106420533D02*
X167062039Y-106325295D01*
X167062039Y-106325295D02*
X167014420Y-106230057D01*
X167014420Y-106230057D02*
X166966801Y-106182438D01*
X166966801Y-106182438D02*
X166871563Y-106134819D01*
X166871563Y-106134819D02*
X166633468Y-106134819D01*
X166633468Y-106134819D02*
X166490611Y-106182438D01*
X170365657Y-87786380D02*
X170413276Y-87834000D01*
X170413276Y-87834000D02*
X170556133Y-87881619D01*
X170556133Y-87881619D02*
X170651371Y-87881619D01*
X170651371Y-87881619D02*
X170794228Y-87834000D01*
X170794228Y-87834000D02*
X170889466Y-87738761D01*
X170889466Y-87738761D02*
X170937085Y-87643523D01*
X170937085Y-87643523D02*
X170984704Y-87453047D01*
X170984704Y-87453047D02*
X170984704Y-87310190D01*
X170984704Y-87310190D02*
X170937085Y-87119714D01*
X170937085Y-87119714D02*
X170889466Y-87024476D01*
X170889466Y-87024476D02*
X170794228Y-86929238D01*
X170794228Y-86929238D02*
X170651371Y-86881619D01*
X170651371Y-86881619D02*
X170556133Y-86881619D01*
X170556133Y-86881619D02*
X170413276Y-86929238D01*
X170413276Y-86929238D02*
X170365657Y-86976857D01*
X169984704Y-86976857D02*
X169937085Y-86929238D01*
X169937085Y-86929238D02*
X169841847Y-86881619D01*
X169841847Y-86881619D02*
X169603752Y-86881619D01*
X169603752Y-86881619D02*
X169508514Y-86929238D01*
X169508514Y-86929238D02*
X169460895Y-86976857D01*
X169460895Y-86976857D02*
X169413276Y-87072095D01*
X169413276Y-87072095D02*
X169413276Y-87167333D01*
X169413276Y-87167333D02*
X169460895Y-87310190D01*
X169460895Y-87310190D02*
X170032323Y-87881619D01*
X170032323Y-87881619D02*
X169413276Y-87881619D01*
X169032323Y-86976857D02*
X168984704Y-86929238D01*
X168984704Y-86929238D02*
X168889466Y-86881619D01*
X168889466Y-86881619D02*
X168651371Y-86881619D01*
X168651371Y-86881619D02*
X168556133Y-86929238D01*
X168556133Y-86929238D02*
X168508514Y-86976857D01*
X168508514Y-86976857D02*
X168460895Y-87072095D01*
X168460895Y-87072095D02*
X168460895Y-87167333D01*
X168460895Y-87167333D02*
X168508514Y-87310190D01*
X168508514Y-87310190D02*
X169079942Y-87881619D01*
X169079942Y-87881619D02*
X168460895Y-87881619D01*
X170365657Y-89310380D02*
X170413276Y-89358000D01*
X170413276Y-89358000D02*
X170556133Y-89405619D01*
X170556133Y-89405619D02*
X170651371Y-89405619D01*
X170651371Y-89405619D02*
X170794228Y-89358000D01*
X170794228Y-89358000D02*
X170889466Y-89262761D01*
X170889466Y-89262761D02*
X170937085Y-89167523D01*
X170937085Y-89167523D02*
X170984704Y-88977047D01*
X170984704Y-88977047D02*
X170984704Y-88834190D01*
X170984704Y-88834190D02*
X170937085Y-88643714D01*
X170937085Y-88643714D02*
X170889466Y-88548476D01*
X170889466Y-88548476D02*
X170794228Y-88453238D01*
X170794228Y-88453238D02*
X170651371Y-88405619D01*
X170651371Y-88405619D02*
X170556133Y-88405619D01*
X170556133Y-88405619D02*
X170413276Y-88453238D01*
X170413276Y-88453238D02*
X170365657Y-88500857D01*
X169984704Y-88500857D02*
X169937085Y-88453238D01*
X169937085Y-88453238D02*
X169841847Y-88405619D01*
X169841847Y-88405619D02*
X169603752Y-88405619D01*
X169603752Y-88405619D02*
X169508514Y-88453238D01*
X169508514Y-88453238D02*
X169460895Y-88500857D01*
X169460895Y-88500857D02*
X169413276Y-88596095D01*
X169413276Y-88596095D02*
X169413276Y-88691333D01*
X169413276Y-88691333D02*
X169460895Y-88834190D01*
X169460895Y-88834190D02*
X170032323Y-89405619D01*
X170032323Y-89405619D02*
X169413276Y-89405619D01*
X168460895Y-89405619D02*
X169032323Y-89405619D01*
X168746609Y-89405619D02*
X168746609Y-88405619D01*
X168746609Y-88405619D02*
X168841847Y-88548476D01*
X168841847Y-88548476D02*
X168937085Y-88643714D01*
X168937085Y-88643714D02*
X169032323Y-88691333D01*
X170365657Y-86262380D02*
X170413276Y-86310000D01*
X170413276Y-86310000D02*
X170556133Y-86357619D01*
X170556133Y-86357619D02*
X170651371Y-86357619D01*
X170651371Y-86357619D02*
X170794228Y-86310000D01*
X170794228Y-86310000D02*
X170889466Y-86214761D01*
X170889466Y-86214761D02*
X170937085Y-86119523D01*
X170937085Y-86119523D02*
X170984704Y-85929047D01*
X170984704Y-85929047D02*
X170984704Y-85786190D01*
X170984704Y-85786190D02*
X170937085Y-85595714D01*
X170937085Y-85595714D02*
X170889466Y-85500476D01*
X170889466Y-85500476D02*
X170794228Y-85405238D01*
X170794228Y-85405238D02*
X170651371Y-85357619D01*
X170651371Y-85357619D02*
X170556133Y-85357619D01*
X170556133Y-85357619D02*
X170413276Y-85405238D01*
X170413276Y-85405238D02*
X170365657Y-85452857D01*
X169984704Y-85452857D02*
X169937085Y-85405238D01*
X169937085Y-85405238D02*
X169841847Y-85357619D01*
X169841847Y-85357619D02*
X169603752Y-85357619D01*
X169603752Y-85357619D02*
X169508514Y-85405238D01*
X169508514Y-85405238D02*
X169460895Y-85452857D01*
X169460895Y-85452857D02*
X169413276Y-85548095D01*
X169413276Y-85548095D02*
X169413276Y-85643333D01*
X169413276Y-85643333D02*
X169460895Y-85786190D01*
X169460895Y-85786190D02*
X170032323Y-86357619D01*
X170032323Y-86357619D02*
X169413276Y-86357619D01*
X169079942Y-85357619D02*
X168460895Y-85357619D01*
X168460895Y-85357619D02*
X168794228Y-85738571D01*
X168794228Y-85738571D02*
X168651371Y-85738571D01*
X168651371Y-85738571D02*
X168556133Y-85786190D01*
X168556133Y-85786190D02*
X168508514Y-85833809D01*
X168508514Y-85833809D02*
X168460895Y-85929047D01*
X168460895Y-85929047D02*
X168460895Y-86167142D01*
X168460895Y-86167142D02*
X168508514Y-86262380D01*
X168508514Y-86262380D02*
X168556133Y-86310000D01*
X168556133Y-86310000D02*
X168651371Y-86357619D01*
X168651371Y-86357619D02*
X168937085Y-86357619D01*
X168937085Y-86357619D02*
X169032323Y-86310000D01*
X169032323Y-86310000D02*
X169079942Y-86262380D01*
X143869580Y-93292333D02*
X143917200Y-93244714D01*
X143917200Y-93244714D02*
X143964819Y-93101857D01*
X143964819Y-93101857D02*
X143964819Y-93006619D01*
X143964819Y-93006619D02*
X143917200Y-92863762D01*
X143917200Y-92863762D02*
X143821961Y-92768524D01*
X143821961Y-92768524D02*
X143726723Y-92720905D01*
X143726723Y-92720905D02*
X143536247Y-92673286D01*
X143536247Y-92673286D02*
X143393390Y-92673286D01*
X143393390Y-92673286D02*
X143202914Y-92720905D01*
X143202914Y-92720905D02*
X143107676Y-92768524D01*
X143107676Y-92768524D02*
X143012438Y-92863762D01*
X143012438Y-92863762D02*
X142964819Y-93006619D01*
X142964819Y-93006619D02*
X142964819Y-93101857D01*
X142964819Y-93101857D02*
X143012438Y-93244714D01*
X143012438Y-93244714D02*
X143060057Y-93292333D01*
X143964819Y-93768524D02*
X143964819Y-93959000D01*
X143964819Y-93959000D02*
X143917200Y-94054238D01*
X143917200Y-94054238D02*
X143869580Y-94101857D01*
X143869580Y-94101857D02*
X143726723Y-94197095D01*
X143726723Y-94197095D02*
X143536247Y-94244714D01*
X143536247Y-94244714D02*
X143155295Y-94244714D01*
X143155295Y-94244714D02*
X143060057Y-94197095D01*
X143060057Y-94197095D02*
X143012438Y-94149476D01*
X143012438Y-94149476D02*
X142964819Y-94054238D01*
X142964819Y-94054238D02*
X142964819Y-93863762D01*
X142964819Y-93863762D02*
X143012438Y-93768524D01*
X143012438Y-93768524D02*
X143060057Y-93720905D01*
X143060057Y-93720905D02*
X143155295Y-93673286D01*
X143155295Y-93673286D02*
X143393390Y-93673286D01*
X143393390Y-93673286D02*
X143488628Y-93720905D01*
X143488628Y-93720905D02*
X143536247Y-93768524D01*
X143536247Y-93768524D02*
X143583866Y-93863762D01*
X143583866Y-93863762D02*
X143583866Y-94054238D01*
X143583866Y-94054238D02*
X143536247Y-94149476D01*
X143536247Y-94149476D02*
X143488628Y-94197095D01*
X143488628Y-94197095D02*
X143393390Y-94244714D01*
X140909219Y-105301142D02*
X140433028Y-104967809D01*
X140909219Y-104729714D02*
X139909219Y-104729714D01*
X139909219Y-104729714D02*
X139909219Y-105110666D01*
X139909219Y-105110666D02*
X139956838Y-105205904D01*
X139956838Y-105205904D02*
X140004457Y-105253523D01*
X140004457Y-105253523D02*
X140099695Y-105301142D01*
X140099695Y-105301142D02*
X140242552Y-105301142D01*
X140242552Y-105301142D02*
X140337790Y-105253523D01*
X140337790Y-105253523D02*
X140385409Y-105205904D01*
X140385409Y-105205904D02*
X140433028Y-105110666D01*
X140433028Y-105110666D02*
X140433028Y-104729714D01*
X140004457Y-105682095D02*
X139956838Y-105729714D01*
X139956838Y-105729714D02*
X139909219Y-105824952D01*
X139909219Y-105824952D02*
X139909219Y-106063047D01*
X139909219Y-106063047D02*
X139956838Y-106158285D01*
X139956838Y-106158285D02*
X140004457Y-106205904D01*
X140004457Y-106205904D02*
X140099695Y-106253523D01*
X140099695Y-106253523D02*
X140194933Y-106253523D01*
X140194933Y-106253523D02*
X140337790Y-106205904D01*
X140337790Y-106205904D02*
X140909219Y-105634476D01*
X140909219Y-105634476D02*
X140909219Y-106253523D01*
X139909219Y-107158285D02*
X139909219Y-106682095D01*
X139909219Y-106682095D02*
X140385409Y-106634476D01*
X140385409Y-106634476D02*
X140337790Y-106682095D01*
X140337790Y-106682095D02*
X140290171Y-106777333D01*
X140290171Y-106777333D02*
X140290171Y-107015428D01*
X140290171Y-107015428D02*
X140337790Y-107110666D01*
X140337790Y-107110666D02*
X140385409Y-107158285D01*
X140385409Y-107158285D02*
X140480647Y-107205904D01*
X140480647Y-107205904D02*
X140718742Y-107205904D01*
X140718742Y-107205904D02*
X140813980Y-107158285D01*
X140813980Y-107158285D02*
X140861600Y-107110666D01*
X140861600Y-107110666D02*
X140909219Y-107015428D01*
X140909219Y-107015428D02*
X140909219Y-106777333D01*
X140909219Y-106777333D02*
X140861600Y-106682095D01*
X140861600Y-106682095D02*
X140813980Y-106634476D01*
X170482419Y-92231742D02*
X170006228Y-91898409D01*
X170482419Y-91660314D02*
X169482419Y-91660314D01*
X169482419Y-91660314D02*
X169482419Y-92041266D01*
X169482419Y-92041266D02*
X169530038Y-92136504D01*
X169530038Y-92136504D02*
X169577657Y-92184123D01*
X169577657Y-92184123D02*
X169672895Y-92231742D01*
X169672895Y-92231742D02*
X169815752Y-92231742D01*
X169815752Y-92231742D02*
X169910990Y-92184123D01*
X169910990Y-92184123D02*
X169958609Y-92136504D01*
X169958609Y-92136504D02*
X170006228Y-92041266D01*
X170006228Y-92041266D02*
X170006228Y-91660314D01*
X169482419Y-92565076D02*
X169482419Y-93184123D01*
X169482419Y-93184123D02*
X169863371Y-92850790D01*
X169863371Y-92850790D02*
X169863371Y-92993647D01*
X169863371Y-92993647D02*
X169910990Y-93088885D01*
X169910990Y-93088885D02*
X169958609Y-93136504D01*
X169958609Y-93136504D02*
X170053847Y-93184123D01*
X170053847Y-93184123D02*
X170291942Y-93184123D01*
X170291942Y-93184123D02*
X170387180Y-93136504D01*
X170387180Y-93136504D02*
X170434800Y-93088885D01*
X170434800Y-93088885D02*
X170482419Y-92993647D01*
X170482419Y-92993647D02*
X170482419Y-92707933D01*
X170482419Y-92707933D02*
X170434800Y-92612695D01*
X170434800Y-92612695D02*
X170387180Y-92565076D01*
X169815752Y-94041266D02*
X170482419Y-94041266D01*
X169434800Y-93803171D02*
X170149085Y-93565076D01*
X170149085Y-93565076D02*
X170149085Y-94184123D01*
X149486857Y-94231619D02*
X149820190Y-93755428D01*
X150058285Y-94231619D02*
X150058285Y-93231619D01*
X150058285Y-93231619D02*
X149677333Y-93231619D01*
X149677333Y-93231619D02*
X149582095Y-93279238D01*
X149582095Y-93279238D02*
X149534476Y-93326857D01*
X149534476Y-93326857D02*
X149486857Y-93422095D01*
X149486857Y-93422095D02*
X149486857Y-93564952D01*
X149486857Y-93564952D02*
X149534476Y-93660190D01*
X149534476Y-93660190D02*
X149582095Y-93707809D01*
X149582095Y-93707809D02*
X149677333Y-93755428D01*
X149677333Y-93755428D02*
X150058285Y-93755428D01*
X149105904Y-93326857D02*
X149058285Y-93279238D01*
X149058285Y-93279238D02*
X148963047Y-93231619D01*
X148963047Y-93231619D02*
X148724952Y-93231619D01*
X148724952Y-93231619D02*
X148629714Y-93279238D01*
X148629714Y-93279238D02*
X148582095Y-93326857D01*
X148582095Y-93326857D02*
X148534476Y-93422095D01*
X148534476Y-93422095D02*
X148534476Y-93517333D01*
X148534476Y-93517333D02*
X148582095Y-93660190D01*
X148582095Y-93660190D02*
X149153523Y-94231619D01*
X149153523Y-94231619D02*
X148534476Y-94231619D01*
X148201142Y-93231619D02*
X147582095Y-93231619D01*
X147582095Y-93231619D02*
X147915428Y-93612571D01*
X147915428Y-93612571D02*
X147772571Y-93612571D01*
X147772571Y-93612571D02*
X147677333Y-93660190D01*
X147677333Y-93660190D02*
X147629714Y-93707809D01*
X147629714Y-93707809D02*
X147582095Y-93803047D01*
X147582095Y-93803047D02*
X147582095Y-94041142D01*
X147582095Y-94041142D02*
X147629714Y-94136380D01*
X147629714Y-94136380D02*
X147677333Y-94184000D01*
X147677333Y-94184000D02*
X147772571Y-94231619D01*
X147772571Y-94231619D02*
X148058285Y-94231619D01*
X148058285Y-94231619D02*
X148153523Y-94184000D01*
X148153523Y-94184000D02*
X148201142Y-94136380D01*
X145272930Y-100621342D02*
X145320550Y-100573723D01*
X145320550Y-100573723D02*
X145368169Y-100430866D01*
X145368169Y-100430866D02*
X145368169Y-100335628D01*
X145368169Y-100335628D02*
X145320550Y-100192771D01*
X145320550Y-100192771D02*
X145225311Y-100097533D01*
X145225311Y-100097533D02*
X145130073Y-100049914D01*
X145130073Y-100049914D02*
X144939597Y-100002295D01*
X144939597Y-100002295D02*
X144796740Y-100002295D01*
X144796740Y-100002295D02*
X144606264Y-100049914D01*
X144606264Y-100049914D02*
X144511026Y-100097533D01*
X144511026Y-100097533D02*
X144415788Y-100192771D01*
X144415788Y-100192771D02*
X144368169Y-100335628D01*
X144368169Y-100335628D02*
X144368169Y-100430866D01*
X144368169Y-100430866D02*
X144415788Y-100573723D01*
X144415788Y-100573723D02*
X144463407Y-100621342D01*
X145368169Y-101573723D02*
X145368169Y-101002295D01*
X145368169Y-101288009D02*
X144368169Y-101288009D01*
X144368169Y-101288009D02*
X144511026Y-101192771D01*
X144511026Y-101192771D02*
X144606264Y-101097533D01*
X144606264Y-101097533D02*
X144653883Y-101002295D01*
X144701502Y-102430866D02*
X145368169Y-102430866D01*
X144320550Y-102192771D02*
X145034835Y-101954676D01*
X145034835Y-101954676D02*
X145034835Y-102573723D01*
X149491866Y-90631180D02*
X149539485Y-90678800D01*
X149539485Y-90678800D02*
X149682342Y-90726419D01*
X149682342Y-90726419D02*
X149777580Y-90726419D01*
X149777580Y-90726419D02*
X149920437Y-90678800D01*
X149920437Y-90678800D02*
X150015675Y-90583561D01*
X150015675Y-90583561D02*
X150063294Y-90488323D01*
X150063294Y-90488323D02*
X150110913Y-90297847D01*
X150110913Y-90297847D02*
X150110913Y-90154990D01*
X150110913Y-90154990D02*
X150063294Y-89964514D01*
X150063294Y-89964514D02*
X150015675Y-89869276D01*
X150015675Y-89869276D02*
X149920437Y-89774038D01*
X149920437Y-89774038D02*
X149777580Y-89726419D01*
X149777580Y-89726419D02*
X149682342Y-89726419D01*
X149682342Y-89726419D02*
X149539485Y-89774038D01*
X149539485Y-89774038D02*
X149491866Y-89821657D01*
X149158532Y-89726419D02*
X148491866Y-89726419D01*
X148491866Y-89726419D02*
X148920437Y-90726419D01*
X150096457Y-107039580D02*
X150144076Y-107087200D01*
X150144076Y-107087200D02*
X150286933Y-107134819D01*
X150286933Y-107134819D02*
X150382171Y-107134819D01*
X150382171Y-107134819D02*
X150525028Y-107087200D01*
X150525028Y-107087200D02*
X150620266Y-106991961D01*
X150620266Y-106991961D02*
X150667885Y-106896723D01*
X150667885Y-106896723D02*
X150715504Y-106706247D01*
X150715504Y-106706247D02*
X150715504Y-106563390D01*
X150715504Y-106563390D02*
X150667885Y-106372914D01*
X150667885Y-106372914D02*
X150620266Y-106277676D01*
X150620266Y-106277676D02*
X150525028Y-106182438D01*
X150525028Y-106182438D02*
X150382171Y-106134819D01*
X150382171Y-106134819D02*
X150286933Y-106134819D01*
X150286933Y-106134819D02*
X150144076Y-106182438D01*
X150144076Y-106182438D02*
X150096457Y-106230057D01*
X149144076Y-107134819D02*
X149715504Y-107134819D01*
X149429790Y-107134819D02*
X149429790Y-106134819D01*
X149429790Y-106134819D02*
X149525028Y-106277676D01*
X149525028Y-106277676D02*
X149620266Y-106372914D01*
X149620266Y-106372914D02*
X149715504Y-106420533D01*
X148239314Y-106134819D02*
X148715504Y-106134819D01*
X148715504Y-106134819D02*
X148763123Y-106611009D01*
X148763123Y-106611009D02*
X148715504Y-106563390D01*
X148715504Y-106563390D02*
X148620266Y-106515771D01*
X148620266Y-106515771D02*
X148382171Y-106515771D01*
X148382171Y-106515771D02*
X148286933Y-106563390D01*
X148286933Y-106563390D02*
X148239314Y-106611009D01*
X148239314Y-106611009D02*
X148191695Y-106706247D01*
X148191695Y-106706247D02*
X148191695Y-106944342D01*
X148191695Y-106944342D02*
X148239314Y-107039580D01*
X148239314Y-107039580D02*
X148286933Y-107087200D01*
X148286933Y-107087200D02*
X148382171Y-107134819D01*
X148382171Y-107134819D02*
X148620266Y-107134819D01*
X148620266Y-107134819D02*
X148715504Y-107087200D01*
X148715504Y-107087200D02*
X148763123Y-107039580D01*
X147246380Y-84497942D02*
X147294000Y-84450323D01*
X147294000Y-84450323D02*
X147341619Y-84307466D01*
X147341619Y-84307466D02*
X147341619Y-84212228D01*
X147341619Y-84212228D02*
X147294000Y-84069371D01*
X147294000Y-84069371D02*
X147198761Y-83974133D01*
X147198761Y-83974133D02*
X147103523Y-83926514D01*
X147103523Y-83926514D02*
X146913047Y-83878895D01*
X146913047Y-83878895D02*
X146770190Y-83878895D01*
X146770190Y-83878895D02*
X146579714Y-83926514D01*
X146579714Y-83926514D02*
X146484476Y-83974133D01*
X146484476Y-83974133D02*
X146389238Y-84069371D01*
X146389238Y-84069371D02*
X146341619Y-84212228D01*
X146341619Y-84212228D02*
X146341619Y-84307466D01*
X146341619Y-84307466D02*
X146389238Y-84450323D01*
X146389238Y-84450323D02*
X146436857Y-84497942D01*
X147341619Y-85450323D02*
X147341619Y-84878895D01*
X147341619Y-85164609D02*
X146341619Y-85164609D01*
X146341619Y-85164609D02*
X146484476Y-85069371D01*
X146484476Y-85069371D02*
X146579714Y-84974133D01*
X146579714Y-84974133D02*
X146627333Y-84878895D01*
X146770190Y-86021752D02*
X146722571Y-85926514D01*
X146722571Y-85926514D02*
X146674952Y-85878895D01*
X146674952Y-85878895D02*
X146579714Y-85831276D01*
X146579714Y-85831276D02*
X146532095Y-85831276D01*
X146532095Y-85831276D02*
X146436857Y-85878895D01*
X146436857Y-85878895D02*
X146389238Y-85926514D01*
X146389238Y-85926514D02*
X146341619Y-86021752D01*
X146341619Y-86021752D02*
X146341619Y-86212228D01*
X146341619Y-86212228D02*
X146389238Y-86307466D01*
X146389238Y-86307466D02*
X146436857Y-86355085D01*
X146436857Y-86355085D02*
X146532095Y-86402704D01*
X146532095Y-86402704D02*
X146579714Y-86402704D01*
X146579714Y-86402704D02*
X146674952Y-86355085D01*
X146674952Y-86355085D02*
X146722571Y-86307466D01*
X146722571Y-86307466D02*
X146770190Y-86212228D01*
X146770190Y-86212228D02*
X146770190Y-86021752D01*
X146770190Y-86021752D02*
X146817809Y-85926514D01*
X146817809Y-85926514D02*
X146865428Y-85878895D01*
X146865428Y-85878895D02*
X146960666Y-85831276D01*
X146960666Y-85831276D02*
X147151142Y-85831276D01*
X147151142Y-85831276D02*
X147246380Y-85878895D01*
X147246380Y-85878895D02*
X147294000Y-85926514D01*
X147294000Y-85926514D02*
X147341619Y-86021752D01*
X147341619Y-86021752D02*
X147341619Y-86212228D01*
X147341619Y-86212228D02*
X147294000Y-86307466D01*
X147294000Y-86307466D02*
X147246380Y-86355085D01*
X147246380Y-86355085D02*
X147151142Y-86402704D01*
X147151142Y-86402704D02*
X146960666Y-86402704D01*
X146960666Y-86402704D02*
X146865428Y-86355085D01*
X146865428Y-86355085D02*
X146817809Y-86307466D01*
X146817809Y-86307466D02*
X146770190Y-86212228D01*
X149866457Y-86205219D02*
X150199790Y-85729028D01*
X150437885Y-86205219D02*
X150437885Y-85205219D01*
X150437885Y-85205219D02*
X150056933Y-85205219D01*
X150056933Y-85205219D02*
X149961695Y-85252838D01*
X149961695Y-85252838D02*
X149914076Y-85300457D01*
X149914076Y-85300457D02*
X149866457Y-85395695D01*
X149866457Y-85395695D02*
X149866457Y-85538552D01*
X149866457Y-85538552D02*
X149914076Y-85633790D01*
X149914076Y-85633790D02*
X149961695Y-85681409D01*
X149961695Y-85681409D02*
X150056933Y-85729028D01*
X150056933Y-85729028D02*
X150437885Y-85729028D01*
X148914076Y-86205219D02*
X149485504Y-86205219D01*
X149199790Y-86205219D02*
X149199790Y-85205219D01*
X149199790Y-85205219D02*
X149295028Y-85348076D01*
X149295028Y-85348076D02*
X149390266Y-85443314D01*
X149390266Y-85443314D02*
X149485504Y-85490933D01*
X148009314Y-85205219D02*
X148485504Y-85205219D01*
X148485504Y-85205219D02*
X148533123Y-85681409D01*
X148533123Y-85681409D02*
X148485504Y-85633790D01*
X148485504Y-85633790D02*
X148390266Y-85586171D01*
X148390266Y-85586171D02*
X148152171Y-85586171D01*
X148152171Y-85586171D02*
X148056933Y-85633790D01*
X148056933Y-85633790D02*
X148009314Y-85681409D01*
X148009314Y-85681409D02*
X147961695Y-85776647D01*
X147961695Y-85776647D02*
X147961695Y-86014742D01*
X147961695Y-86014742D02*
X148009314Y-86109980D01*
X148009314Y-86109980D02*
X148056933Y-86157600D01*
X148056933Y-86157600D02*
X148152171Y-86205219D01*
X148152171Y-86205219D02*
X148390266Y-86205219D01*
X148390266Y-86205219D02*
X148485504Y-86157600D01*
X148485504Y-86157600D02*
X148533123Y-86109980D01*
X160227280Y-89306142D02*
X160274900Y-89258523D01*
X160274900Y-89258523D02*
X160322519Y-89115666D01*
X160322519Y-89115666D02*
X160322519Y-89020428D01*
X160322519Y-89020428D02*
X160274900Y-88877571D01*
X160274900Y-88877571D02*
X160179661Y-88782333D01*
X160179661Y-88782333D02*
X160084423Y-88734714D01*
X160084423Y-88734714D02*
X159893947Y-88687095D01*
X159893947Y-88687095D02*
X159751090Y-88687095D01*
X159751090Y-88687095D02*
X159560614Y-88734714D01*
X159560614Y-88734714D02*
X159465376Y-88782333D01*
X159465376Y-88782333D02*
X159370138Y-88877571D01*
X159370138Y-88877571D02*
X159322519Y-89020428D01*
X159322519Y-89020428D02*
X159322519Y-89115666D01*
X159322519Y-89115666D02*
X159370138Y-89258523D01*
X159370138Y-89258523D02*
X159417757Y-89306142D01*
X159322519Y-89639476D02*
X159322519Y-90258523D01*
X159322519Y-90258523D02*
X159703471Y-89925190D01*
X159703471Y-89925190D02*
X159703471Y-90068047D01*
X159703471Y-90068047D02*
X159751090Y-90163285D01*
X159751090Y-90163285D02*
X159798709Y-90210904D01*
X159798709Y-90210904D02*
X159893947Y-90258523D01*
X159893947Y-90258523D02*
X160132042Y-90258523D01*
X160132042Y-90258523D02*
X160227280Y-90210904D01*
X160227280Y-90210904D02*
X160274900Y-90163285D01*
X160274900Y-90163285D02*
X160322519Y-90068047D01*
X160322519Y-90068047D02*
X160322519Y-89782333D01*
X160322519Y-89782333D02*
X160274900Y-89687095D01*
X160274900Y-89687095D02*
X160227280Y-89639476D01*
X160322519Y-91210904D02*
X160322519Y-90639476D01*
X160322519Y-90925190D02*
X159322519Y-90925190D01*
X159322519Y-90925190D02*
X159465376Y-90829952D01*
X159465376Y-90829952D02*
X159560614Y-90734714D01*
X159560614Y-90734714D02*
X159608233Y-90639476D01*
X145749180Y-77544333D02*
X145796800Y-77496714D01*
X145796800Y-77496714D02*
X145844419Y-77353857D01*
X145844419Y-77353857D02*
X145844419Y-77258619D01*
X145844419Y-77258619D02*
X145796800Y-77115762D01*
X145796800Y-77115762D02*
X145701561Y-77020524D01*
X145701561Y-77020524D02*
X145606323Y-76972905D01*
X145606323Y-76972905D02*
X145415847Y-76925286D01*
X145415847Y-76925286D02*
X145272990Y-76925286D01*
X145272990Y-76925286D02*
X145082514Y-76972905D01*
X145082514Y-76972905D02*
X144987276Y-77020524D01*
X144987276Y-77020524D02*
X144892038Y-77115762D01*
X144892038Y-77115762D02*
X144844419Y-77258619D01*
X144844419Y-77258619D02*
X144844419Y-77353857D01*
X144844419Y-77353857D02*
X144892038Y-77496714D01*
X144892038Y-77496714D02*
X144939657Y-77544333D01*
X144844419Y-77877667D02*
X144844419Y-78496714D01*
X144844419Y-78496714D02*
X145225371Y-78163381D01*
X145225371Y-78163381D02*
X145225371Y-78306238D01*
X145225371Y-78306238D02*
X145272990Y-78401476D01*
X145272990Y-78401476D02*
X145320609Y-78449095D01*
X145320609Y-78449095D02*
X145415847Y-78496714D01*
X145415847Y-78496714D02*
X145653942Y-78496714D01*
X145653942Y-78496714D02*
X145749180Y-78449095D01*
X145749180Y-78449095D02*
X145796800Y-78401476D01*
X145796800Y-78401476D02*
X145844419Y-78306238D01*
X145844419Y-78306238D02*
X145844419Y-78020524D01*
X145844419Y-78020524D02*
X145796800Y-77925286D01*
X145796800Y-77925286D02*
X145749180Y-77877667D01*
X148166057Y-78439180D02*
X148213676Y-78486800D01*
X148213676Y-78486800D02*
X148356533Y-78534419D01*
X148356533Y-78534419D02*
X148451771Y-78534419D01*
X148451771Y-78534419D02*
X148594628Y-78486800D01*
X148594628Y-78486800D02*
X148689866Y-78391561D01*
X148689866Y-78391561D02*
X148737485Y-78296323D01*
X148737485Y-78296323D02*
X148785104Y-78105847D01*
X148785104Y-78105847D02*
X148785104Y-77962990D01*
X148785104Y-77962990D02*
X148737485Y-77772514D01*
X148737485Y-77772514D02*
X148689866Y-77677276D01*
X148689866Y-77677276D02*
X148594628Y-77582038D01*
X148594628Y-77582038D02*
X148451771Y-77534419D01*
X148451771Y-77534419D02*
X148356533Y-77534419D01*
X148356533Y-77534419D02*
X148213676Y-77582038D01*
X148213676Y-77582038D02*
X148166057Y-77629657D01*
X147213676Y-78534419D02*
X147785104Y-78534419D01*
X147499390Y-78534419D02*
X147499390Y-77534419D01*
X147499390Y-77534419D02*
X147594628Y-77677276D01*
X147594628Y-77677276D02*
X147689866Y-77772514D01*
X147689866Y-77772514D02*
X147785104Y-77820133D01*
X146880342Y-77534419D02*
X146213676Y-77534419D01*
X146213676Y-77534419D02*
X146642247Y-78534419D01*
X145393580Y-92358942D02*
X145441200Y-92311323D01*
X145441200Y-92311323D02*
X145488819Y-92168466D01*
X145488819Y-92168466D02*
X145488819Y-92073228D01*
X145488819Y-92073228D02*
X145441200Y-91930371D01*
X145441200Y-91930371D02*
X145345961Y-91835133D01*
X145345961Y-91835133D02*
X145250723Y-91787514D01*
X145250723Y-91787514D02*
X145060247Y-91739895D01*
X145060247Y-91739895D02*
X144917390Y-91739895D01*
X144917390Y-91739895D02*
X144726914Y-91787514D01*
X144726914Y-91787514D02*
X144631676Y-91835133D01*
X144631676Y-91835133D02*
X144536438Y-91930371D01*
X144536438Y-91930371D02*
X144488819Y-92073228D01*
X144488819Y-92073228D02*
X144488819Y-92168466D01*
X144488819Y-92168466D02*
X144536438Y-92311323D01*
X144536438Y-92311323D02*
X144584057Y-92358942D01*
X145488819Y-93311323D02*
X145488819Y-92739895D01*
X145488819Y-93025609D02*
X144488819Y-93025609D01*
X144488819Y-93025609D02*
X144631676Y-92930371D01*
X144631676Y-92930371D02*
X144726914Y-92835133D01*
X144726914Y-92835133D02*
X144774533Y-92739895D01*
X144488819Y-93930371D02*
X144488819Y-94025609D01*
X144488819Y-94025609D02*
X144536438Y-94120847D01*
X144536438Y-94120847D02*
X144584057Y-94168466D01*
X144584057Y-94168466D02*
X144679295Y-94216085D01*
X144679295Y-94216085D02*
X144869771Y-94263704D01*
X144869771Y-94263704D02*
X145107866Y-94263704D01*
X145107866Y-94263704D02*
X145298342Y-94216085D01*
X145298342Y-94216085D02*
X145393580Y-94168466D01*
X145393580Y-94168466D02*
X145441200Y-94120847D01*
X145441200Y-94120847D02*
X145488819Y-94025609D01*
X145488819Y-94025609D02*
X145488819Y-93930371D01*
X145488819Y-93930371D02*
X145441200Y-93835133D01*
X145441200Y-93835133D02*
X145393580Y-93787514D01*
X145393580Y-93787514D02*
X145298342Y-93739895D01*
X145298342Y-93739895D02*
X145107866Y-93692276D01*
X145107866Y-93692276D02*
X144869771Y-93692276D01*
X144869771Y-93692276D02*
X144679295Y-93739895D01*
X144679295Y-93739895D02*
X144584057Y-93787514D01*
X144584057Y-93787514D02*
X144536438Y-93835133D01*
X144536438Y-93835133D02*
X144488819Y-93930371D01*
X146796180Y-100722942D02*
X146843800Y-100675323D01*
X146843800Y-100675323D02*
X146891419Y-100532466D01*
X146891419Y-100532466D02*
X146891419Y-100437228D01*
X146891419Y-100437228D02*
X146843800Y-100294371D01*
X146843800Y-100294371D02*
X146748561Y-100199133D01*
X146748561Y-100199133D02*
X146653323Y-100151514D01*
X146653323Y-100151514D02*
X146462847Y-100103895D01*
X146462847Y-100103895D02*
X146319990Y-100103895D01*
X146319990Y-100103895D02*
X146129514Y-100151514D01*
X146129514Y-100151514D02*
X146034276Y-100199133D01*
X146034276Y-100199133D02*
X145939038Y-100294371D01*
X145939038Y-100294371D02*
X145891419Y-100437228D01*
X145891419Y-100437228D02*
X145891419Y-100532466D01*
X145891419Y-100532466D02*
X145939038Y-100675323D01*
X145939038Y-100675323D02*
X145986657Y-100722942D01*
X145986657Y-101103895D02*
X145939038Y-101151514D01*
X145939038Y-101151514D02*
X145891419Y-101246752D01*
X145891419Y-101246752D02*
X145891419Y-101484847D01*
X145891419Y-101484847D02*
X145939038Y-101580085D01*
X145939038Y-101580085D02*
X145986657Y-101627704D01*
X145986657Y-101627704D02*
X146081895Y-101675323D01*
X146081895Y-101675323D02*
X146177133Y-101675323D01*
X146177133Y-101675323D02*
X146319990Y-101627704D01*
X146319990Y-101627704D02*
X146891419Y-101056276D01*
X146891419Y-101056276D02*
X146891419Y-101675323D01*
X145891419Y-102294371D02*
X145891419Y-102389609D01*
X145891419Y-102389609D02*
X145939038Y-102484847D01*
X145939038Y-102484847D02*
X145986657Y-102532466D01*
X145986657Y-102532466D02*
X146081895Y-102580085D01*
X146081895Y-102580085D02*
X146272371Y-102627704D01*
X146272371Y-102627704D02*
X146510466Y-102627704D01*
X146510466Y-102627704D02*
X146700942Y-102580085D01*
X146700942Y-102580085D02*
X146796180Y-102532466D01*
X146796180Y-102532466D02*
X146843800Y-102484847D01*
X146843800Y-102484847D02*
X146891419Y-102389609D01*
X146891419Y-102389609D02*
X146891419Y-102294371D01*
X146891419Y-102294371D02*
X146843800Y-102199133D01*
X146843800Y-102199133D02*
X146796180Y-102151514D01*
X146796180Y-102151514D02*
X146700942Y-102103895D01*
X146700942Y-102103895D02*
X146510466Y-102056276D01*
X146510466Y-102056276D02*
X146272371Y-102056276D01*
X146272371Y-102056276D02*
X146081895Y-102103895D01*
X146081895Y-102103895D02*
X145986657Y-102151514D01*
X145986657Y-102151514D02*
X145939038Y-102199133D01*
X145939038Y-102199133D02*
X145891419Y-102294371D01*
X151855466Y-81430019D02*
X152188799Y-80953828D01*
X152426894Y-81430019D02*
X152426894Y-80430019D01*
X152426894Y-80430019D02*
X152045942Y-80430019D01*
X152045942Y-80430019D02*
X151950704Y-80477638D01*
X151950704Y-80477638D02*
X151903085Y-80525257D01*
X151903085Y-80525257D02*
X151855466Y-80620495D01*
X151855466Y-80620495D02*
X151855466Y-80763352D01*
X151855466Y-80763352D02*
X151903085Y-80858590D01*
X151903085Y-80858590D02*
X151950704Y-80906209D01*
X151950704Y-80906209D02*
X152045942Y-80953828D01*
X152045942Y-80953828D02*
X152426894Y-80953828D01*
X150950704Y-80430019D02*
X151426894Y-80430019D01*
X151426894Y-80430019D02*
X151474513Y-80906209D01*
X151474513Y-80906209D02*
X151426894Y-80858590D01*
X151426894Y-80858590D02*
X151331656Y-80810971D01*
X151331656Y-80810971D02*
X151093561Y-80810971D01*
X151093561Y-80810971D02*
X150998323Y-80858590D01*
X150998323Y-80858590D02*
X150950704Y-80906209D01*
X150950704Y-80906209D02*
X150903085Y-81001447D01*
X150903085Y-81001447D02*
X150903085Y-81239542D01*
X150903085Y-81239542D02*
X150950704Y-81334780D01*
X150950704Y-81334780D02*
X150998323Y-81382400D01*
X150998323Y-81382400D02*
X151093561Y-81430019D01*
X151093561Y-81430019D02*
X151331656Y-81430019D01*
X151331656Y-81430019D02*
X151426894Y-81382400D01*
X151426894Y-81382400D02*
X151474513Y-81334780D01*
X144198380Y-85431333D02*
X144246000Y-85383714D01*
X144246000Y-85383714D02*
X144293619Y-85240857D01*
X144293619Y-85240857D02*
X144293619Y-85145619D01*
X144293619Y-85145619D02*
X144246000Y-85002762D01*
X144246000Y-85002762D02*
X144150761Y-84907524D01*
X144150761Y-84907524D02*
X144055523Y-84859905D01*
X144055523Y-84859905D02*
X143865047Y-84812286D01*
X143865047Y-84812286D02*
X143722190Y-84812286D01*
X143722190Y-84812286D02*
X143531714Y-84859905D01*
X143531714Y-84859905D02*
X143436476Y-84907524D01*
X143436476Y-84907524D02*
X143341238Y-85002762D01*
X143341238Y-85002762D02*
X143293619Y-85145619D01*
X143293619Y-85145619D02*
X143293619Y-85240857D01*
X143293619Y-85240857D02*
X143341238Y-85383714D01*
X143341238Y-85383714D02*
X143388857Y-85431333D01*
X143293619Y-86336095D02*
X143293619Y-85859905D01*
X143293619Y-85859905D02*
X143769809Y-85812286D01*
X143769809Y-85812286D02*
X143722190Y-85859905D01*
X143722190Y-85859905D02*
X143674571Y-85955143D01*
X143674571Y-85955143D02*
X143674571Y-86193238D01*
X143674571Y-86193238D02*
X143722190Y-86288476D01*
X143722190Y-86288476D02*
X143769809Y-86336095D01*
X143769809Y-86336095D02*
X143865047Y-86383714D01*
X143865047Y-86383714D02*
X144103142Y-86383714D01*
X144103142Y-86383714D02*
X144198380Y-86336095D01*
X144198380Y-86336095D02*
X144246000Y-86288476D01*
X144246000Y-86288476D02*
X144293619Y-86193238D01*
X144293619Y-86193238D02*
X144293619Y-85955143D01*
X144293619Y-85955143D02*
X144246000Y-85859905D01*
X144246000Y-85859905D02*
X144198380Y-85812286D01*
X165844457Y-91031219D02*
X166177790Y-90555028D01*
X166415885Y-91031219D02*
X166415885Y-90031219D01*
X166415885Y-90031219D02*
X166034933Y-90031219D01*
X166034933Y-90031219D02*
X165939695Y-90078838D01*
X165939695Y-90078838D02*
X165892076Y-90126457D01*
X165892076Y-90126457D02*
X165844457Y-90221695D01*
X165844457Y-90221695D02*
X165844457Y-90364552D01*
X165844457Y-90364552D02*
X165892076Y-90459790D01*
X165892076Y-90459790D02*
X165939695Y-90507409D01*
X165939695Y-90507409D02*
X166034933Y-90555028D01*
X166034933Y-90555028D02*
X166415885Y-90555028D01*
X165511123Y-90031219D02*
X164892076Y-90031219D01*
X164892076Y-90031219D02*
X165225409Y-90412171D01*
X165225409Y-90412171D02*
X165082552Y-90412171D01*
X165082552Y-90412171D02*
X164987314Y-90459790D01*
X164987314Y-90459790D02*
X164939695Y-90507409D01*
X164939695Y-90507409D02*
X164892076Y-90602647D01*
X164892076Y-90602647D02*
X164892076Y-90840742D01*
X164892076Y-90840742D02*
X164939695Y-90935980D01*
X164939695Y-90935980D02*
X164987314Y-90983600D01*
X164987314Y-90983600D02*
X165082552Y-91031219D01*
X165082552Y-91031219D02*
X165368266Y-91031219D01*
X165368266Y-91031219D02*
X165463504Y-90983600D01*
X165463504Y-90983600D02*
X165511123Y-90935980D01*
X164558742Y-90031219D02*
X163939695Y-90031219D01*
X163939695Y-90031219D02*
X164273028Y-90412171D01*
X164273028Y-90412171D02*
X164130171Y-90412171D01*
X164130171Y-90412171D02*
X164034933Y-90459790D01*
X164034933Y-90459790D02*
X163987314Y-90507409D01*
X163987314Y-90507409D02*
X163939695Y-90602647D01*
X163939695Y-90602647D02*
X163939695Y-90840742D01*
X163939695Y-90840742D02*
X163987314Y-90935980D01*
X163987314Y-90935980D02*
X164034933Y-90983600D01*
X164034933Y-90983600D02*
X164130171Y-91031219D01*
X164130171Y-91031219D02*
X164415885Y-91031219D01*
X164415885Y-91031219D02*
X164511123Y-90983600D01*
X164511123Y-90983600D02*
X164558742Y-90935980D01*
X164699380Y-83481942D02*
X164747000Y-83434323D01*
X164747000Y-83434323D02*
X164794619Y-83291466D01*
X164794619Y-83291466D02*
X164794619Y-83196228D01*
X164794619Y-83196228D02*
X164747000Y-83053371D01*
X164747000Y-83053371D02*
X164651761Y-82958133D01*
X164651761Y-82958133D02*
X164556523Y-82910514D01*
X164556523Y-82910514D02*
X164366047Y-82862895D01*
X164366047Y-82862895D02*
X164223190Y-82862895D01*
X164223190Y-82862895D02*
X164032714Y-82910514D01*
X164032714Y-82910514D02*
X163937476Y-82958133D01*
X163937476Y-82958133D02*
X163842238Y-83053371D01*
X163842238Y-83053371D02*
X163794619Y-83196228D01*
X163794619Y-83196228D02*
X163794619Y-83291466D01*
X163794619Y-83291466D02*
X163842238Y-83434323D01*
X163842238Y-83434323D02*
X163889857Y-83481942D01*
X163889857Y-83862895D02*
X163842238Y-83910514D01*
X163842238Y-83910514D02*
X163794619Y-84005752D01*
X163794619Y-84005752D02*
X163794619Y-84243847D01*
X163794619Y-84243847D02*
X163842238Y-84339085D01*
X163842238Y-84339085D02*
X163889857Y-84386704D01*
X163889857Y-84386704D02*
X163985095Y-84434323D01*
X163985095Y-84434323D02*
X164080333Y-84434323D01*
X164080333Y-84434323D02*
X164223190Y-84386704D01*
X164223190Y-84386704D02*
X164794619Y-83815276D01*
X164794619Y-83815276D02*
X164794619Y-84434323D01*
X163794619Y-84767657D02*
X163794619Y-85434323D01*
X163794619Y-85434323D02*
X164794619Y-85005752D01*
X166223380Y-83431142D02*
X166271000Y-83383523D01*
X166271000Y-83383523D02*
X166318619Y-83240666D01*
X166318619Y-83240666D02*
X166318619Y-83145428D01*
X166318619Y-83145428D02*
X166271000Y-83002571D01*
X166271000Y-83002571D02*
X166175761Y-82907333D01*
X166175761Y-82907333D02*
X166080523Y-82859714D01*
X166080523Y-82859714D02*
X165890047Y-82812095D01*
X165890047Y-82812095D02*
X165747190Y-82812095D01*
X165747190Y-82812095D02*
X165556714Y-82859714D01*
X165556714Y-82859714D02*
X165461476Y-82907333D01*
X165461476Y-82907333D02*
X165366238Y-83002571D01*
X165366238Y-83002571D02*
X165318619Y-83145428D01*
X165318619Y-83145428D02*
X165318619Y-83240666D01*
X165318619Y-83240666D02*
X165366238Y-83383523D01*
X165366238Y-83383523D02*
X165413857Y-83431142D01*
X165413857Y-83812095D02*
X165366238Y-83859714D01*
X165366238Y-83859714D02*
X165318619Y-83954952D01*
X165318619Y-83954952D02*
X165318619Y-84193047D01*
X165318619Y-84193047D02*
X165366238Y-84288285D01*
X165366238Y-84288285D02*
X165413857Y-84335904D01*
X165413857Y-84335904D02*
X165509095Y-84383523D01*
X165509095Y-84383523D02*
X165604333Y-84383523D01*
X165604333Y-84383523D02*
X165747190Y-84335904D01*
X165747190Y-84335904D02*
X166318619Y-83764476D01*
X166318619Y-83764476D02*
X166318619Y-84383523D01*
X165318619Y-85288285D02*
X165318619Y-84812095D01*
X165318619Y-84812095D02*
X165794809Y-84764476D01*
X165794809Y-84764476D02*
X165747190Y-84812095D01*
X165747190Y-84812095D02*
X165699571Y-84907333D01*
X165699571Y-84907333D02*
X165699571Y-85145428D01*
X165699571Y-85145428D02*
X165747190Y-85240666D01*
X165747190Y-85240666D02*
X165794809Y-85288285D01*
X165794809Y-85288285D02*
X165890047Y-85335904D01*
X165890047Y-85335904D02*
X166128142Y-85335904D01*
X166128142Y-85335904D02*
X166223380Y-85288285D01*
X166223380Y-85288285D02*
X166271000Y-85240666D01*
X166271000Y-85240666D02*
X166318619Y-85145428D01*
X166318619Y-85145428D02*
X166318619Y-84907333D01*
X166318619Y-84907333D02*
X166271000Y-84812095D01*
X166271000Y-84812095D02*
X166223380Y-84764476D01*
X149931057Y-84680469D02*
X150264390Y-84204278D01*
X150502485Y-84680469D02*
X150502485Y-83680469D01*
X150502485Y-83680469D02*
X150121533Y-83680469D01*
X150121533Y-83680469D02*
X150026295Y-83728088D01*
X150026295Y-83728088D02*
X149978676Y-83775707D01*
X149978676Y-83775707D02*
X149931057Y-83870945D01*
X149931057Y-83870945D02*
X149931057Y-84013802D01*
X149931057Y-84013802D02*
X149978676Y-84109040D01*
X149978676Y-84109040D02*
X150026295Y-84156659D01*
X150026295Y-84156659D02*
X150121533Y-84204278D01*
X150121533Y-84204278D02*
X150502485Y-84204278D01*
X148978676Y-84680469D02*
X149550104Y-84680469D01*
X149264390Y-84680469D02*
X149264390Y-83680469D01*
X149264390Y-83680469D02*
X149359628Y-83823326D01*
X149359628Y-83823326D02*
X149454866Y-83918564D01*
X149454866Y-83918564D02*
X149550104Y-83966183D01*
X148121533Y-84013802D02*
X148121533Y-84680469D01*
X148359628Y-83632850D02*
X148597723Y-84347135D01*
X148597723Y-84347135D02*
X147978676Y-84347135D01*
X161751280Y-89306142D02*
X161798900Y-89258523D01*
X161798900Y-89258523D02*
X161846519Y-89115666D01*
X161846519Y-89115666D02*
X161846519Y-89020428D01*
X161846519Y-89020428D02*
X161798900Y-88877571D01*
X161798900Y-88877571D02*
X161703661Y-88782333D01*
X161703661Y-88782333D02*
X161608423Y-88734714D01*
X161608423Y-88734714D02*
X161417947Y-88687095D01*
X161417947Y-88687095D02*
X161275090Y-88687095D01*
X161275090Y-88687095D02*
X161084614Y-88734714D01*
X161084614Y-88734714D02*
X160989376Y-88782333D01*
X160989376Y-88782333D02*
X160894138Y-88877571D01*
X160894138Y-88877571D02*
X160846519Y-89020428D01*
X160846519Y-89020428D02*
X160846519Y-89115666D01*
X160846519Y-89115666D02*
X160894138Y-89258523D01*
X160894138Y-89258523D02*
X160941757Y-89306142D01*
X160846519Y-89639476D02*
X160846519Y-90258523D01*
X160846519Y-90258523D02*
X161227471Y-89925190D01*
X161227471Y-89925190D02*
X161227471Y-90068047D01*
X161227471Y-90068047D02*
X161275090Y-90163285D01*
X161275090Y-90163285D02*
X161322709Y-90210904D01*
X161322709Y-90210904D02*
X161417947Y-90258523D01*
X161417947Y-90258523D02*
X161656042Y-90258523D01*
X161656042Y-90258523D02*
X161751280Y-90210904D01*
X161751280Y-90210904D02*
X161798900Y-90163285D01*
X161798900Y-90163285D02*
X161846519Y-90068047D01*
X161846519Y-90068047D02*
X161846519Y-89782333D01*
X161846519Y-89782333D02*
X161798900Y-89687095D01*
X161798900Y-89687095D02*
X161751280Y-89639476D01*
X160846519Y-90877571D02*
X160846519Y-90972809D01*
X160846519Y-90972809D02*
X160894138Y-91068047D01*
X160894138Y-91068047D02*
X160941757Y-91115666D01*
X160941757Y-91115666D02*
X161036995Y-91163285D01*
X161036995Y-91163285D02*
X161227471Y-91210904D01*
X161227471Y-91210904D02*
X161465566Y-91210904D01*
X161465566Y-91210904D02*
X161656042Y-91163285D01*
X161656042Y-91163285D02*
X161751280Y-91115666D01*
X161751280Y-91115666D02*
X161798900Y-91068047D01*
X161798900Y-91068047D02*
X161846519Y-90972809D01*
X161846519Y-90972809D02*
X161846519Y-90877571D01*
X161846519Y-90877571D02*
X161798900Y-90782333D01*
X161798900Y-90782333D02*
X161751280Y-90734714D01*
X161751280Y-90734714D02*
X161656042Y-90687095D01*
X161656042Y-90687095D02*
X161465566Y-90639476D01*
X161465566Y-90639476D02*
X161227471Y-90639476D01*
X161227471Y-90639476D02*
X161036995Y-90687095D01*
X161036995Y-90687095D02*
X160941757Y-90734714D01*
X160941757Y-90734714D02*
X160894138Y-90782333D01*
X160894138Y-90782333D02*
X160846519Y-90877571D01*
X150452057Y-98708380D02*
X150499676Y-98756000D01*
X150499676Y-98756000D02*
X150642533Y-98803619D01*
X150642533Y-98803619D02*
X150737771Y-98803619D01*
X150737771Y-98803619D02*
X150880628Y-98756000D01*
X150880628Y-98756000D02*
X150975866Y-98660761D01*
X150975866Y-98660761D02*
X151023485Y-98565523D01*
X151023485Y-98565523D02*
X151071104Y-98375047D01*
X151071104Y-98375047D02*
X151071104Y-98232190D01*
X151071104Y-98232190D02*
X151023485Y-98041714D01*
X151023485Y-98041714D02*
X150975866Y-97946476D01*
X150975866Y-97946476D02*
X150880628Y-97851238D01*
X150880628Y-97851238D02*
X150737771Y-97803619D01*
X150737771Y-97803619D02*
X150642533Y-97803619D01*
X150642533Y-97803619D02*
X150499676Y-97851238D01*
X150499676Y-97851238D02*
X150452057Y-97898857D01*
X149499676Y-98803619D02*
X150071104Y-98803619D01*
X149785390Y-98803619D02*
X149785390Y-97803619D01*
X149785390Y-97803619D02*
X149880628Y-97946476D01*
X149880628Y-97946476D02*
X149975866Y-98041714D01*
X149975866Y-98041714D02*
X150071104Y-98089333D01*
X148547295Y-98803619D02*
X149118723Y-98803619D01*
X148833009Y-98803619D02*
X148833009Y-97803619D01*
X148833009Y-97803619D02*
X148928247Y-97946476D01*
X148928247Y-97946476D02*
X149023485Y-98041714D01*
X149023485Y-98041714D02*
X149118723Y-98089333D01*
X149537657Y-92707619D02*
X149870990Y-92231428D01*
X150109085Y-92707619D02*
X150109085Y-91707619D01*
X150109085Y-91707619D02*
X149728133Y-91707619D01*
X149728133Y-91707619D02*
X149632895Y-91755238D01*
X149632895Y-91755238D02*
X149585276Y-91802857D01*
X149585276Y-91802857D02*
X149537657Y-91898095D01*
X149537657Y-91898095D02*
X149537657Y-92040952D01*
X149537657Y-92040952D02*
X149585276Y-92136190D01*
X149585276Y-92136190D02*
X149632895Y-92183809D01*
X149632895Y-92183809D02*
X149728133Y-92231428D01*
X149728133Y-92231428D02*
X150109085Y-92231428D01*
X149156704Y-91802857D02*
X149109085Y-91755238D01*
X149109085Y-91755238D02*
X149013847Y-91707619D01*
X149013847Y-91707619D02*
X148775752Y-91707619D01*
X148775752Y-91707619D02*
X148680514Y-91755238D01*
X148680514Y-91755238D02*
X148632895Y-91802857D01*
X148632895Y-91802857D02*
X148585276Y-91898095D01*
X148585276Y-91898095D02*
X148585276Y-91993333D01*
X148585276Y-91993333D02*
X148632895Y-92136190D01*
X148632895Y-92136190D02*
X149204323Y-92707619D01*
X149204323Y-92707619D02*
X148585276Y-92707619D01*
X148204323Y-91802857D02*
X148156704Y-91755238D01*
X148156704Y-91755238D02*
X148061466Y-91707619D01*
X148061466Y-91707619D02*
X147823371Y-91707619D01*
X147823371Y-91707619D02*
X147728133Y-91755238D01*
X147728133Y-91755238D02*
X147680514Y-91802857D01*
X147680514Y-91802857D02*
X147632895Y-91898095D01*
X147632895Y-91898095D02*
X147632895Y-91993333D01*
X147632895Y-91993333D02*
X147680514Y-92136190D01*
X147680514Y-92136190D02*
X148251942Y-92707619D01*
X148251942Y-92707619D02*
X147632895Y-92707619D01*
X157788780Y-82960942D02*
X157836400Y-82913323D01*
X157836400Y-82913323D02*
X157884019Y-82770466D01*
X157884019Y-82770466D02*
X157884019Y-82675228D01*
X157884019Y-82675228D02*
X157836400Y-82532371D01*
X157836400Y-82532371D02*
X157741161Y-82437133D01*
X157741161Y-82437133D02*
X157645923Y-82389514D01*
X157645923Y-82389514D02*
X157455447Y-82341895D01*
X157455447Y-82341895D02*
X157312590Y-82341895D01*
X157312590Y-82341895D02*
X157122114Y-82389514D01*
X157122114Y-82389514D02*
X157026876Y-82437133D01*
X157026876Y-82437133D02*
X156931638Y-82532371D01*
X156931638Y-82532371D02*
X156884019Y-82675228D01*
X156884019Y-82675228D02*
X156884019Y-82770466D01*
X156884019Y-82770466D02*
X156931638Y-82913323D01*
X156931638Y-82913323D02*
X156979257Y-82960942D01*
X156884019Y-83294276D02*
X156884019Y-83913323D01*
X156884019Y-83913323D02*
X157264971Y-83579990D01*
X157264971Y-83579990D02*
X157264971Y-83722847D01*
X157264971Y-83722847D02*
X157312590Y-83818085D01*
X157312590Y-83818085D02*
X157360209Y-83865704D01*
X157360209Y-83865704D02*
X157455447Y-83913323D01*
X157455447Y-83913323D02*
X157693542Y-83913323D01*
X157693542Y-83913323D02*
X157788780Y-83865704D01*
X157788780Y-83865704D02*
X157836400Y-83818085D01*
X157836400Y-83818085D02*
X157884019Y-83722847D01*
X157884019Y-83722847D02*
X157884019Y-83437133D01*
X157884019Y-83437133D02*
X157836400Y-83341895D01*
X157836400Y-83341895D02*
X157788780Y-83294276D01*
X157217352Y-84770466D02*
X157884019Y-84770466D01*
X156836400Y-84532371D02*
X157550685Y-84294276D01*
X157550685Y-84294276D02*
X157550685Y-84913323D01*
X158326057Y-103483580D02*
X158373676Y-103531200D01*
X158373676Y-103531200D02*
X158516533Y-103578819D01*
X158516533Y-103578819D02*
X158611771Y-103578819D01*
X158611771Y-103578819D02*
X158754628Y-103531200D01*
X158754628Y-103531200D02*
X158849866Y-103435961D01*
X158849866Y-103435961D02*
X158897485Y-103340723D01*
X158897485Y-103340723D02*
X158945104Y-103150247D01*
X158945104Y-103150247D02*
X158945104Y-103007390D01*
X158945104Y-103007390D02*
X158897485Y-102816914D01*
X158897485Y-102816914D02*
X158849866Y-102721676D01*
X158849866Y-102721676D02*
X158754628Y-102626438D01*
X158754628Y-102626438D02*
X158611771Y-102578819D01*
X158611771Y-102578819D02*
X158516533Y-102578819D01*
X158516533Y-102578819D02*
X158373676Y-102626438D01*
X158373676Y-102626438D02*
X158326057Y-102674057D01*
X157992723Y-102578819D02*
X157373676Y-102578819D01*
X157373676Y-102578819D02*
X157707009Y-102959771D01*
X157707009Y-102959771D02*
X157564152Y-102959771D01*
X157564152Y-102959771D02*
X157468914Y-103007390D01*
X157468914Y-103007390D02*
X157421295Y-103055009D01*
X157421295Y-103055009D02*
X157373676Y-103150247D01*
X157373676Y-103150247D02*
X157373676Y-103388342D01*
X157373676Y-103388342D02*
X157421295Y-103483580D01*
X157421295Y-103483580D02*
X157468914Y-103531200D01*
X157468914Y-103531200D02*
X157564152Y-103578819D01*
X157564152Y-103578819D02*
X157849866Y-103578819D01*
X157849866Y-103578819D02*
X157945104Y-103531200D01*
X157945104Y-103531200D02*
X157992723Y-103483580D01*
X156897485Y-103578819D02*
X156707009Y-103578819D01*
X156707009Y-103578819D02*
X156611771Y-103531200D01*
X156611771Y-103531200D02*
X156564152Y-103483580D01*
X156564152Y-103483580D02*
X156468914Y-103340723D01*
X156468914Y-103340723D02*
X156421295Y-103150247D01*
X156421295Y-103150247D02*
X156421295Y-102769295D01*
X156421295Y-102769295D02*
X156468914Y-102674057D01*
X156468914Y-102674057D02*
X156516533Y-102626438D01*
X156516533Y-102626438D02*
X156611771Y-102578819D01*
X156611771Y-102578819D02*
X156802247Y-102578819D01*
X156802247Y-102578819D02*
X156897485Y-102626438D01*
X156897485Y-102626438D02*
X156945104Y-102674057D01*
X156945104Y-102674057D02*
X156992723Y-102769295D01*
X156992723Y-102769295D02*
X156992723Y-103007390D01*
X156992723Y-103007390D02*
X156945104Y-103102628D01*
X156945104Y-103102628D02*
X156897485Y-103150247D01*
X156897485Y-103150247D02*
X156802247Y-103197866D01*
X156802247Y-103197866D02*
X156611771Y-103197866D01*
X156611771Y-103197866D02*
X156516533Y-103150247D01*
X156516533Y-103150247D02*
X156468914Y-103102628D01*
X156468914Y-103102628D02*
X156421295Y-103007390D01*
X162732857Y-101945280D02*
X162780476Y-101992900D01*
X162780476Y-101992900D02*
X162923333Y-102040519D01*
X162923333Y-102040519D02*
X163018571Y-102040519D01*
X163018571Y-102040519D02*
X163161428Y-101992900D01*
X163161428Y-101992900D02*
X163256666Y-101897661D01*
X163256666Y-101897661D02*
X163304285Y-101802423D01*
X163304285Y-101802423D02*
X163351904Y-101611947D01*
X163351904Y-101611947D02*
X163351904Y-101469090D01*
X163351904Y-101469090D02*
X163304285Y-101278614D01*
X163304285Y-101278614D02*
X163256666Y-101183376D01*
X163256666Y-101183376D02*
X163161428Y-101088138D01*
X163161428Y-101088138D02*
X163018571Y-101040519D01*
X163018571Y-101040519D02*
X162923333Y-101040519D01*
X162923333Y-101040519D02*
X162780476Y-101088138D01*
X162780476Y-101088138D02*
X162732857Y-101135757D01*
X162399523Y-101040519D02*
X161780476Y-101040519D01*
X161780476Y-101040519D02*
X162113809Y-101421471D01*
X162113809Y-101421471D02*
X161970952Y-101421471D01*
X161970952Y-101421471D02*
X161875714Y-101469090D01*
X161875714Y-101469090D02*
X161828095Y-101516709D01*
X161828095Y-101516709D02*
X161780476Y-101611947D01*
X161780476Y-101611947D02*
X161780476Y-101850042D01*
X161780476Y-101850042D02*
X161828095Y-101945280D01*
X161828095Y-101945280D02*
X161875714Y-101992900D01*
X161875714Y-101992900D02*
X161970952Y-102040519D01*
X161970952Y-102040519D02*
X162256666Y-102040519D01*
X162256666Y-102040519D02*
X162351904Y-101992900D01*
X162351904Y-101992900D02*
X162399523Y-101945280D01*
X161209047Y-101469090D02*
X161304285Y-101421471D01*
X161304285Y-101421471D02*
X161351904Y-101373852D01*
X161351904Y-101373852D02*
X161399523Y-101278614D01*
X161399523Y-101278614D02*
X161399523Y-101230995D01*
X161399523Y-101230995D02*
X161351904Y-101135757D01*
X161351904Y-101135757D02*
X161304285Y-101088138D01*
X161304285Y-101088138D02*
X161209047Y-101040519D01*
X161209047Y-101040519D02*
X161018571Y-101040519D01*
X161018571Y-101040519D02*
X160923333Y-101088138D01*
X160923333Y-101088138D02*
X160875714Y-101135757D01*
X160875714Y-101135757D02*
X160828095Y-101230995D01*
X160828095Y-101230995D02*
X160828095Y-101278614D01*
X160828095Y-101278614D02*
X160875714Y-101373852D01*
X160875714Y-101373852D02*
X160923333Y-101421471D01*
X160923333Y-101421471D02*
X161018571Y-101469090D01*
X161018571Y-101469090D02*
X161209047Y-101469090D01*
X161209047Y-101469090D02*
X161304285Y-101516709D01*
X161304285Y-101516709D02*
X161351904Y-101564328D01*
X161351904Y-101564328D02*
X161399523Y-101659566D01*
X161399523Y-101659566D02*
X161399523Y-101850042D01*
X161399523Y-101850042D02*
X161351904Y-101945280D01*
X161351904Y-101945280D02*
X161304285Y-101992900D01*
X161304285Y-101992900D02*
X161209047Y-102040519D01*
X161209047Y-102040519D02*
X161018571Y-102040519D01*
X161018571Y-102040519D02*
X160923333Y-101992900D01*
X160923333Y-101992900D02*
X160875714Y-101945280D01*
X160875714Y-101945280D02*
X160828095Y-101850042D01*
X160828095Y-101850042D02*
X160828095Y-101659566D01*
X160828095Y-101659566D02*
X160875714Y-101564328D01*
X160875714Y-101564328D02*
X160923333Y-101516709D01*
X160923333Y-101516709D02*
X161018571Y-101469090D01*
X149425857Y-101166419D02*
X149759190Y-100690228D01*
X149997285Y-101166419D02*
X149997285Y-100166419D01*
X149997285Y-100166419D02*
X149616333Y-100166419D01*
X149616333Y-100166419D02*
X149521095Y-100214038D01*
X149521095Y-100214038D02*
X149473476Y-100261657D01*
X149473476Y-100261657D02*
X149425857Y-100356895D01*
X149425857Y-100356895D02*
X149425857Y-100499752D01*
X149425857Y-100499752D02*
X149473476Y-100594990D01*
X149473476Y-100594990D02*
X149521095Y-100642609D01*
X149521095Y-100642609D02*
X149616333Y-100690228D01*
X149616333Y-100690228D02*
X149997285Y-100690228D01*
X149092523Y-100166419D02*
X148473476Y-100166419D01*
X148473476Y-100166419D02*
X148806809Y-100547371D01*
X148806809Y-100547371D02*
X148663952Y-100547371D01*
X148663952Y-100547371D02*
X148568714Y-100594990D01*
X148568714Y-100594990D02*
X148521095Y-100642609D01*
X148521095Y-100642609D02*
X148473476Y-100737847D01*
X148473476Y-100737847D02*
X148473476Y-100975942D01*
X148473476Y-100975942D02*
X148521095Y-101071180D01*
X148521095Y-101071180D02*
X148568714Y-101118800D01*
X148568714Y-101118800D02*
X148663952Y-101166419D01*
X148663952Y-101166419D02*
X148949666Y-101166419D01*
X148949666Y-101166419D02*
X149044904Y-101118800D01*
X149044904Y-101118800D02*
X149092523Y-101071180D01*
X147854428Y-100166419D02*
X147759190Y-100166419D01*
X147759190Y-100166419D02*
X147663952Y-100214038D01*
X147663952Y-100214038D02*
X147616333Y-100261657D01*
X147616333Y-100261657D02*
X147568714Y-100356895D01*
X147568714Y-100356895D02*
X147521095Y-100547371D01*
X147521095Y-100547371D02*
X147521095Y-100785466D01*
X147521095Y-100785466D02*
X147568714Y-100975942D01*
X147568714Y-100975942D02*
X147616333Y-101071180D01*
X147616333Y-101071180D02*
X147663952Y-101118800D01*
X147663952Y-101118800D02*
X147759190Y-101166419D01*
X147759190Y-101166419D02*
X147854428Y-101166419D01*
X147854428Y-101166419D02*
X147949666Y-101118800D01*
X147949666Y-101118800D02*
X147997285Y-101071180D01*
X147997285Y-101071180D02*
X148044904Y-100975942D01*
X148044904Y-100975942D02*
X148092523Y-100785466D01*
X148092523Y-100785466D02*
X148092523Y-100547371D01*
X148092523Y-100547371D02*
X148044904Y-100356895D01*
X148044904Y-100356895D02*
X147997285Y-100261657D01*
X147997285Y-100261657D02*
X147949666Y-100214038D01*
X147949666Y-100214038D02*
X147854428Y-100166419D01*
X151855466Y-79906019D02*
X152188799Y-79429828D01*
X152426894Y-79906019D02*
X152426894Y-78906019D01*
X152426894Y-78906019D02*
X152045942Y-78906019D01*
X152045942Y-78906019D02*
X151950704Y-78953638D01*
X151950704Y-78953638D02*
X151903085Y-79001257D01*
X151903085Y-79001257D02*
X151855466Y-79096495D01*
X151855466Y-79096495D02*
X151855466Y-79239352D01*
X151855466Y-79239352D02*
X151903085Y-79334590D01*
X151903085Y-79334590D02*
X151950704Y-79382209D01*
X151950704Y-79382209D02*
X152045942Y-79429828D01*
X152045942Y-79429828D02*
X152426894Y-79429828D01*
X150998323Y-79239352D02*
X150998323Y-79906019D01*
X151236418Y-78858400D02*
X151474513Y-79572685D01*
X151474513Y-79572685D02*
X150855466Y-79572685D01*
X145722380Y-85431333D02*
X145770000Y-85383714D01*
X145770000Y-85383714D02*
X145817619Y-85240857D01*
X145817619Y-85240857D02*
X145817619Y-85145619D01*
X145817619Y-85145619D02*
X145770000Y-85002762D01*
X145770000Y-85002762D02*
X145674761Y-84907524D01*
X145674761Y-84907524D02*
X145579523Y-84859905D01*
X145579523Y-84859905D02*
X145389047Y-84812286D01*
X145389047Y-84812286D02*
X145246190Y-84812286D01*
X145246190Y-84812286D02*
X145055714Y-84859905D01*
X145055714Y-84859905D02*
X144960476Y-84907524D01*
X144960476Y-84907524D02*
X144865238Y-85002762D01*
X144865238Y-85002762D02*
X144817619Y-85145619D01*
X144817619Y-85145619D02*
X144817619Y-85240857D01*
X144817619Y-85240857D02*
X144865238Y-85383714D01*
X144865238Y-85383714D02*
X144912857Y-85431333D01*
X144817619Y-86288476D02*
X144817619Y-86098000D01*
X144817619Y-86098000D02*
X144865238Y-86002762D01*
X144865238Y-86002762D02*
X144912857Y-85955143D01*
X144912857Y-85955143D02*
X145055714Y-85859905D01*
X145055714Y-85859905D02*
X145246190Y-85812286D01*
X145246190Y-85812286D02*
X145627142Y-85812286D01*
X145627142Y-85812286D02*
X145722380Y-85859905D01*
X145722380Y-85859905D02*
X145770000Y-85907524D01*
X145770000Y-85907524D02*
X145817619Y-86002762D01*
X145817619Y-86002762D02*
X145817619Y-86193238D01*
X145817619Y-86193238D02*
X145770000Y-86288476D01*
X145770000Y-86288476D02*
X145722380Y-86336095D01*
X145722380Y-86336095D02*
X145627142Y-86383714D01*
X145627142Y-86383714D02*
X145389047Y-86383714D01*
X145389047Y-86383714D02*
X145293809Y-86336095D01*
X145293809Y-86336095D02*
X145246190Y-86288476D01*
X145246190Y-86288476D02*
X145198571Y-86193238D01*
X145198571Y-86193238D02*
X145198571Y-86002762D01*
X145198571Y-86002762D02*
X145246190Y-85907524D01*
X145246190Y-85907524D02*
X145293809Y-85859905D01*
X145293809Y-85859905D02*
X145389047Y-85812286D01*
X158326057Y-101959580D02*
X158373676Y-102007200D01*
X158373676Y-102007200D02*
X158516533Y-102054819D01*
X158516533Y-102054819D02*
X158611771Y-102054819D01*
X158611771Y-102054819D02*
X158754628Y-102007200D01*
X158754628Y-102007200D02*
X158849866Y-101911961D01*
X158849866Y-101911961D02*
X158897485Y-101816723D01*
X158897485Y-101816723D02*
X158945104Y-101626247D01*
X158945104Y-101626247D02*
X158945104Y-101483390D01*
X158945104Y-101483390D02*
X158897485Y-101292914D01*
X158897485Y-101292914D02*
X158849866Y-101197676D01*
X158849866Y-101197676D02*
X158754628Y-101102438D01*
X158754628Y-101102438D02*
X158611771Y-101054819D01*
X158611771Y-101054819D02*
X158516533Y-101054819D01*
X158516533Y-101054819D02*
X158373676Y-101102438D01*
X158373676Y-101102438D02*
X158326057Y-101150057D01*
X157468914Y-101388152D02*
X157468914Y-102054819D01*
X157707009Y-101007200D02*
X157945104Y-101721485D01*
X157945104Y-101721485D02*
X157326057Y-101721485D01*
X156754628Y-101054819D02*
X156659390Y-101054819D01*
X156659390Y-101054819D02*
X156564152Y-101102438D01*
X156564152Y-101102438D02*
X156516533Y-101150057D01*
X156516533Y-101150057D02*
X156468914Y-101245295D01*
X156468914Y-101245295D02*
X156421295Y-101435771D01*
X156421295Y-101435771D02*
X156421295Y-101673866D01*
X156421295Y-101673866D02*
X156468914Y-101864342D01*
X156468914Y-101864342D02*
X156516533Y-101959580D01*
X156516533Y-101959580D02*
X156564152Y-102007200D01*
X156564152Y-102007200D02*
X156659390Y-102054819D01*
X156659390Y-102054819D02*
X156754628Y-102054819D01*
X156754628Y-102054819D02*
X156849866Y-102007200D01*
X156849866Y-102007200D02*
X156897485Y-101959580D01*
X156897485Y-101959580D02*
X156945104Y-101864342D01*
X156945104Y-101864342D02*
X156992723Y-101673866D01*
X156992723Y-101673866D02*
X156992723Y-101435771D01*
X156992723Y-101435771D02*
X156945104Y-101245295D01*
X156945104Y-101245295D02*
X156897485Y-101150057D01*
X156897485Y-101150057D02*
X156849866Y-101102438D01*
X156849866Y-101102438D02*
X156754628Y-101054819D01*
X162783657Y-97474880D02*
X162831276Y-97522500D01*
X162831276Y-97522500D02*
X162974133Y-97570119D01*
X162974133Y-97570119D02*
X163069371Y-97570119D01*
X163069371Y-97570119D02*
X163212228Y-97522500D01*
X163212228Y-97522500D02*
X163307466Y-97427261D01*
X163307466Y-97427261D02*
X163355085Y-97332023D01*
X163355085Y-97332023D02*
X163402704Y-97141547D01*
X163402704Y-97141547D02*
X163402704Y-96998690D01*
X163402704Y-96998690D02*
X163355085Y-96808214D01*
X163355085Y-96808214D02*
X163307466Y-96712976D01*
X163307466Y-96712976D02*
X163212228Y-96617738D01*
X163212228Y-96617738D02*
X163069371Y-96570119D01*
X163069371Y-96570119D02*
X162974133Y-96570119D01*
X162974133Y-96570119D02*
X162831276Y-96617738D01*
X162831276Y-96617738D02*
X162783657Y-96665357D01*
X162450323Y-96570119D02*
X161831276Y-96570119D01*
X161831276Y-96570119D02*
X162164609Y-96951071D01*
X162164609Y-96951071D02*
X162021752Y-96951071D01*
X162021752Y-96951071D02*
X161926514Y-96998690D01*
X161926514Y-96998690D02*
X161878895Y-97046309D01*
X161878895Y-97046309D02*
X161831276Y-97141547D01*
X161831276Y-97141547D02*
X161831276Y-97379642D01*
X161831276Y-97379642D02*
X161878895Y-97474880D01*
X161878895Y-97474880D02*
X161926514Y-97522500D01*
X161926514Y-97522500D02*
X162021752Y-97570119D01*
X162021752Y-97570119D02*
X162307466Y-97570119D01*
X162307466Y-97570119D02*
X162402704Y-97522500D01*
X162402704Y-97522500D02*
X162450323Y-97474880D01*
X161497942Y-96570119D02*
X160831276Y-96570119D01*
X160831276Y-96570119D02*
X161259847Y-97570119D01*
X144753866Y-82847780D02*
X144801485Y-82895400D01*
X144801485Y-82895400D02*
X144944342Y-82943019D01*
X144944342Y-82943019D02*
X145039580Y-82943019D01*
X145039580Y-82943019D02*
X145182437Y-82895400D01*
X145182437Y-82895400D02*
X145277675Y-82800161D01*
X145277675Y-82800161D02*
X145325294Y-82704923D01*
X145325294Y-82704923D02*
X145372913Y-82514447D01*
X145372913Y-82514447D02*
X145372913Y-82371590D01*
X145372913Y-82371590D02*
X145325294Y-82181114D01*
X145325294Y-82181114D02*
X145277675Y-82085876D01*
X145277675Y-82085876D02*
X145182437Y-81990638D01*
X145182437Y-81990638D02*
X145039580Y-81943019D01*
X145039580Y-81943019D02*
X144944342Y-81943019D01*
X144944342Y-81943019D02*
X144801485Y-81990638D01*
X144801485Y-81990638D02*
X144753866Y-82038257D01*
X143801485Y-82943019D02*
X144372913Y-82943019D01*
X144087199Y-82943019D02*
X144087199Y-81943019D01*
X144087199Y-81943019D02*
X144182437Y-82085876D01*
X144182437Y-82085876D02*
X144277675Y-82181114D01*
X144277675Y-82181114D02*
X144372913Y-82228733D01*
X141323219Y-81265733D02*
X140847028Y-80932400D01*
X141323219Y-80694305D02*
X140323219Y-80694305D01*
X140323219Y-80694305D02*
X140323219Y-81075257D01*
X140323219Y-81075257D02*
X140370838Y-81170495D01*
X140370838Y-81170495D02*
X140418457Y-81218114D01*
X140418457Y-81218114D02*
X140513695Y-81265733D01*
X140513695Y-81265733D02*
X140656552Y-81265733D01*
X140656552Y-81265733D02*
X140751790Y-81218114D01*
X140751790Y-81218114D02*
X140799409Y-81170495D01*
X140799409Y-81170495D02*
X140847028Y-81075257D01*
X140847028Y-81075257D02*
X140847028Y-80694305D01*
X140418457Y-81646686D02*
X140370838Y-81694305D01*
X140370838Y-81694305D02*
X140323219Y-81789543D01*
X140323219Y-81789543D02*
X140323219Y-82027638D01*
X140323219Y-82027638D02*
X140370838Y-82122876D01*
X140370838Y-82122876D02*
X140418457Y-82170495D01*
X140418457Y-82170495D02*
X140513695Y-82218114D01*
X140513695Y-82218114D02*
X140608933Y-82218114D01*
X140608933Y-82218114D02*
X140751790Y-82170495D01*
X140751790Y-82170495D02*
X141323219Y-81599067D01*
X141323219Y-81599067D02*
X141323219Y-82218114D01*
X141238019Y-89139733D02*
X140761828Y-88806400D01*
X141238019Y-88568305D02*
X140238019Y-88568305D01*
X140238019Y-88568305D02*
X140238019Y-88949257D01*
X140238019Y-88949257D02*
X140285638Y-89044495D01*
X140285638Y-89044495D02*
X140333257Y-89092114D01*
X140333257Y-89092114D02*
X140428495Y-89139733D01*
X140428495Y-89139733D02*
X140571352Y-89139733D01*
X140571352Y-89139733D02*
X140666590Y-89092114D01*
X140666590Y-89092114D02*
X140714209Y-89044495D01*
X140714209Y-89044495D02*
X140761828Y-88949257D01*
X140761828Y-88949257D02*
X140761828Y-88568305D01*
X141238019Y-89615924D02*
X141238019Y-89806400D01*
X141238019Y-89806400D02*
X141190400Y-89901638D01*
X141190400Y-89901638D02*
X141142780Y-89949257D01*
X141142780Y-89949257D02*
X140999923Y-90044495D01*
X140999923Y-90044495D02*
X140809447Y-90092114D01*
X140809447Y-90092114D02*
X140428495Y-90092114D01*
X140428495Y-90092114D02*
X140333257Y-90044495D01*
X140333257Y-90044495D02*
X140285638Y-89996876D01*
X140285638Y-89996876D02*
X140238019Y-89901638D01*
X140238019Y-89901638D02*
X140238019Y-89711162D01*
X140238019Y-89711162D02*
X140285638Y-89615924D01*
X140285638Y-89615924D02*
X140333257Y-89568305D01*
X140333257Y-89568305D02*
X140428495Y-89520686D01*
X140428495Y-89520686D02*
X140666590Y-89520686D01*
X140666590Y-89520686D02*
X140761828Y-89568305D01*
X140761828Y-89568305D02*
X140809447Y-89615924D01*
X140809447Y-89615924D02*
X140857066Y-89711162D01*
X140857066Y-89711162D02*
X140857066Y-89901638D01*
X140857066Y-89901638D02*
X140809447Y-89996876D01*
X140809447Y-89996876D02*
X140761828Y-90044495D01*
X140761828Y-90044495D02*
X140666590Y-90092114D01*
X141010819Y-96830142D02*
X140534628Y-96496809D01*
X141010819Y-96258714D02*
X140010819Y-96258714D01*
X140010819Y-96258714D02*
X140010819Y-96639666D01*
X140010819Y-96639666D02*
X140058438Y-96734904D01*
X140058438Y-96734904D02*
X140106057Y-96782523D01*
X140106057Y-96782523D02*
X140201295Y-96830142D01*
X140201295Y-96830142D02*
X140344152Y-96830142D01*
X140344152Y-96830142D02*
X140439390Y-96782523D01*
X140439390Y-96782523D02*
X140487009Y-96734904D01*
X140487009Y-96734904D02*
X140534628Y-96639666D01*
X140534628Y-96639666D02*
X140534628Y-96258714D01*
X141010819Y-97782523D02*
X141010819Y-97211095D01*
X141010819Y-97496809D02*
X140010819Y-97496809D01*
X140010819Y-97496809D02*
X140153676Y-97401571D01*
X140153676Y-97401571D02*
X140248914Y-97306333D01*
X140248914Y-97306333D02*
X140296533Y-97211095D01*
X140010819Y-98115857D02*
X140010819Y-98782523D01*
X140010819Y-98782523D02*
X141010819Y-98353952D01*
X144225180Y-77544333D02*
X144272800Y-77496714D01*
X144272800Y-77496714D02*
X144320419Y-77353857D01*
X144320419Y-77353857D02*
X144320419Y-77258619D01*
X144320419Y-77258619D02*
X144272800Y-77115762D01*
X144272800Y-77115762D02*
X144177561Y-77020524D01*
X144177561Y-77020524D02*
X144082323Y-76972905D01*
X144082323Y-76972905D02*
X143891847Y-76925286D01*
X143891847Y-76925286D02*
X143748990Y-76925286D01*
X143748990Y-76925286D02*
X143558514Y-76972905D01*
X143558514Y-76972905D02*
X143463276Y-77020524D01*
X143463276Y-77020524D02*
X143368038Y-77115762D01*
X143368038Y-77115762D02*
X143320419Y-77258619D01*
X143320419Y-77258619D02*
X143320419Y-77353857D01*
X143320419Y-77353857D02*
X143368038Y-77496714D01*
X143368038Y-77496714D02*
X143415657Y-77544333D01*
X143415657Y-77925286D02*
X143368038Y-77972905D01*
X143368038Y-77972905D02*
X143320419Y-78068143D01*
X143320419Y-78068143D02*
X143320419Y-78306238D01*
X143320419Y-78306238D02*
X143368038Y-78401476D01*
X143368038Y-78401476D02*
X143415657Y-78449095D01*
X143415657Y-78449095D02*
X143510895Y-78496714D01*
X143510895Y-78496714D02*
X143606133Y-78496714D01*
X143606133Y-78496714D02*
X143748990Y-78449095D01*
X143748990Y-78449095D02*
X144320419Y-77877667D01*
X144320419Y-77877667D02*
X144320419Y-78496714D01*
X143748930Y-100621342D02*
X143796550Y-100573723D01*
X143796550Y-100573723D02*
X143844169Y-100430866D01*
X143844169Y-100430866D02*
X143844169Y-100335628D01*
X143844169Y-100335628D02*
X143796550Y-100192771D01*
X143796550Y-100192771D02*
X143701311Y-100097533D01*
X143701311Y-100097533D02*
X143606073Y-100049914D01*
X143606073Y-100049914D02*
X143415597Y-100002295D01*
X143415597Y-100002295D02*
X143272740Y-100002295D01*
X143272740Y-100002295D02*
X143082264Y-100049914D01*
X143082264Y-100049914D02*
X142987026Y-100097533D01*
X142987026Y-100097533D02*
X142891788Y-100192771D01*
X142891788Y-100192771D02*
X142844169Y-100335628D01*
X142844169Y-100335628D02*
X142844169Y-100430866D01*
X142844169Y-100430866D02*
X142891788Y-100573723D01*
X142891788Y-100573723D02*
X142939407Y-100621342D01*
X143844169Y-101573723D02*
X143844169Y-101002295D01*
X143844169Y-101288009D02*
X142844169Y-101288009D01*
X142844169Y-101288009D02*
X142987026Y-101192771D01*
X142987026Y-101192771D02*
X143082264Y-101097533D01*
X143082264Y-101097533D02*
X143129883Y-101002295D01*
X142844169Y-101907057D02*
X142844169Y-102526104D01*
X142844169Y-102526104D02*
X143225121Y-102192771D01*
X143225121Y-102192771D02*
X143225121Y-102335628D01*
X143225121Y-102335628D02*
X143272740Y-102430866D01*
X143272740Y-102430866D02*
X143320359Y-102478485D01*
X143320359Y-102478485D02*
X143415597Y-102526104D01*
X143415597Y-102526104D02*
X143653692Y-102526104D01*
X143653692Y-102526104D02*
X143748930Y-102478485D01*
X143748930Y-102478485D02*
X143796550Y-102430866D01*
X143796550Y-102430866D02*
X143844169Y-102335628D01*
X143844169Y-102335628D02*
X143844169Y-102049914D01*
X143844169Y-102049914D02*
X143796550Y-101954676D01*
X143796550Y-101954676D02*
X143748930Y-101907057D01*
X149361257Y-102690419D02*
X149694590Y-102214228D01*
X149932685Y-102690419D02*
X149932685Y-101690419D01*
X149932685Y-101690419D02*
X149551733Y-101690419D01*
X149551733Y-101690419D02*
X149456495Y-101738038D01*
X149456495Y-101738038D02*
X149408876Y-101785657D01*
X149408876Y-101785657D02*
X149361257Y-101880895D01*
X149361257Y-101880895D02*
X149361257Y-102023752D01*
X149361257Y-102023752D02*
X149408876Y-102118990D01*
X149408876Y-102118990D02*
X149456495Y-102166609D01*
X149456495Y-102166609D02*
X149551733Y-102214228D01*
X149551733Y-102214228D02*
X149932685Y-102214228D01*
X149027923Y-101690419D02*
X148408876Y-101690419D01*
X148408876Y-101690419D02*
X148742209Y-102071371D01*
X148742209Y-102071371D02*
X148599352Y-102071371D01*
X148599352Y-102071371D02*
X148504114Y-102118990D01*
X148504114Y-102118990D02*
X148456495Y-102166609D01*
X148456495Y-102166609D02*
X148408876Y-102261847D01*
X148408876Y-102261847D02*
X148408876Y-102499942D01*
X148408876Y-102499942D02*
X148456495Y-102595180D01*
X148456495Y-102595180D02*
X148504114Y-102642800D01*
X148504114Y-102642800D02*
X148599352Y-102690419D01*
X148599352Y-102690419D02*
X148885066Y-102690419D01*
X148885066Y-102690419D02*
X148980304Y-102642800D01*
X148980304Y-102642800D02*
X149027923Y-102595180D01*
X147456495Y-102690419D02*
X148027923Y-102690419D01*
X147742209Y-102690419D02*
X147742209Y-101690419D01*
X147742209Y-101690419D02*
X147837447Y-101833276D01*
X147837447Y-101833276D02*
X147932685Y-101928514D01*
X147932685Y-101928514D02*
X148027923Y-101976133D01*
X159312780Y-82960942D02*
X159360400Y-82913323D01*
X159360400Y-82913323D02*
X159408019Y-82770466D01*
X159408019Y-82770466D02*
X159408019Y-82675228D01*
X159408019Y-82675228D02*
X159360400Y-82532371D01*
X159360400Y-82532371D02*
X159265161Y-82437133D01*
X159265161Y-82437133D02*
X159169923Y-82389514D01*
X159169923Y-82389514D02*
X158979447Y-82341895D01*
X158979447Y-82341895D02*
X158836590Y-82341895D01*
X158836590Y-82341895D02*
X158646114Y-82389514D01*
X158646114Y-82389514D02*
X158550876Y-82437133D01*
X158550876Y-82437133D02*
X158455638Y-82532371D01*
X158455638Y-82532371D02*
X158408019Y-82675228D01*
X158408019Y-82675228D02*
X158408019Y-82770466D01*
X158408019Y-82770466D02*
X158455638Y-82913323D01*
X158455638Y-82913323D02*
X158503257Y-82960942D01*
X158408019Y-83294276D02*
X158408019Y-83913323D01*
X158408019Y-83913323D02*
X158788971Y-83579990D01*
X158788971Y-83579990D02*
X158788971Y-83722847D01*
X158788971Y-83722847D02*
X158836590Y-83818085D01*
X158836590Y-83818085D02*
X158884209Y-83865704D01*
X158884209Y-83865704D02*
X158979447Y-83913323D01*
X158979447Y-83913323D02*
X159217542Y-83913323D01*
X159217542Y-83913323D02*
X159312780Y-83865704D01*
X159312780Y-83865704D02*
X159360400Y-83818085D01*
X159360400Y-83818085D02*
X159408019Y-83722847D01*
X159408019Y-83722847D02*
X159408019Y-83437133D01*
X159408019Y-83437133D02*
X159360400Y-83341895D01*
X159360400Y-83341895D02*
X159312780Y-83294276D01*
X158503257Y-84294276D02*
X158455638Y-84341895D01*
X158455638Y-84341895D02*
X158408019Y-84437133D01*
X158408019Y-84437133D02*
X158408019Y-84675228D01*
X158408019Y-84675228D02*
X158455638Y-84770466D01*
X158455638Y-84770466D02*
X158503257Y-84818085D01*
X158503257Y-84818085D02*
X158598495Y-84865704D01*
X158598495Y-84865704D02*
X158693733Y-84865704D01*
X158693733Y-84865704D02*
X158836590Y-84818085D01*
X158836590Y-84818085D02*
X159408019Y-84246657D01*
X159408019Y-84246657D02*
X159408019Y-84865704D01*
X146917580Y-92358942D02*
X146965200Y-92311323D01*
X146965200Y-92311323D02*
X147012819Y-92168466D01*
X147012819Y-92168466D02*
X147012819Y-92073228D01*
X147012819Y-92073228D02*
X146965200Y-91930371D01*
X146965200Y-91930371D02*
X146869961Y-91835133D01*
X146869961Y-91835133D02*
X146774723Y-91787514D01*
X146774723Y-91787514D02*
X146584247Y-91739895D01*
X146584247Y-91739895D02*
X146441390Y-91739895D01*
X146441390Y-91739895D02*
X146250914Y-91787514D01*
X146250914Y-91787514D02*
X146155676Y-91835133D01*
X146155676Y-91835133D02*
X146060438Y-91930371D01*
X146060438Y-91930371D02*
X146012819Y-92073228D01*
X146012819Y-92073228D02*
X146012819Y-92168466D01*
X146012819Y-92168466D02*
X146060438Y-92311323D01*
X146060438Y-92311323D02*
X146108057Y-92358942D01*
X147012819Y-93311323D02*
X147012819Y-92739895D01*
X147012819Y-93025609D02*
X146012819Y-93025609D01*
X146012819Y-93025609D02*
X146155676Y-92930371D01*
X146155676Y-92930371D02*
X146250914Y-92835133D01*
X146250914Y-92835133D02*
X146298533Y-92739895D01*
X147012819Y-93787514D02*
X147012819Y-93977990D01*
X147012819Y-93977990D02*
X146965200Y-94073228D01*
X146965200Y-94073228D02*
X146917580Y-94120847D01*
X146917580Y-94120847D02*
X146774723Y-94216085D01*
X146774723Y-94216085D02*
X146584247Y-94263704D01*
X146584247Y-94263704D02*
X146203295Y-94263704D01*
X146203295Y-94263704D02*
X146108057Y-94216085D01*
X146108057Y-94216085D02*
X146060438Y-94168466D01*
X146060438Y-94168466D02*
X146012819Y-94073228D01*
X146012819Y-94073228D02*
X146012819Y-93882752D01*
X146012819Y-93882752D02*
X146060438Y-93787514D01*
X146060438Y-93787514D02*
X146108057Y-93739895D01*
X146108057Y-93739895D02*
X146203295Y-93692276D01*
X146203295Y-93692276D02*
X146441390Y-93692276D01*
X146441390Y-93692276D02*
X146536628Y-93739895D01*
X146536628Y-93739895D02*
X146584247Y-93787514D01*
X146584247Y-93787514D02*
X146631866Y-93882752D01*
X146631866Y-93882752D02*
X146631866Y-94073228D01*
X146631866Y-94073228D02*
X146584247Y-94168466D01*
X146584247Y-94168466D02*
X146536628Y-94216085D01*
X146536628Y-94216085D02*
X146441390Y-94263704D01*
%TO.C,C9*%
D11*
X143000000Y-95909220D02*
X143000000Y-96190380D01*
X144020000Y-95909220D02*
X144020000Y-96190380D01*
%TO.C,R25*%
X141361900Y-105706742D02*
X141361900Y-106181258D01*
X142406900Y-105706742D02*
X142406900Y-106181258D01*
%TO.C,R34*%
X167981100Y-92625142D02*
X167981100Y-93099658D01*
X169026100Y-92625142D02*
X169026100Y-93099658D01*
%TO.C,R23*%
X149093458Y-96251500D02*
X148618942Y-96251500D01*
X149093458Y-97296500D02*
X148618942Y-97296500D01*
%TO.C,C14*%
X144422400Y-104266420D02*
X144422400Y-104547580D01*
X145442400Y-104266420D02*
X145442400Y-104547580D01*
%TO.C,C7*%
X147027380Y-89761600D02*
X146746220Y-89761600D01*
X147027380Y-90781600D02*
X146746220Y-90781600D01*
%TO.C,C15*%
X146596980Y-106145200D02*
X146315820Y-106145200D01*
X146596980Y-107165200D02*
X146315820Y-107165200D01*
%TO.C,C18*%
X146376800Y-88176980D02*
X146376800Y-87895820D01*
X147396800Y-88176980D02*
X147396800Y-87895820D01*
%TO.C,R15*%
X149422258Y-88275900D02*
X148947742Y-88275900D01*
X149422258Y-89320900D02*
X148947742Y-89320900D01*
%TO.C,C31*%
X159357600Y-87097180D02*
X159357600Y-86816020D01*
X160377600Y-87097180D02*
X160377600Y-86816020D01*
%TO.C,C3*%
X144879600Y-80059620D02*
X144879600Y-80340780D01*
X145899600Y-80059620D02*
X145899600Y-80340780D01*
%TO.C,C17*%
X146403600Y-80340780D02*
X146403600Y-80059620D01*
X147423600Y-80340780D02*
X147423600Y-80059620D01*
%TO.C,C10*%
X144524000Y-95909220D02*
X144524000Y-96190380D01*
X145544000Y-95909220D02*
X145544000Y-96190380D01*
%TO.C,C20*%
X145946400Y-104547580D02*
X145946400Y-104266420D01*
X146966400Y-104547580D02*
X146966400Y-104266420D01*
%TO.C,R5*%
X149436858Y-80452700D02*
X148962342Y-80452700D01*
X149436858Y-81497700D02*
X148962342Y-81497700D01*
%TO.C,C5*%
X143328800Y-87895820D02*
X143328800Y-88176980D01*
X144348800Y-87895820D02*
X144348800Y-88176980D01*
%TO.C,R33*%
X167910742Y-90053900D02*
X168385258Y-90053900D01*
X167910742Y-91098900D02*
X168385258Y-91098900D01*
%TO.C,C27*%
X163828000Y-87211780D02*
X163828000Y-86930620D01*
X164848000Y-87211780D02*
X164848000Y-86930620D01*
%TO.C,C25*%
X165352000Y-87211780D02*
X165352000Y-86930620D01*
X166372000Y-87211780D02*
X166372000Y-86930620D01*
%TO.C,R14*%
X148949342Y-86751900D02*
X149423858Y-86751900D01*
X148949342Y-87796900D02*
X149423858Y-87796900D01*
%TO.C,C30*%
X160881600Y-87097180D02*
X160881600Y-86816020D01*
X161901600Y-87097180D02*
X161901600Y-86816020D01*
%TO.C,C11*%
X146952580Y-97838800D02*
X146671420Y-97838800D01*
X146952580Y-98858800D02*
X146671420Y-98858800D01*
%TO.C,R22*%
X148618942Y-94727500D02*
X149093458Y-94727500D01*
X148618942Y-95772500D02*
X149093458Y-95772500D01*
%TO.C,C34*%
X156919200Y-80696380D02*
X156919200Y-80415220D01*
X157939200Y-80696380D02*
X157939200Y-80415220D01*
%TO.C,C39*%
X157516820Y-99551700D02*
X157797980Y-99551700D01*
X157516820Y-100571700D02*
X157797980Y-100571700D01*
%TO.C,C38*%
X162243580Y-99551700D02*
X161962420Y-99551700D01*
X162243580Y-100571700D02*
X161962420Y-100571700D01*
%TO.C,R30*%
X148512942Y-103084700D02*
X148987458Y-103084700D01*
X148512942Y-104129700D02*
X148987458Y-104129700D01*
%TO.C,R4*%
X148962342Y-78928700D02*
X149436858Y-78928700D01*
X148962342Y-79973700D02*
X149436858Y-79973700D01*
%TO.C,C6*%
X144852800Y-87895820D02*
X144852800Y-88176980D01*
X145872800Y-87895820D02*
X145872800Y-88176980D01*
%TO.C,C40*%
X157516820Y-98027700D02*
X157797980Y-98027700D01*
X157516820Y-99047700D02*
X157797980Y-99047700D01*
%TO.C,C37*%
X162243580Y-98027700D02*
X161962420Y-98027700D01*
X162243580Y-99047700D02*
X161962420Y-99047700D01*
%TO.C,C1*%
X147155780Y-81989200D02*
X146874620Y-81989200D01*
X147155780Y-83009200D02*
X146874620Y-83009200D01*
%TO.C,R2*%
X141819100Y-81195142D02*
X141819100Y-81669658D01*
X142864100Y-81195142D02*
X142864100Y-81669658D01*
%TO.C,R9*%
X141690700Y-89069142D02*
X141690700Y-89543658D01*
X142735700Y-89069142D02*
X142735700Y-89543658D01*
%TO.C,R17*%
X141463500Y-97235742D02*
X141463500Y-97710258D01*
X142508500Y-97235742D02*
X142508500Y-97710258D01*
%TO.C,C2*%
X143355600Y-80059620D02*
X143355600Y-80340780D01*
X144375600Y-80059620D02*
X144375600Y-80340780D01*
%TO.C,C13*%
X142898400Y-104266420D02*
X142898400Y-104547580D01*
X143918400Y-104266420D02*
X143918400Y-104547580D01*
%TO.C,R31*%
X148980458Y-104608700D02*
X148505942Y-104608700D01*
X148980458Y-105653700D02*
X148505942Y-105653700D01*
%TO.C,C32*%
X158443200Y-80696380D02*
X158443200Y-80415220D01*
X159463200Y-80696380D02*
X159463200Y-80415220D01*
%TO.C,C19*%
X146048000Y-96190380D02*
X146048000Y-95909220D01*
X147068000Y-96190380D02*
X147068000Y-95909220D01*
%TD*%
M02*
