%TF.GenerationSoftware,KiCad,Pcbnew,10.0.2*%
%TF.CreationDate,2026-06-07T19:31:00-04:00*%
%TF.ProjectId,StrainGaugeDAQ,53747261-696e-4476-9175-67654441512e,rev?*%
%TF.SameCoordinates,Original*%
%TF.FileFunction,Profile,NP*%
%FSLAX46Y46*%
G04 Gerber Fmt 4.6, Leading zero omitted, Abs format (unit mm)*
G04 Created by KiCad (PCBNEW 10.0.2) date 2026-06-07 19:31:00*
%MOMM*%
%LPD*%
G01*
G04 APERTURE LIST*
%TA.AperFunction,Profile*%
%ADD10C,0.050000*%
%TD*%
%TA.AperFunction,Profile*%
%ADD11C,0.200000*%
%TD*%
G04 APERTURE END LIST*
D10*
X133350000Y-78790800D02*
X133350000Y-78790800D01*
G75*
G02*
X144780000Y-67360800I11430000J0D01*
G01*
X161290000Y-67360800D01*
G75*
G02*
X172720000Y-78790800I0J-11430000D01*
G01*
X172720000Y-106680000D01*
G75*
G02*
X161290000Y-118110000I-11430000J0D01*
G01*
X144780000Y-118110000D01*
G75*
G02*
X133350000Y-106680000I0J11430000D01*
G01*
X133350000Y-78790800D01*
D11*
X145681700Y-69088000D02*
X145681700Y-69088000D01*
G75*
G02*
X146443700Y-68326000I762000J0D01*
G01*
X147459700Y-68326000D01*
G75*
G02*
X148221700Y-69088000I0J-762000D01*
G01*
X148221700Y-75184000D01*
G75*
G02*
X147459700Y-75946000I-762000J0D01*
G01*
X146443700Y-75946000D01*
G75*
G02*
X145681700Y-75184000I0J762000D01*
G01*
X145681700Y-69088000D01*
X145681700Y-110286800D02*
X145681700Y-110286800D01*
G75*
G02*
X146443700Y-109524800I762000J0D01*
G01*
X147459700Y-109524800D01*
G75*
G02*
X148221700Y-110286800I0J-762000D01*
G01*
X148221700Y-116382800D01*
G75*
G02*
X147459700Y-117144800I-762000J0D01*
G01*
X146443700Y-117144800D01*
G75*
G02*
X145681700Y-116382800I0J762000D01*
G01*
X145681700Y-110286800D01*
X157848300Y-69088000D02*
X157848300Y-69088000D01*
G75*
G02*
X158610300Y-68326000I762000J0D01*
G01*
X159626300Y-68326000D01*
G75*
G02*
X160388300Y-69088000I0J-762000D01*
G01*
X160388300Y-75184000D01*
G75*
G02*
X159626300Y-75946000I-762000J0D01*
G01*
X158610300Y-75946000D01*
G75*
G02*
X157848300Y-75184000I0J762000D01*
G01*
X157848300Y-69088000D01*
X157848300Y-110286800D02*
X157848300Y-110286800D01*
G75*
G02*
X158610300Y-109524800I762000J0D01*
G01*
X159626300Y-109524800D01*
G75*
G02*
X160388300Y-110286800I0J-762000D01*
G01*
X160388300Y-116382800D01*
G75*
G02*
X159626300Y-117144800I-762000J0D01*
G01*
X158610300Y-117144800D01*
G75*
G02*
X157848300Y-116382800I0J762000D01*
G01*
X157848300Y-110286800D01*
M02*
