%TF.GenerationSoftware,KiCad,Pcbnew,10.0.2*%
%TF.CreationDate,2026-06-07T19:31:00-04:00*%
%TF.ProjectId,StrainGaugeDAQ,53747261-696e-4476-9175-67654441512e,rev?*%
%TF.SameCoordinates,Original*%
%TF.FileFunction,Legend,Top*%
%TF.FilePolarity,Positive*%
%FSLAX46Y46*%
G04 Gerber Fmt 4.6, Leading zero omitted, Abs format (unit mm)*
G04 Created by KiCad (PCBNEW 10.0.2) date 2026-06-07 19:31:00*
%MOMM*%
%LPD*%
G01*
G04 APERTURE LIST*
%ADD10C,0.100000*%
%ADD11C,0.150000*%
%ADD12C,0.000000*%
%ADD13C,0.120000*%
G04 APERTURE END LIST*
D10*
X155493468Y-84428684D02*
X156493468Y-84428684D01*
X156493468Y-84428684D02*
X156493468Y-84666779D01*
X156493468Y-84666779D02*
X156445849Y-84809636D01*
X156445849Y-84809636D02*
X156350611Y-84904874D01*
X156350611Y-84904874D02*
X156255373Y-84952493D01*
X156255373Y-84952493D02*
X156064897Y-85000112D01*
X156064897Y-85000112D02*
X155922040Y-85000112D01*
X155922040Y-85000112D02*
X155731564Y-84952493D01*
X155731564Y-84952493D02*
X155636326Y-84904874D01*
X155636326Y-84904874D02*
X155541088Y-84809636D01*
X155541088Y-84809636D02*
X155493468Y-84666779D01*
X155493468Y-84666779D02*
X155493468Y-84428684D01*
X155493468Y-85571541D02*
X155541088Y-85476303D01*
X155541088Y-85476303D02*
X155588707Y-85428684D01*
X155588707Y-85428684D02*
X155683945Y-85381065D01*
X155683945Y-85381065D02*
X155969659Y-85381065D01*
X155969659Y-85381065D02*
X156064897Y-85428684D01*
X156064897Y-85428684D02*
X156112516Y-85476303D01*
X156112516Y-85476303D02*
X156160135Y-85571541D01*
X156160135Y-85571541D02*
X156160135Y-85714398D01*
X156160135Y-85714398D02*
X156112516Y-85809636D01*
X156112516Y-85809636D02*
X156064897Y-85857255D01*
X156064897Y-85857255D02*
X155969659Y-85904874D01*
X155969659Y-85904874D02*
X155683945Y-85904874D01*
X155683945Y-85904874D02*
X155588707Y-85857255D01*
X155588707Y-85857255D02*
X155541088Y-85809636D01*
X155541088Y-85809636D02*
X155493468Y-85714398D01*
X155493468Y-85714398D02*
X155493468Y-85571541D01*
X156160135Y-86762017D02*
X155493468Y-86762017D01*
X156160135Y-86333446D02*
X155636326Y-86333446D01*
X155636326Y-86333446D02*
X155541088Y-86381065D01*
X155541088Y-86381065D02*
X155493468Y-86476303D01*
X155493468Y-86476303D02*
X155493468Y-86619160D01*
X155493468Y-86619160D02*
X155541088Y-86714398D01*
X155541088Y-86714398D02*
X155588707Y-86762017D01*
X155493468Y-87238208D02*
X156493468Y-87238208D01*
X156112516Y-87238208D02*
X156160135Y-87333446D01*
X156160135Y-87333446D02*
X156160135Y-87523922D01*
X156160135Y-87523922D02*
X156112516Y-87619160D01*
X156112516Y-87619160D02*
X156064897Y-87666779D01*
X156064897Y-87666779D02*
X155969659Y-87714398D01*
X155969659Y-87714398D02*
X155683945Y-87714398D01*
X155683945Y-87714398D02*
X155588707Y-87666779D01*
X155588707Y-87666779D02*
X155541088Y-87619160D01*
X155541088Y-87619160D02*
X155493468Y-87523922D01*
X155493468Y-87523922D02*
X155493468Y-87333446D01*
X155493468Y-87333446D02*
X155541088Y-87238208D01*
X155493468Y-88285827D02*
X155541088Y-88190589D01*
X155541088Y-88190589D02*
X155636326Y-88142970D01*
X155636326Y-88142970D02*
X156493468Y-88142970D01*
X155541088Y-89047732D02*
X155493468Y-88952494D01*
X155493468Y-88952494D02*
X155493468Y-88762018D01*
X155493468Y-88762018D02*
X155541088Y-88666780D01*
X155541088Y-88666780D02*
X155636326Y-88619161D01*
X155636326Y-88619161D02*
X156017278Y-88619161D01*
X156017278Y-88619161D02*
X156112516Y-88666780D01*
X156112516Y-88666780D02*
X156160135Y-88762018D01*
X156160135Y-88762018D02*
X156160135Y-88952494D01*
X156160135Y-88952494D02*
X156112516Y-89047732D01*
X156112516Y-89047732D02*
X156017278Y-89095351D01*
X156017278Y-89095351D02*
X155922040Y-89095351D01*
X155922040Y-89095351D02*
X155826802Y-88619161D01*
X156017278Y-90619161D02*
X155969659Y-90762018D01*
X155969659Y-90762018D02*
X155922040Y-90809637D01*
X155922040Y-90809637D02*
X155826802Y-90857256D01*
X155826802Y-90857256D02*
X155683945Y-90857256D01*
X155683945Y-90857256D02*
X155588707Y-90809637D01*
X155588707Y-90809637D02*
X155541088Y-90762018D01*
X155541088Y-90762018D02*
X155493468Y-90666780D01*
X155493468Y-90666780D02*
X155493468Y-90285828D01*
X155493468Y-90285828D02*
X156493468Y-90285828D01*
X156493468Y-90285828D02*
X156493468Y-90619161D01*
X156493468Y-90619161D02*
X156445849Y-90714399D01*
X156445849Y-90714399D02*
X156398230Y-90762018D01*
X156398230Y-90762018D02*
X156302992Y-90809637D01*
X156302992Y-90809637D02*
X156207754Y-90809637D01*
X156207754Y-90809637D02*
X156112516Y-90762018D01*
X156112516Y-90762018D02*
X156064897Y-90714399D01*
X156064897Y-90714399D02*
X156017278Y-90619161D01*
X156017278Y-90619161D02*
X156017278Y-90285828D01*
X155493468Y-91714399D02*
X156017278Y-91714399D01*
X156017278Y-91714399D02*
X156112516Y-91666780D01*
X156112516Y-91666780D02*
X156160135Y-91571542D01*
X156160135Y-91571542D02*
X156160135Y-91381066D01*
X156160135Y-91381066D02*
X156112516Y-91285828D01*
X155541088Y-91714399D02*
X155493468Y-91619161D01*
X155493468Y-91619161D02*
X155493468Y-91381066D01*
X155493468Y-91381066D02*
X155541088Y-91285828D01*
X155541088Y-91285828D02*
X155636326Y-91238209D01*
X155636326Y-91238209D02*
X155731564Y-91238209D01*
X155731564Y-91238209D02*
X155826802Y-91285828D01*
X155826802Y-91285828D02*
X155874421Y-91381066D01*
X155874421Y-91381066D02*
X155874421Y-91619161D01*
X155874421Y-91619161D02*
X155922040Y-91714399D01*
X155493468Y-92190590D02*
X156160135Y-92190590D01*
X155969659Y-92190590D02*
X156064897Y-92238209D01*
X156064897Y-92238209D02*
X156112516Y-92285828D01*
X156112516Y-92285828D02*
X156160135Y-92381066D01*
X156160135Y-92381066D02*
X156160135Y-92476304D01*
X155493468Y-92809638D02*
X156160135Y-92809638D01*
X155969659Y-92809638D02*
X156064897Y-92857257D01*
X156064897Y-92857257D02*
X156112516Y-92904876D01*
X156112516Y-92904876D02*
X156160135Y-93000114D01*
X156160135Y-93000114D02*
X156160135Y-93095352D01*
X155541088Y-93809638D02*
X155493468Y-93714400D01*
X155493468Y-93714400D02*
X155493468Y-93523924D01*
X155493468Y-93523924D02*
X155541088Y-93428686D01*
X155541088Y-93428686D02*
X155636326Y-93381067D01*
X155636326Y-93381067D02*
X156017278Y-93381067D01*
X156017278Y-93381067D02*
X156112516Y-93428686D01*
X156112516Y-93428686D02*
X156160135Y-93523924D01*
X156160135Y-93523924D02*
X156160135Y-93714400D01*
X156160135Y-93714400D02*
X156112516Y-93809638D01*
X156112516Y-93809638D02*
X156017278Y-93857257D01*
X156017278Y-93857257D02*
X155922040Y-93857257D01*
X155922040Y-93857257D02*
X155826802Y-93381067D01*
X155493468Y-94428686D02*
X155541088Y-94333448D01*
X155541088Y-94333448D02*
X155636326Y-94285829D01*
X155636326Y-94285829D02*
X156493468Y-94285829D01*
X156017278Y-95571544D02*
X156017278Y-95904877D01*
X155493468Y-96047734D02*
X155493468Y-95571544D01*
X155493468Y-95571544D02*
X156493468Y-95571544D01*
X156493468Y-95571544D02*
X156493468Y-96047734D01*
X156160135Y-96381068D02*
X155493468Y-96619163D01*
X156160135Y-96857258D02*
X155493468Y-96619163D01*
X155493468Y-96619163D02*
X155255373Y-96523925D01*
X155255373Y-96523925D02*
X155207754Y-96476306D01*
X155207754Y-96476306D02*
X155160135Y-96381068D01*
X155541088Y-97619163D02*
X155493468Y-97523925D01*
X155493468Y-97523925D02*
X155493468Y-97333449D01*
X155493468Y-97333449D02*
X155541088Y-97238211D01*
X155541088Y-97238211D02*
X155636326Y-97190592D01*
X155636326Y-97190592D02*
X156017278Y-97190592D01*
X156017278Y-97190592D02*
X156112516Y-97238211D01*
X156112516Y-97238211D02*
X156160135Y-97333449D01*
X156160135Y-97333449D02*
X156160135Y-97523925D01*
X156160135Y-97523925D02*
X156112516Y-97619163D01*
X156112516Y-97619163D02*
X156017278Y-97666782D01*
X156017278Y-97666782D02*
X155922040Y-97666782D01*
X155922040Y-97666782D02*
X155826802Y-97190592D01*
X155541088Y-98809640D02*
X155493468Y-98952497D01*
X155493468Y-98952497D02*
X155493468Y-99190592D01*
X155493468Y-99190592D02*
X155541088Y-99285830D01*
X155541088Y-99285830D02*
X155588707Y-99333449D01*
X155588707Y-99333449D02*
X155683945Y-99381068D01*
X155683945Y-99381068D02*
X155779183Y-99381068D01*
X155779183Y-99381068D02*
X155874421Y-99333449D01*
X155874421Y-99333449D02*
X155922040Y-99285830D01*
X155922040Y-99285830D02*
X155969659Y-99190592D01*
X155969659Y-99190592D02*
X156017278Y-99000116D01*
X156017278Y-99000116D02*
X156064897Y-98904878D01*
X156064897Y-98904878D02*
X156112516Y-98857259D01*
X156112516Y-98857259D02*
X156207754Y-98809640D01*
X156207754Y-98809640D02*
X156302992Y-98809640D01*
X156302992Y-98809640D02*
X156398230Y-98857259D01*
X156398230Y-98857259D02*
X156445849Y-98904878D01*
X156445849Y-98904878D02*
X156493468Y-99000116D01*
X156493468Y-99000116D02*
X156493468Y-99238211D01*
X156493468Y-99238211D02*
X156445849Y-99381068D01*
X156160135Y-99666783D02*
X156160135Y-100047735D01*
X156493468Y-99809640D02*
X155636326Y-99809640D01*
X155636326Y-99809640D02*
X155541088Y-99857259D01*
X155541088Y-99857259D02*
X155493468Y-99952497D01*
X155493468Y-99952497D02*
X155493468Y-100047735D01*
X155493468Y-100381069D02*
X156160135Y-100381069D01*
X155969659Y-100381069D02*
X156064897Y-100428688D01*
X156064897Y-100428688D02*
X156112516Y-100476307D01*
X156112516Y-100476307D02*
X156160135Y-100571545D01*
X156160135Y-100571545D02*
X156160135Y-100666783D01*
X155493468Y-101428688D02*
X156017278Y-101428688D01*
X156017278Y-101428688D02*
X156112516Y-101381069D01*
X156112516Y-101381069D02*
X156160135Y-101285831D01*
X156160135Y-101285831D02*
X156160135Y-101095355D01*
X156160135Y-101095355D02*
X156112516Y-101000117D01*
X155541088Y-101428688D02*
X155493468Y-101333450D01*
X155493468Y-101333450D02*
X155493468Y-101095355D01*
X155493468Y-101095355D02*
X155541088Y-101000117D01*
X155541088Y-101000117D02*
X155636326Y-100952498D01*
X155636326Y-100952498D02*
X155731564Y-100952498D01*
X155731564Y-100952498D02*
X155826802Y-101000117D01*
X155826802Y-101000117D02*
X155874421Y-101095355D01*
X155874421Y-101095355D02*
X155874421Y-101333450D01*
X155874421Y-101333450D02*
X155922040Y-101428688D01*
X155493468Y-101904879D02*
X156160135Y-101904879D01*
X156493468Y-101904879D02*
X156445849Y-101857260D01*
X156445849Y-101857260D02*
X156398230Y-101904879D01*
X156398230Y-101904879D02*
X156445849Y-101952498D01*
X156445849Y-101952498D02*
X156493468Y-101904879D01*
X156493468Y-101904879D02*
X156398230Y-101904879D01*
X156160135Y-102381069D02*
X155493468Y-102381069D01*
X156064897Y-102381069D02*
X156112516Y-102428688D01*
X156112516Y-102428688D02*
X156160135Y-102523926D01*
X156160135Y-102523926D02*
X156160135Y-102666783D01*
X156160135Y-102666783D02*
X156112516Y-102762021D01*
X156112516Y-102762021D02*
X156017278Y-102809640D01*
X156017278Y-102809640D02*
X155493468Y-102809640D01*
X153883524Y-84428684D02*
X154883524Y-84428684D01*
X154883524Y-84428684D02*
X154883524Y-84666779D01*
X154883524Y-84666779D02*
X154835905Y-84809636D01*
X154835905Y-84809636D02*
X154740667Y-84904874D01*
X154740667Y-84904874D02*
X154645429Y-84952493D01*
X154645429Y-84952493D02*
X154454953Y-85000112D01*
X154454953Y-85000112D02*
X154312096Y-85000112D01*
X154312096Y-85000112D02*
X154121620Y-84952493D01*
X154121620Y-84952493D02*
X154026382Y-84904874D01*
X154026382Y-84904874D02*
X153931144Y-84809636D01*
X153931144Y-84809636D02*
X153883524Y-84666779D01*
X153883524Y-84666779D02*
X153883524Y-84428684D01*
X153931144Y-85809636D02*
X153883524Y-85714398D01*
X153883524Y-85714398D02*
X153883524Y-85523922D01*
X153883524Y-85523922D02*
X153931144Y-85428684D01*
X153931144Y-85428684D02*
X154026382Y-85381065D01*
X154026382Y-85381065D02*
X154407334Y-85381065D01*
X154407334Y-85381065D02*
X154502572Y-85428684D01*
X154502572Y-85428684D02*
X154550191Y-85523922D01*
X154550191Y-85523922D02*
X154550191Y-85714398D01*
X154550191Y-85714398D02*
X154502572Y-85809636D01*
X154502572Y-85809636D02*
X154407334Y-85857255D01*
X154407334Y-85857255D02*
X154312096Y-85857255D01*
X154312096Y-85857255D02*
X154216858Y-85381065D01*
X153931144Y-86238208D02*
X153883524Y-86333446D01*
X153883524Y-86333446D02*
X153883524Y-86523922D01*
X153883524Y-86523922D02*
X153931144Y-86619160D01*
X153931144Y-86619160D02*
X154026382Y-86666779D01*
X154026382Y-86666779D02*
X154074001Y-86666779D01*
X154074001Y-86666779D02*
X154169239Y-86619160D01*
X154169239Y-86619160D02*
X154216858Y-86523922D01*
X154216858Y-86523922D02*
X154216858Y-86381065D01*
X154216858Y-86381065D02*
X154264477Y-86285827D01*
X154264477Y-86285827D02*
X154359715Y-86238208D01*
X154359715Y-86238208D02*
X154407334Y-86238208D01*
X154407334Y-86238208D02*
X154502572Y-86285827D01*
X154502572Y-86285827D02*
X154550191Y-86381065D01*
X154550191Y-86381065D02*
X154550191Y-86523922D01*
X154550191Y-86523922D02*
X154502572Y-86619160D01*
X153883524Y-87095351D02*
X154550191Y-87095351D01*
X154883524Y-87095351D02*
X154835905Y-87047732D01*
X154835905Y-87047732D02*
X154788286Y-87095351D01*
X154788286Y-87095351D02*
X154835905Y-87142970D01*
X154835905Y-87142970D02*
X154883524Y-87095351D01*
X154883524Y-87095351D02*
X154788286Y-87095351D01*
X154550191Y-88000112D02*
X153740667Y-88000112D01*
X153740667Y-88000112D02*
X153645429Y-87952493D01*
X153645429Y-87952493D02*
X153597810Y-87904874D01*
X153597810Y-87904874D02*
X153550191Y-87809636D01*
X153550191Y-87809636D02*
X153550191Y-87666779D01*
X153550191Y-87666779D02*
X153597810Y-87571541D01*
X153931144Y-88000112D02*
X153883524Y-87904874D01*
X153883524Y-87904874D02*
X153883524Y-87714398D01*
X153883524Y-87714398D02*
X153931144Y-87619160D01*
X153931144Y-87619160D02*
X153978763Y-87571541D01*
X153978763Y-87571541D02*
X154074001Y-87523922D01*
X154074001Y-87523922D02*
X154359715Y-87523922D01*
X154359715Y-87523922D02*
X154454953Y-87571541D01*
X154454953Y-87571541D02*
X154502572Y-87619160D01*
X154502572Y-87619160D02*
X154550191Y-87714398D01*
X154550191Y-87714398D02*
X154550191Y-87904874D01*
X154550191Y-87904874D02*
X154502572Y-88000112D01*
X154550191Y-88476303D02*
X153883524Y-88476303D01*
X154454953Y-88476303D02*
X154502572Y-88523922D01*
X154502572Y-88523922D02*
X154550191Y-88619160D01*
X154550191Y-88619160D02*
X154550191Y-88762017D01*
X154550191Y-88762017D02*
X154502572Y-88857255D01*
X154502572Y-88857255D02*
X154407334Y-88904874D01*
X154407334Y-88904874D02*
X153883524Y-88904874D01*
X153883524Y-90142970D02*
X154883524Y-90142970D01*
X154502572Y-90142970D02*
X154550191Y-90238208D01*
X154550191Y-90238208D02*
X154550191Y-90428684D01*
X154550191Y-90428684D02*
X154502572Y-90523922D01*
X154502572Y-90523922D02*
X154454953Y-90571541D01*
X154454953Y-90571541D02*
X154359715Y-90619160D01*
X154359715Y-90619160D02*
X154074001Y-90619160D01*
X154074001Y-90619160D02*
X153978763Y-90571541D01*
X153978763Y-90571541D02*
X153931144Y-90523922D01*
X153931144Y-90523922D02*
X153883524Y-90428684D01*
X153883524Y-90428684D02*
X153883524Y-90238208D01*
X153883524Y-90238208D02*
X153931144Y-90142970D01*
X154550191Y-90952494D02*
X153883524Y-91190589D01*
X154550191Y-91428684D02*
X153883524Y-91190589D01*
X153883524Y-91190589D02*
X153645429Y-91095351D01*
X153645429Y-91095351D02*
X153597810Y-91047732D01*
X153597810Y-91047732D02*
X153550191Y-90952494D01*
X153883524Y-92571542D02*
X154883524Y-92571542D01*
X154883524Y-92571542D02*
X153883524Y-93142970D01*
X153883524Y-93142970D02*
X154883524Y-93142970D01*
X153883524Y-93619161D02*
X154550191Y-93619161D01*
X154883524Y-93619161D02*
X154835905Y-93571542D01*
X154835905Y-93571542D02*
X154788286Y-93619161D01*
X154788286Y-93619161D02*
X154835905Y-93666780D01*
X154835905Y-93666780D02*
X154883524Y-93619161D01*
X154883524Y-93619161D02*
X154788286Y-93619161D01*
X153931144Y-94523922D02*
X153883524Y-94428684D01*
X153883524Y-94428684D02*
X153883524Y-94238208D01*
X153883524Y-94238208D02*
X153931144Y-94142970D01*
X153931144Y-94142970D02*
X153978763Y-94095351D01*
X153978763Y-94095351D02*
X154074001Y-94047732D01*
X154074001Y-94047732D02*
X154359715Y-94047732D01*
X154359715Y-94047732D02*
X154454953Y-94095351D01*
X154454953Y-94095351D02*
X154502572Y-94142970D01*
X154502572Y-94142970D02*
X154550191Y-94238208D01*
X154550191Y-94238208D02*
X154550191Y-94428684D01*
X154550191Y-94428684D02*
X154502572Y-94523922D01*
X153883524Y-94952494D02*
X154883524Y-94952494D01*
X154264477Y-95047732D02*
X153883524Y-95333446D01*
X154550191Y-95333446D02*
X154169239Y-94952494D01*
X153883524Y-97000113D02*
X153883524Y-96523923D01*
X153883524Y-96523923D02*
X154883524Y-96523923D01*
X153931144Y-97714399D02*
X153883524Y-97619161D01*
X153883524Y-97619161D02*
X153883524Y-97428685D01*
X153883524Y-97428685D02*
X153931144Y-97333447D01*
X153931144Y-97333447D02*
X154026382Y-97285828D01*
X154026382Y-97285828D02*
X154407334Y-97285828D01*
X154407334Y-97285828D02*
X154502572Y-97333447D01*
X154502572Y-97333447D02*
X154550191Y-97428685D01*
X154550191Y-97428685D02*
X154550191Y-97619161D01*
X154550191Y-97619161D02*
X154502572Y-97714399D01*
X154502572Y-97714399D02*
X154407334Y-97762018D01*
X154407334Y-97762018D02*
X154312096Y-97762018D01*
X154312096Y-97762018D02*
X154216858Y-97285828D01*
X153931144Y-98571542D02*
X153883524Y-98476304D01*
X153883524Y-98476304D02*
X153883524Y-98285828D01*
X153883524Y-98285828D02*
X153931144Y-98190590D01*
X153931144Y-98190590D02*
X154026382Y-98142971D01*
X154026382Y-98142971D02*
X154407334Y-98142971D01*
X154407334Y-98142971D02*
X154502572Y-98190590D01*
X154502572Y-98190590D02*
X154550191Y-98285828D01*
X154550191Y-98285828D02*
X154550191Y-98476304D01*
X154550191Y-98476304D02*
X154502572Y-98571542D01*
X154502572Y-98571542D02*
X154407334Y-98619161D01*
X154407334Y-98619161D02*
X154312096Y-98619161D01*
X154312096Y-98619161D02*
X154216858Y-98142971D01*
X153273580Y-84857255D02*
X153273580Y-84666779D01*
X153273580Y-84666779D02*
X153225961Y-84571541D01*
X153225961Y-84571541D02*
X153178342Y-84523922D01*
X153178342Y-84523922D02*
X153035485Y-84428684D01*
X153035485Y-84428684D02*
X152845009Y-84381065D01*
X152845009Y-84381065D02*
X152464057Y-84381065D01*
X152464057Y-84381065D02*
X152368819Y-84428684D01*
X152368819Y-84428684D02*
X152321200Y-84476303D01*
X152321200Y-84476303D02*
X152273580Y-84571541D01*
X152273580Y-84571541D02*
X152273580Y-84762017D01*
X152273580Y-84762017D02*
X152321200Y-84857255D01*
X152321200Y-84857255D02*
X152368819Y-84904874D01*
X152368819Y-84904874D02*
X152464057Y-84952493D01*
X152464057Y-84952493D02*
X152702152Y-84952493D01*
X152702152Y-84952493D02*
X152797390Y-84904874D01*
X152797390Y-84904874D02*
X152845009Y-84857255D01*
X152845009Y-84857255D02*
X152892628Y-84762017D01*
X152892628Y-84762017D02*
X152892628Y-84571541D01*
X152892628Y-84571541D02*
X152845009Y-84476303D01*
X152845009Y-84476303D02*
X152797390Y-84428684D01*
X152797390Y-84428684D02*
X152702152Y-84381065D01*
X153321200Y-86095350D02*
X152035485Y-85238208D01*
X153273580Y-86333446D02*
X153273580Y-87000112D01*
X153273580Y-87000112D02*
X152273580Y-86571541D01*
X153321200Y-88095350D02*
X152035485Y-87238208D01*
X153178342Y-88381065D02*
X153225961Y-88428684D01*
X153225961Y-88428684D02*
X153273580Y-88523922D01*
X153273580Y-88523922D02*
X153273580Y-88762017D01*
X153273580Y-88762017D02*
X153225961Y-88857255D01*
X153225961Y-88857255D02*
X153178342Y-88904874D01*
X153178342Y-88904874D02*
X153083104Y-88952493D01*
X153083104Y-88952493D02*
X152987866Y-88952493D01*
X152987866Y-88952493D02*
X152845009Y-88904874D01*
X152845009Y-88904874D02*
X152273580Y-88333446D01*
X152273580Y-88333446D02*
X152273580Y-88952493D01*
X153273580Y-89809636D02*
X153273580Y-89619160D01*
X153273580Y-89619160D02*
X153225961Y-89523922D01*
X153225961Y-89523922D02*
X153178342Y-89476303D01*
X153178342Y-89476303D02*
X153035485Y-89381065D01*
X153035485Y-89381065D02*
X152845009Y-89333446D01*
X152845009Y-89333446D02*
X152464057Y-89333446D01*
X152464057Y-89333446D02*
X152368819Y-89381065D01*
X152368819Y-89381065D02*
X152321200Y-89428684D01*
X152321200Y-89428684D02*
X152273580Y-89523922D01*
X152273580Y-89523922D02*
X152273580Y-89714398D01*
X152273580Y-89714398D02*
X152321200Y-89809636D01*
X152321200Y-89809636D02*
X152368819Y-89857255D01*
X152368819Y-89857255D02*
X152464057Y-89904874D01*
X152464057Y-89904874D02*
X152702152Y-89904874D01*
X152702152Y-89904874D02*
X152797390Y-89857255D01*
X152797390Y-89857255D02*
X152845009Y-89809636D01*
X152845009Y-89809636D02*
X152892628Y-89714398D01*
X152892628Y-89714398D02*
X152892628Y-89523922D01*
X152892628Y-89523922D02*
X152845009Y-89428684D01*
X152845009Y-89428684D02*
X152797390Y-89381065D01*
X152797390Y-89381065D02*
X152702152Y-89333446D01*
D11*
X164900001Y-77683638D02*
X164804763Y-77636019D01*
X164804763Y-77636019D02*
X164661906Y-77636019D01*
X164661906Y-77636019D02*
X164519049Y-77683638D01*
X164519049Y-77683638D02*
X164423811Y-77778876D01*
X164423811Y-77778876D02*
X164376192Y-77874114D01*
X164376192Y-77874114D02*
X164328573Y-78064590D01*
X164328573Y-78064590D02*
X164328573Y-78207447D01*
X164328573Y-78207447D02*
X164376192Y-78397923D01*
X164376192Y-78397923D02*
X164423811Y-78493161D01*
X164423811Y-78493161D02*
X164519049Y-78588400D01*
X164519049Y-78588400D02*
X164661906Y-78636019D01*
X164661906Y-78636019D02*
X164757144Y-78636019D01*
X164757144Y-78636019D02*
X164900001Y-78588400D01*
X164900001Y-78588400D02*
X164947620Y-78540780D01*
X164947620Y-78540780D02*
X164947620Y-78207447D01*
X164947620Y-78207447D02*
X164757144Y-78207447D01*
X165376192Y-78636019D02*
X165376192Y-77636019D01*
X165376192Y-77636019D02*
X165947620Y-78636019D01*
X165947620Y-78636019D02*
X165947620Y-77636019D01*
X166423811Y-78636019D02*
X166423811Y-77636019D01*
X166423811Y-77636019D02*
X166661906Y-77636019D01*
X166661906Y-77636019D02*
X166804763Y-77683638D01*
X166804763Y-77683638D02*
X166900001Y-77778876D01*
X166900001Y-77778876D02*
X166947620Y-77874114D01*
X166947620Y-77874114D02*
X166995239Y-78064590D01*
X166995239Y-78064590D02*
X166995239Y-78207447D01*
X166995239Y-78207447D02*
X166947620Y-78397923D01*
X166947620Y-78397923D02*
X166900001Y-78493161D01*
X166900001Y-78493161D02*
X166804763Y-78588400D01*
X166804763Y-78588400D02*
X166661906Y-78636019D01*
X166661906Y-78636019D02*
X166423811Y-78636019D01*
X148252742Y-101553180D02*
X148205123Y-101600800D01*
X148205123Y-101600800D02*
X148062266Y-101648419D01*
X148062266Y-101648419D02*
X147967028Y-101648419D01*
X147967028Y-101648419D02*
X147824171Y-101600800D01*
X147824171Y-101600800D02*
X147728933Y-101505561D01*
X147728933Y-101505561D02*
X147681314Y-101410323D01*
X147681314Y-101410323D02*
X147633695Y-101219847D01*
X147633695Y-101219847D02*
X147633695Y-101076990D01*
X147633695Y-101076990D02*
X147681314Y-100886514D01*
X147681314Y-100886514D02*
X147728933Y-100791276D01*
X147728933Y-100791276D02*
X147824171Y-100696038D01*
X147824171Y-100696038D02*
X147967028Y-100648419D01*
X147967028Y-100648419D02*
X148062266Y-100648419D01*
X148062266Y-100648419D02*
X148205123Y-100696038D01*
X148205123Y-100696038D02*
X148252742Y-100743657D01*
X149205123Y-101648419D02*
X148633695Y-101648419D01*
X148919409Y-101648419D02*
X148919409Y-100648419D01*
X148919409Y-100648419D02*
X148824171Y-100791276D01*
X148824171Y-100791276D02*
X148728933Y-100886514D01*
X148728933Y-100886514D02*
X148633695Y-100934133D01*
X149586076Y-100743657D02*
X149633695Y-100696038D01*
X149633695Y-100696038D02*
X149728933Y-100648419D01*
X149728933Y-100648419D02*
X149967028Y-100648419D01*
X149967028Y-100648419D02*
X150062266Y-100696038D01*
X150062266Y-100696038D02*
X150109885Y-100743657D01*
X150109885Y-100743657D02*
X150157504Y-100838895D01*
X150157504Y-100838895D02*
X150157504Y-100934133D01*
X150157504Y-100934133D02*
X150109885Y-101076990D01*
X150109885Y-101076990D02*
X149538457Y-101648419D01*
X149538457Y-101648419D02*
X150157504Y-101648419D01*
X144119695Y-102720719D02*
X144119695Y-103530242D01*
X144119695Y-103530242D02*
X144167314Y-103625480D01*
X144167314Y-103625480D02*
X144214933Y-103673100D01*
X144214933Y-103673100D02*
X144310171Y-103720719D01*
X144310171Y-103720719D02*
X144500647Y-103720719D01*
X144500647Y-103720719D02*
X144595885Y-103673100D01*
X144595885Y-103673100D02*
X144643504Y-103625480D01*
X144643504Y-103625480D02*
X144691123Y-103530242D01*
X144691123Y-103530242D02*
X144691123Y-102720719D01*
X145643504Y-102720719D02*
X145167314Y-102720719D01*
X145167314Y-102720719D02*
X145119695Y-103196909D01*
X145119695Y-103196909D02*
X145167314Y-103149290D01*
X145167314Y-103149290D02*
X145262552Y-103101671D01*
X145262552Y-103101671D02*
X145500647Y-103101671D01*
X145500647Y-103101671D02*
X145595885Y-103149290D01*
X145595885Y-103149290D02*
X145643504Y-103196909D01*
X145643504Y-103196909D02*
X145691123Y-103292147D01*
X145691123Y-103292147D02*
X145691123Y-103530242D01*
X145691123Y-103530242D02*
X145643504Y-103625480D01*
X145643504Y-103625480D02*
X145595885Y-103673100D01*
X145595885Y-103673100D02*
X145500647Y-103720719D01*
X145500647Y-103720719D02*
X145262552Y-103720719D01*
X145262552Y-103720719D02*
X145167314Y-103673100D01*
X145167314Y-103673100D02*
X145119695Y-103625480D01*
X163662001Y-80684019D02*
X163471525Y-80684019D01*
X163471525Y-80684019D02*
X163376287Y-80731638D01*
X163376287Y-80731638D02*
X163328668Y-80779257D01*
X163328668Y-80779257D02*
X163233430Y-80922114D01*
X163233430Y-80922114D02*
X163185811Y-81112590D01*
X163185811Y-81112590D02*
X163185811Y-81493542D01*
X163185811Y-81493542D02*
X163233430Y-81588780D01*
X163233430Y-81588780D02*
X163281049Y-81636400D01*
X163281049Y-81636400D02*
X163376287Y-81684019D01*
X163376287Y-81684019D02*
X163566763Y-81684019D01*
X163566763Y-81684019D02*
X163662001Y-81636400D01*
X163662001Y-81636400D02*
X163709620Y-81588780D01*
X163709620Y-81588780D02*
X163757239Y-81493542D01*
X163757239Y-81493542D02*
X163757239Y-81255447D01*
X163757239Y-81255447D02*
X163709620Y-81160209D01*
X163709620Y-81160209D02*
X163662001Y-81112590D01*
X163662001Y-81112590D02*
X163566763Y-81064971D01*
X163566763Y-81064971D02*
X163376287Y-81064971D01*
X163376287Y-81064971D02*
X163281049Y-81112590D01*
X163281049Y-81112590D02*
X163233430Y-81160209D01*
X163233430Y-81160209D02*
X163185811Y-81255447D01*
X164185811Y-81303066D02*
X164947716Y-81303066D01*
X165947715Y-81684019D02*
X165376287Y-81684019D01*
X165662001Y-81684019D02*
X165662001Y-80684019D01*
X165662001Y-80684019D02*
X165566763Y-80826876D01*
X165566763Y-80826876D02*
X165471525Y-80922114D01*
X165471525Y-80922114D02*
X165376287Y-80969733D01*
X166519144Y-81112590D02*
X166423906Y-81064971D01*
X166423906Y-81064971D02*
X166376287Y-81017352D01*
X166376287Y-81017352D02*
X166328668Y-80922114D01*
X166328668Y-80922114D02*
X166328668Y-80874495D01*
X166328668Y-80874495D02*
X166376287Y-80779257D01*
X166376287Y-80779257D02*
X166423906Y-80731638D01*
X166423906Y-80731638D02*
X166519144Y-80684019D01*
X166519144Y-80684019D02*
X166709620Y-80684019D01*
X166709620Y-80684019D02*
X166804858Y-80731638D01*
X166804858Y-80731638D02*
X166852477Y-80779257D01*
X166852477Y-80779257D02*
X166900096Y-80874495D01*
X166900096Y-80874495D02*
X166900096Y-80922114D01*
X166900096Y-80922114D02*
X166852477Y-81017352D01*
X166852477Y-81017352D02*
X166804858Y-81064971D01*
X166804858Y-81064971D02*
X166709620Y-81112590D01*
X166709620Y-81112590D02*
X166519144Y-81112590D01*
X166519144Y-81112590D02*
X166423906Y-81160209D01*
X166423906Y-81160209D02*
X166376287Y-81207828D01*
X166376287Y-81207828D02*
X166328668Y-81303066D01*
X166328668Y-81303066D02*
X166328668Y-81493542D01*
X166328668Y-81493542D02*
X166376287Y-81588780D01*
X166376287Y-81588780D02*
X166423906Y-81636400D01*
X166423906Y-81636400D02*
X166519144Y-81684019D01*
X166519144Y-81684019D02*
X166709620Y-81684019D01*
X166709620Y-81684019D02*
X166804858Y-81636400D01*
X166804858Y-81636400D02*
X166852477Y-81588780D01*
X166852477Y-81588780D02*
X166900096Y-81493542D01*
X166900096Y-81493542D02*
X166900096Y-81303066D01*
X166900096Y-81303066D02*
X166852477Y-81207828D01*
X166852477Y-81207828D02*
X166804858Y-81160209D01*
X166804858Y-81160209D02*
X166709620Y-81112590D01*
X167185811Y-80684019D02*
X167519144Y-81684019D01*
X167519144Y-81684019D02*
X167852477Y-80684019D01*
D10*
X138219019Y-81765733D02*
X138933304Y-81765733D01*
X138933304Y-81765733D02*
X139076161Y-81813352D01*
X139076161Y-81813352D02*
X139171400Y-81908590D01*
X139171400Y-81908590D02*
X139219019Y-82051447D01*
X139219019Y-82051447D02*
X139219019Y-82146685D01*
X139219019Y-80765733D02*
X139219019Y-81337161D01*
X139219019Y-81051447D02*
X138219019Y-81051447D01*
X138219019Y-81051447D02*
X138361876Y-81146685D01*
X138361876Y-81146685D02*
X138457114Y-81241923D01*
X138457114Y-81241923D02*
X138504733Y-81337161D01*
D11*
X140428742Y-108641619D02*
X140095409Y-108165428D01*
X139857314Y-108641619D02*
X139857314Y-107641619D01*
X139857314Y-107641619D02*
X140238266Y-107641619D01*
X140238266Y-107641619D02*
X140333504Y-107689238D01*
X140333504Y-107689238D02*
X140381123Y-107736857D01*
X140381123Y-107736857D02*
X140428742Y-107832095D01*
X140428742Y-107832095D02*
X140428742Y-107974952D01*
X140428742Y-107974952D02*
X140381123Y-108070190D01*
X140381123Y-108070190D02*
X140333504Y-108117809D01*
X140333504Y-108117809D02*
X140238266Y-108165428D01*
X140238266Y-108165428D02*
X139857314Y-108165428D01*
X140809695Y-107736857D02*
X140857314Y-107689238D01*
X140857314Y-107689238D02*
X140952552Y-107641619D01*
X140952552Y-107641619D02*
X141190647Y-107641619D01*
X141190647Y-107641619D02*
X141285885Y-107689238D01*
X141285885Y-107689238D02*
X141333504Y-107736857D01*
X141333504Y-107736857D02*
X141381123Y-107832095D01*
X141381123Y-107832095D02*
X141381123Y-107927333D01*
X141381123Y-107927333D02*
X141333504Y-108070190D01*
X141333504Y-108070190D02*
X140762076Y-108641619D01*
X140762076Y-108641619D02*
X141381123Y-108641619D01*
X142238266Y-107641619D02*
X142047790Y-107641619D01*
X142047790Y-107641619D02*
X141952552Y-107689238D01*
X141952552Y-107689238D02*
X141904933Y-107736857D01*
X141904933Y-107736857D02*
X141809695Y-107879714D01*
X141809695Y-107879714D02*
X141762076Y-108070190D01*
X141762076Y-108070190D02*
X141762076Y-108451142D01*
X141762076Y-108451142D02*
X141809695Y-108546380D01*
X141809695Y-108546380D02*
X141857314Y-108594000D01*
X141857314Y-108594000D02*
X141952552Y-108641619D01*
X141952552Y-108641619D02*
X142143028Y-108641619D01*
X142143028Y-108641619D02*
X142238266Y-108594000D01*
X142238266Y-108594000D02*
X142285885Y-108546380D01*
X142285885Y-108546380D02*
X142333504Y-108451142D01*
X142333504Y-108451142D02*
X142333504Y-108213047D01*
X142333504Y-108213047D02*
X142285885Y-108117809D01*
X142285885Y-108117809D02*
X142238266Y-108070190D01*
X142238266Y-108070190D02*
X142143028Y-108022571D01*
X142143028Y-108022571D02*
X141952552Y-108022571D01*
X141952552Y-108022571D02*
X141857314Y-108070190D01*
X141857314Y-108070190D02*
X141809695Y-108117809D01*
X141809695Y-108117809D02*
X141762076Y-108213047D01*
X140530342Y-100182819D02*
X140197009Y-99706628D01*
X139958914Y-100182819D02*
X139958914Y-99182819D01*
X139958914Y-99182819D02*
X140339866Y-99182819D01*
X140339866Y-99182819D02*
X140435104Y-99230438D01*
X140435104Y-99230438D02*
X140482723Y-99278057D01*
X140482723Y-99278057D02*
X140530342Y-99373295D01*
X140530342Y-99373295D02*
X140530342Y-99516152D01*
X140530342Y-99516152D02*
X140482723Y-99611390D01*
X140482723Y-99611390D02*
X140435104Y-99659009D01*
X140435104Y-99659009D02*
X140339866Y-99706628D01*
X140339866Y-99706628D02*
X139958914Y-99706628D01*
X141482723Y-100182819D02*
X140911295Y-100182819D01*
X141197009Y-100182819D02*
X141197009Y-99182819D01*
X141197009Y-99182819D02*
X141101771Y-99325676D01*
X141101771Y-99325676D02*
X141006533Y-99420914D01*
X141006533Y-99420914D02*
X140911295Y-99468533D01*
X142054152Y-99611390D02*
X141958914Y-99563771D01*
X141958914Y-99563771D02*
X141911295Y-99516152D01*
X141911295Y-99516152D02*
X141863676Y-99420914D01*
X141863676Y-99420914D02*
X141863676Y-99373295D01*
X141863676Y-99373295D02*
X141911295Y-99278057D01*
X141911295Y-99278057D02*
X141958914Y-99230438D01*
X141958914Y-99230438D02*
X142054152Y-99182819D01*
X142054152Y-99182819D02*
X142244628Y-99182819D01*
X142244628Y-99182819D02*
X142339866Y-99230438D01*
X142339866Y-99230438D02*
X142387485Y-99278057D01*
X142387485Y-99278057D02*
X142435104Y-99373295D01*
X142435104Y-99373295D02*
X142435104Y-99420914D01*
X142435104Y-99420914D02*
X142387485Y-99516152D01*
X142387485Y-99516152D02*
X142339866Y-99563771D01*
X142339866Y-99563771D02*
X142244628Y-99611390D01*
X142244628Y-99611390D02*
X142054152Y-99611390D01*
X142054152Y-99611390D02*
X141958914Y-99659009D01*
X141958914Y-99659009D02*
X141911295Y-99706628D01*
X141911295Y-99706628D02*
X141863676Y-99801866D01*
X141863676Y-99801866D02*
X141863676Y-99992342D01*
X141863676Y-99992342D02*
X141911295Y-100087580D01*
X141911295Y-100087580D02*
X141958914Y-100135200D01*
X141958914Y-100135200D02*
X142054152Y-100182819D01*
X142054152Y-100182819D02*
X142244628Y-100182819D01*
X142244628Y-100182819D02*
X142339866Y-100135200D01*
X142339866Y-100135200D02*
X142387485Y-100087580D01*
X142387485Y-100087580D02*
X142435104Y-99992342D01*
X142435104Y-99992342D02*
X142435104Y-99801866D01*
X142435104Y-99801866D02*
X142387485Y-99706628D01*
X142387485Y-99706628D02*
X142339866Y-99659009D01*
X142339866Y-99659009D02*
X142244628Y-99611390D01*
X140718942Y-87170419D02*
X140385609Y-86694228D01*
X140147514Y-87170419D02*
X140147514Y-86170419D01*
X140147514Y-86170419D02*
X140528466Y-86170419D01*
X140528466Y-86170419D02*
X140623704Y-86218038D01*
X140623704Y-86218038D02*
X140671323Y-86265657D01*
X140671323Y-86265657D02*
X140718942Y-86360895D01*
X140718942Y-86360895D02*
X140718942Y-86503752D01*
X140718942Y-86503752D02*
X140671323Y-86598990D01*
X140671323Y-86598990D02*
X140623704Y-86646609D01*
X140623704Y-86646609D02*
X140528466Y-86694228D01*
X140528466Y-86694228D02*
X140147514Y-86694228D01*
X141671323Y-87170419D02*
X141099895Y-87170419D01*
X141385609Y-87170419D02*
X141385609Y-86170419D01*
X141385609Y-86170419D02*
X141290371Y-86313276D01*
X141290371Y-86313276D02*
X141195133Y-86408514D01*
X141195133Y-86408514D02*
X141099895Y-86456133D01*
X142623704Y-87170419D02*
X142052276Y-87170419D01*
X142337990Y-87170419D02*
X142337990Y-86170419D01*
X142337990Y-86170419D02*
X142242752Y-86313276D01*
X142242752Y-86313276D02*
X142147514Y-86408514D01*
X142147514Y-86408514D02*
X142052276Y-86456133D01*
X148253542Y-100124419D02*
X147920209Y-99648228D01*
X147682114Y-100124419D02*
X147682114Y-99124419D01*
X147682114Y-99124419D02*
X148063066Y-99124419D01*
X148063066Y-99124419D02*
X148158304Y-99172038D01*
X148158304Y-99172038D02*
X148205923Y-99219657D01*
X148205923Y-99219657D02*
X148253542Y-99314895D01*
X148253542Y-99314895D02*
X148253542Y-99457752D01*
X148253542Y-99457752D02*
X148205923Y-99552990D01*
X148205923Y-99552990D02*
X148158304Y-99600609D01*
X148158304Y-99600609D02*
X148063066Y-99648228D01*
X148063066Y-99648228D02*
X147682114Y-99648228D01*
X148634495Y-99219657D02*
X148682114Y-99172038D01*
X148682114Y-99172038D02*
X148777352Y-99124419D01*
X148777352Y-99124419D02*
X149015447Y-99124419D01*
X149015447Y-99124419D02*
X149110685Y-99172038D01*
X149110685Y-99172038D02*
X149158304Y-99219657D01*
X149158304Y-99219657D02*
X149205923Y-99314895D01*
X149205923Y-99314895D02*
X149205923Y-99410133D01*
X149205923Y-99410133D02*
X149158304Y-99552990D01*
X149158304Y-99552990D02*
X148586876Y-100124419D01*
X148586876Y-100124419D02*
X149205923Y-100124419D01*
X150063066Y-99457752D02*
X150063066Y-100124419D01*
X149824971Y-99076800D02*
X149586876Y-99791085D01*
X149586876Y-99791085D02*
X150205923Y-99791085D01*
X150995142Y-107039580D02*
X150947523Y-107087200D01*
X150947523Y-107087200D02*
X150804666Y-107134819D01*
X150804666Y-107134819D02*
X150709428Y-107134819D01*
X150709428Y-107134819D02*
X150566571Y-107087200D01*
X150566571Y-107087200D02*
X150471333Y-106991961D01*
X150471333Y-106991961D02*
X150423714Y-106896723D01*
X150423714Y-106896723D02*
X150376095Y-106706247D01*
X150376095Y-106706247D02*
X150376095Y-106563390D01*
X150376095Y-106563390D02*
X150423714Y-106372914D01*
X150423714Y-106372914D02*
X150471333Y-106277676D01*
X150471333Y-106277676D02*
X150566571Y-106182438D01*
X150566571Y-106182438D02*
X150709428Y-106134819D01*
X150709428Y-106134819D02*
X150804666Y-106134819D01*
X150804666Y-106134819D02*
X150947523Y-106182438D01*
X150947523Y-106182438D02*
X150995142Y-106230057D01*
X151947523Y-107134819D02*
X151376095Y-107134819D01*
X151661809Y-107134819D02*
X151661809Y-106134819D01*
X151661809Y-106134819D02*
X151566571Y-106277676D01*
X151566571Y-106277676D02*
X151471333Y-106372914D01*
X151471333Y-106372914D02*
X151376095Y-106420533D01*
X152804666Y-106134819D02*
X152614190Y-106134819D01*
X152614190Y-106134819D02*
X152518952Y-106182438D01*
X152518952Y-106182438D02*
X152471333Y-106230057D01*
X152471333Y-106230057D02*
X152376095Y-106372914D01*
X152376095Y-106372914D02*
X152328476Y-106563390D01*
X152328476Y-106563390D02*
X152328476Y-106944342D01*
X152328476Y-106944342D02*
X152376095Y-107039580D01*
X152376095Y-107039580D02*
X152423714Y-107087200D01*
X152423714Y-107087200D02*
X152518952Y-107134819D01*
X152518952Y-107134819D02*
X152709428Y-107134819D01*
X152709428Y-107134819D02*
X152804666Y-107087200D01*
X152804666Y-107087200D02*
X152852285Y-107039580D01*
X152852285Y-107039580D02*
X152899904Y-106944342D01*
X152899904Y-106944342D02*
X152899904Y-106706247D01*
X152899904Y-106706247D02*
X152852285Y-106611009D01*
X152852285Y-106611009D02*
X152804666Y-106563390D01*
X152804666Y-106563390D02*
X152709428Y-106515771D01*
X152709428Y-106515771D02*
X152518952Y-106515771D01*
X152518952Y-106515771D02*
X152423714Y-106563390D01*
X152423714Y-106563390D02*
X152376095Y-106611009D01*
X152376095Y-106611009D02*
X152328476Y-106706247D01*
D10*
X138280619Y-106226533D02*
X138994904Y-106226533D01*
X138994904Y-106226533D02*
X139137761Y-106274152D01*
X139137761Y-106274152D02*
X139233000Y-106369390D01*
X139233000Y-106369390D02*
X139280619Y-106512247D01*
X139280619Y-106512247D02*
X139280619Y-106607485D01*
X138613952Y-105321771D02*
X139280619Y-105321771D01*
X138233000Y-105559866D02*
X138947285Y-105797961D01*
X138947285Y-105797961D02*
X138947285Y-105178914D01*
D11*
X162831542Y-100530819D02*
X162498209Y-100054628D01*
X162260114Y-100530819D02*
X162260114Y-99530819D01*
X162260114Y-99530819D02*
X162641066Y-99530819D01*
X162641066Y-99530819D02*
X162736304Y-99578438D01*
X162736304Y-99578438D02*
X162783923Y-99626057D01*
X162783923Y-99626057D02*
X162831542Y-99721295D01*
X162831542Y-99721295D02*
X162831542Y-99864152D01*
X162831542Y-99864152D02*
X162783923Y-99959390D01*
X162783923Y-99959390D02*
X162736304Y-100007009D01*
X162736304Y-100007009D02*
X162641066Y-100054628D01*
X162641066Y-100054628D02*
X162260114Y-100054628D01*
X163688685Y-99864152D02*
X163688685Y-100530819D01*
X163450590Y-99483200D02*
X163212495Y-100197485D01*
X163212495Y-100197485D02*
X163831542Y-100197485D01*
X164736304Y-100530819D02*
X164164876Y-100530819D01*
X164450590Y-100530819D02*
X164450590Y-99530819D01*
X164450590Y-99530819D02*
X164355352Y-99673676D01*
X164355352Y-99673676D02*
X164260114Y-99768914D01*
X164260114Y-99768914D02*
X164164876Y-99816533D01*
X159207295Y-77077219D02*
X159207295Y-77886742D01*
X159207295Y-77886742D02*
X159254914Y-77981980D01*
X159254914Y-77981980D02*
X159302533Y-78029600D01*
X159302533Y-78029600D02*
X159397771Y-78077219D01*
X159397771Y-78077219D02*
X159588247Y-78077219D01*
X159588247Y-78077219D02*
X159683485Y-78029600D01*
X159683485Y-78029600D02*
X159731104Y-77981980D01*
X159731104Y-77981980D02*
X159778723Y-77886742D01*
X159778723Y-77886742D02*
X159778723Y-77077219D01*
X160397771Y-77505790D02*
X160302533Y-77458171D01*
X160302533Y-77458171D02*
X160254914Y-77410552D01*
X160254914Y-77410552D02*
X160207295Y-77315314D01*
X160207295Y-77315314D02*
X160207295Y-77267695D01*
X160207295Y-77267695D02*
X160254914Y-77172457D01*
X160254914Y-77172457D02*
X160302533Y-77124838D01*
X160302533Y-77124838D02*
X160397771Y-77077219D01*
X160397771Y-77077219D02*
X160588247Y-77077219D01*
X160588247Y-77077219D02*
X160683485Y-77124838D01*
X160683485Y-77124838D02*
X160731104Y-77172457D01*
X160731104Y-77172457D02*
X160778723Y-77267695D01*
X160778723Y-77267695D02*
X160778723Y-77315314D01*
X160778723Y-77315314D02*
X160731104Y-77410552D01*
X160731104Y-77410552D02*
X160683485Y-77458171D01*
X160683485Y-77458171D02*
X160588247Y-77505790D01*
X160588247Y-77505790D02*
X160397771Y-77505790D01*
X160397771Y-77505790D02*
X160302533Y-77553409D01*
X160302533Y-77553409D02*
X160254914Y-77601028D01*
X160254914Y-77601028D02*
X160207295Y-77696266D01*
X160207295Y-77696266D02*
X160207295Y-77886742D01*
X160207295Y-77886742D02*
X160254914Y-77981980D01*
X160254914Y-77981980D02*
X160302533Y-78029600D01*
X160302533Y-78029600D02*
X160397771Y-78077219D01*
X160397771Y-78077219D02*
X160588247Y-78077219D01*
X160588247Y-78077219D02*
X160683485Y-78029600D01*
X160683485Y-78029600D02*
X160731104Y-77981980D01*
X160731104Y-77981980D02*
X160778723Y-77886742D01*
X160778723Y-77886742D02*
X160778723Y-77696266D01*
X160778723Y-77696266D02*
X160731104Y-77601028D01*
X160731104Y-77601028D02*
X160683485Y-77553409D01*
X160683485Y-77553409D02*
X160588247Y-77505790D01*
X162831542Y-103560419D02*
X162498209Y-103084228D01*
X162260114Y-103560419D02*
X162260114Y-102560419D01*
X162260114Y-102560419D02*
X162641066Y-102560419D01*
X162641066Y-102560419D02*
X162736304Y-102608038D01*
X162736304Y-102608038D02*
X162783923Y-102655657D01*
X162783923Y-102655657D02*
X162831542Y-102750895D01*
X162831542Y-102750895D02*
X162831542Y-102893752D01*
X162831542Y-102893752D02*
X162783923Y-102988990D01*
X162783923Y-102988990D02*
X162736304Y-103036609D01*
X162736304Y-103036609D02*
X162641066Y-103084228D01*
X162641066Y-103084228D02*
X162260114Y-103084228D01*
X163164876Y-102560419D02*
X163783923Y-102560419D01*
X163783923Y-102560419D02*
X163450590Y-102941371D01*
X163450590Y-102941371D02*
X163593447Y-102941371D01*
X163593447Y-102941371D02*
X163688685Y-102988990D01*
X163688685Y-102988990D02*
X163736304Y-103036609D01*
X163736304Y-103036609D02*
X163783923Y-103131847D01*
X163783923Y-103131847D02*
X163783923Y-103369942D01*
X163783923Y-103369942D02*
X163736304Y-103465180D01*
X163736304Y-103465180D02*
X163688685Y-103512800D01*
X163688685Y-103512800D02*
X163593447Y-103560419D01*
X163593447Y-103560419D02*
X163307733Y-103560419D01*
X163307733Y-103560419D02*
X163212495Y-103512800D01*
X163212495Y-103512800D02*
X163164876Y-103465180D01*
X164355352Y-102988990D02*
X164260114Y-102941371D01*
X164260114Y-102941371D02*
X164212495Y-102893752D01*
X164212495Y-102893752D02*
X164164876Y-102798514D01*
X164164876Y-102798514D02*
X164164876Y-102750895D01*
X164164876Y-102750895D02*
X164212495Y-102655657D01*
X164212495Y-102655657D02*
X164260114Y-102608038D01*
X164260114Y-102608038D02*
X164355352Y-102560419D01*
X164355352Y-102560419D02*
X164545828Y-102560419D01*
X164545828Y-102560419D02*
X164641066Y-102608038D01*
X164641066Y-102608038D02*
X164688685Y-102655657D01*
X164688685Y-102655657D02*
X164736304Y-102750895D01*
X164736304Y-102750895D02*
X164736304Y-102798514D01*
X164736304Y-102798514D02*
X164688685Y-102893752D01*
X164688685Y-102893752D02*
X164641066Y-102941371D01*
X164641066Y-102941371D02*
X164545828Y-102988990D01*
X164545828Y-102988990D02*
X164355352Y-102988990D01*
X164355352Y-102988990D02*
X164260114Y-103036609D01*
X164260114Y-103036609D02*
X164212495Y-103084228D01*
X164212495Y-103084228D02*
X164164876Y-103179466D01*
X164164876Y-103179466D02*
X164164876Y-103369942D01*
X164164876Y-103369942D02*
X164212495Y-103465180D01*
X164212495Y-103465180D02*
X164260114Y-103512800D01*
X164260114Y-103512800D02*
X164355352Y-103560419D01*
X164355352Y-103560419D02*
X164545828Y-103560419D01*
X164545828Y-103560419D02*
X164641066Y-103512800D01*
X164641066Y-103512800D02*
X164688685Y-103465180D01*
X164688685Y-103465180D02*
X164736304Y-103369942D01*
X164736304Y-103369942D02*
X164736304Y-103179466D01*
X164736304Y-103179466D02*
X164688685Y-103084228D01*
X164688685Y-103084228D02*
X164641066Y-103036609D01*
X164641066Y-103036609D02*
X164545828Y-102988990D01*
X158208742Y-84179580D02*
X158161123Y-84227200D01*
X158161123Y-84227200D02*
X158018266Y-84274819D01*
X158018266Y-84274819D02*
X157923028Y-84274819D01*
X157923028Y-84274819D02*
X157780171Y-84227200D01*
X157780171Y-84227200D02*
X157684933Y-84131961D01*
X157684933Y-84131961D02*
X157637314Y-84036723D01*
X157637314Y-84036723D02*
X157589695Y-83846247D01*
X157589695Y-83846247D02*
X157589695Y-83703390D01*
X157589695Y-83703390D02*
X157637314Y-83512914D01*
X157637314Y-83512914D02*
X157684933Y-83417676D01*
X157684933Y-83417676D02*
X157780171Y-83322438D01*
X157780171Y-83322438D02*
X157923028Y-83274819D01*
X157923028Y-83274819D02*
X158018266Y-83274819D01*
X158018266Y-83274819D02*
X158161123Y-83322438D01*
X158161123Y-83322438D02*
X158208742Y-83370057D01*
X158589695Y-83370057D02*
X158637314Y-83322438D01*
X158637314Y-83322438D02*
X158732552Y-83274819D01*
X158732552Y-83274819D02*
X158970647Y-83274819D01*
X158970647Y-83274819D02*
X159065885Y-83322438D01*
X159065885Y-83322438D02*
X159113504Y-83370057D01*
X159113504Y-83370057D02*
X159161123Y-83465295D01*
X159161123Y-83465295D02*
X159161123Y-83560533D01*
X159161123Y-83560533D02*
X159113504Y-83703390D01*
X159113504Y-83703390D02*
X158542076Y-84274819D01*
X158542076Y-84274819D02*
X159161123Y-84274819D01*
X159732552Y-83703390D02*
X159637314Y-83655771D01*
X159637314Y-83655771D02*
X159589695Y-83608152D01*
X159589695Y-83608152D02*
X159542076Y-83512914D01*
X159542076Y-83512914D02*
X159542076Y-83465295D01*
X159542076Y-83465295D02*
X159589695Y-83370057D01*
X159589695Y-83370057D02*
X159637314Y-83322438D01*
X159637314Y-83322438D02*
X159732552Y-83274819D01*
X159732552Y-83274819D02*
X159923028Y-83274819D01*
X159923028Y-83274819D02*
X160018266Y-83322438D01*
X160018266Y-83322438D02*
X160065885Y-83370057D01*
X160065885Y-83370057D02*
X160113504Y-83465295D01*
X160113504Y-83465295D02*
X160113504Y-83512914D01*
X160113504Y-83512914D02*
X160065885Y-83608152D01*
X160065885Y-83608152D02*
X160018266Y-83655771D01*
X160018266Y-83655771D02*
X159923028Y-83703390D01*
X159923028Y-83703390D02*
X159732552Y-83703390D01*
X159732552Y-83703390D02*
X159637314Y-83751009D01*
X159637314Y-83751009D02*
X159589695Y-83798628D01*
X159589695Y-83798628D02*
X159542076Y-83893866D01*
X159542076Y-83893866D02*
X159542076Y-84084342D01*
X159542076Y-84084342D02*
X159589695Y-84179580D01*
X159589695Y-84179580D02*
X159637314Y-84227200D01*
X159637314Y-84227200D02*
X159732552Y-84274819D01*
X159732552Y-84274819D02*
X159923028Y-84274819D01*
X159923028Y-84274819D02*
X160018266Y-84227200D01*
X160018266Y-84227200D02*
X160065885Y-84179580D01*
X160065885Y-84179580D02*
X160113504Y-84084342D01*
X160113504Y-84084342D02*
X160113504Y-83893866D01*
X160113504Y-83893866D02*
X160065885Y-83798628D01*
X160065885Y-83798628D02*
X160018266Y-83751009D01*
X160018266Y-83751009D02*
X159923028Y-83703390D01*
X164609542Y-92866380D02*
X164561923Y-92914000D01*
X164561923Y-92914000D02*
X164419066Y-92961619D01*
X164419066Y-92961619D02*
X164323828Y-92961619D01*
X164323828Y-92961619D02*
X164180971Y-92914000D01*
X164180971Y-92914000D02*
X164085733Y-92818761D01*
X164085733Y-92818761D02*
X164038114Y-92723523D01*
X164038114Y-92723523D02*
X163990495Y-92533047D01*
X163990495Y-92533047D02*
X163990495Y-92390190D01*
X163990495Y-92390190D02*
X164038114Y-92199714D01*
X164038114Y-92199714D02*
X164085733Y-92104476D01*
X164085733Y-92104476D02*
X164180971Y-92009238D01*
X164180971Y-92009238D02*
X164323828Y-91961619D01*
X164323828Y-91961619D02*
X164419066Y-91961619D01*
X164419066Y-91961619D02*
X164561923Y-92009238D01*
X164561923Y-92009238D02*
X164609542Y-92056857D01*
X164990495Y-92056857D02*
X165038114Y-92009238D01*
X165038114Y-92009238D02*
X165133352Y-91961619D01*
X165133352Y-91961619D02*
X165371447Y-91961619D01*
X165371447Y-91961619D02*
X165466685Y-92009238D01*
X165466685Y-92009238D02*
X165514304Y-92056857D01*
X165514304Y-92056857D02*
X165561923Y-92152095D01*
X165561923Y-92152095D02*
X165561923Y-92247333D01*
X165561923Y-92247333D02*
X165514304Y-92390190D01*
X165514304Y-92390190D02*
X164942876Y-92961619D01*
X164942876Y-92961619D02*
X165561923Y-92961619D01*
X166419066Y-92294952D02*
X166419066Y-92961619D01*
X166180971Y-91914000D02*
X165942876Y-92628285D01*
X165942876Y-92628285D02*
X166561923Y-92628285D01*
X151045942Y-105610819D02*
X150712609Y-105134628D01*
X150474514Y-105610819D02*
X150474514Y-104610819D01*
X150474514Y-104610819D02*
X150855466Y-104610819D01*
X150855466Y-104610819D02*
X150950704Y-104658438D01*
X150950704Y-104658438D02*
X150998323Y-104706057D01*
X150998323Y-104706057D02*
X151045942Y-104801295D01*
X151045942Y-104801295D02*
X151045942Y-104944152D01*
X151045942Y-104944152D02*
X150998323Y-105039390D01*
X150998323Y-105039390D02*
X150950704Y-105087009D01*
X150950704Y-105087009D02*
X150855466Y-105134628D01*
X150855466Y-105134628D02*
X150474514Y-105134628D01*
X151379276Y-104610819D02*
X151998323Y-104610819D01*
X151998323Y-104610819D02*
X151664990Y-104991771D01*
X151664990Y-104991771D02*
X151807847Y-104991771D01*
X151807847Y-104991771D02*
X151903085Y-105039390D01*
X151903085Y-105039390D02*
X151950704Y-105087009D01*
X151950704Y-105087009D02*
X151998323Y-105182247D01*
X151998323Y-105182247D02*
X151998323Y-105420342D01*
X151998323Y-105420342D02*
X151950704Y-105515580D01*
X151950704Y-105515580D02*
X151903085Y-105563200D01*
X151903085Y-105563200D02*
X151807847Y-105610819D01*
X151807847Y-105610819D02*
X151522133Y-105610819D01*
X151522133Y-105610819D02*
X151426895Y-105563200D01*
X151426895Y-105563200D02*
X151379276Y-105515580D01*
X152379276Y-104706057D02*
X152426895Y-104658438D01*
X152426895Y-104658438D02*
X152522133Y-104610819D01*
X152522133Y-104610819D02*
X152760228Y-104610819D01*
X152760228Y-104610819D02*
X152855466Y-104658438D01*
X152855466Y-104658438D02*
X152903085Y-104706057D01*
X152903085Y-104706057D02*
X152950704Y-104801295D01*
X152950704Y-104801295D02*
X152950704Y-104896533D01*
X152950704Y-104896533D02*
X152903085Y-105039390D01*
X152903085Y-105039390D02*
X152331657Y-105610819D01*
X152331657Y-105610819D02*
X152950704Y-105610819D01*
X140428742Y-103503219D02*
X140095409Y-103027028D01*
X139857314Y-103503219D02*
X139857314Y-102503219D01*
X139857314Y-102503219D02*
X140238266Y-102503219D01*
X140238266Y-102503219D02*
X140333504Y-102550838D01*
X140333504Y-102550838D02*
X140381123Y-102598457D01*
X140381123Y-102598457D02*
X140428742Y-102693695D01*
X140428742Y-102693695D02*
X140428742Y-102836552D01*
X140428742Y-102836552D02*
X140381123Y-102931790D01*
X140381123Y-102931790D02*
X140333504Y-102979409D01*
X140333504Y-102979409D02*
X140238266Y-103027028D01*
X140238266Y-103027028D02*
X139857314Y-103027028D01*
X140809695Y-102598457D02*
X140857314Y-102550838D01*
X140857314Y-102550838D02*
X140952552Y-102503219D01*
X140952552Y-102503219D02*
X141190647Y-102503219D01*
X141190647Y-102503219D02*
X141285885Y-102550838D01*
X141285885Y-102550838D02*
X141333504Y-102598457D01*
X141333504Y-102598457D02*
X141381123Y-102693695D01*
X141381123Y-102693695D02*
X141381123Y-102788933D01*
X141381123Y-102788933D02*
X141333504Y-102931790D01*
X141333504Y-102931790D02*
X140762076Y-103503219D01*
X140762076Y-103503219D02*
X141381123Y-103503219D01*
X141714457Y-102503219D02*
X142381123Y-102503219D01*
X142381123Y-102503219D02*
X141952552Y-103503219D01*
D10*
X138253819Y-89869733D02*
X138968104Y-89869733D01*
X138968104Y-89869733D02*
X139110961Y-89917352D01*
X139110961Y-89917352D02*
X139206200Y-90012590D01*
X139206200Y-90012590D02*
X139253819Y-90155447D01*
X139253819Y-90155447D02*
X139253819Y-90250685D01*
X138349057Y-89441161D02*
X138301438Y-89393542D01*
X138301438Y-89393542D02*
X138253819Y-89298304D01*
X138253819Y-89298304D02*
X138253819Y-89060209D01*
X138253819Y-89060209D02*
X138301438Y-88964971D01*
X138301438Y-88964971D02*
X138349057Y-88917352D01*
X138349057Y-88917352D02*
X138444295Y-88869733D01*
X138444295Y-88869733D02*
X138539533Y-88869733D01*
X138539533Y-88869733D02*
X138682390Y-88917352D01*
X138682390Y-88917352D02*
X139253819Y-89488780D01*
X139253819Y-89488780D02*
X139253819Y-88869733D01*
D11*
X161482519Y-91998704D02*
X162292042Y-91998704D01*
X162292042Y-91998704D02*
X162387280Y-91951085D01*
X162387280Y-91951085D02*
X162434900Y-91903466D01*
X162434900Y-91903466D02*
X162482519Y-91808228D01*
X162482519Y-91808228D02*
X162482519Y-91617752D01*
X162482519Y-91617752D02*
X162434900Y-91522514D01*
X162434900Y-91522514D02*
X162387280Y-91474895D01*
X162387280Y-91474895D02*
X162292042Y-91427276D01*
X162292042Y-91427276D02*
X161482519Y-91427276D01*
X161482519Y-91046323D02*
X161482519Y-90379657D01*
X161482519Y-90379657D02*
X162482519Y-90808228D01*
X157903942Y-94441180D02*
X157856323Y-94488800D01*
X157856323Y-94488800D02*
X157713466Y-94536419D01*
X157713466Y-94536419D02*
X157618228Y-94536419D01*
X157618228Y-94536419D02*
X157475371Y-94488800D01*
X157475371Y-94488800D02*
X157380133Y-94393561D01*
X157380133Y-94393561D02*
X157332514Y-94298323D01*
X157332514Y-94298323D02*
X157284895Y-94107847D01*
X157284895Y-94107847D02*
X157284895Y-93964990D01*
X157284895Y-93964990D02*
X157332514Y-93774514D01*
X157332514Y-93774514D02*
X157380133Y-93679276D01*
X157380133Y-93679276D02*
X157475371Y-93584038D01*
X157475371Y-93584038D02*
X157618228Y-93536419D01*
X157618228Y-93536419D02*
X157713466Y-93536419D01*
X157713466Y-93536419D02*
X157856323Y-93584038D01*
X157856323Y-93584038D02*
X157903942Y-93631657D01*
X158237276Y-93536419D02*
X158856323Y-93536419D01*
X158856323Y-93536419D02*
X158522990Y-93917371D01*
X158522990Y-93917371D02*
X158665847Y-93917371D01*
X158665847Y-93917371D02*
X158761085Y-93964990D01*
X158761085Y-93964990D02*
X158808704Y-94012609D01*
X158808704Y-94012609D02*
X158856323Y-94107847D01*
X158856323Y-94107847D02*
X158856323Y-94345942D01*
X158856323Y-94345942D02*
X158808704Y-94441180D01*
X158808704Y-94441180D02*
X158761085Y-94488800D01*
X158761085Y-94488800D02*
X158665847Y-94536419D01*
X158665847Y-94536419D02*
X158380133Y-94536419D01*
X158380133Y-94536419D02*
X158284895Y-94488800D01*
X158284895Y-94488800D02*
X158237276Y-94441180D01*
X159189657Y-93536419D02*
X159808704Y-93536419D01*
X159808704Y-93536419D02*
X159475371Y-93917371D01*
X159475371Y-93917371D02*
X159618228Y-93917371D01*
X159618228Y-93917371D02*
X159713466Y-93964990D01*
X159713466Y-93964990D02*
X159761085Y-94012609D01*
X159761085Y-94012609D02*
X159808704Y-94107847D01*
X159808704Y-94107847D02*
X159808704Y-94345942D01*
X159808704Y-94345942D02*
X159761085Y-94441180D01*
X159761085Y-94441180D02*
X159713466Y-94488800D01*
X159713466Y-94488800D02*
X159618228Y-94536419D01*
X159618228Y-94536419D02*
X159332514Y-94536419D01*
X159332514Y-94536419D02*
X159237276Y-94488800D01*
X159237276Y-94488800D02*
X159189657Y-94441180D01*
X140718942Y-92308819D02*
X140385609Y-91832628D01*
X140147514Y-92308819D02*
X140147514Y-91308819D01*
X140147514Y-91308819D02*
X140528466Y-91308819D01*
X140528466Y-91308819D02*
X140623704Y-91356438D01*
X140623704Y-91356438D02*
X140671323Y-91404057D01*
X140671323Y-91404057D02*
X140718942Y-91499295D01*
X140718942Y-91499295D02*
X140718942Y-91642152D01*
X140718942Y-91642152D02*
X140671323Y-91737390D01*
X140671323Y-91737390D02*
X140623704Y-91785009D01*
X140623704Y-91785009D02*
X140528466Y-91832628D01*
X140528466Y-91832628D02*
X140147514Y-91832628D01*
X141671323Y-92308819D02*
X141099895Y-92308819D01*
X141385609Y-92308819D02*
X141385609Y-91308819D01*
X141385609Y-91308819D02*
X141290371Y-91451676D01*
X141290371Y-91451676D02*
X141195133Y-91546914D01*
X141195133Y-91546914D02*
X141099895Y-91594533D01*
X142290371Y-91308819D02*
X142385609Y-91308819D01*
X142385609Y-91308819D02*
X142480847Y-91356438D01*
X142480847Y-91356438D02*
X142528466Y-91404057D01*
X142528466Y-91404057D02*
X142576085Y-91499295D01*
X142576085Y-91499295D02*
X142623704Y-91689771D01*
X142623704Y-91689771D02*
X142623704Y-91927866D01*
X142623704Y-91927866D02*
X142576085Y-92118342D01*
X142576085Y-92118342D02*
X142528466Y-92213580D01*
X142528466Y-92213580D02*
X142480847Y-92261200D01*
X142480847Y-92261200D02*
X142385609Y-92308819D01*
X142385609Y-92308819D02*
X142290371Y-92308819D01*
X142290371Y-92308819D02*
X142195133Y-92261200D01*
X142195133Y-92261200D02*
X142147514Y-92213580D01*
X142147514Y-92213580D02*
X142099895Y-92118342D01*
X142099895Y-92118342D02*
X142052276Y-91927866D01*
X142052276Y-91927866D02*
X142052276Y-91689771D01*
X142052276Y-91689771D02*
X142099895Y-91499295D01*
X142099895Y-91499295D02*
X142147514Y-91404057D01*
X142147514Y-91404057D02*
X142195133Y-91356438D01*
X142195133Y-91356438D02*
X142290371Y-91308819D01*
X163319619Y-89117466D02*
X163319619Y-89593656D01*
X163319619Y-89593656D02*
X162319619Y-89593656D01*
X163319619Y-88260323D02*
X163319619Y-88831751D01*
X163319619Y-88546037D02*
X162319619Y-88546037D01*
X162319619Y-88546037D02*
X162462476Y-88641275D01*
X162462476Y-88641275D02*
X162557714Y-88736513D01*
X162557714Y-88736513D02*
X162605333Y-88831751D01*
X165894609Y-85948633D02*
X165894609Y-86281966D01*
X166418419Y-86281966D02*
X165418419Y-86281966D01*
X165418419Y-86281966D02*
X165418419Y-85805776D01*
X165894609Y-85091490D02*
X165942228Y-84948633D01*
X165942228Y-84948633D02*
X165989847Y-84901014D01*
X165989847Y-84901014D02*
X166085085Y-84853395D01*
X166085085Y-84853395D02*
X166227942Y-84853395D01*
X166227942Y-84853395D02*
X166323180Y-84901014D01*
X166323180Y-84901014D02*
X166370800Y-84948633D01*
X166370800Y-84948633D02*
X166418419Y-85043871D01*
X166418419Y-85043871D02*
X166418419Y-85424823D01*
X166418419Y-85424823D02*
X165418419Y-85424823D01*
X165418419Y-85424823D02*
X165418419Y-85091490D01*
X165418419Y-85091490D02*
X165466038Y-84996252D01*
X165466038Y-84996252D02*
X165513657Y-84948633D01*
X165513657Y-84948633D02*
X165608895Y-84901014D01*
X165608895Y-84901014D02*
X165704133Y-84901014D01*
X165704133Y-84901014D02*
X165799371Y-84948633D01*
X165799371Y-84948633D02*
X165846990Y-84996252D01*
X165846990Y-84996252D02*
X165894609Y-85091490D01*
X165894609Y-85091490D02*
X165894609Y-85424823D01*
X166418419Y-83901014D02*
X166418419Y-84472442D01*
X166418419Y-84186728D02*
X165418419Y-84186728D01*
X165418419Y-84186728D02*
X165561276Y-84281966D01*
X165561276Y-84281966D02*
X165656514Y-84377204D01*
X165656514Y-84377204D02*
X165704133Y-84472442D01*
X162831542Y-105084419D02*
X162498209Y-104608228D01*
X162260114Y-105084419D02*
X162260114Y-104084419D01*
X162260114Y-104084419D02*
X162641066Y-104084419D01*
X162641066Y-104084419D02*
X162736304Y-104132038D01*
X162736304Y-104132038D02*
X162783923Y-104179657D01*
X162783923Y-104179657D02*
X162831542Y-104274895D01*
X162831542Y-104274895D02*
X162831542Y-104417752D01*
X162831542Y-104417752D02*
X162783923Y-104512990D01*
X162783923Y-104512990D02*
X162736304Y-104560609D01*
X162736304Y-104560609D02*
X162641066Y-104608228D01*
X162641066Y-104608228D02*
X162260114Y-104608228D01*
X163164876Y-104084419D02*
X163783923Y-104084419D01*
X163783923Y-104084419D02*
X163450590Y-104465371D01*
X163450590Y-104465371D02*
X163593447Y-104465371D01*
X163593447Y-104465371D02*
X163688685Y-104512990D01*
X163688685Y-104512990D02*
X163736304Y-104560609D01*
X163736304Y-104560609D02*
X163783923Y-104655847D01*
X163783923Y-104655847D02*
X163783923Y-104893942D01*
X163783923Y-104893942D02*
X163736304Y-104989180D01*
X163736304Y-104989180D02*
X163688685Y-105036800D01*
X163688685Y-105036800D02*
X163593447Y-105084419D01*
X163593447Y-105084419D02*
X163307733Y-105084419D01*
X163307733Y-105084419D02*
X163212495Y-105036800D01*
X163212495Y-105036800D02*
X163164876Y-104989180D01*
X164117257Y-104084419D02*
X164783923Y-104084419D01*
X164783923Y-104084419D02*
X164355352Y-105084419D01*
X141260533Y-84173219D02*
X140927200Y-83697028D01*
X140689105Y-84173219D02*
X140689105Y-83173219D01*
X140689105Y-83173219D02*
X141070057Y-83173219D01*
X141070057Y-83173219D02*
X141165295Y-83220838D01*
X141165295Y-83220838D02*
X141212914Y-83268457D01*
X141212914Y-83268457D02*
X141260533Y-83363695D01*
X141260533Y-83363695D02*
X141260533Y-83506552D01*
X141260533Y-83506552D02*
X141212914Y-83601790D01*
X141212914Y-83601790D02*
X141165295Y-83649409D01*
X141165295Y-83649409D02*
X141070057Y-83697028D01*
X141070057Y-83697028D02*
X140689105Y-83697028D01*
X141593867Y-83173219D02*
X142212914Y-83173219D01*
X142212914Y-83173219D02*
X141879581Y-83554171D01*
X141879581Y-83554171D02*
X142022438Y-83554171D01*
X142022438Y-83554171D02*
X142117676Y-83601790D01*
X142117676Y-83601790D02*
X142165295Y-83649409D01*
X142165295Y-83649409D02*
X142212914Y-83744647D01*
X142212914Y-83744647D02*
X142212914Y-83982742D01*
X142212914Y-83982742D02*
X142165295Y-84077980D01*
X142165295Y-84077980D02*
X142117676Y-84125600D01*
X142117676Y-84125600D02*
X142022438Y-84173219D01*
X142022438Y-84173219D02*
X141736724Y-84173219D01*
X141736724Y-84173219D02*
X141641486Y-84125600D01*
X141641486Y-84125600D02*
X141593867Y-84077980D01*
X167543619Y-98382057D02*
X167067428Y-98715390D01*
X167543619Y-98953485D02*
X166543619Y-98953485D01*
X166543619Y-98953485D02*
X166543619Y-98572533D01*
X166543619Y-98572533D02*
X166591238Y-98477295D01*
X166591238Y-98477295D02*
X166638857Y-98429676D01*
X166638857Y-98429676D02*
X166734095Y-98382057D01*
X166734095Y-98382057D02*
X166876952Y-98382057D01*
X166876952Y-98382057D02*
X166972190Y-98429676D01*
X166972190Y-98429676D02*
X167019809Y-98477295D01*
X167019809Y-98477295D02*
X167067428Y-98572533D01*
X167067428Y-98572533D02*
X167067428Y-98953485D01*
X166876952Y-97524914D02*
X167543619Y-97524914D01*
X166496000Y-97763009D02*
X167210285Y-98001104D01*
X167210285Y-98001104D02*
X167210285Y-97382057D01*
X166543619Y-96810628D02*
X166543619Y-96715390D01*
X166543619Y-96715390D02*
X166591238Y-96620152D01*
X166591238Y-96620152D02*
X166638857Y-96572533D01*
X166638857Y-96572533D02*
X166734095Y-96524914D01*
X166734095Y-96524914D02*
X166924571Y-96477295D01*
X166924571Y-96477295D02*
X167162666Y-96477295D01*
X167162666Y-96477295D02*
X167353142Y-96524914D01*
X167353142Y-96524914D02*
X167448380Y-96572533D01*
X167448380Y-96572533D02*
X167496000Y-96620152D01*
X167496000Y-96620152D02*
X167543619Y-96715390D01*
X167543619Y-96715390D02*
X167543619Y-96810628D01*
X167543619Y-96810628D02*
X167496000Y-96905866D01*
X167496000Y-96905866D02*
X167448380Y-96953485D01*
X167448380Y-96953485D02*
X167353142Y-97001104D01*
X167353142Y-97001104D02*
X167162666Y-97048723D01*
X167162666Y-97048723D02*
X166924571Y-97048723D01*
X166924571Y-97048723D02*
X166734095Y-97001104D01*
X166734095Y-97001104D02*
X166638857Y-96953485D01*
X166638857Y-96953485D02*
X166591238Y-96905866D01*
X166591238Y-96905866D02*
X166543619Y-96810628D01*
D10*
X138280619Y-97666133D02*
X138994904Y-97666133D01*
X138994904Y-97666133D02*
X139137761Y-97713752D01*
X139137761Y-97713752D02*
X139233000Y-97808990D01*
X139233000Y-97808990D02*
X139280619Y-97951847D01*
X139280619Y-97951847D02*
X139280619Y-98047085D01*
X138280619Y-97285180D02*
X138280619Y-96666133D01*
X138280619Y-96666133D02*
X138661571Y-96999466D01*
X138661571Y-96999466D02*
X138661571Y-96856609D01*
X138661571Y-96856609D02*
X138709190Y-96761371D01*
X138709190Y-96761371D02*
X138756809Y-96713752D01*
X138756809Y-96713752D02*
X138852047Y-96666133D01*
X138852047Y-96666133D02*
X139090142Y-96666133D01*
X139090142Y-96666133D02*
X139185380Y-96713752D01*
X139185380Y-96713752D02*
X139233000Y-96761371D01*
X139233000Y-96761371D02*
X139280619Y-96856609D01*
X139280619Y-96856609D02*
X139280619Y-97142323D01*
X139280619Y-97142323D02*
X139233000Y-97237561D01*
X139233000Y-97237561D02*
X139185380Y-97285180D01*
D11*
X157903942Y-95965180D02*
X157856323Y-96012800D01*
X157856323Y-96012800D02*
X157713466Y-96060419D01*
X157713466Y-96060419D02*
X157618228Y-96060419D01*
X157618228Y-96060419D02*
X157475371Y-96012800D01*
X157475371Y-96012800D02*
X157380133Y-95917561D01*
X157380133Y-95917561D02*
X157332514Y-95822323D01*
X157332514Y-95822323D02*
X157284895Y-95631847D01*
X157284895Y-95631847D02*
X157284895Y-95488990D01*
X157284895Y-95488990D02*
X157332514Y-95298514D01*
X157332514Y-95298514D02*
X157380133Y-95203276D01*
X157380133Y-95203276D02*
X157475371Y-95108038D01*
X157475371Y-95108038D02*
X157618228Y-95060419D01*
X157618228Y-95060419D02*
X157713466Y-95060419D01*
X157713466Y-95060419D02*
X157856323Y-95108038D01*
X157856323Y-95108038D02*
X157903942Y-95155657D01*
X158237276Y-95060419D02*
X158856323Y-95060419D01*
X158856323Y-95060419D02*
X158522990Y-95441371D01*
X158522990Y-95441371D02*
X158665847Y-95441371D01*
X158665847Y-95441371D02*
X158761085Y-95488990D01*
X158761085Y-95488990D02*
X158808704Y-95536609D01*
X158808704Y-95536609D02*
X158856323Y-95631847D01*
X158856323Y-95631847D02*
X158856323Y-95869942D01*
X158856323Y-95869942D02*
X158808704Y-95965180D01*
X158808704Y-95965180D02*
X158761085Y-96012800D01*
X158761085Y-96012800D02*
X158665847Y-96060419D01*
X158665847Y-96060419D02*
X158380133Y-96060419D01*
X158380133Y-96060419D02*
X158284895Y-96012800D01*
X158284895Y-96012800D02*
X158237276Y-95965180D01*
X159761085Y-95060419D02*
X159284895Y-95060419D01*
X159284895Y-95060419D02*
X159237276Y-95536609D01*
X159237276Y-95536609D02*
X159284895Y-95488990D01*
X159284895Y-95488990D02*
X159380133Y-95441371D01*
X159380133Y-95441371D02*
X159618228Y-95441371D01*
X159618228Y-95441371D02*
X159713466Y-95488990D01*
X159713466Y-95488990D02*
X159761085Y-95536609D01*
X159761085Y-95536609D02*
X159808704Y-95631847D01*
X159808704Y-95631847D02*
X159808704Y-95869942D01*
X159808704Y-95869942D02*
X159761085Y-95965180D01*
X159761085Y-95965180D02*
X159713466Y-96012800D01*
X159713466Y-96012800D02*
X159618228Y-96060419D01*
X159618228Y-96060419D02*
X159380133Y-96060419D01*
X159380133Y-96060419D02*
X159284895Y-96012800D01*
X159284895Y-96012800D02*
X159237276Y-95965180D01*
X169440266Y-108514819D02*
X169440266Y-109229104D01*
X169440266Y-109229104D02*
X169392647Y-109371961D01*
X169392647Y-109371961D02*
X169297409Y-109467200D01*
X169297409Y-109467200D02*
X169154552Y-109514819D01*
X169154552Y-109514819D02*
X169059314Y-109514819D01*
X170345028Y-108514819D02*
X170154552Y-108514819D01*
X170154552Y-108514819D02*
X170059314Y-108562438D01*
X170059314Y-108562438D02*
X170011695Y-108610057D01*
X170011695Y-108610057D02*
X169916457Y-108752914D01*
X169916457Y-108752914D02*
X169868838Y-108943390D01*
X169868838Y-108943390D02*
X169868838Y-109324342D01*
X169868838Y-109324342D02*
X169916457Y-109419580D01*
X169916457Y-109419580D02*
X169964076Y-109467200D01*
X169964076Y-109467200D02*
X170059314Y-109514819D01*
X170059314Y-109514819D02*
X170249790Y-109514819D01*
X170249790Y-109514819D02*
X170345028Y-109467200D01*
X170345028Y-109467200D02*
X170392647Y-109419580D01*
X170392647Y-109419580D02*
X170440266Y-109324342D01*
X170440266Y-109324342D02*
X170440266Y-109086247D01*
X170440266Y-109086247D02*
X170392647Y-108991009D01*
X170392647Y-108991009D02*
X170345028Y-108943390D01*
X170345028Y-108943390D02*
X170249790Y-108895771D01*
X170249790Y-108895771D02*
X170059314Y-108895771D01*
X170059314Y-108895771D02*
X169964076Y-108943390D01*
X169964076Y-108943390D02*
X169916457Y-108991009D01*
X169916457Y-108991009D02*
X169868838Y-109086247D01*
X149032933Y-78534419D02*
X148699600Y-78058228D01*
X148461505Y-78534419D02*
X148461505Y-77534419D01*
X148461505Y-77534419D02*
X148842457Y-77534419D01*
X148842457Y-77534419D02*
X148937695Y-77582038D01*
X148937695Y-77582038D02*
X148985314Y-77629657D01*
X148985314Y-77629657D02*
X149032933Y-77724895D01*
X149032933Y-77724895D02*
X149032933Y-77867752D01*
X149032933Y-77867752D02*
X148985314Y-77962990D01*
X148985314Y-77962990D02*
X148937695Y-78010609D01*
X148937695Y-78010609D02*
X148842457Y-78058228D01*
X148842457Y-78058228D02*
X148461505Y-78058228D01*
X149604362Y-77962990D02*
X149509124Y-77915371D01*
X149509124Y-77915371D02*
X149461505Y-77867752D01*
X149461505Y-77867752D02*
X149413886Y-77772514D01*
X149413886Y-77772514D02*
X149413886Y-77724895D01*
X149413886Y-77724895D02*
X149461505Y-77629657D01*
X149461505Y-77629657D02*
X149509124Y-77582038D01*
X149509124Y-77582038D02*
X149604362Y-77534419D01*
X149604362Y-77534419D02*
X149794838Y-77534419D01*
X149794838Y-77534419D02*
X149890076Y-77582038D01*
X149890076Y-77582038D02*
X149937695Y-77629657D01*
X149937695Y-77629657D02*
X149985314Y-77724895D01*
X149985314Y-77724895D02*
X149985314Y-77772514D01*
X149985314Y-77772514D02*
X149937695Y-77867752D01*
X149937695Y-77867752D02*
X149890076Y-77915371D01*
X149890076Y-77915371D02*
X149794838Y-77962990D01*
X149794838Y-77962990D02*
X149604362Y-77962990D01*
X149604362Y-77962990D02*
X149509124Y-78010609D01*
X149509124Y-78010609D02*
X149461505Y-78058228D01*
X149461505Y-78058228D02*
X149413886Y-78153466D01*
X149413886Y-78153466D02*
X149413886Y-78343942D01*
X149413886Y-78343942D02*
X149461505Y-78439180D01*
X149461505Y-78439180D02*
X149509124Y-78486800D01*
X149509124Y-78486800D02*
X149604362Y-78534419D01*
X149604362Y-78534419D02*
X149794838Y-78534419D01*
X149794838Y-78534419D02*
X149890076Y-78486800D01*
X149890076Y-78486800D02*
X149937695Y-78439180D01*
X149937695Y-78439180D02*
X149985314Y-78343942D01*
X149985314Y-78343942D02*
X149985314Y-78153466D01*
X149985314Y-78153466D02*
X149937695Y-78058228D01*
X149937695Y-78058228D02*
X149890076Y-78010609D01*
X149890076Y-78010609D02*
X149794838Y-77962990D01*
X144322895Y-94261919D02*
X144322895Y-95071442D01*
X144322895Y-95071442D02*
X144370514Y-95166680D01*
X144370514Y-95166680D02*
X144418133Y-95214300D01*
X144418133Y-95214300D02*
X144513371Y-95261919D01*
X144513371Y-95261919D02*
X144703847Y-95261919D01*
X144703847Y-95261919D02*
X144799085Y-95214300D01*
X144799085Y-95214300D02*
X144846704Y-95166680D01*
X144846704Y-95166680D02*
X144894323Y-95071442D01*
X144894323Y-95071442D02*
X144894323Y-94261919D01*
X145799085Y-94595252D02*
X145799085Y-95261919D01*
X145560990Y-94214300D02*
X145322895Y-94928585D01*
X145322895Y-94928585D02*
X145941942Y-94928585D01*
X141260533Y-79093219D02*
X140927200Y-78617028D01*
X140689105Y-79093219D02*
X140689105Y-78093219D01*
X140689105Y-78093219D02*
X141070057Y-78093219D01*
X141070057Y-78093219D02*
X141165295Y-78140838D01*
X141165295Y-78140838D02*
X141212914Y-78188457D01*
X141212914Y-78188457D02*
X141260533Y-78283695D01*
X141260533Y-78283695D02*
X141260533Y-78426552D01*
X141260533Y-78426552D02*
X141212914Y-78521790D01*
X141212914Y-78521790D02*
X141165295Y-78569409D01*
X141165295Y-78569409D02*
X141070057Y-78617028D01*
X141070057Y-78617028D02*
X140689105Y-78617028D01*
X142212914Y-79093219D02*
X141641486Y-79093219D01*
X141927200Y-79093219D02*
X141927200Y-78093219D01*
X141927200Y-78093219D02*
X141831962Y-78236076D01*
X141831962Y-78236076D02*
X141736724Y-78331314D01*
X141736724Y-78331314D02*
X141641486Y-78378933D01*
X162777542Y-106656819D02*
X162444209Y-106180628D01*
X162206114Y-106656819D02*
X162206114Y-105656819D01*
X162206114Y-105656819D02*
X162587066Y-105656819D01*
X162587066Y-105656819D02*
X162682304Y-105704438D01*
X162682304Y-105704438D02*
X162729923Y-105752057D01*
X162729923Y-105752057D02*
X162777542Y-105847295D01*
X162777542Y-105847295D02*
X162777542Y-105990152D01*
X162777542Y-105990152D02*
X162729923Y-106085390D01*
X162729923Y-106085390D02*
X162682304Y-106133009D01*
X162682304Y-106133009D02*
X162587066Y-106180628D01*
X162587066Y-106180628D02*
X162206114Y-106180628D01*
X163110876Y-105656819D02*
X163729923Y-105656819D01*
X163729923Y-105656819D02*
X163396590Y-106037771D01*
X163396590Y-106037771D02*
X163539447Y-106037771D01*
X163539447Y-106037771D02*
X163634685Y-106085390D01*
X163634685Y-106085390D02*
X163682304Y-106133009D01*
X163682304Y-106133009D02*
X163729923Y-106228247D01*
X163729923Y-106228247D02*
X163729923Y-106466342D01*
X163729923Y-106466342D02*
X163682304Y-106561580D01*
X163682304Y-106561580D02*
X163634685Y-106609200D01*
X163634685Y-106609200D02*
X163539447Y-106656819D01*
X163539447Y-106656819D02*
X163253733Y-106656819D01*
X163253733Y-106656819D02*
X163158495Y-106609200D01*
X163158495Y-106609200D02*
X163110876Y-106561580D01*
X164587066Y-105656819D02*
X164396590Y-105656819D01*
X164396590Y-105656819D02*
X164301352Y-105704438D01*
X164301352Y-105704438D02*
X164253733Y-105752057D01*
X164253733Y-105752057D02*
X164158495Y-105894914D01*
X164158495Y-105894914D02*
X164110876Y-106085390D01*
X164110876Y-106085390D02*
X164110876Y-106466342D01*
X164110876Y-106466342D02*
X164158495Y-106561580D01*
X164158495Y-106561580D02*
X164206114Y-106609200D01*
X164206114Y-106609200D02*
X164301352Y-106656819D01*
X164301352Y-106656819D02*
X164491828Y-106656819D01*
X164491828Y-106656819D02*
X164587066Y-106609200D01*
X164587066Y-106609200D02*
X164634685Y-106561580D01*
X164634685Y-106561580D02*
X164682304Y-106466342D01*
X164682304Y-106466342D02*
X164682304Y-106228247D01*
X164682304Y-106228247D02*
X164634685Y-106133009D01*
X164634685Y-106133009D02*
X164587066Y-106085390D01*
X164587066Y-106085390D02*
X164491828Y-106037771D01*
X164491828Y-106037771D02*
X164301352Y-106037771D01*
X164301352Y-106037771D02*
X164206114Y-106085390D01*
X164206114Y-106085390D02*
X164158495Y-106133009D01*
X164158495Y-106133009D02*
X164110876Y-106228247D01*
X162831542Y-102045619D02*
X162498209Y-101569428D01*
X162260114Y-102045619D02*
X162260114Y-101045619D01*
X162260114Y-101045619D02*
X162641066Y-101045619D01*
X162641066Y-101045619D02*
X162736304Y-101093238D01*
X162736304Y-101093238D02*
X162783923Y-101140857D01*
X162783923Y-101140857D02*
X162831542Y-101236095D01*
X162831542Y-101236095D02*
X162831542Y-101378952D01*
X162831542Y-101378952D02*
X162783923Y-101474190D01*
X162783923Y-101474190D02*
X162736304Y-101521809D01*
X162736304Y-101521809D02*
X162641066Y-101569428D01*
X162641066Y-101569428D02*
X162260114Y-101569428D01*
X163164876Y-101045619D02*
X163783923Y-101045619D01*
X163783923Y-101045619D02*
X163450590Y-101426571D01*
X163450590Y-101426571D02*
X163593447Y-101426571D01*
X163593447Y-101426571D02*
X163688685Y-101474190D01*
X163688685Y-101474190D02*
X163736304Y-101521809D01*
X163736304Y-101521809D02*
X163783923Y-101617047D01*
X163783923Y-101617047D02*
X163783923Y-101855142D01*
X163783923Y-101855142D02*
X163736304Y-101950380D01*
X163736304Y-101950380D02*
X163688685Y-101998000D01*
X163688685Y-101998000D02*
X163593447Y-102045619D01*
X163593447Y-102045619D02*
X163307733Y-102045619D01*
X163307733Y-102045619D02*
X163212495Y-101998000D01*
X163212495Y-101998000D02*
X163164876Y-101950380D01*
X164260114Y-102045619D02*
X164450590Y-102045619D01*
X164450590Y-102045619D02*
X164545828Y-101998000D01*
X164545828Y-101998000D02*
X164593447Y-101950380D01*
X164593447Y-101950380D02*
X164688685Y-101807523D01*
X164688685Y-101807523D02*
X164736304Y-101617047D01*
X164736304Y-101617047D02*
X164736304Y-101236095D01*
X164736304Y-101236095D02*
X164688685Y-101140857D01*
X164688685Y-101140857D02*
X164641066Y-101093238D01*
X164641066Y-101093238D02*
X164545828Y-101045619D01*
X164545828Y-101045619D02*
X164355352Y-101045619D01*
X164355352Y-101045619D02*
X164260114Y-101093238D01*
X164260114Y-101093238D02*
X164212495Y-101140857D01*
X164212495Y-101140857D02*
X164164876Y-101236095D01*
X164164876Y-101236095D02*
X164164876Y-101474190D01*
X164164876Y-101474190D02*
X164212495Y-101569428D01*
X164212495Y-101569428D02*
X164260114Y-101617047D01*
X164260114Y-101617047D02*
X164355352Y-101664666D01*
X164355352Y-101664666D02*
X164545828Y-101664666D01*
X164545828Y-101664666D02*
X164641066Y-101617047D01*
X164641066Y-101617047D02*
X164688685Y-101569428D01*
X164688685Y-101569428D02*
X164736304Y-101474190D01*
X158208742Y-82655580D02*
X158161123Y-82703200D01*
X158161123Y-82703200D02*
X158018266Y-82750819D01*
X158018266Y-82750819D02*
X157923028Y-82750819D01*
X157923028Y-82750819D02*
X157780171Y-82703200D01*
X157780171Y-82703200D02*
X157684933Y-82607961D01*
X157684933Y-82607961D02*
X157637314Y-82512723D01*
X157637314Y-82512723D02*
X157589695Y-82322247D01*
X157589695Y-82322247D02*
X157589695Y-82179390D01*
X157589695Y-82179390D02*
X157637314Y-81988914D01*
X157637314Y-81988914D02*
X157684933Y-81893676D01*
X157684933Y-81893676D02*
X157780171Y-81798438D01*
X157780171Y-81798438D02*
X157923028Y-81750819D01*
X157923028Y-81750819D02*
X158018266Y-81750819D01*
X158018266Y-81750819D02*
X158161123Y-81798438D01*
X158161123Y-81798438D02*
X158208742Y-81846057D01*
X158589695Y-81846057D02*
X158637314Y-81798438D01*
X158637314Y-81798438D02*
X158732552Y-81750819D01*
X158732552Y-81750819D02*
X158970647Y-81750819D01*
X158970647Y-81750819D02*
X159065885Y-81798438D01*
X159065885Y-81798438D02*
X159113504Y-81846057D01*
X159113504Y-81846057D02*
X159161123Y-81941295D01*
X159161123Y-81941295D02*
X159161123Y-82036533D01*
X159161123Y-82036533D02*
X159113504Y-82179390D01*
X159113504Y-82179390D02*
X158542076Y-82750819D01*
X158542076Y-82750819D02*
X159161123Y-82750819D01*
X159637314Y-82750819D02*
X159827790Y-82750819D01*
X159827790Y-82750819D02*
X159923028Y-82703200D01*
X159923028Y-82703200D02*
X159970647Y-82655580D01*
X159970647Y-82655580D02*
X160065885Y-82512723D01*
X160065885Y-82512723D02*
X160113504Y-82322247D01*
X160113504Y-82322247D02*
X160113504Y-81941295D01*
X160113504Y-81941295D02*
X160065885Y-81846057D01*
X160065885Y-81846057D02*
X160018266Y-81798438D01*
X160018266Y-81798438D02*
X159923028Y-81750819D01*
X159923028Y-81750819D02*
X159732552Y-81750819D01*
X159732552Y-81750819D02*
X159637314Y-81798438D01*
X159637314Y-81798438D02*
X159589695Y-81846057D01*
X159589695Y-81846057D02*
X159542076Y-81941295D01*
X159542076Y-81941295D02*
X159542076Y-82179390D01*
X159542076Y-82179390D02*
X159589695Y-82274628D01*
X159589695Y-82274628D02*
X159637314Y-82322247D01*
X159637314Y-82322247D02*
X159732552Y-82369866D01*
X159732552Y-82369866D02*
X159923028Y-82369866D01*
X159923028Y-82369866D02*
X160018266Y-82322247D01*
X160018266Y-82322247D02*
X160065885Y-82274628D01*
X160065885Y-82274628D02*
X160113504Y-82179390D01*
X169888819Y-93421104D02*
X170698342Y-93421104D01*
X170698342Y-93421104D02*
X170793580Y-93373485D01*
X170793580Y-93373485D02*
X170841200Y-93325866D01*
X170841200Y-93325866D02*
X170888819Y-93230628D01*
X170888819Y-93230628D02*
X170888819Y-93040152D01*
X170888819Y-93040152D02*
X170841200Y-92944914D01*
X170841200Y-92944914D02*
X170793580Y-92897295D01*
X170793580Y-92897295D02*
X170698342Y-92849676D01*
X170698342Y-92849676D02*
X169888819Y-92849676D01*
X169888819Y-91944914D02*
X169888819Y-92135390D01*
X169888819Y-92135390D02*
X169936438Y-92230628D01*
X169936438Y-92230628D02*
X169984057Y-92278247D01*
X169984057Y-92278247D02*
X170126914Y-92373485D01*
X170126914Y-92373485D02*
X170317390Y-92421104D01*
X170317390Y-92421104D02*
X170698342Y-92421104D01*
X170698342Y-92421104D02*
X170793580Y-92373485D01*
X170793580Y-92373485D02*
X170841200Y-92325866D01*
X170841200Y-92325866D02*
X170888819Y-92230628D01*
X170888819Y-92230628D02*
X170888819Y-92040152D01*
X170888819Y-92040152D02*
X170841200Y-91944914D01*
X170841200Y-91944914D02*
X170793580Y-91897295D01*
X170793580Y-91897295D02*
X170698342Y-91849676D01*
X170698342Y-91849676D02*
X170460247Y-91849676D01*
X170460247Y-91849676D02*
X170365009Y-91897295D01*
X170365009Y-91897295D02*
X170317390Y-91944914D01*
X170317390Y-91944914D02*
X170269771Y-92040152D01*
X170269771Y-92040152D02*
X170269771Y-92230628D01*
X170269771Y-92230628D02*
X170317390Y-92325866D01*
X170317390Y-92325866D02*
X170365009Y-92373485D01*
X170365009Y-92373485D02*
X170460247Y-92421104D01*
X149032933Y-79963180D02*
X148985314Y-80010800D01*
X148985314Y-80010800D02*
X148842457Y-80058419D01*
X148842457Y-80058419D02*
X148747219Y-80058419D01*
X148747219Y-80058419D02*
X148604362Y-80010800D01*
X148604362Y-80010800D02*
X148509124Y-79915561D01*
X148509124Y-79915561D02*
X148461505Y-79820323D01*
X148461505Y-79820323D02*
X148413886Y-79629847D01*
X148413886Y-79629847D02*
X148413886Y-79486990D01*
X148413886Y-79486990D02*
X148461505Y-79296514D01*
X148461505Y-79296514D02*
X148509124Y-79201276D01*
X148509124Y-79201276D02*
X148604362Y-79106038D01*
X148604362Y-79106038D02*
X148747219Y-79058419D01*
X148747219Y-79058419D02*
X148842457Y-79058419D01*
X148842457Y-79058419D02*
X148985314Y-79106038D01*
X148985314Y-79106038D02*
X149032933Y-79153657D01*
X149890076Y-79391752D02*
X149890076Y-80058419D01*
X149651981Y-79010800D02*
X149413886Y-79725085D01*
X149413886Y-79725085D02*
X150032933Y-79725085D01*
X148575733Y-93577580D02*
X148528114Y-93625200D01*
X148528114Y-93625200D02*
X148385257Y-93672819D01*
X148385257Y-93672819D02*
X148290019Y-93672819D01*
X148290019Y-93672819D02*
X148147162Y-93625200D01*
X148147162Y-93625200D02*
X148051924Y-93529961D01*
X148051924Y-93529961D02*
X148004305Y-93434723D01*
X148004305Y-93434723D02*
X147956686Y-93244247D01*
X147956686Y-93244247D02*
X147956686Y-93101390D01*
X147956686Y-93101390D02*
X148004305Y-92910914D01*
X148004305Y-92910914D02*
X148051924Y-92815676D01*
X148051924Y-92815676D02*
X148147162Y-92720438D01*
X148147162Y-92720438D02*
X148290019Y-92672819D01*
X148290019Y-92672819D02*
X148385257Y-92672819D01*
X148385257Y-92672819D02*
X148528114Y-92720438D01*
X148528114Y-92720438D02*
X148575733Y-92768057D01*
X149147162Y-93101390D02*
X149051924Y-93053771D01*
X149051924Y-93053771D02*
X149004305Y-93006152D01*
X149004305Y-93006152D02*
X148956686Y-92910914D01*
X148956686Y-92910914D02*
X148956686Y-92863295D01*
X148956686Y-92863295D02*
X149004305Y-92768057D01*
X149004305Y-92768057D02*
X149051924Y-92720438D01*
X149051924Y-92720438D02*
X149147162Y-92672819D01*
X149147162Y-92672819D02*
X149337638Y-92672819D01*
X149337638Y-92672819D02*
X149432876Y-92720438D01*
X149432876Y-92720438D02*
X149480495Y-92768057D01*
X149480495Y-92768057D02*
X149528114Y-92863295D01*
X149528114Y-92863295D02*
X149528114Y-92910914D01*
X149528114Y-92910914D02*
X149480495Y-93006152D01*
X149480495Y-93006152D02*
X149432876Y-93053771D01*
X149432876Y-93053771D02*
X149337638Y-93101390D01*
X149337638Y-93101390D02*
X149147162Y-93101390D01*
X149147162Y-93101390D02*
X149051924Y-93149009D01*
X149051924Y-93149009D02*
X149004305Y-93196628D01*
X149004305Y-93196628D02*
X148956686Y-93291866D01*
X148956686Y-93291866D02*
X148956686Y-93482342D01*
X148956686Y-93482342D02*
X149004305Y-93577580D01*
X149004305Y-93577580D02*
X149051924Y-93625200D01*
X149051924Y-93625200D02*
X149147162Y-93672819D01*
X149147162Y-93672819D02*
X149337638Y-93672819D01*
X149337638Y-93672819D02*
X149432876Y-93625200D01*
X149432876Y-93625200D02*
X149480495Y-93577580D01*
X149480495Y-93577580D02*
X149528114Y-93482342D01*
X149528114Y-93482342D02*
X149528114Y-93291866D01*
X149528114Y-93291866D02*
X149480495Y-93196628D01*
X149480495Y-93196628D02*
X149432876Y-93149009D01*
X149432876Y-93149009D02*
X149337638Y-93101390D01*
X159258095Y-99728019D02*
X159258095Y-100537542D01*
X159258095Y-100537542D02*
X159305714Y-100632780D01*
X159305714Y-100632780D02*
X159353333Y-100680400D01*
X159353333Y-100680400D02*
X159448571Y-100728019D01*
X159448571Y-100728019D02*
X159639047Y-100728019D01*
X159639047Y-100728019D02*
X159734285Y-100680400D01*
X159734285Y-100680400D02*
X159781904Y-100632780D01*
X159781904Y-100632780D02*
X159829523Y-100537542D01*
X159829523Y-100537542D02*
X159829523Y-99728019D01*
X160258095Y-99823257D02*
X160305714Y-99775638D01*
X160305714Y-99775638D02*
X160400952Y-99728019D01*
X160400952Y-99728019D02*
X160639047Y-99728019D01*
X160639047Y-99728019D02*
X160734285Y-99775638D01*
X160734285Y-99775638D02*
X160781904Y-99823257D01*
X160781904Y-99823257D02*
X160829523Y-99918495D01*
X160829523Y-99918495D02*
X160829523Y-100013733D01*
X160829523Y-100013733D02*
X160781904Y-100156590D01*
X160781904Y-100156590D02*
X160210476Y-100728019D01*
X160210476Y-100728019D02*
X160829523Y-100728019D01*
X148556742Y-92148819D02*
X148223409Y-91672628D01*
X147985314Y-92148819D02*
X147985314Y-91148819D01*
X147985314Y-91148819D02*
X148366266Y-91148819D01*
X148366266Y-91148819D02*
X148461504Y-91196438D01*
X148461504Y-91196438D02*
X148509123Y-91244057D01*
X148509123Y-91244057D02*
X148556742Y-91339295D01*
X148556742Y-91339295D02*
X148556742Y-91482152D01*
X148556742Y-91482152D02*
X148509123Y-91577390D01*
X148509123Y-91577390D02*
X148461504Y-91625009D01*
X148461504Y-91625009D02*
X148366266Y-91672628D01*
X148366266Y-91672628D02*
X147985314Y-91672628D01*
X149509123Y-92148819D02*
X148937695Y-92148819D01*
X149223409Y-92148819D02*
X149223409Y-91148819D01*
X149223409Y-91148819D02*
X149128171Y-91291676D01*
X149128171Y-91291676D02*
X149032933Y-91386914D01*
X149032933Y-91386914D02*
X148937695Y-91434533D01*
X150366266Y-91148819D02*
X150175790Y-91148819D01*
X150175790Y-91148819D02*
X150080552Y-91196438D01*
X150080552Y-91196438D02*
X150032933Y-91244057D01*
X150032933Y-91244057D02*
X149937695Y-91386914D01*
X149937695Y-91386914D02*
X149890076Y-91577390D01*
X149890076Y-91577390D02*
X149890076Y-91958342D01*
X149890076Y-91958342D02*
X149937695Y-92053580D01*
X149937695Y-92053580D02*
X149985314Y-92101200D01*
X149985314Y-92101200D02*
X150080552Y-92148819D01*
X150080552Y-92148819D02*
X150271028Y-92148819D01*
X150271028Y-92148819D02*
X150366266Y-92101200D01*
X150366266Y-92101200D02*
X150413885Y-92053580D01*
X150413885Y-92053580D02*
X150461504Y-91958342D01*
X150461504Y-91958342D02*
X150461504Y-91720247D01*
X150461504Y-91720247D02*
X150413885Y-91625009D01*
X150413885Y-91625009D02*
X150366266Y-91577390D01*
X150366266Y-91577390D02*
X150271028Y-91529771D01*
X150271028Y-91529771D02*
X150080552Y-91529771D01*
X150080552Y-91529771D02*
X149985314Y-91577390D01*
X149985314Y-91577390D02*
X149937695Y-91625009D01*
X149937695Y-91625009D02*
X149890076Y-91720247D01*
X140530342Y-94790419D02*
X140197009Y-94314228D01*
X139958914Y-94790419D02*
X139958914Y-93790419D01*
X139958914Y-93790419D02*
X140339866Y-93790419D01*
X140339866Y-93790419D02*
X140435104Y-93838038D01*
X140435104Y-93838038D02*
X140482723Y-93885657D01*
X140482723Y-93885657D02*
X140530342Y-93980895D01*
X140530342Y-93980895D02*
X140530342Y-94123752D01*
X140530342Y-94123752D02*
X140482723Y-94218990D01*
X140482723Y-94218990D02*
X140435104Y-94266609D01*
X140435104Y-94266609D02*
X140339866Y-94314228D01*
X140339866Y-94314228D02*
X139958914Y-94314228D01*
X141482723Y-94790419D02*
X140911295Y-94790419D01*
X141197009Y-94790419D02*
X141197009Y-93790419D01*
X141197009Y-93790419D02*
X141101771Y-93933276D01*
X141101771Y-93933276D02*
X141006533Y-94028514D01*
X141006533Y-94028514D02*
X140911295Y-94076133D01*
X141958914Y-94790419D02*
X142149390Y-94790419D01*
X142149390Y-94790419D02*
X142244628Y-94742800D01*
X142244628Y-94742800D02*
X142292247Y-94695180D01*
X142292247Y-94695180D02*
X142387485Y-94552323D01*
X142387485Y-94552323D02*
X142435104Y-94361847D01*
X142435104Y-94361847D02*
X142435104Y-93980895D01*
X142435104Y-93980895D02*
X142387485Y-93885657D01*
X142387485Y-93885657D02*
X142339866Y-93838038D01*
X142339866Y-93838038D02*
X142244628Y-93790419D01*
X142244628Y-93790419D02*
X142054152Y-93790419D01*
X142054152Y-93790419D02*
X141958914Y-93838038D01*
X141958914Y-93838038D02*
X141911295Y-93885657D01*
X141911295Y-93885657D02*
X141863676Y-93980895D01*
X141863676Y-93980895D02*
X141863676Y-94218990D01*
X141863676Y-94218990D02*
X141911295Y-94314228D01*
X141911295Y-94314228D02*
X141958914Y-94361847D01*
X141958914Y-94361847D02*
X142054152Y-94409466D01*
X142054152Y-94409466D02*
X142244628Y-94409466D01*
X142244628Y-94409466D02*
X142339866Y-94361847D01*
X142339866Y-94361847D02*
X142387485Y-94314228D01*
X142387485Y-94314228D02*
X142435104Y-94218990D01*
X144424495Y-78304219D02*
X144424495Y-79113742D01*
X144424495Y-79113742D02*
X144472114Y-79208980D01*
X144472114Y-79208980D02*
X144519733Y-79256600D01*
X144519733Y-79256600D02*
X144614971Y-79304219D01*
X144614971Y-79304219D02*
X144805447Y-79304219D01*
X144805447Y-79304219D02*
X144900685Y-79256600D01*
X144900685Y-79256600D02*
X144948304Y-79208980D01*
X144948304Y-79208980D02*
X144995923Y-79113742D01*
X144995923Y-79113742D02*
X144995923Y-78304219D01*
X145995923Y-79304219D02*
X145424495Y-79304219D01*
X145710209Y-79304219D02*
X145710209Y-78304219D01*
X145710209Y-78304219D02*
X145614971Y-78447076D01*
X145614971Y-78447076D02*
X145519733Y-78542314D01*
X145519733Y-78542314D02*
X145424495Y-78589933D01*
X144475295Y-86300619D02*
X144475295Y-87110142D01*
X144475295Y-87110142D02*
X144522914Y-87205380D01*
X144522914Y-87205380D02*
X144570533Y-87253000D01*
X144570533Y-87253000D02*
X144665771Y-87300619D01*
X144665771Y-87300619D02*
X144856247Y-87300619D01*
X144856247Y-87300619D02*
X144951485Y-87253000D01*
X144951485Y-87253000D02*
X144999104Y-87205380D01*
X144999104Y-87205380D02*
X145046723Y-87110142D01*
X145046723Y-87110142D02*
X145046723Y-86300619D01*
X145427676Y-86300619D02*
X146046723Y-86300619D01*
X146046723Y-86300619D02*
X145713390Y-86681571D01*
X145713390Y-86681571D02*
X145856247Y-86681571D01*
X145856247Y-86681571D02*
X145951485Y-86729190D01*
X145951485Y-86729190D02*
X145999104Y-86776809D01*
X145999104Y-86776809D02*
X146046723Y-86872047D01*
X146046723Y-86872047D02*
X146046723Y-87110142D01*
X146046723Y-87110142D02*
X145999104Y-87205380D01*
X145999104Y-87205380D02*
X145951485Y-87253000D01*
X145951485Y-87253000D02*
X145856247Y-87300619D01*
X145856247Y-87300619D02*
X145570533Y-87300619D01*
X145570533Y-87300619D02*
X145475295Y-87253000D01*
X145475295Y-87253000D02*
X145427676Y-87205380D01*
D12*
%TO.C,H2*%
G36*
X153148164Y-107456200D02*
G01*
X153222228Y-107462229D01*
X153347596Y-107490219D01*
X153479732Y-107535802D01*
X153617613Y-107598153D01*
X153760215Y-107676444D01*
X153906516Y-107769851D01*
X154055492Y-107877547D01*
X154206120Y-107998707D01*
X154357378Y-108132505D01*
X154508243Y-108278114D01*
X154657691Y-108434710D01*
X154804700Y-108601466D01*
X154948247Y-108777556D01*
X155087308Y-108962155D01*
X155220861Y-109154437D01*
X155230344Y-109168716D01*
X155418756Y-109471274D01*
X155588269Y-109780939D01*
X155738519Y-110096814D01*
X155869143Y-110418002D01*
X155979778Y-110743606D01*
X156070063Y-111072729D01*
X156139633Y-111404473D01*
X156143519Y-111426625D01*
X156175170Y-111646019D01*
X156196921Y-111878472D01*
X156208652Y-112118272D01*
X156210241Y-112359706D01*
X156201568Y-112597060D01*
X156182513Y-112824621D01*
X156174462Y-112892416D01*
X156123705Y-113209101D01*
X156052572Y-113526510D01*
X155961724Y-113843052D01*
X155851826Y-114157138D01*
X155723539Y-114467176D01*
X155577526Y-114771578D01*
X155414450Y-115068751D01*
X155234975Y-115357107D01*
X155039762Y-115635054D01*
X155020870Y-115660266D01*
X154876193Y-115844563D01*
X154727173Y-116019603D01*
X154574947Y-116184501D01*
X154420657Y-116338371D01*
X154265440Y-116480328D01*
X154110437Y-116609487D01*
X153956786Y-116724963D01*
X153805628Y-116825869D01*
X153658102Y-116911320D01*
X153515346Y-116980432D01*
X153378501Y-117032318D01*
X153248706Y-117066094D01*
X153201617Y-117073975D01*
X153093400Y-117079083D01*
X152976978Y-117065889D01*
X152853298Y-117035175D01*
X152723306Y-116987725D01*
X152587950Y-116924320D01*
X152448176Y-116845745D01*
X152304931Y-116752782D01*
X152159162Y-116646215D01*
X152011817Y-116526826D01*
X151863842Y-116395398D01*
X151716184Y-116252714D01*
X151569791Y-116099557D01*
X151425608Y-115936711D01*
X151284584Y-115764957D01*
X151147665Y-115585080D01*
X151015798Y-115397862D01*
X150889930Y-115204085D01*
X150838647Y-115120208D01*
X150665126Y-114811755D01*
X150511383Y-114497826D01*
X150377616Y-114179031D01*
X150264025Y-113855982D01*
X150170810Y-113529289D01*
X150098170Y-113199563D01*
X150046305Y-112867414D01*
X150021212Y-112617780D01*
X150017289Y-112549745D01*
X150014466Y-112465443D01*
X150012737Y-112369743D01*
X150012097Y-112267515D01*
X150012240Y-112234264D01*
X150383351Y-112234264D01*
X150384117Y-112317809D01*
X150386915Y-112406134D01*
X150391665Y-112504400D01*
X150391759Y-112506125D01*
X150419610Y-112833390D01*
X150467320Y-113154602D01*
X150530660Y-113453333D01*
X150614475Y-113757439D01*
X150717037Y-114059270D01*
X150837260Y-114356865D01*
X150974055Y-114648260D01*
X151126335Y-114931495D01*
X151293012Y-115204607D01*
X151472998Y-115465633D01*
X151665207Y-115712613D01*
X151868549Y-115943582D01*
X151968183Y-116046576D01*
X152124670Y-116196162D01*
X152277918Y-116328213D01*
X152427339Y-116442354D01*
X152572343Y-116538213D01*
X152712343Y-116615414D01*
X152846750Y-116673584D01*
X152974976Y-116712350D01*
X153033978Y-116723927D01*
X153127870Y-116728970D01*
X153230795Y-116716136D01*
X153341667Y-116686139D01*
X153459400Y-116639693D01*
X153582906Y-116577510D01*
X153711100Y-116500305D01*
X153842895Y-116408791D01*
X153977205Y-116303683D01*
X154112943Y-116185693D01*
X154249023Y-116055536D01*
X154384358Y-115913925D01*
X154517863Y-115761574D01*
X154540808Y-115734041D01*
X154748032Y-115467769D01*
X154939411Y-115189550D01*
X155114220Y-114900890D01*
X155271733Y-114603295D01*
X155411224Y-114298271D01*
X155531967Y-113987324D01*
X155633238Y-113671959D01*
X155714310Y-113353683D01*
X155734856Y-113256506D01*
X155789289Y-112937768D01*
X155823288Y-112623239D01*
X155836892Y-112311748D01*
X155830136Y-112002120D01*
X155803058Y-111693184D01*
X155788080Y-111580083D01*
X155729560Y-111248705D01*
X155650283Y-110921091D01*
X155550386Y-110597612D01*
X155430005Y-110278637D01*
X155289276Y-109964539D01*
X155128335Y-109655688D01*
X155001302Y-109438862D01*
X154880452Y-109250815D01*
X154752975Y-109069280D01*
X154620066Y-108895368D01*
X154482918Y-108730191D01*
X154342724Y-108574859D01*
X154200680Y-108430485D01*
X154057979Y-108298178D01*
X153915813Y-108179052D01*
X153775379Y-108074217D01*
X153637869Y-107984783D01*
X153504476Y-107911864D01*
X153376396Y-107856569D01*
X153264659Y-107822310D01*
X153148164Y-107805015D01*
X153024219Y-107807022D01*
X152893578Y-107828122D01*
X152756992Y-107868104D01*
X152615217Y-107926760D01*
X152469003Y-108003878D01*
X152352723Y-108076471D01*
X152268866Y-108133751D01*
X152193925Y-108188483D01*
X152123585Y-108244272D01*
X152053533Y-108304722D01*
X151979455Y-108373436D01*
X151897036Y-108454019D01*
X151877968Y-108473084D01*
X151681268Y-108684710D01*
X151495809Y-108913141D01*
X151322262Y-109156844D01*
X151161299Y-109414287D01*
X151013589Y-109683936D01*
X150879805Y-109964258D01*
X150760617Y-110253721D01*
X150656696Y-110550792D01*
X150568712Y-110853937D01*
X150497338Y-111161623D01*
X150443244Y-111472317D01*
X150407101Y-111784487D01*
X150402257Y-111844666D01*
X150394071Y-111960701D01*
X150388246Y-112060871D01*
X150384700Y-112150339D01*
X150383351Y-112234264D01*
X150012240Y-112234264D01*
X150012543Y-112163629D01*
X150014069Y-112062956D01*
X150016670Y-111970365D01*
X150020342Y-111890727D01*
X150021949Y-111865833D01*
X150055588Y-111535328D01*
X150109185Y-111205222D01*
X150182093Y-110877104D01*
X150273665Y-110552562D01*
X150383256Y-110233182D01*
X150510219Y-109920552D01*
X150653909Y-109616261D01*
X150813677Y-109321896D01*
X150988880Y-109039044D01*
X151178869Y-108769293D01*
X151382999Y-108514231D01*
X151389146Y-108507043D01*
X151545935Y-108332921D01*
X151705807Y-108172580D01*
X151867746Y-108026646D01*
X152030737Y-107895742D01*
X152193762Y-107780493D01*
X152355806Y-107681524D01*
X152515853Y-107599459D01*
X152672887Y-107534922D01*
X152825891Y-107488539D01*
X152973849Y-107460933D01*
X153104649Y-107452657D01*
X153148164Y-107456200D01*
G37*
G36*
X153248435Y-109885635D02*
G01*
X153342398Y-109890744D01*
X153422920Y-109898626D01*
X153444575Y-109901682D01*
X153668479Y-109946511D01*
X153883921Y-110010016D01*
X153980353Y-110048120D01*
X154089991Y-110091442D01*
X154285781Y-110190034D01*
X154470383Y-110305038D01*
X154642886Y-110435700D01*
X154802381Y-110581264D01*
X154947961Y-110740977D01*
X155078715Y-110914084D01*
X155193734Y-111099830D01*
X155292110Y-111297461D01*
X155371078Y-111500708D01*
X155416627Y-111647117D01*
X155450730Y-111785045D01*
X155474454Y-111921072D01*
X155488865Y-112061781D01*
X155495031Y-112213752D01*
X155495438Y-112268000D01*
X155494029Y-112383554D01*
X155489220Y-112484667D01*
X155480290Y-112577891D01*
X155466516Y-112669781D01*
X155447175Y-112766892D01*
X155434206Y-112823625D01*
X155373399Y-113035254D01*
X155293593Y-113238851D01*
X155195790Y-113433302D01*
X155080996Y-113617493D01*
X154950213Y-113790312D01*
X154804445Y-113950645D01*
X154644697Y-114097379D01*
X154471973Y-114229401D01*
X154287275Y-114345597D01*
X154091608Y-114444855D01*
X153904950Y-114519491D01*
X153741260Y-114571491D01*
X153583418Y-114609716D01*
X153424986Y-114635248D01*
X153259524Y-114649167D01*
X153111200Y-114652674D01*
X152946495Y-114648461D01*
X152794480Y-114635006D01*
X152648312Y-114611217D01*
X152501147Y-114576003D01*
X152359784Y-114532840D01*
X152217269Y-114481478D01*
X152088296Y-114426054D01*
X151965248Y-114363102D01*
X151885735Y-114317046D01*
X151698024Y-114191626D01*
X151524567Y-114051100D01*
X151366067Y-113896525D01*
X151223227Y-113728958D01*
X151096752Y-113549455D01*
X150987344Y-113359072D01*
X150895708Y-113158866D01*
X150872686Y-113093106D01*
X153398788Y-113093106D01*
X153404495Y-113195360D01*
X153413222Y-113240575D01*
X153447597Y-113341725D01*
X153499757Y-113433503D01*
X153567591Y-113513765D01*
X153648989Y-113580362D01*
X153741840Y-113631149D01*
X153825153Y-113659518D01*
X153927929Y-113675468D01*
X154028618Y-113671824D01*
X154125218Y-113650160D01*
X154215727Y-113612051D01*
X154298140Y-113559068D01*
X154370454Y-113492787D01*
X154430667Y-113414779D01*
X154476776Y-113326619D01*
X154506777Y-113229880D01*
X154518667Y-113126136D01*
X154518784Y-113114666D01*
X154508634Y-113009821D01*
X154479352Y-112910628D01*
X154432685Y-112819275D01*
X154370382Y-112737953D01*
X154294192Y-112668850D01*
X154205863Y-112614155D01*
X154107143Y-112576058D01*
X154083776Y-112570021D01*
X153980353Y-112555674D01*
X153880106Y-112560725D01*
X153784755Y-112583454D01*
X153696018Y-112622141D01*
X153615615Y-112675067D01*
X153545265Y-112740512D01*
X153486689Y-112816758D01*
X153441604Y-112902086D01*
X153411730Y-112994774D01*
X153398788Y-113093106D01*
X150872686Y-113093106D01*
X150822547Y-112949893D01*
X150768565Y-112733210D01*
X150746647Y-112606666D01*
X150740373Y-112553576D01*
X150734744Y-112487063D01*
X150729990Y-112412447D01*
X150726342Y-112335051D01*
X150724031Y-112260196D01*
X150723286Y-112193205D01*
X150724340Y-112139398D01*
X150725550Y-112119833D01*
X150755140Y-111885976D01*
X150803606Y-111661209D01*
X150870700Y-111445987D01*
X150956173Y-111240765D01*
X151059777Y-111045997D01*
X151181264Y-110862140D01*
X151320385Y-110689647D01*
X151476892Y-110528974D01*
X151650536Y-110380576D01*
X151693034Y-110348107D01*
X151875797Y-110224536D01*
X152069414Y-110119085D01*
X152273614Y-110031864D01*
X152488128Y-109962984D01*
X152712684Y-109912558D01*
X152777825Y-109901682D01*
X152852929Y-109892927D01*
X152943278Y-109886945D01*
X153043138Y-109883735D01*
X153146769Y-109883299D01*
X153248435Y-109885635D01*
G37*
%TO.C,H1*%
G36*
X153245663Y-68415568D02*
G01*
X153369343Y-68446282D01*
X153499335Y-68493732D01*
X153634691Y-68557137D01*
X153774465Y-68635712D01*
X153917710Y-68728675D01*
X154063479Y-68835242D01*
X154210824Y-68954631D01*
X154358799Y-69086059D01*
X154506457Y-69228743D01*
X154652850Y-69381900D01*
X154797033Y-69544746D01*
X154938057Y-69716500D01*
X155074976Y-69896377D01*
X155206843Y-70083595D01*
X155332711Y-70277372D01*
X155383994Y-70361249D01*
X155557515Y-70669702D01*
X155711258Y-70983631D01*
X155845025Y-71302426D01*
X155958616Y-71625475D01*
X156051831Y-71952168D01*
X156124471Y-72281894D01*
X156176336Y-72614043D01*
X156201429Y-72863677D01*
X156205352Y-72931712D01*
X156208175Y-73016014D01*
X156209904Y-73111714D01*
X156210544Y-73213942D01*
X156210098Y-73317828D01*
X156208572Y-73418501D01*
X156205971Y-73511092D01*
X156202299Y-73590730D01*
X156200692Y-73615624D01*
X156167053Y-73946129D01*
X156113456Y-74276235D01*
X156040548Y-74604353D01*
X155948976Y-74928895D01*
X155839385Y-75248275D01*
X155712422Y-75560905D01*
X155568732Y-75865196D01*
X155408964Y-76159561D01*
X155233761Y-76442413D01*
X155043772Y-76712164D01*
X154839642Y-76967226D01*
X154833495Y-76974414D01*
X154676706Y-77148536D01*
X154516834Y-77308877D01*
X154354895Y-77454811D01*
X154191904Y-77585715D01*
X154028879Y-77700964D01*
X153866835Y-77799933D01*
X153706788Y-77881998D01*
X153549754Y-77946535D01*
X153396750Y-77992918D01*
X153248792Y-78020524D01*
X153117992Y-78028800D01*
X153074477Y-78025257D01*
X153000413Y-78019228D01*
X152875045Y-77991238D01*
X152742909Y-77945655D01*
X152605028Y-77883304D01*
X152462426Y-77805013D01*
X152316125Y-77711606D01*
X152167149Y-77603910D01*
X152016521Y-77482750D01*
X151865263Y-77348952D01*
X151714398Y-77203343D01*
X151564950Y-77046747D01*
X151417941Y-76879991D01*
X151274394Y-76703901D01*
X151135333Y-76519302D01*
X151001780Y-76327020D01*
X150992297Y-76312741D01*
X150803885Y-76010183D01*
X150634372Y-75700518D01*
X150484122Y-75384643D01*
X150353498Y-75063455D01*
X150242863Y-74737851D01*
X150152578Y-74408728D01*
X150083008Y-74076984D01*
X150079122Y-74054832D01*
X150047471Y-73835438D01*
X150025720Y-73602985D01*
X150013989Y-73363185D01*
X150012716Y-73169709D01*
X150385749Y-73169709D01*
X150392505Y-73479337D01*
X150419583Y-73788273D01*
X150434561Y-73901374D01*
X150493081Y-74232752D01*
X150572358Y-74560366D01*
X150672255Y-74883845D01*
X150792636Y-75202820D01*
X150933365Y-75516918D01*
X151094306Y-75825769D01*
X151221339Y-76042595D01*
X151342189Y-76230642D01*
X151469666Y-76412177D01*
X151602575Y-76586089D01*
X151739723Y-76751266D01*
X151879917Y-76906598D01*
X152021961Y-77050972D01*
X152164662Y-77183279D01*
X152306828Y-77302405D01*
X152447262Y-77407240D01*
X152584772Y-77496674D01*
X152718165Y-77569593D01*
X152846245Y-77624888D01*
X152957982Y-77659147D01*
X153074477Y-77676442D01*
X153198422Y-77674435D01*
X153329063Y-77653335D01*
X153465649Y-77613353D01*
X153607424Y-77554697D01*
X153753638Y-77477579D01*
X153869918Y-77404986D01*
X153953775Y-77347706D01*
X154028716Y-77292974D01*
X154099056Y-77237185D01*
X154169108Y-77176735D01*
X154243186Y-77108021D01*
X154325605Y-77027438D01*
X154344673Y-77008373D01*
X154541373Y-76796747D01*
X154726832Y-76568316D01*
X154900379Y-76324613D01*
X155061342Y-76067170D01*
X155209052Y-75797521D01*
X155342836Y-75517199D01*
X155462024Y-75227736D01*
X155565945Y-74930665D01*
X155653929Y-74627520D01*
X155725303Y-74319834D01*
X155779397Y-74009140D01*
X155815540Y-73696970D01*
X155820384Y-73636791D01*
X155828570Y-73520756D01*
X155834395Y-73420586D01*
X155837941Y-73331118D01*
X155839290Y-73247193D01*
X155838524Y-73163648D01*
X155835726Y-73075323D01*
X155830976Y-72977057D01*
X155830882Y-72975332D01*
X155803031Y-72648067D01*
X155755321Y-72326855D01*
X155691981Y-72028124D01*
X155608166Y-71724018D01*
X155505604Y-71422187D01*
X155385381Y-71124592D01*
X155248586Y-70833197D01*
X155096306Y-70549962D01*
X154929629Y-70276850D01*
X154749643Y-70015824D01*
X154557434Y-69768844D01*
X154354092Y-69537875D01*
X154254458Y-69434881D01*
X154097971Y-69285295D01*
X153944723Y-69153244D01*
X153795302Y-69039103D01*
X153650298Y-68943244D01*
X153510298Y-68866043D01*
X153375891Y-68807873D01*
X153247665Y-68769107D01*
X153188663Y-68757530D01*
X153094771Y-68752487D01*
X152991846Y-68765321D01*
X152880974Y-68795318D01*
X152763241Y-68841764D01*
X152639735Y-68903947D01*
X152511541Y-68981152D01*
X152379746Y-69072666D01*
X152245436Y-69177774D01*
X152109698Y-69295764D01*
X151973618Y-69425921D01*
X151838283Y-69567532D01*
X151704778Y-69719883D01*
X151681833Y-69747416D01*
X151474609Y-70013688D01*
X151283230Y-70291907D01*
X151108421Y-70580567D01*
X150950908Y-70878162D01*
X150811417Y-71183186D01*
X150690674Y-71494133D01*
X150589403Y-71809498D01*
X150508331Y-72127774D01*
X150487785Y-72224951D01*
X150433352Y-72543689D01*
X150399353Y-72858218D01*
X150385749Y-73169709D01*
X150012716Y-73169709D01*
X150012400Y-73121751D01*
X150021073Y-72884397D01*
X150040128Y-72656836D01*
X150048179Y-72589041D01*
X150098936Y-72272356D01*
X150170069Y-71954947D01*
X150260917Y-71638405D01*
X150370815Y-71324319D01*
X150499102Y-71014281D01*
X150645115Y-70709879D01*
X150808191Y-70412706D01*
X150987666Y-70124350D01*
X151182879Y-69846403D01*
X151201771Y-69821191D01*
X151346448Y-69636894D01*
X151495468Y-69461854D01*
X151647694Y-69296956D01*
X151801984Y-69143086D01*
X151957201Y-69001129D01*
X152112204Y-68871970D01*
X152265855Y-68756494D01*
X152417013Y-68655588D01*
X152564539Y-68570137D01*
X152707295Y-68501025D01*
X152844140Y-68449139D01*
X152973935Y-68415363D01*
X153021024Y-68407482D01*
X153129241Y-68402374D01*
X153245663Y-68415568D01*
G37*
G36*
X153276146Y-70832996D02*
G01*
X153428161Y-70846451D01*
X153574329Y-70870240D01*
X153721494Y-70905454D01*
X153862857Y-70948617D01*
X154005372Y-70999979D01*
X154134345Y-71055403D01*
X154257393Y-71118355D01*
X154336906Y-71164411D01*
X154524617Y-71289831D01*
X154698074Y-71430357D01*
X154856574Y-71584932D01*
X154999414Y-71752499D01*
X155125889Y-71932002D01*
X155235297Y-72122385D01*
X155326933Y-72322591D01*
X155400094Y-72531564D01*
X155454076Y-72748247D01*
X155475994Y-72874791D01*
X155482268Y-72927881D01*
X155487897Y-72994394D01*
X155492651Y-73069010D01*
X155496299Y-73146406D01*
X155498610Y-73221261D01*
X155499355Y-73288252D01*
X155498301Y-73342059D01*
X155497091Y-73361624D01*
X155467501Y-73595481D01*
X155419035Y-73820248D01*
X155351941Y-74035470D01*
X155266468Y-74240692D01*
X155162864Y-74435460D01*
X155041377Y-74619317D01*
X154902256Y-74791810D01*
X154745749Y-74952483D01*
X154572105Y-75100881D01*
X154529607Y-75133350D01*
X154346844Y-75256921D01*
X154153227Y-75362372D01*
X153949027Y-75449593D01*
X153734513Y-75518473D01*
X153509957Y-75568899D01*
X153444816Y-75579775D01*
X153369712Y-75588530D01*
X153279363Y-75594512D01*
X153179503Y-75597722D01*
X153075872Y-75598158D01*
X152974206Y-75595822D01*
X152880243Y-75590713D01*
X152799721Y-75582831D01*
X152778066Y-75579775D01*
X152554162Y-75534946D01*
X152338720Y-75471441D01*
X152242288Y-75433337D01*
X152132650Y-75390015D01*
X151936860Y-75291423D01*
X151752258Y-75176419D01*
X151579755Y-75045757D01*
X151420260Y-74900193D01*
X151274680Y-74740480D01*
X151143926Y-74567373D01*
X151028907Y-74381627D01*
X150930531Y-74183996D01*
X150851563Y-73980749D01*
X150806014Y-73834340D01*
X150771911Y-73696412D01*
X150748187Y-73560385D01*
X150733776Y-73419676D01*
X150727610Y-73267705D01*
X150727203Y-73213457D01*
X150728612Y-73097903D01*
X150733421Y-72996790D01*
X150742351Y-72903566D01*
X150756125Y-72811676D01*
X150775466Y-72714565D01*
X150788435Y-72657832D01*
X150849242Y-72446203D01*
X150880370Y-72366791D01*
X151703857Y-72366791D01*
X151714007Y-72471636D01*
X151743289Y-72570829D01*
X151789956Y-72662182D01*
X151852259Y-72743504D01*
X151928449Y-72812607D01*
X152016778Y-72867302D01*
X152115498Y-72905399D01*
X152138865Y-72911436D01*
X152242288Y-72925783D01*
X152342535Y-72920732D01*
X152437886Y-72898003D01*
X152526623Y-72859316D01*
X152607026Y-72806390D01*
X152677376Y-72740945D01*
X152735952Y-72664699D01*
X152781037Y-72579371D01*
X152810911Y-72486683D01*
X152823853Y-72388351D01*
X152818146Y-72286097D01*
X152809419Y-72240882D01*
X152775044Y-72139732D01*
X152722884Y-72047954D01*
X152655050Y-71967692D01*
X152573652Y-71901095D01*
X152480801Y-71850308D01*
X152397488Y-71821939D01*
X152294712Y-71805989D01*
X152194023Y-71809633D01*
X152097423Y-71831297D01*
X152006914Y-71869406D01*
X151924501Y-71922389D01*
X151852187Y-71988670D01*
X151791974Y-72066678D01*
X151745865Y-72154838D01*
X151715864Y-72251577D01*
X151703974Y-72355321D01*
X151703857Y-72366791D01*
X150880370Y-72366791D01*
X150929048Y-72242606D01*
X151026851Y-72048155D01*
X151141645Y-71863964D01*
X151272428Y-71691145D01*
X151418196Y-71530812D01*
X151577944Y-71384078D01*
X151750668Y-71252056D01*
X151935366Y-71135860D01*
X152131033Y-71036602D01*
X152317691Y-70961966D01*
X152481381Y-70909966D01*
X152639223Y-70871741D01*
X152797655Y-70846209D01*
X152963117Y-70832290D01*
X153111441Y-70828783D01*
X153276146Y-70832996D01*
G37*
%TO.C,C12*%
D13*
X148995980Y-97788000D02*
X148714820Y-97788000D01*
X148995980Y-98808000D02*
X148714820Y-98808000D01*
%TO.C,U5*%
X143971600Y-104105900D02*
X145791600Y-104105900D01*
X143971600Y-104180900D02*
X143971600Y-104105900D01*
X143971600Y-107225900D02*
X143971600Y-107150900D01*
X145791600Y-104105900D02*
X145791600Y-104180900D01*
X145791600Y-107150900D02*
X145791600Y-107225900D01*
X145791600Y-107225900D02*
X143971600Y-107225900D01*
X143431600Y-104175900D02*
X143191600Y-103845900D01*
X143671600Y-103845900D01*
X143431600Y-104175900D01*
G36*
X143431600Y-104175900D02*
G01*
X143191600Y-103845900D01*
X143671600Y-103845900D01*
X143431600Y-104175900D01*
G37*
%TO.C,R26*%
X141308858Y-106234300D02*
X140834342Y-106234300D01*
X141308858Y-107279300D02*
X140834342Y-107279300D01*
%TO.C,R18*%
X141410458Y-97775500D02*
X140935942Y-97775500D01*
X141410458Y-98820500D02*
X140935942Y-98820500D01*
%TO.C,R11*%
X141599058Y-87513900D02*
X141124542Y-87513900D01*
X141599058Y-88558900D02*
X141124542Y-88558900D01*
%TO.C,R24*%
X149093458Y-96251500D02*
X148618942Y-96251500D01*
X149093458Y-97296500D02*
X148618942Y-97296500D01*
%TO.C,C22*%
X169582220Y-86916800D02*
X169863380Y-86916800D01*
X169582220Y-87936800D02*
X169863380Y-87936800D01*
%TO.C,C16*%
X148882980Y-106145200D02*
X148601820Y-106145200D01*
X148882980Y-107165200D02*
X148601820Y-107165200D01*
%TO.C,R41*%
X166658058Y-99502700D02*
X166183542Y-99502700D01*
X166658058Y-100547700D02*
X166183542Y-100547700D01*
%TO.C,U8*%
X159059200Y-78246800D02*
X160879200Y-78246800D01*
X159059200Y-78296800D02*
X159059200Y-78246800D01*
X159059200Y-80196800D02*
X159059200Y-79416800D01*
X159059200Y-81366800D02*
X159059200Y-81316800D01*
X160879200Y-78246800D02*
X160879200Y-78296800D01*
X160879200Y-81316800D02*
X160879200Y-81366800D01*
X160879200Y-81366800D02*
X159059200Y-81366800D01*
X161419200Y-81316800D02*
X161659200Y-81646800D01*
X161179200Y-81646800D01*
X161419200Y-81316800D01*
G36*
X161659200Y-81646800D02*
G01*
X161179200Y-81646800D01*
X161419200Y-81316800D01*
X161659200Y-81646800D01*
G37*
%TO.C,R38*%
X166183542Y-102550700D02*
X166658058Y-102550700D01*
X166183542Y-103595700D02*
X166658058Y-103595700D01*
%TO.C,C28*%
X161847620Y-83310000D02*
X162128780Y-83310000D01*
X161847620Y-84330000D02*
X162128780Y-84330000D01*
%TO.C,C24*%
X168109020Y-91996800D02*
X168390180Y-91996800D01*
X168109020Y-93016800D02*
X168390180Y-93016800D01*
%TO.C,R32*%
X148980458Y-104608700D02*
X148505942Y-104608700D01*
X148980458Y-105653700D02*
X148505942Y-105653700D01*
%TO.C,R27*%
X141308858Y-103846700D02*
X140834342Y-103846700D01*
X141308858Y-104891700D02*
X140834342Y-104891700D01*
%TO.C,U7*%
X158067700Y-90326800D02*
X158117700Y-90326800D01*
X158067700Y-92146800D02*
X158067700Y-90326800D01*
X158117700Y-92146800D02*
X158067700Y-92146800D01*
X160017700Y-92146800D02*
X159237700Y-92146800D01*
X161137700Y-90326800D02*
X161187700Y-90326800D01*
X161187700Y-90326800D02*
X161187700Y-92146800D01*
X161187700Y-92146800D02*
X161137700Y-92146800D01*
X161137700Y-89786800D02*
X161467700Y-89546800D01*
X161467700Y-90026800D01*
X161137700Y-89786800D01*
G36*
X161467700Y-90026800D02*
G01*
X161137700Y-89786800D01*
X161467700Y-89546800D01*
X161467700Y-90026800D01*
G37*
%TO.C,C33*%
X161352620Y-93571600D02*
X161633780Y-93571600D01*
X161352620Y-94591600D02*
X161633780Y-94591600D01*
%TO.C,R10*%
X141599058Y-89901500D02*
X141124542Y-89901500D01*
X141599058Y-90946500D02*
X141124542Y-90946500D01*
%TO.C,L1*%
X163813000Y-87247200D02*
X167813000Y-87247200D01*
X167813000Y-91467200D02*
X163813000Y-91467200D01*
%TO.C,FB1*%
X166926800Y-84927221D02*
X166926800Y-85252779D01*
X167946800Y-84927221D02*
X167946800Y-85252779D01*
%TO.C,R37*%
X166183542Y-104074700D02*
X166658058Y-104074700D01*
X166183542Y-105119700D02*
X166658058Y-105119700D01*
%TO.C,R3*%
X141676658Y-81773500D02*
X141202142Y-81773500D01*
X141676658Y-82818500D02*
X141202142Y-82818500D01*
%TO.C,R40*%
X165136300Y-97501942D02*
X165136300Y-97976458D01*
X166181300Y-97501942D02*
X166181300Y-97976458D01*
%TO.C,C35*%
X161352620Y-95095600D02*
X161633780Y-95095600D01*
X161352620Y-96115600D02*
X161633780Y-96115600D01*
%TO.C,J6*%
X168393600Y-105410000D02*
X168393600Y-95140000D01*
X171153600Y-95140000D02*
X168393600Y-95140000D01*
X171153600Y-105410000D02*
X168393600Y-105410000D01*
X171153600Y-105410000D02*
X171153600Y-95140000D01*
X171153600Y-106680000D02*
X171153600Y-108060000D01*
X171153600Y-108060000D02*
X169773600Y-108060000D01*
%TO.C,R8*%
X149436858Y-80452700D02*
X148962342Y-80452700D01*
X149436858Y-81497700D02*
X148962342Y-81497700D01*
%TO.C,C21*%
X169582220Y-88440800D02*
X169863380Y-88440800D01*
X169582220Y-89460800D02*
X169863380Y-89460800D01*
%TO.C,U4*%
X144174800Y-95647100D02*
X145994800Y-95647100D01*
X144174800Y-95722100D02*
X144174800Y-95647100D01*
X144174800Y-98767100D02*
X144174800Y-98692100D01*
X145994800Y-95647100D02*
X145994800Y-95722100D01*
X145994800Y-98692100D02*
X145994800Y-98767100D01*
X145994800Y-98767100D02*
X144174800Y-98767100D01*
X143634800Y-95717100D02*
X143394800Y-95387100D01*
X143874800Y-95387100D01*
X143634800Y-95717100D01*
G36*
X143634800Y-95717100D02*
G01*
X143394800Y-95387100D01*
X143874800Y-95387100D01*
X143634800Y-95717100D01*
G37*
%TO.C,C23*%
X169582220Y-85392800D02*
X169863380Y-85392800D01*
X169582220Y-86412800D02*
X169863380Y-86412800D01*
%TO.C,R1*%
X141664458Y-79436700D02*
X141189942Y-79436700D01*
X141664458Y-80481700D02*
X141189942Y-80481700D01*
%TO.C,R36*%
X166183542Y-105598700D02*
X166658058Y-105598700D01*
X166183542Y-106643700D02*
X166658058Y-106643700D01*
%TO.C,R39*%
X166658058Y-101026700D02*
X166183542Y-101026700D01*
X166658058Y-102071700D02*
X166183542Y-102071700D01*
%TO.C,C29*%
X161847620Y-81786000D02*
X162128780Y-81786000D01*
X161847620Y-82806000D02*
X162128780Y-82806000D01*
%TO.C,U6*%
X168994232Y-89831600D02*
X170129800Y-89831600D01*
X170129800Y-91701600D02*
X168709800Y-91701600D01*
X168699800Y-89826600D02*
X168559800Y-89636600D01*
X168839800Y-89636600D01*
X168699800Y-89826600D01*
G36*
X168699800Y-89826600D02*
G01*
X168559800Y-89636600D01*
X168839800Y-89636600D01*
X168699800Y-89826600D01*
G37*
%TO.C,C4*%
X149340180Y-81989200D02*
X149059020Y-81989200D01*
X149340180Y-83009200D02*
X149059020Y-83009200D01*
%TO.C,C8*%
X149324780Y-89812400D02*
X149043620Y-89812400D01*
X149324780Y-90832400D02*
X149043620Y-90832400D01*
%TO.C,U2*%
X158410000Y-101463200D02*
X158860000Y-101463200D01*
X158410000Y-101913200D02*
X158410000Y-101463200D01*
X158410000Y-104683200D02*
X158410000Y-104233200D01*
X158860000Y-104683200D02*
X158410000Y-104683200D01*
X161180000Y-101463200D02*
X161630000Y-101463200D01*
X161630000Y-101463200D02*
X161630000Y-101913200D01*
X161630000Y-104233200D02*
X161630000Y-104683200D01*
X161630000Y-104683200D02*
X161180000Y-104683200D01*
X157900000Y-102273200D02*
X157570000Y-102513200D01*
X157570000Y-102033200D01*
X157900000Y-102273200D01*
G36*
X157900000Y-102273200D02*
G01*
X157570000Y-102513200D01*
X157570000Y-102033200D01*
X157900000Y-102273200D01*
G37*
%TO.C,R16*%
X149422258Y-88275900D02*
X148947742Y-88275900D01*
X149422258Y-89320900D02*
X148947742Y-89320900D01*
%TO.C,R19*%
X141410458Y-95337100D02*
X140935942Y-95337100D01*
X141410458Y-96382100D02*
X140935942Y-96382100D01*
%TO.C,U1*%
X144276400Y-79689400D02*
X146096400Y-79689400D01*
X144276400Y-79764400D02*
X144276400Y-79689400D01*
X144276400Y-82809400D02*
X144276400Y-82734400D01*
X146096400Y-79689400D02*
X146096400Y-79764400D01*
X146096400Y-82734400D02*
X146096400Y-82809400D01*
X146096400Y-82809400D02*
X144276400Y-82809400D01*
X143736400Y-79759400D02*
X143496400Y-79429400D01*
X143976400Y-79429400D01*
X143736400Y-79759400D01*
G36*
X143736400Y-79759400D02*
G01*
X143496400Y-79429400D01*
X143976400Y-79429400D01*
X143736400Y-79759400D01*
G37*
%TO.C,U3*%
X144327200Y-87685800D02*
X146147200Y-87685800D01*
X144327200Y-87760800D02*
X144327200Y-87685800D01*
X144327200Y-90805800D02*
X144327200Y-90730800D01*
X146147200Y-87685800D02*
X146147200Y-87760800D01*
X146147200Y-90730800D02*
X146147200Y-90805800D01*
X146147200Y-90805800D02*
X144327200Y-90805800D01*
X143787200Y-87755800D02*
X143547200Y-87425800D01*
X144027200Y-87425800D01*
X143787200Y-87755800D01*
G36*
X143787200Y-87755800D02*
G01*
X143547200Y-87425800D01*
X144027200Y-87425800D01*
X143787200Y-87755800D01*
G37*
%TD*%
M02*
